<?xml version="1.0" encoding="utf-8"?>
<!-- Generator: Adobe Illustrator 16.0.3, SVG Export Plug-In . SVG Version: 6.00 Build 0)  -->
<!DOCTYPE svg PUBLIC "-//W3C//DTD SVG 1.1//EN" "http://www.w3.org/Graphics/SVG/1.1/DTD/svg11.dtd">
<svg version="1.1" id="Layer_1" xmlns="http://www.w3.org/2000/svg" xmlns:xlink="http://www.w3.org/1999/xlink" x="0px" y="0px"
	 width="256px" height="256px" viewBox="0 0 256 256" enable-background="new 0 0 256 256" xml:space="preserve">
<g>
	<defs>
		<rect id="SVGID_1_" width="256" height="256"/>
	</defs>
	<clipPath id="SVGID_2_">
		<use xlink:href="#SVGID_1_"  overflow="visible"/>
	</clipPath>
	<path clip-path="url(#SVGID_2_)" fill="#FFFFFF" d="M151.803,203.577c-12.85-12.847-25.108-10.759-25.108-10.759
		c-15.258,2.172-31.314-2.611-43.045-14.347c-13.271-13.272-17.603-32.05-13.101-48.973l37.114,37.105l26.201-9.658l9.667-26.208
		l-37.11-37.107c16.919-4.506,35.705-0.18,48.976,13.095c11.735,11.736,16.519,27.792,14.347,43.05c0,0-1.545,12.794,10.76,25.099
		l22.131,22.133c8.465-13.47,13.378-29.396,13.378-46.482c0-48.324-39.176-87.5-87.5-87.5s-87.5,39.176-87.5,87.5
		c0,48.325,39.176,87.5,87.5,87.5c16.532,0,31.992-4.587,45.182-12.556L151.803,203.577z"/>
</g>
</svg>
