<?xml version="1.0" encoding="utf-8"?>
<!-- Generator: Adobe Illustrator 22.1.0, SVG Export Plug-In . SVG Version: 6.00 Build 0)  -->
<svg version="1.1" id="Layer_1" xmlns="http://www.w3.org/2000/svg" xmlns:xlink="http://www.w3.org/1999/xlink" x="0px" y="0px"
	 viewBox="0 0 376.5 89.25" style="enable-background:new 0 0 376.5 89.25;" xml:space="preserve">
<style type="text/css">
	.st0{fill:#182224;}
</style>
<g>
	<path class="st0" d="M312.509,18.148c11.353,10.552,22.384,20.804,33.995,31.595c0-10.53,0-20.44,0-30.508c3.381,0,6.311,0,9.488,0
		c0,16.805,0,33.51,0,51.234c-11.559-10.403-22.572-20.316-34.123-30.712c0,10.324,0,19.867,0,29.689c-3.201,0-6.124,0-9.36,0
		C312.509,52.604,312.509,35.707,312.509,18.148z"/>
	<path class="st0" d="M271.987,70.712c-15.278-0.047-26.159-10.952-26.171-26.227c-0.012-15.323,11.193-26.44,26.538-26.33
		c15.093,0.109,26.088,11.318,25.999,26.506C298.263,59.883,287.255,70.759,271.987,70.712z M288.699,44.285
		c-0.098-9.316-7.947-17.274-16.87-17.103c-9.005,0.172-16.554,8.241-16.424,17.552c0.132,9.364,7.858,17.182,16.873,17.073
		C281.258,61.698,288.798,53.653,288.699,44.285z"/>
	<path class="st0" d="M210.847,69.446c0-13.885,0-27.69,0-41.731c-6.38,0-12.358,0-18.632,0c0-2.887,0-5.593,0-8.479
		c15.559,0,31.112,0,46.87,0c0,2.68,0,5.435,0,8.479c-6.062,0-12.103,0-18.437,0c0,14.176,0,27.751,0,41.731
		C217.41,69.446,214.472,69.446,210.847,69.446z"/>
	<path class="st0" d="M170.499,51.351c1.803-3.541,3.44-6.755,5.407-10.618c4.973,9.765,9.723,19.017,14.662,28.713
		c-3.79,0-7.093,0-10.79,0C176.791,63.597,173.685,57.59,170.499,51.351z"/>
	<path class="st0" d="M156.579,19.235c3.781,0,6.98,0,10.833,0c-8.685,17.078-17.167,33.567-25.631,50.211c-3.63,0-6.964,0-10.833,0
		C139.593,52.446,148.086,35.936,156.579,19.235z"/>
	<path class="st0" d="M74.398,19.235c6.289,0,25.082-0.136,28.187,0c2.244,0.098,4.443,0.338,6.582,1.07
		c8.358,2.858,12.657,12.56,11.499,20.957c-0.361,2.615-1.313,5.115-2.742,7.331c-1.585,2.458-3.677,4.23-5.872,6.111
		c2.454,4.867,4.852,9.618,7.436,14.742c-3.726,0-7.106,0-10.737,0c-2.141-4.136-4.366-8.433-6.661-12.867
		c-5.982,0-11.832,0-18.141,0c0,4.338,0,8.466,0,12.867c-3.306,0-6.329,0-9.552,0C74.398,52.85,74.398,36.242,74.398,19.235z
		 M101.154,47.972c3.253-0.137,6.425-1.562,8.317-4.278c1.816-2.607,2.245-6.075,1.235-9.074c-1.036-3.076-3.532-5.518-6.682-6.364
		c-1.592-0.427-3.305-0.479-4.943-0.542c-1.839-0.071-11.928,0-15.132,0c0,6.729,0,13.456,0,20.258"/>
	<path class="st0" d="M40.986,27.714c0,14.225,0,27.75,0,41.731c-3.219,0-6.151,0-9.515,0c0-13.625,0-27.508,0-41.731
		c-6.454,0-12.499,0-18.783,0c0-2.988,0-5.602,0-8.479c15.488,0,31.021,0,46.839,0c0,2.604,0,5.567,0,8.479
		C53.474,27.714,47.51,27.714,40.986,27.714z"/>
</g>
</svg>
