<?xml version="1.0" encoding="utf-8"?>
<!-- Generator: Adobe Illustrator 21.1.0, SVG Export Plug-In . SVG Version: 6.00 Build 0)  -->
<svg version="1.1" id="Layer_1" xmlns="http://www.w3.org/2000/svg" xmlns:xlink="http://www.w3.org/1999/xlink" x="0px" y="0px"
	 viewBox="0 0 376.5 89.3" style="enable-background:new 0 0 376.5 89.3;" xml:space="preserve">
<style type="text/css">
	.st0{fill:#182224;}
</style>
<g>
	<path class="st0" d="M312.5,18.1c11.4,10.6,22.4,20.8,34,31.6c0-10.5,0-20.4,0-30.5c3.4,0,6.3,0,9.5,0c0,16.8,0,33.5,0,51.2
		c-11.6-10.4-22.6-20.3-34.1-30.7c0,10.3,0,19.9,0,29.7c-3.2,0-6.1,0-9.4,0C312.5,52.6,312.5,35.7,312.5,18.1z"/>
	<path class="st0" d="M272,70.7c-15.3,0-26.2-11-26.2-26.2c0-15.3,11.2-26.4,26.5-26.3c15.1,0.1,26.1,11.3,26,26.5
		C298.3,59.9,287.3,70.8,272,70.7z M288.7,44.3c-0.1-9.3-7.9-17.3-16.9-17.1c-9,0.2-16.6,8.2-16.4,17.6c0.1,9.4,7.9,17.2,16.9,17.1
		C281.3,61.7,288.8,53.7,288.7,44.3z"/>
	<path class="st0" d="M210.8,69.4c0-13.9,0-27.7,0-41.7c-6.4,0-12.4,0-18.6,0c0-2.9,0-5.6,0-8.5c15.6,0,31.1,0,46.9,0
		c0,2.7,0,5.4,0,8.5c-6.1,0-12.1,0-18.4,0c0,14.2,0,27.8,0,41.7C217.4,69.4,214.5,69.4,210.8,69.4z"/>
	<path class="st0" d="M170.5,51.4c1.8-3.5,3.4-6.8,5.4-10.6c5,9.8,9.7,19,14.7,28.7c-3.8,0-7.1,0-10.8,0
		C176.8,63.6,173.7,57.6,170.5,51.4z"/>
	<path class="st0" d="M156.6,19.2c3.8,0,7,0,10.8,0c-8.7,17.1-17.2,33.6-25.6,50.2c-3.6,0-7,0-10.8,0
		C139.6,52.4,148.1,35.9,156.6,19.2z"/>
	<path class="st0" d="M74.4,19.2c6.3,0,25.1-0.1,28.2,0c2.2,0.1,4.4,0.3,6.6,1.1c8.4,2.9,12.7,12.6,11.5,21
		c-0.4,2.6-1.3,5.1-2.7,7.3c-1.6,2.5-3.7,4.2-5.9,6.1c2.5,4.9,4.9,9.6,7.4,14.7c-3.7,0-7.1,0-10.7,0c-2.1-4.1-4.4-8.4-6.7-12.9
		c-6,0-11.8,0-18.1,0c0,4.3,0,8.5,0,12.9c-3.3,0-6.3,0-9.6,0C74.4,52.8,74.4,36.2,74.4,19.2z M101.2,48c3.3-0.1,6.4-1.6,8.3-4.3
		c1.8-2.6,2.2-6.1,1.2-9.1c-1-3.1-3.5-5.5-6.7-6.4c-1.6-0.4-3.3-0.5-4.9-0.5c-1.8-0.1-11.9,0-15.1,0c0,6.7,0,13.5,0,20.3"/>
	<path class="st0" d="M41,27.7c0,14.2,0,27.8,0,41.7c-3.2,0-6.2,0-9.5,0c0-13.6,0-27.5,0-41.7c-6.5,0-12.5,0-18.8,0c0-3,0-5.6,0-8.5
		c15.5,0,31,0,46.8,0c0,2.6,0,5.6,0,8.5C53.5,27.7,47.5,27.7,41,27.7z"/>
</g>
</svg>
