  <svg class="icon-grey-dark" style="fill: #4c5356;" viewBox="0 0 146 38" xmlns="http://www.w3.org/2000/svg">
    <path d="M139.86 37.78c-1.1 0-2.2-.1-3.17-.36l.1-2.65c.8.28 2.1.52 3.2.52 1.5 0 2.7-.6 2.7-2 0-2.9-6.5-1.6-6.5-6.4 0-2.7 2.1-4.5 5.9-4.5.8 0 1.9.1 2.8.2l-.2 2.5c-.9-.3-1.9-.4-2.8-.4-1.78 0-2.6.7-2.6 1.8 0 2.6 6.5 1.7 6.5 6.3 0 2.8-2.38 4.8-6.2 4.8zm-13.98-.5c-4.83 0-5.9-2.52-5.9-5.3v-9.52h2.93v9.35c0 1.9.7 3.2 3.2 3.2 2.3 0 3.2-.9 3.2-3.4v-9.1h3v8.9c0 4-2.3 5.9-6.3 5.9zm-16.34-6.65c-.23 0-1 0-1.32.02v3.98c.37.04.95.08 1.64.08 1.97 0 2.96-.8 2.96-2.1 0-1.4-1.32-1.9-3.28-1.9zm.33-6.13c-.58 0-1.15.03-1.65.05v4c.35.04.7.04 1.15.04 1.94 0 2.94-.9 2.94-2.2 0-1.2-.6-1.9-2.4-1.9zm-.2 12.77h-4.5v-14.7c1.3-.06 3.3-.1 5.2-.1 3.36 0 5.2 1.28 5.2 3.63 0 1.46-.97 2.74-2.44 3.3v.03c1.84.37 2.75 1.8 2.75 3.3 0 2.13-1.53 4.54-6.2 4.54zm-24.15-13.8c-.76 0-1.3.53-1.3 1.32 0 .5.32 1.2 1.17 2.2.8-.8 1.3-1.5 1.3-2.4 0-.7-.4-1.3-1.3-1.3zm-.3 7.16c-1.07.86-1.5 1.63-1.5 2.4 0 1.14.93 2.2 2.5 2.2 1.28 0 2.34-.48 3.12-1.04-1.47-1.2-3.14-2.6-4.13-3.6zm8.94 7.15c-.98-.67-2.2-1.54-2.97-2.14-1.4 1.07-3.3 1.88-5.7 1.88-3.4 0-4.9-1.96-4.9-4.25 0-1.86 1.1-3.2 2.7-4.46-1.3-1.5-1.9-2.5-1.9-3.8 0-1.9 1.5-3.5 4.3-3.5 2.5 0 3.8 1.3 3.8 3.2 0 1.5-.8 2.8-2.58 4.2 1.02 1.1 2.52 2.4 3.9 3.5.9-1.3 1.36-3 1.3-4.73H95c.05 2.24-.64 4.5-1.96 6.2.94.7 2.04 1.5 2.82 2l-1.8 2.1zm-25.04-.5l-4.9-7.13v7.12h-2.96v-14.8h2.95v6.7l5-6.7h3.6l-5.6 7.14 5.8 7.7h-3.8zm-15.78.5c-5.2 0-6.9-3.5-6.9-7.23 0-4.75 2.5-8.1 7.47-8.1 1.1 0 2.2.14 3.2.4l-.3 2.64c-.9-.3-2-.5-3-.5-2.8 0-4.1 2.1-4.1 5 0 3.2 1.4 5.1 4.4 5.1.9 0 2.1-.3 2.9-.7l.3 2.6c-1.1.4-2.4.6-3.8.6zm-17.3-.5c-4.83 0-5.92-2.52-5.92-5.3v-9.52h2.94v9.35c0 1.9.64 3.2 3.17 3.2 2.27 0 3.22-.9 3.22-3.4v-9.1h2.92v8.9c0 4-2.3 5.9-6.34 5.9zM20.08 24.5c-.46 0-.9.03-1.2.07v4.48c.2.02.63.05 1.1.05 1.84 0 2.97-.92 2.97-2.37 0-1.5-.94-2.23-2.88-2.23zm2.88 12.77l-4.16-6.1h-.12v6.1H15.8V22.55c1.18-.07 2.57-.1 4.3-.1 3.3 0 5.43 1.14 5.43 4.15 0 2.18-1.55 3.75-3.8 4.1l1.2 1.6 3.6 4.97h-3.57zM7.83 24.9v12.37h-2.9V24.9h-3.9v-2.44h10.7v2.43h-3.9zM142 14.8l-4.22-7.36c-.7-1.2-1.4-2.46-1.87-3.43.1 1.5.1 3.3.1 5.7v5.2h-2.7V0h3.6l4.1 6.95c.8 1.36 1.46 2.6 2.06 3.73-.05-1.9-.1-4-.1-6.23V0h2.77v14.8H142zm-21 0V0h8.15v2.4h-5.27v3.63h5v2.33h-5v4h5.27v2.44H121zm-5.12-11.5c-1.2-.46-2.6-.74-4-.74-2.96 0-5.1 1.85-5.1 5.17 0 3.16 1.74 5 4.8 5 .7 0 1.33-.08 1.9-.26V7.3h2.9v7.1c-1.48.58-3.34.9-5.14.9-4.78 0-7.6-2.67-7.6-7.3 0-4.67 3.2-8 8.42-8 1.5 0 2.97.26 4.26.64l-.44 2.67zM92.9 9.7H97l-1.23-3.57c-.35-1-.56-1.7-.84-2.56-.26.86-.47 1.68-.84 2.7L92.9 9.7zm5.55 5.1l-1.04-3.02h-5.6l-1.1 3.02h-2.9L93.1 0h3.24l5.33 14.8h-3.2zM84.93 0h2.87L84 14.8h-3.5l-2.14-8.07c-.3-1.07-.36-1.47-.6-2.56-.24 1-.37 1.53-.64 2.52L75 14.8h-3.3L67.9 0h3.02l2 8.03c.23.96.36 1.62.58 2.67.27-1.03.4-1.62.7-2.63L76.4 0h3.02l2.25 8.07c.3 1 .4 1.47.66 2.55.27-1.06.38-1.45.62-2.48L84.93 0zm-25.4 15.3c-1.05 0-2.1-.1-3-.34l.17-2.66c.83.3 2 .53 3.07.53 1.44 0 2.6-.6 2.6-1.95 0-2.84-6.22-1.6-6.22-6.42 0-2.64 2.07-4.46 5.6-4.46.83 0 1.8.1 2.66.26l-.1 2.5c-.8-.23-1.7-.4-2.6-.4-1.6 0-2.5.76-2.5 1.82 0 2.65 6.2 1.7 6.2 6.3 0 2.8-2.2 4.83-5.8 4.83zm-8.6-.5L46.2 7.7v7.1h-2.8V0h2.8v6.7L50.98 0h3.42l-5.36 7.15 5.6 7.65h-3.7zm-18.77 0V0H35v12.3h4.82v2.5h-7.66zM21.7 2.55c-2 0-3.83 1.64-3.83 5 0 3.16 1.2 5.2 3.77 5.2 1.88 0 3.88-1.5 3.88-5.07 0-3.3-1.36-5.13-3.83-5.13zm-.25 12.76c-4.45 0-6.65-2.8-6.65-7.4C14.8 3 18.03.1 21.94.1c3.9 0 6.65 2.38 6.65 7.46 0 4.9-3.2 7.85-7.2 7.85zM10.83 0h2.95L8.54 14.8H5.22L0 0h3.1l2.86 8.42c.35 1.03.6 1.84.98 2.98.4-1.25.57-1.82 1.02-3.1L10.83 0z"></path>
    <title>Volkswagen</title>
  </svg>