<?xml version="1.0" encoding="UTF-8" standalone="no"?>
<!-- Created with Inkscape (http://www.inkscape.org/) -->
<svg
   xmlns:dc="http://purl.org/dc/elements/1.1/"
   xmlns:cc="http://web.resource.org/cc/"
   xmlns:rdf="http://www.w3.org/1999/02/22-rdf-syntax-ns#"
   xmlns:svg="http://www.w3.org/2000/svg"
   xmlns="http://www.w3.org/2000/svg"
   xmlns:sodipodi="http://sodipodi.sourceforge.net/DTD/sodipodi-0.dtd"
   xmlns:inkscape="http://www.inkscape.org/namespaces/inkscape"
   version="1.0"
   width="104.89"
   height="22.299999"
   id="svg2"
   sodipodi:version="0.32"
   inkscape:version="0.45.1"
   sodipodi:docname="Volkswagen_Group.svg"
   inkscape:output_extension="org.inkscape.output.svg.inkscape"
   sodipodi:docbase="C:\Documents and Settings\Home User\Desktop">
  <metadata
     id="metadata9">
    <rdf:RDF>
      <cc:Work
         rdf:about="">
        <dc:format>image/svg+xml</dc:format>
        <dc:type
           rdf:resource="http://purl.org/dc/dcmitype/StillImage" />
      </cc:Work>
    </rdf:RDF>
  </metadata>
  <sodipodi:namedview
     inkscape:window-height="712"
     inkscape:window-width="1024"
     inkscape:pageshadow="2"
     inkscape:pageopacity="0.0"
     guidetolerance="10.0"
     gridtolerance="10.0"
     objecttolerance="10.0"
     borderopacity="1.0"
     bordercolor="#666666"
     pagecolor="#ffffff"
     id="base"
     height="22.3px"
     width="104.89px"
     inkscape:zoom="8.0954431"
     inkscape:cx="51.794591"
     inkscape:cy="19.638892"
     inkscape:window-x="-4"
     inkscape:window-y="-4"
     inkscape:current-layer="svg2" />
  <defs
     id="defs4" />
  <g
     transform="matrix(9.6793484e-2,0,0,9.6793484e-2,29.235591,-36.665483)"
     id="layer1">
    <g
       transform="translate(35.444763,35.437134)"
       id="g3676">
      <path
         d="M -164,348.46875 C -193.01127,348.46875 -216.875,369.95353 -216.875,405.6875 C -216.875,439.18512 -200.70103,460.1875 -167.6875,460.1875 C -138.36259,460.1875 -114.78125,438.54649 -114.78125,402.8125 C -114.78125,365.78989 -135.15917,348.46876 -164,348.46875 z M 126.21875,348.46875 C 100.26201,348.46875 85.0625,361.76596 85.0625,381 C 85.0625,416.25671 130.71875,407.13302 130.71875,427.8125 C 130.71875,437.74656 122.23122,442.06251 111.65625,442.0625 C 103.80173,442.0625 95.157938,440.3051 89.0625,438.21875 L 87.78125,457.59375 C 94.517593,459.35966 102.18411,460.1875 109.875,460.1875 C 136.47946,460.1875 152.6875,445.26528 152.6875,424.90625 C 152.6875,391.41545 106.84375,398.29709 106.84375,378.90625 C 106.84375,371.21537 113.26765,365.78126 125.28125,365.78125 C 131.85396,365.78125 138.56763,366.89034 144.65625,368.65625 L 145.78125,350.40625 C 139.37217,349.28125 132.31419,348.46876 126.21875,348.46875 z M 492.4375,348.625 C 454.93762,348.625 431.84376,372.83762 431.84375,406.8125 C 431.84375,439.82603 452.20466,460.00001 486.5,460 C 499.48178,460 512.79262,457.61078 523.53125,453.28125 L 523.53125,401.6875 L 502.6875,401.6875 L 502.6875,439.34375 C 498.52842,440.62557 494.03353,441.24999 488.90625,441.25 C 466.95178,441.25 454.43749,427.79083 454.4375,404.875 C 454.4375,380.67735 469.84268,367.21877 491.15625,367.21875 C 501.25394,367.21875 511.16026,369.28808 519.8125,372.65625 L 523.03125,353.28125 C 513.73128,350.55399 503.17612,348.625 492.4375,348.625 z M -326,350.21875 L -288.34375,458.40625 L -264.46875,458.40625 L -226.65625,350.21875 L -247.96875,350.21875 L -269.28125,412.25 C -272.48579,421.37952 -274.24148,427.4733 -275.84375,434.84375 L -276.1875,434.84375 C -278.11022,426.98922 -280.51422,419.61985 -282.59375,413.53125 L -303.5625,350.21875 L -326,350.21875 z M -89.3125,350.21875 L -89.3125,458.40625 L -33.375,458.40625 L -33.375,440.125 L -68.46875,440.125 L -68.46875,350.21875 L -89.3125,350.21875 z M -10.9375,350.21875 L -10.9375,458.40625 L 9.875,458.40625 L 9.875,406.46875 L 44.8125,458.40625 L 72.0625,458.40625 L 30.71875,402.46875 L 70.3125,350.21875 L 44.96875,350.21875 L 9.875,399.28125 L 9.875,350.21875 L -10.9375,350.21875 z M 169.03125,350.21875 L 196.59375,458.40625 L 220.625,458.40625 L 236.3125,398.3125 C 238.24204,391.1057 239.69547,383.87781 240.5,376.34375 L 240.65625,376.34375 C 241.78124,384.04145 243.05341,391.8881 244.8125,398.78125 L 260.53125,458.40625 L 286,458.40625 L 313.5625,350.21875 L 292.75,350.21875 L 278,410.65625 C 276.39773,417.06532 274.96192,423.9347 273.84375,431.46875 L 273.65625,431.46875 C 272.69489,423.93469 270.94601,416.24429 269.34375,410.3125 L 252.65625,350.21875 L 230.71875,350.21875 L 214.21875,410.65625 C 212.29603,417.54941 211,424.9182 209.875,432.125 L 209.71875,432.125 C 208.75739,424.59093 207.48466,417.04999 205.71875,410 L 190.96875,350.21875 L 169.03125,350.21875 z M 356.53125,350.21875 L 318.71875,458.40625 L 339.6875,458.40625 L 347.21875,436.28125 L 388.40625,436.28125 L 395.9375,458.40625 L 418.71875,458.40625 L 380.09375,350.21875 L 356.53125,350.21875 z M 557.96875,350.21875 L 557.96875,458.40625 L 616.78125,458.40625 L 616.78125,440.625 L 578.8125,440.625 L 578.8125,411.28125 L 614.875,411.28125 L 614.875,394.3125 L 578.8125,394.3125 L 578.8125,367.6875 L 616.78125,367.6875 L 616.78125,350.21875 L 557.96875,350.21875 z M 647.40625,350.21875 L 647.40625,458.40625 L 667.59375,458.40625 L 667.59375,419.78125 C 667.59375,406.80629 667.26591,388.54314 666.625,379.25 C 669.82953,386.29998 674.79431,394.80058 679.4375,402.96875 L 711.5,458.40625 L 736.96875,458.40625 L 736.96875,350.21875 L 716.78125,350.21875 L 716.78125,383.875 C 716.78125,397.17723 717.10168,417.69832 717.90625,428.59375 C 713.89717,420.41878 708.46304,410.80055 703.65625,402.46875 L 673.1875,350.21875 L 647.40625,350.21875 z M -165.90625,367.21875 C -147.31994,367.21875 -137.0625,380.37223 -137.0625,404.40625 C -137.0625,430.3698 -152.15004,441.24999 -166.25,441.25 C -185.64767,441.25 -194.59376,426.35335 -194.59375,403.4375 C -194.59375,379.07622 -180.81075,367.21875 -165.90625,367.21875 z M 367.40625,374.09375 L 367.75,374.09375 C 369.19545,380.18237 370.79546,385.47445 372.875,391.40625 L 382.96875,419.78125 L 352.53125,419.78125 L 362.28125,392.21875 C 364.52442,385.97331 366.12444,379.7051 367.40625,374.09375 z "
         id="path2396"
         style="fill:#48535a;fill-opacity:1;fill-rule:nonzero;stroke:none" />
      <path
         d="M 137.28125,538.71875 C 127.52446,538.71875 121.625,545.2966 121.625,554.1875 C 121.625,563.16702 127.23185,568.50002 136,568.5 C 139.17726,568.5 142.71649,567.88295 145.59375,566.8125 L 145.59375,553.3125 L 141.6875,553.3125 L 141.6875,564.28125 C 140.1466,564.7517 138.49204,565.06253 136.5625,565.0625 C 130.0307,565.0625 125.8125,560.93917 125.8125,553.71875 C 125.8125,545.98695 130.93354,542.12502 136.90625,542.125 C 139.57215,542.125 142.2182,542.66763 144.625,543.65625 L 145.25,539.96875 C 142.67273,539.15057 140.02897,538.71876 137.28125,538.71875 z M 208.09375,538.71875 C 201.56196,538.71875 197.78126,542.17163 197.78125,546.9375 C 197.78125,556.08747 210.875,553.59321 210.875,560.125 C 210.875,563.6909 207.94601,565.09377 204.46875,565.09375 C 202.45057,565.09375 200.17726,564.63124 198.5,564.03125 L 198.3125,567.8125 C 199.98976,568.24204 202.01819,568.50001 204.125,568.5 C 210.86816,568.5 214.96875,564.75792 214.96875,559.5625 C 214.96875,550.57616 201.81249,552.77269 201.8125,546.5 C 201.8125,543.79319 203.92047,541.96872 207.875,541.96875 C 209.59318,541.96875 211.44773,542.27275 213.125,542.75 L 213.34375,539.25 C 211.62557,538.9091 209.85284,538.71874 208.09375,538.71875 z M 335.40625,538.71875 C 328.87446,538.71875 325.09374,542.17163 325.09375,546.9375 C 325.09375,556.08747 338.21874,553.59321 338.21875,560.125 C 338.21875,563.6909 335.29657,565.09377 331.8125,565.09375 C 329.79432,565.09375 327.52102,564.63124 325.84375,564.03125 L 325.625,567.8125 C 327.30226,568.24204 329.36193,568.50001 331.46875,568.5 C 338.21191,568.5 342.28124,564.75792 342.28125,559.5625 C 342.28125,550.57616 329.12499,552.77269 329.125,546.5 C 329.125,543.79319 331.23296,541.96872 335.1875,541.96875 C 336.90568,541.96875 338.76022,542.27275 340.4375,542.75 L 340.65625,539.25 C 338.93807,538.9091 337.16534,538.71874 335.40625,538.71875 z M 371.4375,538.84375 C 361.64662,538.84375 357.28124,545.49381 357.28125,554.34375 C 357.28125,562.50509 361.15514,568.43753 370.46875,568.4375 C 373.39374,568.4375 376.14829,567.89998 378.34375,567 L 377.90625,563.46875 C 376.18808,564.32784 373.51306,564.90625 371.40625,564.90625 C 364.66309,564.90625 361.56249,560.85054 361.5625,553.71875 C 361.5625,547.3574 364.41763,542.28125 371.03125,542.28125 C 373.2267,542.28125 375.3642,542.62387 377.59375,543.3125 L 378.03125,539.71875 C 375.97217,539.20739 373.67387,538.84374 371.4375,538.84375 z M 24.46875,539.03125 L 24.46875,568.1875 L 28.40625,568.1875 L 28.40625,539.03125 L 24.46875,539.03125 z M -70.34375,539.09375 L -80.90625,568.09375 L -77.09375,568.09375 L -74.6875,561.3125 L -61.5625,561.3125 L -59.15625,568.09375 L -55.3125,568.09375 L -65.96875,539.09375 L -70.34375,539.09375 z M -41.78125,539.09375 L -41.78125,568.09375 L -37.84375,568.09375 L -37.84375,553.75 L -26.28125,568.09375 L -21,568.09375 L -33.71875,553.125 L -21.46875,539.09375 L -26.3125,539.09375 L -37.84375,552.78125 L -37.84375,539.09375 L -41.78125,539.09375 z M -11.375,539.09375 L -11.375,542.40625 L -3.03125,542.40625 L -3.03125,568.09375 L 0.90625,568.09375 L 0.90625,542.40625 L 9.28125,542.40625 L 9.28125,539.09375 L -11.375,539.09375 z M 48.84375,539.09375 L 48.84375,568.09375 L 63.75,568.09375 L 63.75,564.8125 L 52.8125,564.8125 L 52.8125,554.75 L 63.25,554.75 L 63.25,551.5625 L 52.8125,551.5625 L 52.8125,542.375 L 63.75,542.375 L 63.75,539.09375 L 48.84375,539.09375 z M 82.6875,539.09375 L 82.6875,568.09375 L 86.5625,568.09375 L 86.5625,558.78125 C 86.5625,554.179 86.420456,546.58865 86.25,543.5 C 87.197724,545.43636 88.670462,547.5807 90,549.6875 L 101.5,568.09375 L 105.78125,568.09375 L 105.78125,539.09375 L 101.9375,539.09375 L 101.9375,547.34375 C 101.9375,552.15055 102.01023,559.93411 102.1875,563.5 C 101.11023,561.44092 99.67329,558.99658 98.34375,556.9375 L 87.09375,539.09375 L 82.6875,539.09375 z M 165.21875,539.09375 L 165.21875,568.09375 L 180.125,568.09375 L 180.125,564.8125 L 169.15625,564.8125 L 169.15625,554.75 L 179.59375,554.75 L 179.59375,551.5625 L 169.15625,551.5625 L 169.15625,542.375 L 180.125,542.375 L 180.125,539.09375 L 165.21875,539.09375 z M 233.125,539.09375 L 233.125,568.09375 L 248.03125,568.09375 L 248.03125,564.8125 L 237.09375,564.8125 L 237.09375,554.75 L 247.53125,554.75 L 247.53125,551.5625 L 237.09375,551.5625 L 237.09375,542.375 L 248.03125,542.375 L 248.03125,539.09375 L 233.125,539.09375 z M 266.96875,539.09375 L 266.96875,568.09375 L 281.34375,568.09375 L 281.34375,564.71875 L 270.9375,564.71875 L 270.9375,539.09375 L 266.96875,539.09375 z M 297.0625,539.09375 L 297.0625,568.09375 L 311.40625,568.09375 L 311.40625,564.71875 L 301,564.71875 L 301,539.09375 L 297.0625,539.09375 z M 393.90625,539.09375 L 393.90625,568.09375 L 397.875,568.09375 L 397.875,554.75 L 412.65625,554.75 L 412.65625,568.09375 L 416.59375,568.09375 L 416.59375,539.09375 L 412.65625,539.09375 L 412.65625,551.40625 L 397.875,551.40625 L 397.875,539.09375 L 393.90625,539.09375 z M 440.3125,539.09375 L 429.75,568.09375 L 433.5625,568.09375 L 435.96875,561.3125 L 449.125,561.3125 L 451.53125,568.09375 L 455.34375,568.09375 L 444.6875,539.09375 L 440.3125,539.09375 z M 468.4375,539.09375 L 468.4375,568.09375 L 472.40625,568.09375 L 472.40625,554.96875 L 482.65625,554.96875 L 482.65625,551.78125 L 472.40625,551.78125 L 472.40625,542.375 L 483.21875,542.375 L 483.21875,539.09375 L 468.4375,539.09375 z M 494.34375,539.09375 L 494.34375,542.40625 L 502.6875,542.40625 L 502.6875,568.09375 L 506.625,568.09375 L 506.625,542.40625 L 515,542.40625 L 515,539.09375 L 494.34375,539.09375 z M -68.25,542.84375 L -68.125,542.84375 C -67.60682,544.38466 -66.917612,546.10342 -66.40625,547.5625 L -62.625,558.1875 L -73.65625,558.1875 L -69.9375,547.625 C -69.41932,546.16591 -68.679542,544.25509 -68.25,542.84375 z M 442.40625,542.84375 L 442.5625,542.84375 C 443.07386,544.38466 443.73865,546.10342 444.25,547.5625 L 448.03125,558.1875 L 437,558.1875 L 440.75,547.625 C 441.26818,546.16591 441.97671,544.25509 442.40625,542.84375 z "
         id="path2436"
         style="fill:#000000;fill-opacity:1;fill-rule:nonzero;stroke:none" />
    </g>
  </g>
</svg>
