<?xml version="1.0" encoding="utf-8"?>
<!-- Generator: Adobe Illustrator 21.0.0, SVG Export Plug-In . SVG Version: 6.00 Build 0)  -->
<svg version="1.1"
	 id="svg2" inkscape:output_extension="org.inkscape.output.svg.inkscape" inkscape:version="0.45.1" sodipodi:docbase="C:\Documents and Settings\Home User\Desktop" sodipodi:docname="Volkswagen_Group.svg" sodipodi:version="0.32" xmlns:cc="http://web.resource.org/cc/" xmlns:dc="http://purl.org/dc/elements/1.1/" xmlns:inkscape="http://www.inkscape.org/namespaces/inkscape" xmlns:rdf="http://www.w3.org/1999/02/22-rdf-syntax-ns#" xmlns:sodipodi="http://sodipodi.sourceforge.net/DTD/sodipodi-0.dtd" xmlns:svg="http://www.w3.org/2000/svg"
	 xmlns="http://www.w3.org/2000/svg" xmlns:xlink="http://www.w3.org/1999/xlink" x="0px" y="0px" viewBox="0 0 102.9 10.8"
	 style="enable-background:new 0 0 102.9 10.8;" xml:space="preserve">
<style type="text/css">
	.st0{fill:#FFFFFF;}
</style>
<sodipodi:namedview  bordercolor="#666666" borderopacity="1.0" gridtolerance="10.0" guidetolerance="10.0" height="22.3px" id="base" inkscape:current-layer="svg2" inkscape:cx="51.794591" inkscape:cy="19.638892" inkscape:pageopacity="0.0" inkscape:pageshadow="2" inkscape:window-height="712" inkscape:window-width="1024" inkscape:window-x="-4" inkscape:window-y="-4" inkscape:zoom="8.0954431" objecttolerance="10.0" pagecolor="#ffffff" width="104.89px">
	</sodipodi:namedview>
<path id="path2396" class="st0" d="M15.7,0c-2.8,0-5.1,2.1-5.1,5.5c0,3.2,1.6,5.3,4.8,5.3c2.8,0,5.1-2.1,5.1-5.6
	C20.4,1.7,18.5,0,15.7,0z M43.8,0c-2.5,0-4,1.3-4,3.1c0,3.4,4.4,2.5,4.4,4.5c0,1-0.8,1.4-1.8,1.4c-0.8,0-1.6-0.2-2.2-0.4l-0.1,1.9
	c0.7,0.2,1.4,0.3,2.1,0.3c2.6,0,4.1-1.4,4.1-3.4c0-3.2-4.4-2.6-4.4-4.5c0-0.7,0.6-1.3,1.8-1.3c0.6,0,1.3,0.1,1.9,0.3l0.1-1.8
	C45,0.1,44.4,0,43.8,0z M79.2,0c-3.6,0-5.9,2.3-5.9,5.6c0,3.2,2,5.1,5.3,5.1c1.3,0,2.5-0.2,3.6-0.7V5h-2v3.6C79.8,8.9,79.4,9,78.9,9
	c-2.1,0-3.3-1.3-3.3-3.5c0-2.3,1.5-3.6,3.6-3.6c1,0,1.9,0.2,2.8,0.5l0.3-1.9C81.3,0.2,80.3,0,79.2,0z M0,0.2l3.6,10.5H6L9.6,0.2h-2
	l-2.1,6C5.2,7.1,5,7.6,4.9,8.4l0,0C4.6,7.6,4.4,6.9,4.2,6.3l-2-6.1C2.2,0.2,0,0.2,0,0.2z M22.9,0.2v10.5h5.4V8.9h-3.4V0.2H22.9z
	 M30.5,0.2v10.5h2v-5l3.4,5h2.6l-4-5.4l3.8-5.1h-2.5l-3.4,4.7V0.2H30.5z M47.9,0.2l2.7,10.5h2.3l1.5-5.8c0.2-0.7,0.3-1.4,0.4-2.1
	l0,0C54.9,3.5,55,4.3,55.2,5l1.5,5.8h2.5l2.7-10.5h-2L58.5,6c-0.2,0.6-0.3,1.3-0.4,2l0,0c-0.1-0.7-0.3-1.5-0.4-2L56,0.2h-2.1L52.3,6
	c-0.2,0.7-0.3,1.4-0.4,2.1l0,0c-0.1-0.7-0.2-1.5-0.4-2.1L50,0.2H47.9z M66.1,0.2l-3.7,10.5h2l0.7-2.1h4l0.7,2.1H72L68.3,0.2H66.1z
	 M85.6,0.2v10.5h5.7V8.9h-3.7V6.1h3.5V4.4h-3.5V1.9h3.7V0.2H85.6z M94.2,0.2v10.5h2V6.9c0-1.3,0-3-0.1-3.9c0.3,0.7,0.8,1.5,1.2,2.3
	l3.1,5.4h2.5V0.2h-2v3.3c0,1.3,0,3.3,0.1,4.3c-0.4-0.8-0.9-1.7-1.4-2.5l-2.9-5.1C96.7,0.2,94.2,0.2,94.2,0.2z M15.5,1.8
	c1.8,0,2.8,1.3,2.8,3.6c0,2.5-1.5,3.6-2.8,3.6c-1.9,0-2.7-1.4-2.7-3.7C12.7,3,14.1,1.8,15.5,1.8z M67.1,2.5L67.1,2.5
	c0.2,0.6,0.3,1.1,0.5,1.7l1,2.7h-2.9l0.9-2.7C66.8,3.6,67,3,67.1,2.5z"/>
</svg>
