<?xml version="1.0" encoding="utf-8"?>
<!-- Generator: Adobe Illustrator 16.0.3, SVG Export Plug-In . SVG Version: 6.00 Build 0)  -->
<!DOCTYPE svg PUBLIC "-//W3C//DTD SVG 1.1//EN" "http://www.w3.org/Graphics/SVG/1.1/DTD/svg11.dtd">
<svg version="1.1" id="Layer_1" xmlns="http://www.w3.org/2000/svg" xmlns:xlink="http://www.w3.org/1999/xlink" x="0px" y="0px"
	 width="226.771px" height="15.171px" viewBox="0 0 226.771 15.171" enable-background="new 0 0 226.771 15.171"
	 xml:space="preserve">
<path fill-rule="evenodd" clip-rule="evenodd" fill="#FFFFFF" d="M35.179,15.17H60.22c1.133,0,2.051-0.916,2.051-2.037V2.037
	C62.271,0.917,61.353,0,60.22,0H35.179c-1.133,0-2.052,0.917-2.052,2.037v11.096C33.127,14.254,34.046,15.17,35.179,15.17
	L35.179,15.17z M36.771,2.943h21.971c0.376,0,0.683,0.306,0.683,0.679v7.926c0,0.374-0.307,0.68-0.683,0.68H36.771
	c-0.376,0-0.684-0.306-0.684-0.68V3.622C36.087,3.249,36.395,2.943,36.771,2.943L36.771,2.943z"/>
<path fill-rule="evenodd" clip-rule="evenodd" fill="#FFFFFF" d="M0,15.171h2.96v-3.623h24.02c1.19,0,2.163-0.969,2.163-2.151V2.15
	C29.143,0.968,28.17,0,26.98,0H2.96H2.163H0v2.15v7.246V15.171L0,15.171z M2.96,8.604V2.943h0.797H23.11h2.163
	c0.5,0,0.911,0.407,0.911,0.905v3.85c0,0.498-0.41,0.906-0.911,0.906H23.11H3.757H2.96L2.96,8.604z"/>
<path fill-rule="evenodd" clip-rule="evenodd" fill="#FFFFFF" d="M66.142,15.171h2.96v-3.623h21.337l1.871,3.623h3.2l-1.899-3.679
	c0.957-0.222,1.675-1.079,1.675-2.096V2.15c0-1.183-0.973-2.15-2.163-2.15h-24.02h-0.797h-2.163v2.15v7.246V15.171L66.142,15.171z
	 M69.102,8.604V2.943h0.796h19.353h2.163c0.501,0,0.911,0.407,0.911,0.905v3.85c0,0.498-0.41,0.906-0.911,0.906h-2.163H69.898
	H69.102L69.102,8.604z"/>
<polygon fill-rule="evenodd" clip-rule="evenodd" fill="#FFFFFF" points="165.184,15.171 168.145,15.171 168.145,9.057 
	189.887,9.057 189.887,15.171 192.848,15.171 192.848,0 189.887,0 189.887,6.113 168.145,6.113 168.145,0 165.184,0 165.184,15.171 
	"/>
<path fill-rule="evenodd" clip-rule="evenodd" fill="#FFFFFF" d="M135.359,15.17h25.385v-2.981
	c-0.072,0.024-0.148,0.039-0.229,0.039h-23.564c-0.375,0-0.684-0.306-0.684-0.68V3.622c0-0.373,0.309-0.679,0.684-0.679h23.564
	c0.08,0,0.156,0.014,0.229,0.039V0h-25.385c-1.133,0-2.051,0.917-2.051,2.037v11.096C133.309,14.254,134.227,15.17,135.359,15.17
	L135.359,15.17z"/>
<polygon fill-rule="evenodd" clip-rule="evenodd" fill="#FFFFFF" points="197.4,15.171 199.109,15.171 200.361,15.171 
	226.771,15.171 226.771,12.228 200.361,12.228 200.361,9.057 226.771,9.057 226.771,6.113 200.361,6.113 200.361,2.943 
	226.771,2.943 226.771,0 200.361,0 199.109,0 197.4,0 197.4,15.171 "/>
<path fill-rule="evenodd" clip-rule="evenodd" fill="#FFFFFF" d="M103.481,4.302v-0.68c0-0.373,0.308-0.679,0.683-0.679h23.566
	c0.08,0,0.156,0.014,0.227,0.039V0h-25.384c-1.133,0-2.051,0.917-2.051,2.037v0.906v1.358v2.717c0,1.121,0.918,2.038,2.051,2.038
	h2.161v0.039c0.071-0.025,0.148-0.039,0.228-0.039h19.353c0.375,0,0.684,0.306,0.684,0.68v1.132v0.68c0,0.374-0.309,0.68-0.684,0.68
	H100.75c-0.08,0-0.156-0.015-0.228-0.04v2.982h25.385c1.133,0,2.051-0.917,2.051-2.037v-0.905v-1.359V8.151
	c0-1.121-0.918-2.038-2.051-2.038h-2.16V6.074c-0.072,0.025-0.148,0.039-0.229,0.039h-19.353c-0.375,0-0.683-0.306-0.683-0.68V4.302
	L103.481,4.302z"/>
</svg>
