<?xml version="1.0" encoding="iso-8859-1"?>
<!-- Generator: Adobe Illustrator 19.2.0, SVG Export Plug-In . SVG Version: 6.00 Build 0)  -->
<svg version="1.1" id="Lager_13" xmlns="http://www.w3.org/2000/svg" xmlns:xlink="http://www.w3.org/1999/xlink" x="0px" y="0px"
	 viewBox="0 0 256 256" style="enable-background:new 0 0 256 256;" xml:space="preserve">
<g>
	<polygon style="fill:#041E42;" points="172.009,79.057 127.993,123.062 83.988,79.048 79.038,83.997 123.043,128.012 
		79.028,172.018 83.977,176.969 127.993,132.963 171.998,176.978 176.949,172.028 132.943,128.013 176.958,84.008 	"/>
	<path style="fill:#041E42;" d="M128,36.576c-50.411,0-91.424,41.013-91.424,91.424S77.589,219.424,128,219.424
		s91.424-41.013,91.424-91.424S178.411,36.576,128,36.576z M128,212.424c-46.551,0-84.424-37.872-84.424-84.424
		S81.449,43.576,128,43.576c46.552,0,84.424,37.872,84.424,84.424S174.552,212.424,128,212.424z"/>
</g>
</svg>
