<?xml version="1.0" encoding="utf-8"?>
<!-- Generator: Adobe Illustrator 21.0.0, SVG Export Plug-In . SVG Version: 6.00 Build 0)  -->
<svg version="1.1" id="Lager_13" xmlns="http://www.w3.org/2000/svg" xmlns:xlink="http://www.w3.org/1999/xlink" x="0px" y="0px"
	 viewBox="0 0 256 256" style="enable-background:new 0 0 256 256;" xml:space="preserve">
<style type="text/css">
	.st0{fill:#041E42;}
	.st1{fill:none;stroke:#041E42;stroke-width:9;stroke-linecap:round;stroke-linejoin:round;stroke-miterlimit:10;}
</style>
<g>
	<path class="st0" d="M128,36.1c-50.7,0-91.9,41.2-91.9,91.9s41.2,91.9,91.9,91.9s91.9-41.2,91.9-91.9S178.7,36.1,128,36.1z
		 M128,209.9c-45.2,0-81.9-36.8-81.9-81.9S82.8,46.1,128,46.1s81.9,36.8,81.9,81.9S173.2,209.9,128,209.9z"/>
	<g>
		<line class="st1" x1="118.6" y1="90.7" x2="180.5" y2="90.7"/>
		<line class="st1" x1="76" y1="90.3" x2="90.3" y2="90.3"/>
		<line class="st1" x1="161.9" y1="128.3" x2="178.5" y2="128.3"/>
		<line class="st1" x1="76" y1="128.3" x2="128.3" y2="128.3"/>
		<line class="st1" x1="118.8" y1="166.3" x2="180.5" y2="166.3"/>
		<line class="st1" x1="76" y1="166.3" x2="90.3" y2="166.3"/>
		<circle class="st1" cx="104.5" cy="90.3" r="14.3"/>
		<circle class="st1" cx="142.5" cy="128.3" r="14.3"/>
		<circle class="st1" cx="104.5" cy="166.3" r="14.3"/>
	</g>
</g>
</svg>
