<?xml version="1.0" encoding="utf-8"?>
<!-- Generator: Adobe Illustrator 21.0.0, SVG Export Plug-In . SVG Version: 6.00 Build 0)  -->
<svg version="1.1" id="Lager_13" xmlns="http://www.w3.org/2000/svg" xmlns:xlink="http://www.w3.org/1999/xlink" x="0px" y="0px"
	 viewBox="0 0 256 256" style="enable-background:new 0 0 256 256;" xml:space="preserve">
<style type="text/css">
	.st0{fill:none;stroke:#041E42;stroke-width:5;stroke-linecap:square;stroke-miterlimit:10;}
</style>
<g transform="translate(0, 0)">
	<circle class="st0" cx="127" cy="127" r="25.1"/>
	<path class="st0" d="M219,139.5v-25.1l-26.8-2.2c-1.7-7.5-4.7-14.5-8.7-20.9l17.4-20.5l-17.7-17.7l-20.5,17.4
		c-6.3-4-13.3-7-20.9-8.7L139.5,35h-25.1l-2.2,26.8c-7.5,1.7-14.5,4.7-20.9,8.7L70.8,53.1L53.1,70.8l17.4,20.5
		c-4,6.3-7,13.3-8.7,20.9L35,114.5v25.1l26.8,2.2c1.7,7.5,4.7,14.5,8.7,20.9l-17.4,20.5l17.7,17.7l20.5-17.4c6.3,4,13.3,7,20.9,8.7
		l2.2,26.8h25.1l2.2-26.8c7.5-1.7,14.5-4.7,20.9-8.7l20.5,17.4l17.7-17.7l-17.4-20.5c4-6.3,7-13.3,8.7-20.9L219,139.5z"/>
</g>
</svg>
