<?xml version="1.0" encoding="iso-8859-1"?>
<!-- Generator: Adobe Illustrator 19.2.0, SVG Export Plug-In . SVG Version: 6.00 Build 0)  -->
<svg version="1.1" id="Lager_13" xmlns="http://www.w3.org/2000/svg" xmlns:xlink="http://www.w3.org/1999/xlink" x="0px" y="0px"
	 viewBox="0 0 256 256" style="enable-background:new 0 0 256 256;" xml:space="preserve">
<g>
	<path style="fill:#041E42;" d="M88,183.534l103.349-55.767L88,72.005V183.534z M94,82.06l84.714,45.708L94,173.479V82.06z"/>
	<path style="fill:#041E42;" d="M127.8,19.9C68.321,19.9,19.932,68.29,19.932,127.77c0,59.479,48.39,107.868,107.868,107.868
		s107.868-48.39,107.868-107.868C235.668,68.29,187.278,19.9,127.8,19.9z M127.8,229.638c-56.17,0-101.868-45.698-101.868-101.868
		C25.932,71.599,71.629,25.9,127.8,25.9c56.17,0,101.868,45.698,101.868,101.869C229.668,183.939,183.97,229.638,127.8,229.638z"/>
</g>
</svg>
