<?xml version="1.0" encoding="iso-8859-1"?>
<!-- Generator: Adobe Illustrator 19.2.0, SVG Export Plug-In . SVG Version: 6.00 Build 0)  -->
<svg version="1.1" id="Lager_13" xmlns="http://www.w3.org/2000/svg" xmlns:xlink="http://www.w3.org/1999/xlink" x="0px" y="0px"
	 viewBox="0 0 256 256" style="enable-background:new 0 0 256 256;" xml:space="preserve">
<g>
	<path style="fill:#041E42;" d="M203.626,36H52.509C43.432,36,36,43.414,36,52.494v151.097C36,212.667,43.432,220,52.509,220
		h151.117c9.076,0,16.374-7.333,16.374-16.409V52.494C220,43.414,212.702,36,203.626,36z M213,203.591
		c0,5.217-4.157,9.409-9.374,9.409H52.509c-5.217,0-9.509-4.192-9.509-9.409V52.494C43,47.273,47.292,43,52.509,43h151.117
		c5.217,0,9.374,4.273,9.374,9.494V203.591z"/>
	<polygon style="fill:#041E42;" points="117.431,151.326 88.863,125.819 84.201,131.04 117.792,161.033 181.171,95.345 
		176.134,90.483 	"/>
</g>
</svg>
