<?xml version="1.0" encoding="iso-8859-1"?>
<!-- Generator: Adobe Illustrator 19.2.0, SVG Export Plug-In . SVG Version: 6.00 Build 0)  -->
<svg version="1.1" id="Lager_13" xmlns="http://www.w3.org/2000/svg" xmlns:xlink="http://www.w3.org/1999/xlink" x="0px" y="0px"
	 viewBox="0 0 256 256" style="enable-background:new 0 0 256 256;" xml:space="preserve">
<path style="fill:#041E42;" d="M238,124h-22.651C213.768,78.614,177.304,41.948,132,40.042V18h-7v22.027
	C79.506,41.728,42.828,78.478,41.242,124H18v7h23.274c2.013,45.126,38.518,81.426,83.726,83.117V238h7v-23.899
	c45.019-1.893,81.309-38.111,83.316-83.101H238V124z M132,207.092V184h-7v23.102C83.654,205.419,50.284,172.265,48.281,131H72v-7
	H48.26C49.84,82.34,83.369,48.736,125,47.042V72h7V47.052c41.443,1.897,74.756,35.424,76.331,76.948H184v7h24.31
	C206.313,172.129,173.158,205.208,132,207.092z"/>
</svg>
