<?xml version="1.0" encoding="utf-8"?>
<!-- Generator: Adobe Illustrator 21.0.0, SVG Export Plug-In . SVG Version: 6.00 Build 0)  -->
<svg version="1.1" id="Lager_13" xmlns="http://www.w3.org/2000/svg" xmlns:xlink="http://www.w3.org/1999/xlink" x="0px" y="0px"
	 width="256px" height="256px" viewBox="0 0 256 256" enable-background="new 0 0 256 256" xml:space="preserve">
<path fill="#D6001C" d="M238,123h-21.5c-2.5-44.9-38.6-80.9-83.5-83.4V18h-10v21.6C78.1,42.1,42.1,78.1,39.5,123H18v10h21.5
	c2.5,44.9,38.6,81,83.5,83.5V238h10v-21.5c44.9-2.5,81-38.6,83.5-83.5H238V123z M133,206.5V184h-10v22.5C83.6,204,52,172.4,49.6,133
	H72v-10H49.6c2.5-39.3,34.1-70.9,73.4-73.4V72h10V49.6c39.4,2.5,70.9,34,73.4,73.4H184v10h22.5C204,172.4,172.4,204,133,206.5z"/>
</svg>
