<?xml version="1.0" encoding="utf-8"?>
<!-- Generator: Adobe Illustrator 21.0.0, SVG Export Plug-In . SVG Version: 6.00 Build 0)  -->
<svg version="1.1" id="Lager_13" xmlns="http://www.w3.org/2000/svg" xmlns:xlink="http://www.w3.org/1999/xlink" x="0px" y="0px"
	 width="256px" height="256px" viewBox="0 0 256 256" enable-background="new 0 0 256 256" xml:space="preserve">
<path fill="#D6001C" d="M238,124h-22.7c-1.6-45.4-38-82.1-83.3-84V18h-7v22c-45.5,1.7-82.2,38.5-83.8,84H18v7h23.3
	c2,45.1,38.5,81.4,83.7,83.1V238h7v-23.9c45-1.9,81.3-38.1,83.3-83.1H238V124z M132,207.1V184h-7v23.1
	c-41.3-1.7-74.7-34.8-76.7-76.1H72v-7H48.3c1.6-41.7,35.1-75.3,76.7-77v25h7V47.1c41.4,1.9,74.8,35.4,76.3,76.9H184v7h24.3
	C206.3,172.1,173.2,205.2,132,207.1z"/>
</svg>
