<?xml version="1.0" encoding="iso-8859-1"?>
<!-- Generator: Adobe Illustrator 19.2.0, SVG Export Plug-In . SVG Version: 6.00 Build 0)  -->
<svg version="1.1" id="Lager_13" xmlns="http://www.w3.org/2000/svg" xmlns:xlink="http://www.w3.org/1999/xlink" x="0px" y="0px"
	 viewBox="0 0 256 256" style="enable-background:new 0 0 256 256;" xml:space="preserve">
<path style="fill:#041E42;" d="M233.018,94.815c-0.272-1.128-0.652-2.244-1.13-3.347c-15.158-42.643-55.913-73.262-103.69-73.262
	c-47.778,0-88.532,30.619-103.69,73.262c-0.479,1.103-0.858,2.219-1.13,3.347c-3.366,10.539-5.19,21.76-5.19,33.401
	c0,11.64,1.823,22.861,5.189,33.4c0.273,1.129,0.652,2.247,1.132,3.351c15.159,42.642,55.913,73.26,103.69,73.26
	c47.777,0,88.531-30.618,103.689-73.26c0.479-1.104,0.859-2.221,1.132-3.351c3.366-10.539,5.189-21.76,5.189-33.4
	C238.208,116.575,236.384,105.354,233.018,94.815z M225.449,94.255c0.264,0.752,0.518,1.509,0.765,2.269
	c0.218,0.909,0.336,1.818,0.336,2.723c0,9.063-11.09,18.465-30.264,25.304c-8.23-2.754-17.401-4.964-27.224-6.582
	c-0.63-18.824-3-36.626-6.879-51.952C196.901,70.723,220.253,82.323,225.449,94.255z M169.207,125.027
	c5.328,0.905,10.35,1.977,15.037,3.189c-4.687,1.212-9.709,2.283-15.037,3.189c0.011-1.062,0.028-2.122,0.028-3.189
	C169.234,127.149,169.218,126.089,169.207,125.027z M128.198,134.676c-12.231,0-23.625-0.794-34.005-2.202
	c-0.019-1.409-0.032-2.826-0.032-4.258c0-1.431,0.013-2.848,0.032-4.257c10.38-1.408,21.773-2.202,34.005-2.202
	c12.231,0,23.624,0.794,34.004,2.202c0.019,1.409,0.032,2.826,0.032,4.257c0,1.432-0.013,2.848-0.032,4.258
	C151.822,133.882,140.43,134.676,128.198,134.676z M162.031,139.507c-0.73,20.046-3.38,37.586-7.2,51.783
	c-8.331,0.855-17.234,1.325-26.632,1.325c-9.399,0-18.302-0.469-26.633-1.325c-3.82-14.197-6.47-31.737-7.2-51.783
	c10.751,1.422,22.145,2.169,33.833,2.169C139.886,141.676,151.28,140.928,162.031,139.507z M94.365,116.926
	c0.73-20.046,3.381-37.587,7.2-51.784c8.331-0.855,17.234-1.325,26.633-1.325c9.399,0,18.302,0.469,26.632,1.325
	c3.82,14.197,6.47,31.737,7.2,51.784c-10.751-1.422-22.145-2.169-33.832-2.169C116.51,114.757,105.117,115.504,94.365,116.926z
	 M216.94,75.968c-4.359-2.724-9.531-5.247-15.474-7.518c-11.798-4.51-25.916-7.79-41.293-9.699
	c-0.679-2.252-1.385-4.454-2.134-6.568c-4.066-11.468-8.978-20.185-14.44-25.826C174.818,31.058,201.488,49.822,216.94,75.968z
	 M128.198,25.844c8.792,0,17.916,11.774,24.502,32.094c-7.934-0.736-16.142-1.12-24.502-1.12c-8.36,0-16.568,0.384-24.502,1.12
	C110.282,37.617,119.406,25.844,128.198,25.844z M112.798,26.358c-5.463,5.64-10.375,14.358-14.441,25.826
	c-0.75,2.114-1.455,4.316-2.134,6.568c-15.378,1.908-29.496,5.189-41.293,9.699c-5.943,2.272-11.114,4.794-15.474,7.518
	C54.909,49.822,81.579,31.058,112.798,26.358z M30.183,96.525c0.247-0.761,0.501-1.518,0.765-2.27
	c5.196-11.932,28.548-23.531,63.267-28.238c-3.878,15.327-6.248,33.128-6.879,51.952c-9.823,1.618-18.994,3.828-27.224,6.582
	c-19.174-6.839-30.264-16.241-30.264-25.304C29.847,98.342,29.964,97.434,30.183,96.525z M87.189,131.405
	c-5.328-0.905-10.35-1.977-15.037-3.189c4.687-1.211,9.709-2.283,15.037-3.189c-0.011,1.062-0.028,2.121-0.028,3.188
	C87.162,129.283,87.178,130.343,87.189,131.405z M25.188,128.216c0-5.9,0.506-11.683,1.463-17.314
	c4.376,6.495,12.452,12.402,23.799,17.314c-11.347,4.912-19.423,10.819-23.799,17.314C25.694,139.899,25.188,134.116,25.188,128.216
	z M30.948,162.179c-0.264-0.754-0.519-1.511-0.766-2.273c-0.218-0.908-0.335-1.816-0.335-2.721c0-9.063,11.09-18.465,30.264-25.304
	c8.23,2.754,17.401,4.964,27.224,6.582c0.631,18.824,3,36.625,6.879,51.951C59.497,185.708,36.144,174.11,30.948,162.179z
	 M39.456,180.464c4.359,2.724,9.531,5.246,15.474,7.518c11.797,4.51,25.916,7.79,41.293,9.699c0.679,2.252,1.385,4.454,2.135,6.569
	c4.066,11.468,8.979,20.185,14.441,25.826C81.579,225.375,54.909,206.611,39.456,180.464z M128.198,230.589
	c-8.793,0-17.916-11.774-24.502-32.095c7.934,0.736,16.142,1.12,24.502,1.12c8.36,0,16.568-0.384,24.502-1.12
	C146.114,218.815,136.991,230.589,128.198,230.589z M143.598,230.075c5.463-5.641,10.375-14.358,14.441-25.826
	c0.75-2.115,1.456-4.317,2.135-6.569c15.378-1.908,29.496-5.189,41.293-9.699c5.943-2.271,11.115-4.794,15.474-7.518
	C201.488,206.611,174.818,225.375,143.598,230.075z M226.214,159.907c-0.247,0.761-0.502,1.518-0.765,2.271
	c-5.196,11.931-28.548,23.53-63.266,28.237c3.878-15.327,6.248-33.128,6.878-51.951c9.823-1.618,18.994-3.828,27.225-6.582
	c19.174,6.839,30.264,16.241,30.264,25.304C226.549,158.09,226.432,158.998,226.214,159.907z M229.745,145.531
	c-4.376-6.495-12.452-12.402-23.799-17.314c11.347-4.912,19.423-10.82,23.799-17.314c0.957,5.631,1.463,11.414,1.463,17.314
	C231.208,134.116,230.702,139.899,229.745,145.531z"/>
</svg>
