<?xml version="1.0" encoding="iso-8859-1"?>
<!-- Generator: Adobe Illustrator 19.2.0, SVG Export Plug-In . SVG Version: 6.00 Build 0)  -->
<svg version="1.1" id="Lager_13" xmlns="http://www.w3.org/2000/svg" xmlns:xlink="http://www.w3.org/1999/xlink" x="0px" y="0px"
	 viewBox="0 0 256 256" style="enable-background:new 0 0 256 256;" xml:space="preserve">
<g>
	<path style="fill:#041E42;" d="M127.669,125.035c12.114,0,21.971-9.856,21.971-21.971s-9.856-21.971-21.971-21.971
		c-12.12,0-21.98,9.856-21.98,21.971S115.549,125.035,127.669,125.035z M127.669,88.094c8.255,0,14.971,6.716,14.971,14.971
		s-6.716,14.971-14.971,14.971c-8.26,0-14.98-6.716-14.98-14.971S119.409,88.094,127.669,88.094z"/>
	<path style="fill:#041E42;" d="M127.203,131.577c-14.788,0-28.679,5.135-38.112,14.088L88,146.7V175h7v-25.252
		c8.118-7.116,19.759-11.171,32.203-11.171c11.958,0,22.647,3.637,31.797,10.814V175h7v-28.919l-1.26-1.05
		C154.024,136.104,141.395,131.577,127.203,131.577z"/>
	<path style="fill:#041E42;" d="M219.598,49.26c-0.23-1.131-0.631-2.158-1.027-3.096c-0.412-0.978-0.923-1.921-1.52-2.805
		c-0.592-0.876-1.267-1.695-2.006-2.436c-0.756-0.758-1.575-1.437-2.433-2.016c-0.913-0.618-1.854-1.134-2.799-1.534
		c-1.09-0.461-2.103-0.784-3.1-0.988c-0.937-0.19-2.062-0.386-3.312-0.386H52.285c-1.246,0-2.372,0.195-3.312,0.387
		c-1.198,0.245-2.282,0.671-3.092,1.014c-0.971,0.411-1.911,0.922-2.793,1.519c-0.859,0.58-1.677,1.256-2.428,2.009
		c-0.723,0.722-1.396,1.542-1.998,2.436c-0.563,0.833-1.053,1.748-1.498,2.799c-0.381,0.901-0.664,1.856-0.916,3.095
		C36,50.462,36,51.632,36,52.572V203.67c0,0.939,0,2.108,0.247,3.312c0.191,0.936,0.408,1.996,0.874,3.097
		c0.411,0.972,0.922,1.912,1.519,2.794c0.583,0.864,1.259,1.682,2.009,2.431c0.728,0.728,1.546,1.4,2.432,1.999
		c0.851,0.574,1.767,1.066,2.797,1.501c0.919,0.389,1.903,0.684,3.094,0.928c1.155,0.237,2.275,0.27,3.313,0.27h133.669L220,186.24
		V52.572C220,51.328,219.792,50.208,219.598,49.26z M183,212.98v-19.719c0-4.983,4.146-9.261,9.13-9.261h19.964L183,212.98z
		 M213,177h-20.87c-8.844,0-16.13,7.417-16.13,16.261V213H52.285c-0.773,0-1.394-0.021-1.908-0.127
		c-0.726-0.148-1.289-0.313-1.775-0.519c-0.609-0.257-1.133-0.536-1.603-0.854c-0.518-0.35-0.99-0.736-1.404-1.149
		c-0.434-0.434-0.823-0.904-1.157-1.397c-0.343-0.509-0.637-1.049-0.872-1.604c-0.193-0.457-0.318-1.065-0.462-1.771
		C43,205.068,43,204.389,43,203.67V146V52.572c0-0.72,0-1.4,0.105-1.913c0.157-0.769,0.313-1.315,0.505-1.771
		c0.266-0.628,0.544-1.153,0.852-1.609c0.358-0.531,0.733-0.989,1.146-1.402c0.438-0.438,0.907-0.827,1.396-1.157
		c0.509-0.344,1.048-0.638,1.604-0.873c0.544-0.23,1.179-0.481,1.765-0.602C50.968,43.124,51.66,43,52.285,43h151.118
		c0.627,0,1.32,0.124,1.911,0.244c0.533,0.109,1.113,0.298,1.771,0.577c0.526,0.223,1.065,0.52,1.606,0.886
		c0.488,0.33,0.96,0.722,1.4,1.162c0.425,0.426,0.814,0.9,1.157,1.406c0.342,0.507,0.635,1.048,0.872,1.612
		c0.239,0.565,0.505,1.215,0.618,1.772c0.132,0.645,0.261,1.322,0.261,1.912V177z"/>
</g>
</svg>
