<?xml version="1.0" encoding="iso-8859-1"?>
<!-- Generator: Adobe Illustrator 19.2.0, SVG Export Plug-In . SVG Version: 6.00 Build 0)  -->
<svg version="1.1" id="Lager_13" xmlns="http://www.w3.org/2000/svg" xmlns:xlink="http://www.w3.org/1999/xlink" x="0px" y="0px"
	 viewBox="0 0 256 256" style="enable-background:new 0 0 256 256;" xml:space="preserve">
<g>
	<path style="fill:#041E42;" d="M134.471,158.686l25.663-25.664L79.817,64.337L63.685,80.469L134.471,158.686z M80.348,77.948
		l65.071,55.647l-10.587,10.586L77.483,80.812L80.348,77.948z"/>
	<path style="fill:#041E42;" d="M229.268,85.403c-5.531-13.077-13.461-24.82-23.545-34.903
		c-10.084-10.084-21.852-18.002-34.928-23.533C157.254,21.24,143,18.336,128,18.336v10c14,0,26.598,2.639,38.9,7.842
		c11.885,5.026,22.608,12.224,31.777,21.394c9.169,9.168,16.366,19.842,21.393,31.728c5.203,12.301,7.842,25.371,7.842,38.849
		s-2.639,26.549-7.842,38.851c-5.026,11.885-12.224,22.559-21.394,31.728c-9.166,9.167-19.841,16.365-31.728,21.393
		c-12.301,5.203-25.372,7.842-38.849,7.842s-26.548-2.639-38.849-7.841c-11.887-5.029-22.562-12.227-31.729-21.394
		c-9.169-9.169-16.366-19.844-21.393-31.729c-5.204-12.302-7.842-25.373-7.842-38.85s2.638-26.547,7.842-38.85
		c4.378-10.352,10.403-19.785,17.944-28.105l7.291,7.291l7.071-7.07L53.986,46.964L50.45,50.5
		C40.367,60.583,32.449,72.326,26.919,85.402c-5.728,13.542-8.632,27.923-8.632,42.745s2.904,29.204,8.632,42.745
		c5.53,13.077,13.448,24.82,23.531,34.903c10.082,10.082,21.825,18,34.904,23.533c13.541,5.727,27.923,8.631,42.745,8.631
		c14.823,0,29.204-2.904,42.745-8.632c13.078-5.532,24.821-13.449,34.902-23.531c10.085-10.084,18-21.827,23.532-34.903
		c5.727-13.541,8.628-27.923,8.628-42.746C237.905,113.325,234.994,98.943,229.268,85.403z"/>
</g>
</svg>
