<?xml version="1.0" encoding="iso-8859-1"?>
<!-- Generator: Adobe Illustrator 19.2.0, SVG Export Plug-In . SVG Version: 6.00 Build 0)  -->
<svg version="1.1" id="Lager_13" xmlns="http://www.w3.org/2000/svg" xmlns:xlink="http://www.w3.org/1999/xlink" x="0px" y="0px"
	 viewBox="0 0 256 256" style="enable-background:new 0 0 256 256;" xml:space="preserve">
<g>
	<path style="fill:#041E42;" d="M127.993,237.606l-64.85-62.201c-35.838-35.839-35.838-94.067-0.052-129.854
		c35.785-35.785,94.01-35.785,129.796,0l0,0c35.787,35.786,35.787,94.017,0,129.803L127.993,237.606z M127.99,25.709
		c-21.71,0-43.421,8.264-59.948,24.791c-33.057,33.058-33.057,86.847,0,119.904l59.952,57.503l59.997-57.554
		c33.006-33.007,33.006-86.796-0.052-119.854C171.41,33.973,149.7,25.709,127.99,25.709z M127.993,146.402
		c-19.827,0-35.957-16.127-35.957-35.95c0-19.827,16.13-35.957,35.957-35.957c19.823,0,35.95,16.13,35.95,35.957
		C163.943,130.275,147.816,146.402,127.993,146.402z M127.993,81.495c-15.967,0-28.957,12.99-28.957,28.957
		c0,15.963,12.99,28.95,28.957,28.95c15.963,0,28.95-12.987,28.95-28.95C156.943,94.485,143.956,81.495,127.993,81.495z"/>
</g>
</svg>
