<?xml version="1.0" encoding="iso-8859-1"?>
<!-- Generator: Adobe Illustrator 19.2.0, SVG Export Plug-In . SVG Version: 6.00 Build 0)  -->
<svg version="1.1" id="Lager_13" xmlns="http://www.w3.org/2000/svg" xmlns:xlink="http://www.w3.org/1999/xlink" x="0px" y="0px"
	 viewBox="0 0 256 256" style="enable-background:new 0 0 256 256;" xml:space="preserve">
<g>
	<path style="fill:#041E42;" d="M117.61,83.147l-3.272,0.611l5.121,30.576l-16.131-26.551l-2.85,1.578
		c-0.219,0.12-5.383,2.99-8.477,5.586c-3.082,2.586-7.154,7.525-7.326,7.735l-2.115,2.571l23.578,20.132l-29.425-9.97l-1.169,3.041
		c-0.09,0.233-2.202,5.751-2.903,9.729c-0.698,3.963-0.643,10.364-0.64,10.634l0.034,3.329l31.001,0.267l-28.949,11.276l1.059,3.08
		c0.08,0.236,2.01,5.821,4.029,9.318c2.013,3.485,6.17,8.353,6.346,8.558l2.165,2.529l23.921-19.723L96.68,184.699l2.792,1.679
		c0.214,0.129,5.281,3.167,9.077,4.548c3.781,1.376,10.094,2.432,10.361,2.477l3.284,0.545l5.647-30.484l6.078,30.467l3.218-0.508
		c0.246-0.039,6.082-0.969,9.876-2.35c3.783-1.377,9.297-4.626,9.53-4.763l2.867-1.694l-15.269-26.981l24.239,19.433l2.139-2.458
		c0.164-0.188,4.035-4.652,6.055-8.149c2.012-3.485,4.149-9.52,4.239-9.775l1.107-3.14l-29.039-10.853l31.059-0.695l0.058-3.257
		c0.005-0.25,0.101-6.158-0.599-10.134c-0.699-3.964-2.941-9.959-3.037-10.213l-1.17-3.116l-29.222,10.352l23.346-20.497
		l-2.049-2.532c-0.156-0.194-3.88-4.783-6.974-7.379c-3.082-2.585-8.654-5.738-8.889-5.871l-2.9-1.635l-15.733,26.717l4.71-30.711
		l-3.198-0.623c-0.244-0.047-6.045-1.169-10.083-1.169C124.17,81.93,117.876,83.097,117.61,83.147z M78.829,135.422
		c0.063-2.028,0.204-4.419,0.494-6.06c0.29-1.644,0.911-3.718,1.469-5.403l25.288,8.569c-0.261,1.016-0.45,2.06-0.568,3.125
		L78.829,135.422z M88.569,167.657c-1.207-1.528-2.649-3.455-3.518-4.96c-0.835-1.445-1.691-3.434-2.347-5.083l24.884-9.692
		c0.461,0.958,0.988,1.878,1.574,2.756L88.569,167.657z M92.087,104.469c1.297-1.454,2.944-3.209,4.275-4.326
		c1.279-1.072,3.088-2.262,4.597-3.194l13.872,22.833c-0.861,0.618-1.676,1.294-2.441,2.024L92.087,104.469z M116.749,186.09
		c-1.907-0.396-4.249-0.944-5.882-1.539c-1.569-0.571-3.503-1.544-5.066-2.385l12.835-23.424c0.957,0.436,1.95,0.808,2.972,1.109
		L116.749,186.09z M150.186,182.096c-1.788,0.959-3.929,2.033-5.495,2.602c-1.568,0.572-3.676,1.069-5.413,1.429l-5.224-26.191
		c1.028-0.287,2.026-0.643,2.989-1.066L150.186,182.096z M173.232,157.543c-0.753,1.884-1.703,4.083-2.537,5.527
		c-0.835,1.445-2.128,3.182-3.228,4.575l-20.842-16.709c0.598-0.87,1.135-1.784,1.609-2.735L173.232,157.543z M175.105,123.921
		c0.61,1.849,1.307,4.153,1.608,5.864c0.291,1.644,0.415,3.805,0.468,5.58l-26.696,0.597c-0.104-1.067-0.284-2.112-0.532-3.131
		L175.105,123.921z M154.927,96.962c1.724,1.069,3.726,2.387,5.001,3.457c1.279,1.073,2.764,2.649,3.944,3.975l-20.077,17.626
		c-0.755-0.74-1.56-1.428-2.413-2.058L154.927,96.962z M143.809,138.16c0,8.727-7.101,15.828-15.829,15.828
		c-8.727,0-15.828-7.101-15.828-15.828c0-8.728,7.101-15.829,15.828-15.829C136.709,122.331,143.809,129.432,143.809,138.16z
		 M129.722,115.622c-0.576-0.044-1.155-0.074-1.742-0.074c-0.481,0-0.958,0.02-1.432,0.05l-4.408-26.318
		c2.009-0.291,4.388-0.567,6.055-0.567c1.669,0,3.819,0.252,5.575,0.508L129.722,115.622z"/>
	<path style="fill:#041E42;" d="M202,91.343V70.604c-10.518-4.173-20.842-7.811-31-10.639v-21.3c0-5.477-3.955-9.665-9.431-9.665
		H95.431C89.955,29,86,33.188,86,38.665v21.443c-10.588,2.786-21.337,6.356-32,10.496V91.64l-21,9.536v73.73l21,9.336V196l32.963,25
		l7.5,17h69.59l7.742-17L202,196v-11.169l21-9.988v-73.635L202,91.343z M54,176.581l-14-6.224v-64.672l14-6.358V176.581z M93,38.665
		C93,37.057,93.823,36,95.431,36h66.138c1.608,0,2.431,1.057,2.431,2.665v19.481c-11.558-2.789-22.906-4.419-34.079-4.419
		c-11.676,0-24.136,1.691-36.921,4.639V38.665z M195,192.707l-27.669,22.9l-1.24,1.026l-0.667,1.465L159.549,231H99.025
		l-5.658-12.825l-0.731-1.657l-1.443-1.095L61,192.523V75.43c26.19-9.759,49.359-14.704,68.921-14.704
		c18.483,0,38.702,4.539,65.079,14.66V192.707z M216,170.421l-14,6.658V99.077l14,6.576V170.421z"/>
</g>
</svg>
