<?xml version="1.0" encoding="iso-8859-1"?>
<!-- Generator: Adobe Illustrator 19.2.0, SVG Export Plug-In . SVG Version: 6.00 Build 0)  -->
<svg version="1.1" id="Lager_12" xmlns="http://www.w3.org/2000/svg" xmlns:xlink="http://www.w3.org/1999/xlink" x="0px" y="0px"
	 viewBox="0 0 256 256" style="enable-background:new 0 0 256 256;" xml:space="preserve">
<path style="fill:#041E42;" d="M202,75V49.371l-2.185-0.886c-1.206-0.489-30.027-11.985-71.724-11.985
	c-42.031,0-70.713,11.498-71.913,11.987L54,49.376V75H32v35.258l1.681,1.023c6.462,3.932,13.295,7.561,20.319,10.843V238h28.447
	l5.125-14.662L88.852,220h78.797l3.449,9.324L174.07,238H202V122.373c6.339-2.965,12.694-6.434,20.324-11.096l1.676-1.023V75H202z
	 M173.112,161.084c-13.079,3.539-30.898,5.916-44.342,5.916h-0.252c-13.643,0-31.786-2.452-45.145-6.101
	c-6.908-1.887-14.249-4.482-22.374-7.895V69h134v84.237C188.473,156.003,180.954,158.963,173.112,161.084z M164.281,170.291
	l-3.205,10.875c-9.232,3.119-23.588,4.963-32.81,4.963s-23.578-1.844-32.809-4.963l-3.251-11.029
	c11.975,2.382,25.497,3.863,36.311,3.863h0.252C139.371,174,152.579,172.579,164.281,170.291z M128.092,43.5
	c33.892,0,59.495,8.053,66.908,10.666V62H61v-7.84C68.376,51.545,93.857,43.5,128.092,43.5z M39,106.312V82h15v32.395
	C48.848,111.888,43.826,109.183,39,106.312z M179.071,231l-1.378-4.023L172.524,213H84.041l-3.023,7.879L77.478,231H61v-70.421
	c7.347,2.986,14.105,5.318,20.529,7.072c0.933,0.255,1.893,0.503,2.868,0.747l5.339,18.114l1.62,0.618
	c9.848,3.755,26.5,5.999,36.911,5.999s27.062-2.244,36.911-5.999l1.62-0.618l5.286-17.935c0.972-0.24,1.928-0.484,2.856-0.735
	c7.149-1.934,13.967-4.502,20.06-7.018V231H179.071z M217,106.321c-5.498,3.313-10.318,5.979-15,8.29V82h15V106.321z"/>
</svg>
