<?xml version="1.0" encoding="iso-8859-1"?>
<!-- Generator: Adobe Illustrator 19.2.0, SVG Export Plug-In . SVG Version: 6.00 Build 0)  -->
<svg version="1.1" id="Lager_13" xmlns="http://www.w3.org/2000/svg" xmlns:xlink="http://www.w3.org/1999/xlink" x="0px" y="0px"
	 viewBox="0 0 256 256" style="enable-background:new 0 0 256 256;" xml:space="preserve">
<path style="fill:#041E42;" d="M211.545,188l8.323-68.348l-15.035,4.883L183.039,74H131V60h23V39h-23V25h6v-7h-19v7h6v14h-23v21h23
	v14H72.604l-21.756,50.476l-14.863-4.699L44.319,188H18v7h27.392l82.543,43.02L210.666,195H238v-7H211.545z M178.426,81
	l19.681,45.605c0,0-15.511-5.763-33.547-9.67c-3.115-0.687-6.162-1.053-9.152-1.585L146.647,81H178.426z M108,53v-7h39v7H108z
	 M139.426,81l8.46,33.383c-7.244-1.002-14.07-1.383-20.383-1.383h-0.508c-6.331,0-12.755,0.365-19.013,1.177L116.391,81H139.426z
	 M77.219,81h31.952l-8.694,34.071c-22.761,3.871-42.902,11.511-42.902,11.511L77.219,81z M124,228.29l-72.667-37.937l-7.311-60.84
	L124,154.246V228.29z M68.968,129.815c12.429-3.952,36.172-10.44,58.097-10.44l0.188,0.002l0.251-0.003
	c10.458,0,22.418,1.469,35.561,4.368c9.455,2.048,17.73,4.435,23.379,6.21L127.936,148L68.968,129.815z M203.865,190.457L131,228.29
	v-74.044l80.396-24.732L203.865,190.457z"/>
</svg>
