<?xml version="1.0" encoding="iso-8859-1"?>
<!-- Generator: Adobe Illustrator 19.2.0, SVG Export Plug-In . SVG Version: 6.00 Build 0)  -->
<svg version="1.1" id="Lager_13" xmlns="http://www.w3.org/2000/svg" xmlns:xlink="http://www.w3.org/1999/xlink" x="0px" y="0px"
	 viewBox="0 0 256 256" style="enable-background:new 0 0 256 256;" xml:space="preserve">
<g>
	<path style="fill:#041E42;" d="M157,88.988H99v50h58V88.988z M147,128.988h-38v-30h38V128.988z"/>
	<path style="fill:#041E42;" d="M94,88.988H36v50h58V88.988z M84,128.988H46v-30h38V128.988z"/>
	<path style="fill:#041E42;" d="M220,88.988h-58v50h58V88.988z M210,128.988h-38v-30h38V128.988z"/>
</g>
<g>
	<path style="fill:#041E42;" d="M211.105,147.988H44.95c-14.818,0-26.95,12.056-26.95,26.874v0.34
		c0,14.818,12.132,26.786,26.95,26.786H74v22.492c0,7.456,6.044,13.5,13.5,13.5c7.456,0,13.5-6.044,13.5-13.5v-22.492h54v22.492
		c0,7.456,6.044,13.5,13.5,13.5c7.456,0,13.5-6.044,13.5-13.5v-22.492h29.105c14.818,0,26.895-11.968,26.895-26.786v-0.34
		C238,160.044,225.923,147.988,211.105,147.988z M45.12,192.032c-9.374,0-17-7.626-17-17s7.626-17,17-17s17,7.626,17,17
		S54.493,192.032,45.12,192.032z M91,224.48c0,1.93-1.57,3.5-3.5,3.5c-1.93,0-3.5-1.57-3.5-3.5v-22.492h7V224.48z M172,224.48
		c0,1.93-1.57,3.5-3.5,3.5c-1.93,0-3.5-1.57-3.5-3.5v-22.492h7V224.48z M189.964,191.988H66.091c3.767-5,6.028-10.556,6.028-17
		s-2.261-12-6.028-17h123.873c-3.767,5-6.028,10.556-6.028,17S186.197,186.988,189.964,191.988z M210.935,192.032
		c-9.374,0-17-7.626-17-17s7.626-17,17-17s17,7.626,17,17S220.309,192.032,210.935,192.032z"/>
	<circle style="fill:#041E42;" cx="45.12" cy="175.032" r="6.75"/>
	<circle style="fill:#041E42;" cx="210.935" cy="175.032" r="6.75"/>
	<circle style="fill:#041E42;" cx="87.777" cy="175.032" r="6.75"/>
	<circle style="fill:#041E42;" cx="128.028" cy="175.032" r="6.75"/>
	<circle style="fill:#041E42;" cx="168.278" cy="175.032" r="6.75"/>
</g>
</svg>
