<?xml version="1.0" encoding="iso-8859-1"?>
<!-- Generator: Adobe Illustrator 19.2.0, SVG Export Plug-In . SVG Version: 6.00 Build 0)  -->
<svg version="1.1" id="Lager_13" xmlns="http://www.w3.org/2000/svg" xmlns:xlink="http://www.w3.org/1999/xlink" x="0px" y="0px"
	 viewBox="0 0 256 256" style="enable-background:new 0 0 256 256;" xml:space="preserve">
<g>
	<path style="fill:#041E42;" d="M192.458,81.52C175.388,64.449,153,55.514,131,54.691V36h-7v18.687
		c-22,0.867-43.663,9.641-60.38,26.358C46.389,98.275,37,121.521,37,146.5v3.5h86v70c0,3.033-2.467,5.5-5.5,5.5s-5.5-2.467-5.5-5.5
		h-7c0,6.904,5.596,12.5,12.5,12.5S130,226.904,130,220v-70h89v-3.5C219,121.827,209.689,98.75,192.458,81.52z M43.844,143
		c0.839-21.772,9.5-41.902,24.604-57.006c13.144-13.144,30.331-20.96,47.495-23.481C104.701,74.228,87.757,98.793,87.513,143H43.844
		z M94.513,143c0.304-51.977,24.831-75.078,32.863-81.388c-0.003,0-0.002-0.004-0.003-0.003c3.221,2.496,9.768,7.694,15.537,16.386
		c14.116,21.27,17.281,47.038,17.392,65.004H94.513z M167.299,143c-0.244-44.261-17.227-68.84-28.47-80.542
		c17.557,2.494,35.208,10.495,48.725,24.01c15.092,15.093,23.752,35.054,24.601,56.531H167.299z"/>
</g>
</svg>
