<?xml version="1.0" encoding="iso-8859-1"?>
<!-- Generator: Adobe Illustrator 19.2.0, SVG Export Plug-In . SVG Version: 6.00 Build 0)  -->
<svg version="1.1" id="Lager_12" xmlns="http://www.w3.org/2000/svg" xmlns:xlink="http://www.w3.org/1999/xlink" x="0px" y="0px"
	 viewBox="0 0 256 256" style="enable-background:new 0 0 256 256;" xml:space="preserve">
<g>
	<path style="fill:#041E42;" d="M177,60.184l-2.162-0.895c-1.11-0.459-27.644-11.251-66.752-11.251
		c-39.421,0-65.825,10.794-66.93,11.254L39,60.188V85H18v32.529l1.762,1.008c5.613,3.212,12.443,7.115,19.238,10.37V238h27.689
		l4.814-14.331L72.595,221h73.571l3.16,8.348l2.776,8.652H177V129.608c6.018-2.81,12.23-6.383,19.443-11.198l1.557-1.039V85h-21
		V60.184z M39,121.103c-4.885-2.469-9.734-5.2-14-7.635V92h14V121.103z M170,231h-12.792l-1.244-3.877L151,214H67.896l-2.914,7.123
		L61.656,231H46v-66.256c5.979,2.483,12.689,5.051,19.582,6.934c0.884,0.241,1.78,0.477,2.687,0.708l4.876,16.542l1.621,0.618
		c9.25,3.525,24.881,5.633,34.649,5.633s25.399-2.107,34.649-5.633l1.62-0.618l4.827-16.375c0.904-0.227,1.797-0.459,2.676-0.697
		c5.776-1.563,11.369-3.76,16.813-6.059V231z M76.095,174.177C87.637,176.559,99.972,178,109.65,178h0.236
		c9.476,0,21.523-1.386,32.805-3.679l-2.729,9.258c-8.628,2.892-21.966,4.6-30.548,4.6s-21.92-1.708-30.548-4.6L76.095,174.177z
		 M170,158.187c-6.086,2.615-12.339,5.206-18.642,6.91c-13.044,3.53-29.71,5.902-41.472,5.902h-0.236
		c-11.954,0-28.922-2.441-42.224-6.074c-7.57-2.068-15.018-5.049-21.426-7.775V80h124V158.187z M170,73H46v-8.058
		c6.975-2.501,30.312-9.904,62.086-9.904c31.448,0,54.903,7.412,61.914,9.91V73z M191,92v21.617c-5.028,3.293-9.65,6.003-14,8.209
		V92H191z"/>
	<path style="fill:#041E42;" d="M219.316,135.671c6.791,0,12.316-5.525,12.316-12.316c0-6.792-5.525-12.317-12.316-12.317
		c-6.795,0-12.322,5.525-12.322,12.317C206.994,130.146,212.521,135.671,219.316,135.671z M219.316,118.037
		c2.932,0,5.316,2.386,5.316,5.317s-2.385,5.316-5.316,5.316c-2.935,0-5.322-2.385-5.322-5.316S216.382,118.037,219.316,118.037z"/>
	<path style="fill:#041E42;" d="M236.138,145.017c-3.503-1.855-9.261-4.066-16.798-4.066c-6.389,0-10.914,1.539-17.088,3.888
		l-2.305,0.877l0.876,43.36l7.319,4.305l-0.028,41.118l0.05,3.502H232v-45.628l6-3.232v-43.138L236.138,145.017z M231,184.96
		l-6,3.232V231h-9.884l0.028-41.622l-7.401-4.354l-0.697-34.507c4.418-1.615,7.833-2.567,12.294-2.567
		c4.9,0,8.846,1.142,11.66,2.359V184.96z"/>
</g>
</svg>
