<?xml version="1.0" encoding="iso-8859-1"?>
<!-- Generator: Adobe Illustrator 19.2.0, SVG Export Plug-In . SVG Version: 6.00 Build 0)  -->
<svg version="1.1" id="Lager_13" xmlns="http://www.w3.org/2000/svg" xmlns:xlink="http://www.w3.org/1999/xlink" x="0px" y="0px"
	 viewBox="0 0 256 256" style="enable-background:new 0 0 256 256;" xml:space="preserve">
<g>
	<path style="fill:#041E42;" d="M206,195.152V162h-75v-15.742c33.914-1.573,61.023-29.651,61.023-63.947
		c0-35.303-28.721-64.023-64.023-64.023c-35.303,0-64.023,28.721-64.023,64.023c0,33.958,26.578,61.812,60.023,63.886V162H50v33.137
		c-10.414,1.572-18.422,10.581-18.422,21.427c0,11.949,9.722,21.67,21.671,21.67s21.67-9.721,21.67-21.67
		c0-10.669-7.753-19.556-17.919-21.339V169h67v26.26c-10.069,1.863-17.721,10.704-17.721,21.304c0,11.949,9.722,21.67,21.671,21.67
		s21.671-9.721,21.671-21.67c0-10.914-8.111-19.965-18.621-21.452V169h68v26.206c-10.216,1.742-18.02,10.653-18.02,21.357
		c0,11.949,9.722,21.67,21.671,21.67s21.671-9.721,21.671-21.67C224.322,205.753,216.365,196.767,206,195.152z M67.919,216.563
		c0,8.089-6.581,14.67-14.67,14.67s-14.671-6.581-14.671-14.67c0-7.513,5.679-13.715,12.967-14.563h3.408
		C62.241,202.848,67.919,209.051,67.919,216.563z M91,105.064v20.583C78.759,115.18,70.977,99.641,70.977,82.311
		c0-31.442,25.581-57.023,57.023-57.023s57.023,25.581,57.023,57.023c0,17.331-7.782,32.87-20.023,43.337v-21.072l-0.883-1.042
		c-9.244-8.39-21.793-13.01-35.817-13.01c-14.181,0-27.039,4.795-36.395,13.502L91,105.064z M142.621,216.563
		c0,8.089-6.581,14.67-14.671,14.67c-8.089,0-14.671-6.581-14.671-14.67c0-7.513,5.679-13.715,12.967-14.563h3.408
		C136.943,202.848,142.621,209.051,142.621,216.563z M128,139.334c-11.001,0-21.279-3.14-30-8.559v-22.623
		c8-6.865,18.351-10.628,30.194-10.628c11.7,0,22.806,3.609,29.806,10.192v23.059C149.279,136.194,139.001,139.334,128,139.334z
		 M202.651,231.233c-8.09,0-14.671-6.581-14.671-14.67c0-7.513,5.678-13.715,12.967-14.563h3.408
		c7.289,0.848,12.967,7.051,12.967,14.563C217.322,224.652,210.741,231.233,202.651,231.233z"/>
	<path style="fill:#041E42;" d="M149.185,63.383c0-11.679-9.501-21.18-21.18-21.18c-11.684,0-21.188,9.501-21.188,21.18
		s9.505,21.18,21.188,21.18C139.684,84.562,149.185,75.062,149.185,63.383z M128.005,77.562c-7.824,0-14.188-6.361-14.188-14.18
		s6.365-14.18,14.188-14.18c7.818,0,14.18,6.361,14.18,14.18S135.823,77.562,128.005,77.562z"/>
</g>
</svg>
