<?xml version="1.0" encoding="iso-8859-1"?>
<!-- Generator: Adobe Illustrator 19.2.0, SVG Export Plug-In . SVG Version: 6.00 Build 0)  -->
<svg version="1.1" id="Lager_12" xmlns="http://www.w3.org/2000/svg" xmlns:xlink="http://www.w3.org/1999/xlink" x="0px" y="0px"
	 viewBox="0 0 256 256" style="enable-background:new 0 0 256 256;" xml:space="preserve">
<g>
	<path style="fill:#041E42;" d="M78.059,114.858c7.031,0,12.751-5.72,12.751-12.751s-5.72-12.752-12.751-12.752
		c-7.034,0-12.756,5.721-12.756,12.752S71.025,114.858,78.059,114.858z M78.059,96.355c3.171,0,5.751,2.58,5.751,5.752
		c0,3.171-2.58,5.751-5.751,5.751c-3.174,0-5.756-2.58-5.756-5.751C72.303,98.936,74.885,96.355,78.059,96.355z"/>
	<path style="fill:#041E42;" d="M95.292,122.321l-2.262-0.848c-14.676-5.497-28.381-0.205-28.958,0.022l-2.192,1.105L61.556,162
		H37.773l-19.535,56h23.807l12.024-32h14.966c9.04,0,16.522-6.627,17.613-15.375l8.83-4.445L95.292,122.321z M80,166.443v2.139
		C80,174.51,74.963,179,69.035,179H49.266l-12.024,32h-9.147l14.649-42h25.754l0.342-41.447c3.617-0.981,11.26-2.531,19.473-0.156
		l0.254,34.657L80,166.443z"/>
	<path style="fill:#041E42;" d="M149.408,114.858c7.031,0,12.751-5.72,12.751-12.751s-5.72-12.752-12.751-12.752
		c-7.034,0-12.757,5.721-12.757,12.752S142.374,114.858,149.408,114.858z M149.408,96.355c3.171,0,5.751,2.58,5.751,5.752
		c0,3.171-2.58,5.751-5.751,5.751c-3.175,0-5.757-2.58-5.757-5.751C143.651,98.936,146.233,96.355,149.408,96.355z"/>
	<path style="fill:#041E42;" d="M166.64,122.321l-2.262-0.848c-14.673-5.497-28.38-0.205-28.956,0.022l-2.192,1.105L132.905,162
		h-23.784l-19.534,56h23.806l12.024-32h14.966c9.039,0,16.522-6.626,17.613-15.375l8.83-4.445L166.64,122.321z M151,166.443v2.139
		c0,5.928-4.688,10.418-10.616,10.418h-19.769l-12.024,32h-9.147l14.649-42h25.753l0.342-41.447
		c3.617-0.981,11.261-2.531,19.473-0.156l0.082,34.657L151,166.443z"/>
	<path style="fill:#041E42;" d="M220.757,114.858c7.031,0,12.751-5.72,12.751-12.751s-5.72-12.752-12.751-12.752
		c-7.033,0-12.756,5.721-12.756,12.752S213.724,114.858,220.757,114.858z M220.757,96.355c3.171,0,5.751,2.58,5.751,5.752
		c0,3.171-2.58,5.751-5.751,5.751c-3.174,0-5.756-2.58-5.756-5.751C215.001,98.936,217.583,96.355,220.757,96.355z"/>
	<path style="fill:#041E42;" d="M237.989,122.321l-2.262-0.848c-14.674-5.498-28.381-0.205-28.957,0.022l-2.192,1.105L204.254,162
		h-23.783l-19.535,56h23.807l12.024-32h14.966c9.039,0,16.522-6.626,17.613-15.375l8.83-4.445L237.989,122.321z M222,166.443v2.139
		c0,5.928-4.34,10.418-10.268,10.418h-19.769l-12.024,32h-9.146l14.648-42h25.754l0.342-41.447
		c3.618-0.981,11.261-2.531,19.474-0.156l-0.094,34.657L222,166.443z"/>
</g>
</svg>
