<?xml version="1.0" encoding="iso-8859-1"?>
<!-- Generator: Adobe Illustrator 19.2.0, SVG Export Plug-In . SVG Version: 6.00 Build 0)  -->
<svg version="1.1" id="Lager_13" xmlns="http://www.w3.org/2000/svg" xmlns:xlink="http://www.w3.org/1999/xlink" x="0px" y="0px"
	 viewBox="0 0 256 256" style="enable-background:new 0 0 256 256;" xml:space="preserve">
<g>
	<path style="fill:#041E42;" d="M217.861,152.939l20.389-5.852l-0.116-37.88l-20.702-5.717l-8.991-20.909l10.278-18.326
		l-26.72-26.72l-18.314,10.312l-20.998-8.857l-5.586-20.706l-37.798-0.038l-5.653,20.676L83.091,48.19l-17.907-9.938L38.485,64.95
		l9.944,17.945l-9.001,20.83l-20.819,5.506l-0.091,37.77l20.555,5.601l8.334,21.501l-11.094,19.063l26.777,26.776l19.062-11.068
		l21.327,8.557l5.764,20.496l36.856-0.066l5.648-20.547l22.844-8.113l19.501,11.457l26.797-26.797l-11.429-19.43L217.861,152.939z
		 M212.11,192.741l-19.139,19.139l-17.647-10.367l-29.357,10.426l-5.205,18.932l-26.218,0.047l-5.26-18.699L81.59,201.106
		l-17.356,10.078l-19.158-19.157l10.076-17.315l-10.828-27.935l-18.791-5.12l0.063-27.033l18.909-5l11.716-27.111l-9.056-16.342
		l19.237-19.236l16.362,9.08l26.768-12.064l5.112-18.697l27.093,0.026l5.08,18.833l27.311,11.521l16.678-9.392l19.214,19.216
		l-9.376,16.715l11.685,27.173l18.821,5.197l0.085,27.276l-18.633,5.348l-10.898,27.884L212.11,192.741z"/>
	<path style="fill:#041E42;" d="M128.605,82.339c-13.127,0-23.806,10.675-23.806,23.796c0,13.12,10.679,23.795,23.806,23.795
		c13.12,0,23.795-10.675,23.795-23.795C152.4,93.014,141.726,82.339,128.605,82.339z M128.605,122.93
		c-9.267,0-16.806-7.534-16.806-16.795c0-9.262,7.539-16.796,16.806-16.796c9.261,0,16.795,7.534,16.795,16.796
		C145.4,115.396,137.866,122.93,128.605,122.93z"/>
	<path style="fill:#041E42;" d="M128.6,54.884c-40.24,0-72.978,32.738-72.978,72.979S88.359,200.84,128.6,200.84
		s72.979-32.737,72.979-72.978S168.84,54.884,128.6,54.884z M164,183.469c-10,6.553-22.462,10.371-35.5,10.371
		c-13.038,0-25.5-3.817-35.5-10.37V157.29c9-8.06,21.912-12.48,35.722-12.48c13.646,0,26.278,4.242,35.278,11.977V183.469z
		 M171,178.324v-24.673l-1.127-1.042c-10.516-9.544-25.091-14.8-41.061-14.8c-16.148,0-30.979,5.455-41.622,15.36L86,154.209v24.115
		c-14-12.112-23.458-30.234-23.458-50.462c0-36.381,29.637-65.979,66.017-65.979c36.381,0,65.978,29.598,65.978,65.979
		C194.538,148.09,185,166.212,171,178.324z"/>
</g>
</svg>
