<?xml version="1.0" encoding="iso-8859-1"?>
<!-- Generator: Adobe Illustrator 19.2.0, SVG Export Plug-In . SVG Version: 6.00 Build 0)  -->
<svg version="1.1" id="Lager_13" xmlns="http://www.w3.org/2000/svg" xmlns:xlink="http://www.w3.org/1999/xlink" x="0px" y="0px"
	 viewBox="0 0 256 256" style="enable-background:new 0 0 256 256;" xml:space="preserve">
<g>
	<rect x="87" y="186" style="fill:#041E42;" width="22" height="7"/>
	<path style="fill:#041E42;" d="M59,238h27.866l8.658-29h65.665l8.659,29H198v-68H59V238z M66,177h125v54h-15.923l-8.659-29H90.296
		l-8.658,29H66V177z"/>
	<path style="fill:#041E42;" d="M104.967,162.618l2.217-6.641c-27.296-9.113-45.636-34.586-45.636-63.385
		c0-36.839,29.971-66.81,66.81-66.81s66.81,29.971,66.81,66.81c0,19.295-8.344,37.646-22.893,50.348l4.604,5.273
		c16.071-14.031,25.289-34.305,25.289-55.621c0-40.699-33.11-73.81-73.81-73.81s-73.81,33.11-73.81,73.81
		C54.548,124.408,74.81,152.549,104.967,162.618z"/>
	<path style="fill:#041E42;" d="M155.855,75.288c0-15.163-12.336-27.499-27.498-27.499c-15.163,0-27.499,12.336-27.499,27.499
		s12.336,27.499,27.499,27.499C143.52,102.787,155.855,90.451,155.855,75.288z M107.858,75.288c0-11.303,9.196-20.499,20.499-20.499
		s20.498,9.196,20.498,20.499s-9.195,20.499-20.498,20.499S107.858,86.591,107.858,75.288z"/>
	<path style="fill:#041E42;" d="M144.028,104l-8.798,12h-13.621l-8.798-12H85.532l13.066,20.339L122.758,165h8.15l-16.002-27h30.171
		l16.024,27h8.15l-17.799-30.088L171.308,104H144.028z M145.537,131h-34.229l-12.264-20h10.221l8.798,12H120h17h1.777l8.798-12
		h10.283L145.537,131z"/>
</g>
</svg>
