<?xml version="1.0" encoding="iso-8859-1"?>
<!-- Generator: Adobe Illustrator 19.2.0, SVG Export Plug-In . SVG Version: 6.00 Build 0)  -->
<svg version="1.1" id="Lager_13" xmlns="http://www.w3.org/2000/svg" xmlns:xlink="http://www.w3.org/1999/xlink" x="0px" y="0px"
	 viewBox="0 0 256 256" style="enable-background:new 0 0 256 256;" xml:space="preserve">
<g>
	<path style="fill:#041E42;" d="M32,115.858l1.708,0.991c5.966,3.214,12.855,6.831,19.199,9.285l4.716,1.837L57.705,84H32V115.858z
		 M39,91h11.687l0.063,26.604c-4.429-1.998-8.75-4.295-11.75-5.929V91z"/>
	<path style="fill:#041E42;" d="M198.971,84l0.115,43.972l4.749-1.837c6.348-2.456,13.33-6.071,19.296-9.285l1.869-0.991V84H198.971
		z M218,111.676c-3,1.634-7.481,3.93-11.912,5.929L205.988,91H218V111.676z"/>
	<path style="fill:#041E42;" d="M129.513,143h0.774c17.357,0,41.453-7.213,57.552-14.361l2.161-0.924V84H67v43.203l2.202,0.847
		C90.139,135.814,111.866,143,129.513,143z M74,91h109v32.146C167,129.685,145.9,136,130.287,136h-0.774
		C113.589,136,93,129.536,74,122.33V91z"/>
	<path style="fill:#041E42;" d="M190,32.563l-1.928-0.99c-14.726-7.893-38.09-12.993-59.461-12.993
		c-20.604,0-42.322,4.795-59.69,13.156L67,32.69V72h123V32.563z M183,65H74V37.116c16-7.244,36.209-11.536,54.732-11.536
		c19.11,0,40.268,4.466,54.268,11.215V65z"/>
	<path style="fill:#041E42;" d="M157.225,189.576c-7.896,2.623-21.8,5.424-29.171,5.424h-1.92c-7.521,0-19.51-2.959-26.68-5.415
		l-14.019-42.475L66,139.206V238h29.355l6.949-23h55.589l6.949,23H190v-98.793l-19.098,7.904L157.225,189.576z M183,149.678V231
		h-12.972l-6.949-23h-65.96l-6.949,23H73v-81.323l6.775,2.716l13.974,42.709l1.648,0.492c6.836,2.514,21.265,6.407,30.734,6.407
		h1.92c8.727,0,24.999-3.399,33.173-6.406l1.596-0.539l13.741-42.685L183,149.678z"/>
</g>
</svg>
