<?xml version="1.0" encoding="iso-8859-1"?>
<!-- Generator: Adobe Illustrator 19.2.0, SVG Export Plug-In . SVG Version: 6.00 Build 0)  -->
<svg version="1.1" id="Lager_6" xmlns="http://www.w3.org/2000/svg" xmlns:xlink="http://www.w3.org/1999/xlink" x="0px" y="0px"
	 viewBox="0 0 256 256" style="enable-background:new 0 0 256 256;" xml:space="preserve">
<g>
	<path style="fill:#041E42;" d="M157.263,129.149c-2.402-2.015-6.744-4.472-6.928-4.576l-2.26-1.275l-12.261,20.822l3.671-23.935
		l-2.492-0.485c-0.19-0.037-4.711-0.911-7.858-0.911c-3.137,0-8.042,0.909-8.249,0.948l-2.55,0.476l3.991,23.829l-12.571-20.692
		l-2.221,1.23c-0.17,0.094-4.195,2.331-6.606,4.354c-2.402,2.016-5.576,5.865-5.709,6.028l-1.648,2.004l18.376,15.69l-22.932-7.77
		l-0.911,2.37c-0.07,0.181-1.716,4.482-2.263,7.582c-0.544,3.089-0.501,8.077-0.499,8.288l0.027,2.595l24.161,0.208l-22.561,8.788
		l0.825,2.401c0.063,0.184,1.567,4.536,3.14,7.262c1.569,2.716,4.809,6.509,4.946,6.669l1.687,1.971l18.643-15.371l-11.635,21.235
		l2.176,1.308c0.167,0.1,4.115,2.468,7.074,3.545c2.946,1.072,7.867,1.896,8.075,1.93l2.559,0.425l4.401-23.757l4.737,23.744
		l2.508-0.396c0.192-0.03,4.74-0.755,7.697-1.831c2.948-1.073,7.246-3.605,7.427-3.712l2.234-1.32l-11.9-21.028l18.89,15.145
		l1.667-1.916c0.128-0.147,3.145-3.626,4.719-6.351c1.568-2.716,3.233-7.42,3.303-7.618l0.863-2.447l-22.632-8.458l24.205-0.542
		l0.045-2.539c0.004-0.195,0.079-4.799-0.467-7.897c-0.545-3.09-2.292-7.762-2.367-7.959l-0.912-2.429l-22.774,8.067l18.194-15.974
		l-1.597-1.974C162.576,134.749,159.674,131.172,157.263,129.149z M129.134,124.076c1.301,0,2.977,0.196,4.345,0.396l-3.155,20.575
		c-0.449-0.034-0.9-0.057-1.357-0.057c-0.375,0-0.746,0.016-1.116,0.039l-3.436-20.511
		C125.981,124.292,127.835,124.076,129.134,124.076z M90.661,160.479c0.049-1.581,0.159-3.444,0.385-4.723
		c0.226-1.281,0.71-2.898,1.145-4.211l19.708,6.678c-0.204,0.792-0.351,1.605-0.443,2.435L90.661,160.479z M98.251,185.601
		c-0.94-1.191-2.064-2.693-2.741-3.865c-0.651-1.126-1.318-2.677-1.829-3.961l19.393-7.553c0.359,0.747,0.77,1.463,1.227,2.148
		L98.251,185.601z M100.993,136.356c1.01-1.133,2.294-2.501,3.331-3.371c0.996-0.836,2.407-1.763,3.583-2.489l10.811,17.794
		c-0.671,0.481-1.306,1.009-1.902,1.577L100.993,136.356z M120.214,199.967c-1.486-0.308-3.312-0.736-4.584-1.199
		c-1.223-0.445-2.73-1.203-3.948-1.859l10.003-18.256c0.746,0.34,1.519,0.63,2.317,0.864L120.214,199.967z M128.967,174.948
		c-6.802,0-12.335-5.534-12.335-12.335c0-6.802,5.534-12.336,12.335-12.336c6.802,0,12.336,5.534,12.336,12.336
		C141.303,169.414,135.769,174.948,128.967,174.948z M146.272,196.854c-1.393,0.747-3.062,1.584-4.283,2.028
		c-1.222,0.445-2.865,0.833-4.219,1.114l-4.071-20.411c0.801-0.224,1.579-0.501,2.33-0.831L146.272,196.854z M164.234,177.718
		c-0.587,1.468-1.328,3.182-1.977,4.307c-0.651,1.126-1.659,2.479-2.516,3.565l-16.243-13.022c0.466-0.678,0.885-1.39,1.254-2.132
		L164.234,177.718z M165.693,151.516c0.476,1.441,1.019,3.236,1.253,4.57c0.226,1.281,0.324,2.966,0.364,4.349l-20.806,0.465
		c-0.081-0.832-0.222-1.646-0.414-2.44L165.693,151.516z M141.292,150.033c-0.588-0.577-1.216-1.113-1.88-1.604l10.556-17.925
		c1.344,0.833,2.904,1.86,3.898,2.694c0.996,0.836,2.154,2.064,3.074,3.098L141.292,150.033z"/>
	<path style="fill:#041E42;" d="M184,111.576c-7.665-3.19-15.201-5.968-22.942-8.114c-0.019-0.005-0.039-0.01-0.058-0.015V87.634
		c0-4.216-3.418-7.634-7.634-7.634h-48.733C100.418,80,97,83.418,97,87.634v15.96c-0.11,0.029-0.215,0.058-0.326,0.087
		c-7.916,2.1-15.921,4.784-23.674,7.895v14.818l-17,7.719v56.792l17,7.558v7.817l24.753,18.881L103.275,238h52.557l5.601-12.839
		L184,206.28v-7.303l17-8.142v-56.687l-17-8.012V111.576z M73,190.802l-10-4.446v-47.733l10-4.542V190.802z M104,87.634
		c0-0.349,0.284-0.634,0.634-0.634h48.733c0.349,0,0.634,0.284,0.634,0.634v14.118c-8.132-1.845-16.197-2.922-24.049-2.922
		c-8.214,0-16.996,1.119-25.951,3.07V87.634z M177,202.987l-20.029,16.781l-1.117,1.026l-0.606,1.465l-3.919,8.74h-43.491
		l-3.822-8.664l-0.731-1.657l-1.302-1.095L80,202.803v-86.39c5.893-2.179,11.559-4.023,17-5.532
		c12.104-3.357,23.09-5.052,32.951-5.052c9.435,0,19.406,1.607,31.049,5.059c4.996,1.481,10.295,3.297,16,5.48V202.987z
		 M194,138.588v47.839l-10,4.79v-57.342L194,138.588z"/>
	<path style="fill:#041E42;" d="M205.977,17.985c-17.681,0-32.013,14.332-32.013,32.013c0,17.677,14.332,32.013,32.013,32.013
		c17.681,0,32.013-14.336,32.013-32.013C237.99,32.317,223.658,17.985,205.977,17.985z M205.977,75.011
		c-13.792,0-25.013-11.221-25.013-25.013s11.221-25.013,25.013-25.013s25.013,11.221,25.013,25.013S219.769,75.011,205.977,75.011z"
		/>
	<polygon style="fill:#041E42;" points="209,36 202,36 202,46 192,46 192,53 202,53 202,64 209,64 209,53 220,53 220,46 209,46 	"/>
</g>
</svg>
