<?xml version="1.0" encoding="iso-8859-1"?>
<!-- Generator: Adobe Illustrator 19.2.0, SVG Export Plug-In . SVG Version: 6.00 Build 0)  -->
<svg version="1.1" id="Lager_13" xmlns="http://www.w3.org/2000/svg" xmlns:xlink="http://www.w3.org/1999/xlink" x="0px" y="0px"
	 viewBox="0 0 256 256" style="enable-background:new 0 0 256 256;" xml:space="preserve">
<g>
	<g>
		<g>
			<path style="fill:#041E42;" d="M149.656,60.357c11.465,0,20.792-9.324,20.792-20.784c0-11.464-9.327-20.791-20.792-20.791
				c-11.464,0-20.791,9.327-20.791,20.791C128.865,51.033,138.192,60.357,149.656,60.357z M149.656,28.782
				c5.951,0,10.792,4.841,10.792,10.791c0,5.946-4.841,10.784-10.792,10.784c-5.95,0-10.791-4.838-10.791-10.784
				C138.865,33.623,143.706,28.782,149.656,28.782z"/>
			<path style="fill:#041E42;" d="M114.997,36.387l-1.611-9.869c-25.153,4.107-47.805,18.62-62.148,39.816l8.282,5.604
				C72.327,53.011,92.548,40.053,114.997,36.387z"/>
			<path style="fill:#041E42;" d="M183.03,42.93l-5.861,8.102c21.603,15.629,34.499,40.853,34.499,67.473
				c0,45.87-37.318,83.188-83.188,83.188c-16.107,0-31.721-4.601-45.154-13.306l-5.438,8.393
				c15.056,9.756,32.551,14.913,50.592,14.913c51.385,0,93.188-41.804,93.188-93.188C221.668,88.685,207.224,60.433,183.03,42.93z"
				/>
			<path style="fill:#041E42;" d="M35.431,113.284c-0.099,1.672-0.146,3.379-0.146,5.22c0,8.533,1.154,16.994,3.429,25.146
				l9.632-2.689c-2.031-7.276-3.061-14.832-3.061-22.457c0-1.643,0.042-3.158,0.129-4.632L35.431,113.284z"/>
		</g>
	</g>
	<g>
		<g>
			<g>
				<path style="fill:#041E42;" d="M162.581,67.715c-7.758-7.31-19.041-5.624-19.519-5.55l-1.172,0.185l-38.172,27.408
					l-35.953-2.119l-3.284-10.157l-21.556-2.126l-9.842,28.12l72.576,20.727l10.622-5.384l-0.277,22.178l0.711,3.176l-55.31,2.16
					c-9.908,0.387-18.176,7.783-19.66,17.588l-10.479,69.247l26.475,4.084l17.327-55.985l53.805,6.503l2.452,8.418l9.602-2.797
					l-1.747-5.996c14.003-3.155,20.385-16.681,21.872-24.537l0.053-0.345c0.054-0.46,5.443-46.288,7.975-72.286
					C170.05,80.266,167.863,72.691,162.581,67.715z M67.984,170.336l-17.243,55.716l-8.094-1.248l8.987-59.388
					c0.767-5.068,5.041-8.892,10.163-9.092l57.268-2.237l6.769,23.242L67.984,170.336z M159.126,89.259
					c-2.433,24.989-7.525,68.445-7.927,71.872c-0.357,1.651-3.46,14.387-14.832,16.599l-8.166-28.035l-2.182-9.743l0.326-26.158
					L139,107.457V96.244L104.377,114L45.903,97.02l3.804-10.818l7.244,0.65l3.386,10.398l46.326,2.715l38.987-27.998
					c2.118-0.101,6.939,0.042,10.112,3.068C158.645,77.785,159.777,82.569,159.126,89.259z"/>
			</g>
		</g>
	</g>
</g>
</svg>
