<?xml version="1.0" encoding="iso-8859-1"?>
<!-- Generator: Adobe Illustrator 19.2.0, SVG Export Plug-In . SVG Version: 6.00 Build 0)  -->
<svg version="1.1" id="Lager_13" xmlns="http://www.w3.org/2000/svg" xmlns:xlink="http://www.w3.org/1999/xlink" x="0px" y="0px"
	 viewBox="0 0 256 256" style="enable-background:new 0 0 256 256;" xml:space="preserve">
<g>
	<polygon style="fill:#041E42;" points="193.474,67.378 170.298,44.202 175.247,39.253 193.521,57.526 203.352,47.882 
		208.254,52.88 	"/>
</g>
<path style="fill:#041E42;" d="M193.66,24.879c20.385,0,36.969,16.584,36.969,36.969c0,20.387-16.584,36.972-36.969,36.972
	c-20.387,0-36.972-16.586-36.972-36.972C156.688,41.463,173.273,24.879,193.66,24.879 M193.66,17.879
	c-24.286,0-43.972,19.686-43.972,43.969c0,24.283,19.686,43.972,43.972,43.972c24.283,0,43.969-19.689,43.969-43.972
	C237.629,37.565,217.943,17.879,193.66,17.879L193.66,17.879z"/>
<g>
	<path style="fill:#041E42;" d="M130,195h-7v-21h7V195z M130,165h-7v-17h7V165z"/>
	<polygon style="fill:#041E42;" points="234.694,238 157.55,127 149.026,127 221.306,231 130,231 130,204 123,204 123,231 
		33.736,231 104.481,127 96.014,127 20.508,238 	"/>
	<rect x="123" y="174" style="fill:#041E42;" width="7" height="21"/>
	<rect x="123" y="148" style="fill:#041E42;" width="7" height="17"/>
	<rect x="123" y="127" style="fill:#041E42;" width="7" height="12"/>
</g>
</svg>
