<?xml version="1.0" encoding="iso-8859-1"?>
<!-- Generator: Adobe Illustrator 19.2.0, SVG Export Plug-In . SVG Version: 6.00 Build 0)  -->
<svg version="1.1" id="Lager_13" xmlns="http://www.w3.org/2000/svg" xmlns:xlink="http://www.w3.org/1999/xlink" x="0px" y="0px"
	 viewBox="0 0 256 256" style="enable-background:new 0 0 256 256;" xml:space="preserve">
<g>
	<polygon style="fill:#041E42;" points="138.748,198 127.986,218.484 109.062,198 16,198 16,205 105.998,205 129.572,230.516 
		142.979,205 236,205 236,198 	"/>
	<path style="fill:#041E42;" d="M125.878,185.93c32.192,0,58.289-26.097,58.289-58.289s-26.097-58.289-58.289-58.289
		s-58.289,26.097-58.289,58.289S93.686,185.93,125.878,185.93z M125.878,76.352c28.281,0,51.289,23.008,51.289,51.289
		s-23.008,51.289-51.289,51.289s-51.289-23.008-51.289-51.289S97.597,76.352,125.878,76.352z"/>
	<path style="fill:#041E42;" d="M125.688,165.979c21.244,0,38.527-17.283,38.527-38.526c0-21.244-17.283-38.527-38.527-38.527
		c-21.244,0-38.527,17.283-38.527,38.527C87.162,148.695,104.445,165.979,125.688,165.979z M125.688,95.925
		c17.384,0,31.527,14.144,31.527,31.527s-14.144,31.526-31.527,31.526s-31.527-14.143-31.527-31.526S108.305,95.925,125.688,95.925z
		"/>
	<path style="fill:#041E42;" d="M125.5,144.187c9.124,0,16.545-7.423,16.545-16.546s-7.422-16.545-16.545-16.545
		c-9.123,0-16.545,7.422-16.545,16.545S116.376,144.187,125.5,144.187z M125.5,118.096c5.263,0,9.545,4.282,9.545,9.545
		c0,5.264-4.282,9.546-9.545,9.546s-9.545-4.282-9.545-9.546C115.954,122.378,120.236,118.096,125.5,118.096z"/>
	<circle style="fill:#041E42;" cx="125.605" cy="103.531" r="4.101"/>
	<circle style="fill:#041E42;" cx="125.605" cy="151.736" r="4.101"/>
	<circle style="fill:#041E42;" cx="101.502" cy="127.634" r="4.101"/>
	<circle style="fill:#041E42;" cx="149.707" cy="127.634" r="4.101"/>
	
		<ellipse transform="matrix(0.7071 -0.7071 0.7071 0.7071 -70.5048 119.1395)" style="fill:#041E42;" cx="108.562" cy="144.677" rx="4.101" ry="4.101"/>
	
		<ellipse transform="matrix(0.7071 -0.7071 0.7071 0.7071 -36.4188 133.2575)" style="fill:#041E42;" cx="142.648" cy="110.59" rx="4.101" ry="4.101"/>
	
		<ellipse transform="matrix(0.7071 -0.7071 0.7071 0.7071 -46.4022 109.1551)" style="fill:#041E42;" cx="108.562" cy="110.59" rx="4.101" ry="4.101"/>
	
		<ellipse transform="matrix(0.7071 -0.7071 0.7071 0.7071 -60.5212 143.2421)" style="fill:#041E42;" cx="142.648" cy="144.677" rx="4.101" ry="4.101"/>
	
		<rect x="199.285" y="168.202" transform="matrix(0.7071 -0.7071 0.7071 0.7071 -64.3269 199.2576)" style="fill:#041E42;" width="18.152" height="18.152"/>
	
		<rect x="39.216" y="158.327" transform="matrix(0.7071 -0.7071 0.7071 0.7071 -104.2278 83.1785)" style="fill:#041E42;" width="18.152" height="18.152"/>
	
		<rect x="177.462" y="181.392" transform="matrix(0.7071 -0.7071 0.7071 0.7071 -78.1655 183.1525)" style="fill:#041E42;" width="9.076" height="9.076"/>
</g>
</svg>
