<?xml version="1.0" encoding="iso-8859-1"?>
<!-- Generator: Adobe Illustrator 19.2.0, SVG Export Plug-In . SVG Version: 6.00 Build 0)  -->
<svg version="1.1" id="Lager_13" xmlns="http://www.w3.org/2000/svg" xmlns:xlink="http://www.w3.org/1999/xlink" x="0px" y="0px"
	 viewBox="0 0 256 256" style="enable-background:new 0 0 256 256;" xml:space="preserve">
<g>
	<path style="fill:#041E42;" d="M128.461,53.127c-41.238,0-74.666,33.428-74.666,74.654c0,41.238,33.428,74.666,74.666,74.666
		c41.226,0,74.654-33.428,74.654-74.666C203.115,86.555,169.687,53.127,128.461,53.127z M128.461,195.447
		c-37.311,0-67.666-30.355-67.666-67.666c0-37.305,30.355-67.654,67.666-67.654c37.305,0,67.654,30.349,67.654,67.654
		C196.115,165.092,165.766,195.447,128.461,195.447z"/>
	<path style="fill:#041E42;" d="M217.589,153.09L238,147.232l-0.116-37.918l-20.725-5.724l-9.005-20.938l10.291-18.346
		l-26.747-26.747l-18.335,10.324l-21.027-8.87l-5.592-20.729l-37.836-0.039l-5.659,20.699l-20.587,9.279l-17.928-9.948L38.01,65.002
		l9.956,17.966l-9.014,20.858l-20.843,5.512l-0.091,37.807l20.578,5.607l8.346,21.53l-11.106,19.084l26.804,26.805l19.083-11.081
		l21.356,8.567l5.77,20.52l36.894-0.065l5.655-20.57l22.874-8.125l19.523,11.47l26.823-26.823l-11.441-19.452L217.589,153.09z
		 M211.839,192.943l-19.165,19.165l-17.67-10.38l-29.388,10.438l-5.212,18.955l-26.255,0.046l-5.266-18.723L81.16,201.322
		l-17.378,10.091l-19.185-19.186l10.089-17.336l-10.84-27.964l-18.814-5.127l0.063-27.07l18.933-5.006l11.729-27.14l-9.067-16.362
		l19.264-19.264l16.383,9.091l26.796-12.076l5.118-18.721l27.131,0.027l5.086,18.855l27.34,11.534l16.698-9.404l19.241,19.241
		l-9.389,16.736l11.698,27.201l18.844,5.204l0.085,27.314l-18.655,5.354l-10.91,27.913L211.839,192.943z"/>
	<path style="fill:#041E42;" d="M141.607,112l-6.85-16.372l-6.501-15.549l-6.404,15.59L115.139,112h-14.964H83.714l11.419,11.627
		l10.786,11.085l-4.58,16.745L96.931,167.6l14.6-8.247l16.769-9.463l16.597,9.423l14.473,8.219l-4.248-16.094l-4.443-16.833
		l10.714-11L172.684,112H156.33H141.607z M142.913,132.833l5.442,20.504l-20.042-11.441l-20.22,11.373l5.625-20.422L100.175,119
		h19.63l8.508-20.408L136.973,119h19.357L142.913,132.833z"/>
</g>
</svg>
