<?xml version="1.0" encoding="iso-8859-1"?>
<!-- Generator: Adobe Illustrator 19.2.0, SVG Export Plug-In . SVG Version: 6.00 Build 0)  -->
<svg version="1.1" id="Lager_13" xmlns="http://www.w3.org/2000/svg" xmlns:xlink="http://www.w3.org/1999/xlink" x="0px" y="0px"
	 viewBox="0 0 256 256" style="enable-background:new 0 0 256 256;" xml:space="preserve">
<g>
	<path style="fill:#041E42;" d="M185.868,173.554c-2.215,30.319-27.844,54.323-59.051,54.323c-32.657,0-59.225-26.279-59.225-58.581
		c0-5.001,0.641-9.976,1.905-14.784l0.068-0.299c2.099-10.581,12.401-29.651,26.659-56.046
		c8.688-16.082,19.254-35.643,30.592-58.187c5.31,10.558,10.446,20.452,15.304,29.65c2.743-1.859,5.656-3.499,8.731-4.883
		c-6.149-11.646-12.742-24.405-19.552-38.188l-4.482-9.072l-4.482,9.072C109.388,52.759,97.21,75.301,87.426,93.414
		c-15.158,28.059-25.193,46.635-27.639,58.7c-1.457,5.594-2.196,11.373-2.196,17.182c0,37.815,31.054,68.581,69.225,68.581
		c37.759,0,68.533-30.11,69.193-67.364c-0.067,0.027-0.132,0.058-0.2,0.085C192.566,171.891,189.244,172.871,185.868,173.554z"/>
	<path style="fill:#041E42;" d="M121.47,88h17.277c0,0-0.735,0.983-1.243,1.641c-0.072,0.08-0.144,0.213-0.215,0.309
		c-0.815,1.108-1.587,2.373-2.294,3.564c-0.694,1.169-1.349,2.45-1.944,3.713c-0.584,1.239-1.12,2.55-1.591,3.849
		c-0.469,1.289-0.885,2.633-1.238,3.972c-0.353,1.333-0.649,2.704-0.884,4.067c-0.233,1.369-0.41,2.762-0.523,4.131
		c-0.114,1.383-0.169,2.788-0.162,4.173v0v0.001v0c0.007,1.395,0.075,2.804,0.204,4.187c0.13,1.393,0.324,2.795,0.577,4.168
		c0.127,0.69,0.271,1.382,0.43,2.071c0.159,0.689,0.335,1.375,0.525,2.054c0.383,1.366,0.834,2.727,1.342,4.046
		c0.517,1.34,1.1,2.661,1.732,3.925c0.645,1.291,1.362,2.565,2.133,3.786c0.781,1.237,1.636,2.448,2.539,3.601l7.867-6.174
		c-0.693-0.884-1.35-1.814-1.949-2.765c-0.594-0.94-1.147-1.922-1.646-2.92c-0.491-0.982-0.944-2.009-1.345-3.046
		c-0.395-1.026-0.747-2.088-1.046-3.152c-0.297-1.063-0.549-2.151-0.749-3.235c-0.199-1.082-0.352-2.188-0.454-3.285
		c-0.102-1.092-0.156-2.204-0.161-3.306c-0.005-1.097,0.038-2.207,0.129-3.301c0.089-1.083,0.229-2.182,0.413-3.263
		c0.184-1.07,0.418-2.146,0.695-3.197c0.277-1.049,0.604-2.092,0.969-3.099c0.368-1.012,0.784-2.012,1.236-2.972
		c0.46-0.975,0.964-1.925,1.498-2.824c0.54-0.909,1.129-1.798,1.751-2.643c0.437-0.595,0.903-1.167,1.379-1.725l-0.007,19.157
		l9.454-9.67L156,78.908V79h-24.856L121.47,88z M136.502,91.171c0.258-0.395,0.518-0.783,0.786-1.147
		C137.018,90.391,136.761,90.784,136.502,91.171z"/>
	<path style="fill:#041E42;" d="M206.336,133.979c-0.514,0.978-1.087,1.948-1.703,2.884c-0.605,0.917-1.268,1.821-1.97,2.688
		c-0.689,0.854-1.432,1.689-2.208,2.483c-0.766,0.784-1.581,1.546-2.423,2.263c-0.839,0.715-1.719,1.398-2.62,2.037
		c-0.891,0.632-1.827,1.235-2.777,1.79c-0.955,0.557-1.939,1.075-2.925,1.541c-0.994,0.469-2.014,0.896-3.035,1.272
		c-1.023,0.378-2.07,0.713-3.116,0.997c-1.039,0.282-2.104,0.521-3.168,0.71c-1.06,0.188-2.134,0.327-3.192,0.416
		c-1.062,0.088-2.136,0.129-3.19,0.113c-1.062-0.013-2.128-0.078-3.163-0.193c-0.739-0.083-1.472-0.201-2.199-0.335l16.598-9.574
		l-13.192-3.508l-21.846,12.597l12.257,21.255l0.34,0.59l13.18,3.562l-1.66-2.877l-6.99-12.12c0.796,0.137,1.598,0.258,2.404,0.348
		c1.361,0.151,2.756,0.236,4.147,0.255c0.171,0.002,0.342,0.003,0.513,0.003c1.205,0,2.424-0.051,3.629-0.151
		c1.365-0.113,2.749-0.293,4.11-0.535c1.358-0.24,2.72-0.546,4.043-0.905c1.327-0.36,2.659-0.786,3.955-1.265
		c1.291-0.476,2.584-1.018,3.844-1.612c1.247-0.589,2.488-1.243,3.696-1.946c1.208-0.706,2.394-1.47,3.519-2.269
		c1.141-0.807,2.259-1.677,3.324-2.584c1.074-0.915,2.114-1.888,3.092-2.888c0.992-1.017,1.945-2.088,2.831-3.184
		c0.902-1.116,1.757-2.283,2.54-3.47c0.799-1.212,1.542-2.47,2.207-3.736c0.683-1.297,1.305-2.642,1.85-3.996l-9.277-3.732
		C207.341,131.945,206.862,132.979,206.336,133.979z"/>
	<path style="fill:#041E42;" d="M226.087,85.694l-1.666,2.882l-6.992,12.1c-0.278-0.753-0.572-1.503-0.895-2.241
		c-0.551-1.258-1.175-2.51-1.854-3.721c-0.671-1.196-1.411-2.379-2.199-3.514c-0.783-1.129-1.631-2.237-2.516-3.29
		c-0.879-1.047-1.825-2.074-2.811-3.054c-0.976-0.969-2.01-1.908-3.074-2.794c-1.064-0.884-2.179-1.731-3.315-2.52
		c-1.143-0.791-2.33-1.54-3.532-2.227c-1.217-0.693-2.471-1.339-3.725-1.914c-1.276-0.588-2.591-1.122-3.9-1.586
		c-1.33-0.474-2.693-0.889-4.046-1.233c-1.371-0.352-2.775-0.641-4.174-0.861c-1.417-0.223-2.854-0.379-4.272-0.464
		c-1.445-0.086-2.906-0.102-4.345-0.045c-1.472,0.06-2.946,0.193-4.384,0.397l1.41,9.9c1.104-0.157,2.239-0.26,3.371-0.306
		c1.105-0.045,2.233-0.032,3.352,0.035c1.098,0.065,2.212,0.187,3.312,0.36c1.09,0.171,2.184,0.396,3.256,0.671
		c1.061,0.271,2.128,0.596,3.175,0.969c1.031,0.365,2.062,0.784,3.069,1.248c0.992,0.455,1.982,0.965,2.943,1.513
		c0.95,0.543,1.891,1.136,2.794,1.761c0.896,0.623,1.778,1.293,2.619,1.992c0.839,0.696,1.653,1.436,2.42,2.198
		c0.772,0.767,1.512,1.57,2.201,2.392c0.689,0.82,1.348,1.68,1.957,2.559c0.607,0.875,1.178,1.785,1.693,2.705
		c0.52,0.926,0.995,1.879,1.413,2.834c0.299,0.684,0.563,1.379,0.809,2.073l-16.6-9.592l3.559,13.179l21.832,12.621L229.238,99.5
		l0.354-0.613L226.087,85.694z"/>
</g>
</svg>
