<?xml version="1.0" encoding="iso-8859-1"?>
<!-- Generator: Adobe Illustrator 19.2.0, SVG Export Plug-In . SVG Version: 6.00 Build 0)  -->
<svg version="1.1" id="Lager_13" xmlns="http://www.w3.org/2000/svg" xmlns:xlink="http://www.w3.org/1999/xlink" x="0px" y="0px"
	 viewBox="0 0 256 256" style="enable-background:new 0 0 256 256;" xml:space="preserve">
<g>
	<path style="fill:#041E42;" d="M173.019,54.244c-11.387-11.619-26.64-18.018-43.004-18.018c-16.419,0-32.007,6.355-43.892,17.895
		c-12.013,11.664-18.667,27.095-18.667,43.45c0,26.164,16.545,49.173,39.545,57.77V177v7h7.077h27.173H148v-7v-21.584
		c11-3.855,21.268-10.775,28.715-19.855c8.987-10.958,13.799-24.094,13.799-37.989C190.514,81.163,184.321,65.776,173.019,54.244z
		 M141,150.205V177h-27v-26.795c-23-6.033-39.545-27.311-39.545-52.633c0-30.014,25.545-54.346,55.56-54.346
		s53.437,24.331,53.437,54.346C183.451,122.895,165,144.172,141,150.205z"/>
	<rect x="107" y="191" style="fill:#041E42;" width="41" height="7"/>
	<path style="fill:#041E42;" d="M107,212h12.569c0.493,3.945,3.852,7,7.931,7s7.438-3.055,7.931-7H148v-7h-41V212z"/>
	<polygon style="fill:#041E42;" points="140.749,111.409 130,100.044 118.949,111.597 105.967,98.614 101.018,103.563 
		119.061,121.606 129.971,110.2 140.935,121.794 157.203,103.308 151.949,98.683 	"/>
</g>
</svg>
