<?xml version="1.0" encoding="iso-8859-1"?>
<!-- Generator: Adobe Illustrator 19.2.0, SVG Export Plug-In . SVG Version: 6.00 Build 0)  -->
<svg version="1.1" id="Lager_13" xmlns="http://www.w3.org/2000/svg" xmlns:xlink="http://www.w3.org/1999/xlink" x="0px" y="0px"
	 viewBox="0 0 256 256" style="enable-background:new 0 0 256 256;" xml:space="preserve">
<g>
	<path style="fill:#041E42;" d="M114.61,126.458c0.881-2.186,1.879-4.312,2.978-6.377c0.137-0.275,0.274-0.555,0.411-0.827V72H95
		v128h23v-16.5c-0.138-0.273-0.274-0.552-0.411-0.827c-1.099-2.065-2.097-4.191-2.978-6.377c-1.643-3.87-3.001-7.916-3.61-12.103
		V193h-9V79h9v59.561C111.61,134.374,112.967,130.328,114.61,126.458z"/>
	<path style="fill:#041E42;" d="M151,89.651c2.272-0.946,4.61-1.76,7-2.455v-4.559V54h-23v28.492v16.64
		c2.226-1.777,4.556-3.427,7-4.913V81.67V61h9v20.724V89.651z"/>
	<path style="fill:#041E42;" d="M38,205.959V41h135v41h7V34H31v171.959C31,214.856,41.644,225,50.979,225H145v-7H50.979
		C45.521,218,38,211.023,38,205.959z"/>
	<path style="fill:#041E42;" d="M176.615,91.539c-32.995,0-59.838,26.843-59.838,59.838c0,32.994,26.843,59.837,59.838,59.837
		c32.994,0,59.837-26.843,59.837-59.837C236.452,118.382,209.609,91.539,176.615,91.539z M176.615,204.214
		c-29.135,0-52.838-23.702-52.838-52.837s23.703-52.838,52.838-52.838s52.837,23.703,52.837,52.838S205.75,204.214,176.615,204.214z
		"/>
	<polygon style="fill:#041E42;" points="169.78,164.544 152.511,149.126 147.849,154.347 170.142,174.251 211.328,131.562 
		206.291,126.702 	"/>
	<path style="fill:#041E42;" d="M78,200v-86H55v86H78z M62,121h9v72h-9V121z"/>
</g>
</svg>
