<?xml version="1.0" encoding="iso-8859-1"?>
<!-- Generator: Adobe Illustrator 19.2.0, SVG Export Plug-In . SVG Version: 6.00 Build 0)  -->
<svg version="1.1" id="Lager_6" xmlns="http://www.w3.org/2000/svg" xmlns:xlink="http://www.w3.org/1999/xlink" x="0px" y="0px"
	 viewBox="0 0 256 256" style="enable-background:new 0 0 256 256;" xml:space="preserve">
<g>
	<path style="fill:#041E42;" d="M231.297,128c0,57-46.241,103.176-103.079,103.176c-56.842,0-103.087-46.199-103.087-103.042
		c0-56.838,46.245-103.057,103.087-103.057c26.766,0,52.128,10.22,71.414,28.758l4.852-5.041
		c-20.597-19.797-47.682-30.697-76.265-30.697c-60.702,0-110.087,49.382-110.087,110.08c0,60.702,49.385,109.998,110.087,109.998
		c60.698,0,110.079-49.176,110.079-110.176H231.297z"/>
	<path style="fill:#041E42;" d="M182.249,56.199l-84.611,73.169l23.719,23.719l75.234-82.545L182.249,56.199z M121.122,142.952
		l-13.213-13.213l73.994-63.985l5.012,5.013L121.122,142.952z"/>
	<polygon style="fill:#041E42;" points="74,112 74,106 55.966,106 48,106 48,149 53.641,149 74,149 74,143 56,143 56,131 73,131 
		73,124 56,124 56,112 	"/>
	<polygon style="fill:#041E42;" points="209,112 209,106 190.76,106 182,106 182,149 191,149 191,131 208,131 208,124 191,124 
		191,112 	"/>
</g>
</svg>
