<?xml version="1.0" encoding="iso-8859-1"?>
<!-- Generator: Adobe Illustrator 19.2.0, SVG Export Plug-In . SVG Version: 6.00 Build 0)  -->
<svg version="1.1" id="Lager_13" xmlns="http://www.w3.org/2000/svg" xmlns:xlink="http://www.w3.org/1999/xlink" x="0px" y="0px"
	 viewBox="0 0 256 256" style="enable-background:new 0 0 256 256;" xml:space="preserve">
<g>
	<path style="fill:#041E42;" d="M128.121,144.144c8.863,0,16.073-7.21,16.073-16.073s-7.21-16.074-16.073-16.074
		s-16.074,7.211-16.074,16.074S119.258,144.144,128.121,144.144z M128.121,121.996c3.349,0,6.073,2.725,6.073,6.074
		c0,3.349-2.725,6.073-6.073,6.073c-3.349,0-6.074-2.725-6.074-6.073C122.047,124.721,124.772,121.996,128.121,121.996z"/>
	<path style="fill:#041E42;" d="M128.157,18.076c-60.605,0-109.911,49.306-109.911,109.911s49.306,109.911,109.911,109.911
		c60.605,0,109.911-49.306,109.911-109.911S188.763,18.076,128.157,18.076z M28.246,127.987c0-55.091,44.82-99.911,99.911-99.911
		c27.551,0,52.533,11.209,70.625,29.307l-96.47,44.879l-44.803,96.306C39.438,180.479,28.246,155.516,28.246,127.987z
		 M178.208,77.983l-31.807,68.367l-68.367,31.806l31.805-68.367L178.208,77.983z M128.157,227.898
		c-27.505,0-52.449-11.173-70.534-29.218l96.306-44.803l44.879-96.468c18.07,18.089,29.26,43.051,29.26,70.578
		C228.068,183.078,183.248,227.898,128.157,227.898z"/>
</g>
</svg>
