<?xml version="1.0" encoding="iso-8859-1"?>
<!-- Generator: Adobe Illustrator 19.2.0, SVG Export Plug-In . SVG Version: 6.00 Build 0)  -->
<svg version="1.1" id="Lager_6" xmlns="http://www.w3.org/2000/svg" xmlns:xlink="http://www.w3.org/1999/xlink" x="0px" y="0px"
	 viewBox="0 0 256 256" style="enable-background:new 0 0 256 256;" xml:space="preserve">
<g>
	<path style="fill:#041E42;" d="M25,204.498V25h146v46h7V18H18v186.498C18,214.543,29.998,224,39.296,224H140v-7H39.296
		C33.017,217,25,209.989,25,204.498z"/>
	<rect x="46" y="62" style="fill:#041E42;" width="104" height="7"/>
	<path style="fill:#041E42;" d="M184.607,179.844c9.615-10.785,14.931-24.525,15.05-39.107c0.129-15.915-5.947-30.928-17.109-42.273
		c-11.163-11.345-26.075-17.664-41.99-17.794c-0.167-0.001-0.331-0.002-0.498-0.002c-15.729,0-30.548,6.066-41.773,17.111
		c-1.152,1.134-2.239,2.316-3.286,3.525L95.393,101H46v7h43.971c-6.069,9.391-9.383,20.316-9.476,31.769
		c-0.001,0.077,0.004,0.154,0.004,0.231H46v7h34.885c1.477,13.191,7.264,25.434,16.717,35.042
		c11.161,11.346,26.073,17.665,41.988,17.794c0.167,0.001,0.331,0.002,0.498,0.002c14.719,0,28.643-5.312,39.569-15.046
		l53.003,53.179l4.957-4.941L184.607,179.844z M176.954,177.736c-10.013,9.852-23.275,15.178-37.308,15.1
		c-14.045-0.113-27.205-5.69-37.054-15.703c-9.85-10.012-15.211-23.262-15.097-37.308c0.114-14.046,5.69-27.206,15.701-37.058
		c9.906-9.748,22.983-15.101,36.865-15.101c0.146,0,0.293,0.001,0.439,0.002c14.045,0.114,27.206,5.691,37.057,15.703
		c9.852,10.013,15.214,23.262,15.1,37.308C192.543,154.725,186.966,167.886,176.954,177.736z"/>
</g>
</svg>
