<?xml version="1.0" encoding="iso-8859-1"?>
<!-- Generator: Adobe Illustrator 19.2.0, SVG Export Plug-In . SVG Version: 6.00 Build 0)  -->
<svg version="1.1" id="Lager_13" xmlns="http://www.w3.org/2000/svg" xmlns:xlink="http://www.w3.org/1999/xlink" x="0px" y="0px"
	 viewBox="0 0 256 256" style="enable-background:new 0 0 256 256;" xml:space="preserve">
<g>
	<path style="fill:#041E42;" d="M25,203.861V25h145v47h7V18H18v185.861C18,213.46,28.768,224,38.574,224H141v-7H38.574
		C32.611,217,25,209.633,25,203.861z"/>
	<rect x="44" y="64" style="fill:#041E42;" width="108" height="7"/>
	<rect x="45" y="101" style="fill:#041E42;" width="62" height="7"/>
	<rect x="45" y="139" style="fill:#041E42;" width="53" height="7"/>
	<path style="fill:#041E42;" d="M173.925,80.864c-35.396,0-64.193,28.798-64.193,64.194s28.797,64.193,64.193,64.193
		s64.194-28.797,64.194-64.193S209.321,80.864,173.925,80.864z M173.925,202.252c-31.536,0-57.193-25.657-57.193-57.193
		c0-31.537,25.657-57.194,57.193-57.194c31.537,0,57.194,25.657,57.194,57.194C231.119,176.595,205.462,202.252,173.925,202.252z"/>
	<polygon style="fill:#041E42;" points="166.575,159.618 147.776,142.835 143.114,148.056 166.937,169.325 211.128,123.523 
		206.091,118.662 	"/>
</g>
</svg>
