<?xml version="1.0" encoding="utf-8"?>
<!-- Generator: Adobe Illustrator 16.0.3, SVG Export Plug-In . SVG Version: 6.00 Build 0)  -->
<!DOCTYPE svg PUBLIC "-//W3C//DTD SVG 1.1//EN" "http://www.w3.org/Graphics/SVG/1.1/DTD/svg11.dtd">
<svg version="1.1" id="Layer_1" xmlns="http://www.w3.org/2000/svg" xmlns:xlink="http://www.w3.org/1999/xlink" x="0px" y="0px"
	 width="256px" height="256px" viewBox="0 0 256 256" enable-background="new 0 0 256 256" xml:space="preserve">
<g>
	<defs>
		<rect id="SVGID_1_" width="256" height="256"/>
	</defs>
	<clipPath id="SVGID_2_">
		<use xlink:href="#SVGID_1_"  overflow="visible"/>
	</clipPath>
	<path clip-path="url(#SVGID_2_)" fill="#041E42" d="M213,81.588v95.125c14,1.746,25.004,13.873,25.004,28.542
		c0,15.854-12.873,28.76-28.641,28.76s-28.529-12.906-28.529-28.76c0-14.669,11.166-26.796,25.166-28.542v-40.058h-79v40.058
		c14,1.746,24.957,13.873,24.957,28.542c0,15.854-12.896,28.76-28.663,28.76c-15.768,0-28.493-12.906-28.493-28.76
		c0-14.669,11.199-26.796,25.199-28.542v-40.058H34V83.351h7v46.267h79V81.588c-14-1.74-25.233-13.867-25.233-28.534
		c0-15.861,12.759-28.76,28.527-28.76c15.767,0,28.698,12.899,28.698,28.76c0,14.667-10.992,26.794-24.992,28.534v48.029h79V81.588
		c-14-1.74-25.188-13.867-25.188-28.534c0-15.861,12.783-28.76,28.551-28.76s28.664,12.899,28.664,28.76
		C238.027,67.722,227,79.849,213,81.588 M101.629,205.256c0,11.973,9.688,21.721,21.596,21.721c11.908,0,21.595-9.748,21.595-21.721
		c0-11.982-9.688-21.722-21.595-21.722C111.317,183.534,101.629,193.273,101.629,205.256 M144.82,53.054
		c0-11.981-9.688-21.721-21.595-21.721c-11.908,0-21.596,9.74-21.596,21.721c0,11.974,9.688,21.721,21.596,21.721
		C135.133,74.775,144.82,65.028,144.82,53.054 M187.721,205.256c0,11.973,9.688,21.721,21.596,21.721s21.596-9.748,21.596-21.721
		c0-11.982-9.688-21.722-21.596-21.722S187.721,193.273,187.721,205.256 M209.316,31.333c-11.908,0-21.596,9.74-21.596,21.721
		c0,11.974,9.688,21.721,21.596,21.721s21.596-9.747,21.596-21.721C230.912,41.073,221.225,31.333,209.316,31.333"/>
	<path clip-path="url(#SVGID_2_)" fill="#041E42" d="M58.574,55.177c2.003-2.444,3.005-5.355,3.005-8.73
		c0-2.698-0.633-5.135-1.898-7.308c-1.265-2.172-3.091-3.954-5.473-5.198C51.825,32.697,49.031,32,45.826,32H18v45h7V61h18.547
		l12.464,16h7.466L50.318,60.015C53.818,59.214,56.57,57.624,58.574,55.177 M25,55V37h18.864c3.501,0,6.21,0.948,8.194,2.382
		C54.04,40.816,55,43.157,55,45.94v1.013c0,2.783-0.96,4.678-2.942,6.111C50.074,54.498,47.365,55,43.864,55H25z"/>
</g>
</svg>
