<?xml version="1.0" encoding="iso-8859-1"?>
<!-- Generator: Adobe Illustrator 19.2.0, SVG Export Plug-In . SVG Version: 6.00 Build 0)  -->
<svg version="1.1" id="Lager_13" xmlns="http://www.w3.org/2000/svg" xmlns:xlink="http://www.w3.org/1999/xlink" x="0px" y="0px"
	 viewBox="0 0 256 256" style="enable-background:new 0 0 256 256;" xml:space="preserve">
<g>
	<path style="fill:#041E42;" d="M198,51V35h-7V18H68.193c-10.871,0-20.013,9.16-20.178,20H48v0.295v0.229v160.071
		C48,209.453,57.131,218,67.987,218H78v20l14.5-13.091L107,238v-20h101V51H198z M55,38.295C55,31.185,61.083,25,68.193,25H184v10H69
		v16h-0.807C61.083,51,55,45.635,55,38.524V38.295z M191,42v9h-52H76v-9H191z M201,211H67.987C60.99,211,55,205.593,55,198.596
		V53.256C58.567,56.219,63.192,58,68.193,58H69h70h52h7h3V211z"/>
	<rect x="88" y="108" style="fill:#041E42;" width="81" height="7"/>
	<rect x="88" y="136" style="fill:#041E42;" width="81" height="7"/>
</g>
</svg>
