<?xml version="1.0" encoding="iso-8859-1"?>
<!-- Generator: Adobe Illustrator 19.2.0, SVG Export Plug-In . SVG Version: 6.00 Build 0)  -->
<svg version="1.1" id="Lager_6" xmlns="http://www.w3.org/2000/svg" xmlns:xlink="http://www.w3.org/1999/xlink" x="0px" y="0px"
	 viewBox="0 0 256 256" style="enable-background:new 0 0 256 256;" xml:space="preserve">
<g>
	<path style="fill:#041E42;" d="M128,36.001L128,36.001V18C67,18,18,67,18,128h17.957h0c0.01,50.7,41.261,91.935,91.963,91.935
		c50.709,0,91.981-41.259,91.981-91.968C219.902,77.274,179,36.024,128,36.001z M25.235,121C28.69,70,70,28.69,121,25.235v11.026
		v7.677V54.96C86,58.275,58.278,86,54.96,121H43.899h-7.678H25.235z M127.793,212.297c-46.496,0-84.192-37.803-84.202-84.297H44
		h17.629C61.629,91,91,61.629,128,61.629V43.63c46,0.024,84,37.845,84,84.332c0,0.001,0,0.002,0,0.002
		C212,174.466,174.295,212.297,127.793,212.297z"/>
	<path style="fill:#041E42;" d="M127.634,70.892c-31.311,0-56.784,25.474-56.784,56.785s25.473,56.784,56.784,56.784
		s56.785-25.473,56.785-56.784S158.945,70.892,127.634,70.892z M127.634,176.832c-27.104,0-49.155-22.051-49.155-49.155
		c0-27.105,22.051-49.156,49.155-49.156c27.105,0,49.156,22.051,49.156,49.156C176.79,154.781,154.739,176.832,127.634,176.832z"/>
	<path style="fill:#041E42;" d="M127.349,104.42c-12.982,0-23.544,10.561-23.544,23.542c0,12.982,10.561,23.543,23.544,23.543
		c12.981,0,23.542-10.561,23.542-23.543C150.891,114.981,140.33,104.42,127.349,104.42z M127.349,143.877
		c-8.775,0-15.915-7.139-15.915-15.915s7.139-15.914,15.915-15.914c8.775,0,15.913,7.138,15.913,15.914
		S136.124,143.877,127.349,143.877z"/>
	<circle style="fill:#041E42;" cx="127.508" cy="91.502" r="6.202"/>
	<circle style="fill:#041E42;" cx="127.508" cy="164.401" r="6.202"/>
	<circle style="fill:#041E42;" cx="91.058" cy="127.952" r="6.202"/>
	<circle style="fill:#041E42;" cx="163.957" cy="127.952" r="6.202"/>
	
		<ellipse transform="matrix(0.7071 -0.7071 0.7071 0.7071 -78.9033 116.9624)" style="fill:#041E42;" cx="101.734" cy="153.725" rx="6.202" ry="6.202"/>
	
		<ellipse transform="matrix(0.7071 -0.7071 0.7071 0.7071 -27.3556 138.3134)" style="fill:#041E42;" cx="153.281" cy="102.178" rx="6.202" ry="6.202"/>
	
		<ellipse transform="matrix(0.7071 -0.7071 0.7071 0.7071 -42.4535 101.8638)" style="fill:#041E42;" cx="101.734" cy="102.178" rx="6.202" ry="6.202"/>
	
		<ellipse transform="matrix(0.7071 -0.7071 0.7071 0.7071 -63.8053 153.4121)" style="fill:#041E42;" cx="153.281" cy="153.725" rx="6.202" ry="6.202"/>
</g>
</svg>
