<?xml version="1.0" encoding="utf-8"?>
<!-- Generator: Adobe Illustrator 16.0.3, SVG Export Plug-In . SVG Version: 6.00 Build 0)  -->
<!DOCTYPE svg PUBLIC "-//W3C//DTD SVG 1.1//EN" "http://www.w3.org/Graphics/SVG/1.1/DTD/svg11.dtd">
<svg version="1.1" id="Layer_1" xmlns="http://www.w3.org/2000/svg" xmlns:xlink="http://www.w3.org/1999/xlink" x="0px" y="0px"
	 width="256px" height="256px" viewBox="0 0 256 256" enable-background="new 0 0 256 256" xml:space="preserve">
<g>
	<defs>
		<rect id="SVGID_1_" width="256" height="256"/>
	</defs>
	<clipPath id="SVGID_2_">
		<use xlink:href="#SVGID_1_"  overflow="visible"/>
	</clipPath>
	<path clip-path="url(#SVGID_2_)" fill="#041E42" d="M193.673,54.219H62.995c-4.479,0-8.108,3.629-8.108,8.107v130.68
		c0,4.478,3.629,8.107,8.108,8.107h70.352v-56.885h-19.143V122.06h19.143v-16.35c0-18.973,11.588-29.304,28.514-29.304
		c8.107,0,15.075,0.604,17.106,0.874v19.828l-11.739,0.005c-9.205,0-10.987,4.374-10.987,10.793v14.154h21.953l-2.859,22.169H156.24
		v56.885h37.433c4.477,0,8.106-3.63,8.106-8.107V62.326C201.779,57.849,198.149,54.219,193.673,54.219"/>
</g>
</svg>
