<?xml version="1.0" encoding="utf-8"?>
<!-- Generator: Adobe Illustrator 16.0.3, SVG Export Plug-In . SVG Version: 6.00 Build 0)  -->
<!DOCTYPE svg PUBLIC "-//W3C//DTD SVG 1.1//EN" "http://www.w3.org/Graphics/SVG/1.1/DTD/svg11.dtd">
<svg version="1.1" id="Layer_1" xmlns="http://www.w3.org/2000/svg" xmlns:xlink="http://www.w3.org/1999/xlink" x="0px" y="0px"
	 width="256px" height="256px" viewBox="0 0 256 256" enable-background="new 0 0 256 256" xml:space="preserve">
<g>
	<defs>
		<rect id="SVGID_1_" width="256" height="256"/>
	</defs>
	<clipPath id="SVGID_2_">
		<use xlink:href="#SVGID_1_"  overflow="visible"/>
	</clipPath>
	<path clip-path="url(#SVGID_2_)" fill="#041E42" d="M100.188,156.418h-8.351v-4.835c-3.166,3.629-5.849,5.462-8.774,5.462
		c-2.567,0-4.35-1.211-5.242-3.399c-0.543-1.33-0.927-3.406-0.927-6.458v-35.161h8.351v32.964v3.075
		c0.195,1.234,0.718,1.685,1.78,1.685c1.598,0,3.045-1.388,4.812-3.881v-33.843h8.351V156.418z"/>
	<path clip-path="url(#SVGID_2_)" fill="#041E42" d="M70.742,126.531c0-4.744-0.953-8.306-2.637-10.549
		c-2.225-3.036-5.714-4.279-9.23-4.279c-3.98,0-7.008,1.243-9.23,4.279c-1.711,2.243-2.629,5.843-2.629,10.587l-0.008,15.784
		c0,4.717,0.816,7.976,2.528,10.197c2.221,3.026,5.823,4.63,9.339,4.63s7.181-1.604,9.406-4.63c1.684-2.222,2.461-5.48,2.461-10.197
		V126.531z M62.391,143.232c0.44,4.395-0.924,6.576-3.517,6.576c-2.593,0-3.955-2.182-3.515-6.576v-17.58
		c-0.44-4.396,0.923-6.456,3.516-6.456c2.593,0,3.96,2.06,3.52,6.456L62.391,143.232z"/>
	<path clip-path="url(#SVGID_2_)" fill="#041E42" d="M37.778,132.245v24.173h-8.79v-24.173c0,0-9.109-29.637-10.988-35.162h9.23
		l6.168,23.152l6.138-23.152h9.23L37.778,132.245z"/>
	<path clip-path="url(#SVGID_2_)" fill="#041E42" d="M236.792,101.878c0,0-1.23-9.004-5.166-12.969
		c-4.99-5.203-10.56-5.256-13.125-5.561C200.136,82.027,172.613,82,172.613,82h-0.058c0,0-27.549,0.027-45.915,1.348
		c-2.565,0.305-8.158,0.344-13.15,5.548c-3.935,3.965-5.197,12.975-5.197,12.975S107,112.45,107,123.023v9.912
		c0,10.572,1.294,21.145,1.294,21.145s1.272,9.003,5.207,12.968c4.991,5.205,11.546,5.039,14.466,5.584
		c10.5,1.004,44.619,1.314,44.619,1.314s27.577-0.042,45.942-1.363c2.564-0.304,8.159-0.33,13.148-5.535
		c3.936-3.965,5.115-12.968,5.115-12.968S238,143.508,238,132.936v-9.912C238,112.45,236.792,101.878,236.792,101.878 M136,156h-9
		v-50h-9v-8.468l27-0.009V106h-9V156z M167,156h-8v-4.417c-3,3.628-5.808,5.461-8.732,5.461c-2.567,0-4.399-1.211-5.291-3.397
		c-0.542-1.33-0.977-3.407-0.977-6.458V112h8v32.99v3.077c0,0.792,0.922,1.684,1.984,1.684c1.598,0,3.016-1.389,5.016-3.882V112h8
		V156z M198,143.232c0,4.062-0.468,6.928-0.999,8.79c-1.062,3.266-3.437,4.962-6.605,4.962c-2.829,0-5.759-1.911-8.416-5.201
		L181.938,156H174V98h7.938l-0.01,18.963c2.57-3.163,5.48-5.082,8.407-5.082c3.169,0,5.419,1.77,6.48,5.06
		c0.531,1.766,1.185,4.551,1.185,8.711V143.232z M215.05,149.751c1.959,0,3.197-1.083,3.651-3.21
		c0.074-0.433,0.156-2.541,0.156-5.541H227v1.28c0,2.563-0.107,4.379-0.179,5.176c-0.27,1.764-0.842,3.359-1.81,4.768
		c-2.2,3.188-5.44,4.761-9.598,4.761c-4.163,0-7.335-1.498-9.636-4.499c-1.69-2.198-2.778-5.465-2.778-10.132V126.97
		c0-4.694,1.003-8.322,2.693-10.544c2.302-3.005,5.479-4.596,9.541-4.596c3.992,0,7.164,1.591,9.394,4.596
		c1.664,2.222,2.591,5.775,2.591,10.469l0.003,9.105H211v7.653C211,147.709,212.318,149.751,215.05,149.751"/>
	<path clip-path="url(#SVGID_2_)" fill="#041E42" d="M219,124.37c0-4.062-1.314-5.283-3.952-5.283c-2.658,0-4.048,1.121-4.048,5.228
		v4.86l8-0.008V124.37z"/>
	<path clip-path="url(#SVGID_2_)" fill="#041E42" d="M185.874,119.087c-1.311,0-2.708,0.691-4.039,2.005l0.042,26.654
		c1.331,1.331,2.661,2.006,3.971,2.006c2.295,0,3.152-1.685,3.152-6.08v-18.899C189,120.377,188.169,119.087,185.874,119.087"/>
</g>
</svg>
