<?xml version="1.0" encoding="utf-8"?>
<!-- Generator: Adobe Illustrator 16.0.3, SVG Export Plug-In . SVG Version: 6.00 Build 0)  -->
<!DOCTYPE svg PUBLIC "-//W3C//DTD SVG 1.1//EN" "http://www.w3.org/Graphics/SVG/1.1/DTD/svg11.dtd">
<svg version="1.1" id="Layer_1" xmlns="http://www.w3.org/2000/svg" xmlns:xlink="http://www.w3.org/1999/xlink" x="0px" y="0px"
	 width="256px" height="256px" viewBox="0 0 256 256" enable-background="new 0 0 256 256" xml:space="preserve">
<g>
	<defs>
		<rect id="SVGID_1_" width="256" height="256"/>
	</defs>
	<clipPath id="SVGID_2_">
		<use xlink:href="#SVGID_1_"  overflow="visible"/>
	</clipPath>
	<path clip-path="url(#SVGID_2_)" fill="#041E42" d="M74.635,68.874c9.148,0,16.592-7.444,16.592-16.592
		c0-9.149-7.444-16.592-16.592-16.592c-9.149,0-16.593,7.443-16.593,16.592C58.042,61.43,65.486,68.874,74.635,68.874
		 M74.635,42.689c5.289,0,9.592,4.303,9.592,9.592c0,5.289-4.303,9.592-9.592,9.592s-9.593-4.303-9.593-9.592
		C65.042,46.993,69.346,42.689,74.635,42.689"/>
	<path clip-path="url(#SVGID_2_)" fill="#041E42" d="M183.608,68.874c9.148,0,16.592-7.444,16.592-16.592
		c0-9.149-7.443-16.592-16.592-16.592s-16.592,7.443-16.592,16.592C167.017,61.43,174.46,68.874,183.608,68.874 M183.608,42.689
		c5.289,0,9.592,4.303,9.592,9.592c0,5.289-4.303,9.592-9.592,9.592s-9.592-4.303-9.592-9.592
		C174.017,46.993,178.319,42.689,183.608,42.689"/>
	<path clip-path="url(#SVGID_2_)" fill="#041E42" d="M159.65,171.43c0,13.42-10.45,23.979-30.801,23.979
		c-23.54,0-32.12-12.32-32.229-24.42h17.269c1.21,7.26,6.05,12.32,15.4,12.32c8.689,0,13.75-4.95,13.75-11.11v-1.87
		c0-6.38-5.17-9.79-13.311-9.79h-9.35v-11.99h9.13c7.15,0,11.771-3.739,11.771-10.56v-1.87c0-5.83-4.62-10.23-12.54-10.23
		c-8.141,0-12.761,4.4-14.41,11.44H97.279c0.99-11.11,9.02-23.541,31.24-23.541c19.471,0,29.37,9.901,29.37,22.331
		c0,8.69-4.949,14.19-11.66,17.16C154.37,156.029,159.65,161.97,159.65,171.43"/>
	<path clip-path="url(#SVGID_2_)" fill="#041E42" d="M219.056,18H36.965C26.493,18,18,26.49,18,36.962v182.076
		C18,229.51,26.493,238,36.965,238h158.164L238,195.244V36.962C238,26.49,229.528,18,219.056,18 M36.965,25h182.091
		C225.652,25,231,30.366,231,36.962V80H25V36.962C25,30.366,30.369,25,36.965,25 M194,230.652V205.42
		c0-6.343,5.077-11.42,11.42-11.42h25.328L194,230.652z M205.42,188c-9.667,0-17.42,7.753-17.42,17.42V231H36.965
		C30.369,231,25,225.634,25,219.038V87h206v101H205.42z"/>
</g>
</svg>
