<?xml version="1.0" encoding="iso-8859-1"?>
<!-- Generator: Adobe Illustrator 19.2.1, SVG Export Plug-In . SVG Version: 6.00 Build 0)  -->
<svg version="1.1" id="Lager_12" xmlns="http://www.w3.org/2000/svg" xmlns:xlink="http://www.w3.org/1999/xlink" x="0px" y="0px"
	 viewBox="0 0 256 256" style="enable-background:new 0 0 256 256;" xml:space="preserve">
<g>
	<path style="fill:none;" d="M172.699,178H57V77h14.65L53.246,58.8c-36.827,39.907-35.879,102.436,2.859,141.174
		c19.24,19.24,44.821,29.887,72.03,29.887c25.827,0,50.182-9.755,69.044-27.179L172.699,178z"/>
	<path style="fill:none;" d="M128.634,105.498c-4.95,0-9.527,1.614-13.242,4.339l31.336,31.336c2.725-3.714,4.34-8.292,4.34-13.241
		C151.068,115.562,141.004,105.498,128.634,105.498z"/>
	<path style="fill:none;" d="M128.634,150.367c4.536,0,8.76-1.358,12.293-3.682l-31.047-31.047
		c-2.325,3.534-3.682,7.757-3.682,12.294C106.198,140.303,116.263,150.367,128.634,150.367z"/>
	<circle style="fill:none;" cx="173.634" cy="104.338" r="5.84"/>
	<path style="fill:none;" d="M200.164,56.016c-19.24-19.24-44.821-29.836-72.03-29.836c-25.916,0-50.351,9.415-69.241,26.954
		L82.963,77H201v101h-16.988l18.829,19.057C239.853,157.159,238.966,94.818,200.164,56.016z"/>
	<path style="fill:none;" d="M65,170h99.699l-18.029-17.801c-5.051,3.729-11.29,6.054-18.036,6.054
		c-16.782,0-30.436-13.596-30.436-30.377c0-6.747,2.21-13.161,5.94-18.212L79.65,85H65V170z"/>
	<path style="fill:none;" d="M176.012,170H193V85H90.963l18.729,18.933c5.203-4.15,11.785-6.537,18.942-6.537
		c16.781,0,30.435,13.704,30.435,30.486c0,7.157-2.489,13.536-6.639,18.739L176.012,170z M173.634,90.498
		c7.631,0,13.84,6.209,13.84,13.84s-6.209,13.84-13.84,13.84c-7.632,0-13.841-6.209-13.841-13.84S166.002,90.498,173.634,90.498z"/>
	<path style="fill:#041E42;" d="M173.634,118.178c7.631,0,13.84-6.209,13.84-13.84s-6.209-13.84-13.84-13.84
		c-7.632,0-13.841,6.209-13.841,13.84S166.002,118.178,173.634,118.178z M173.634,98.498c3.22,0,5.84,2.62,5.84,5.84
		s-2.62,5.84-5.84,5.84c-3.221,0-5.841-2.62-5.841-5.84S170.413,98.498,173.634,98.498z"/>
	<path style="fill:#041E42;" d="M205.821,50.36c-21.453-21.453-49.57-32.179-77.687-32.179c-28.117,0-56.234,10.726-77.687,32.179
		c-42.905,42.905-42.905,112.468,0,155.373c21.453,21.453,49.57,32.179,77.687,32.179c28.117,0,56.234-10.726,77.687-32.179
		C248.726,162.828,248.726,93.265,205.821,50.36z M56.105,200.076C17.367,161.338,16.419,98.706,53.246,58.8L71.65,77H57v101
		h115.699l24.479,24.708c-18.862,17.423-43.217,27.09-69.044,27.09C100.925,229.797,75.345,219.316,56.105,200.076z
		 M109.881,115.639l31.047,31.047c-3.534,2.324-7.757,3.682-12.293,3.682c-12.371,0-22.436-10.064-22.436-22.435
		C106.198,123.396,107.556,119.172,109.881,115.639z M115.392,109.837c3.714-2.725,8.292-4.339,13.242-4.339
		c12.37,0,22.435,10.064,22.435,22.435c0,4.949-1.614,9.527-4.34,13.241L115.392,109.837z M128.634,97.498
		c-7.157,0-13.74,2.285-18.942,6.435L90.963,85H193v85h-16.988l-23.583-23.354c4.15-5.202,6.639-11.671,6.639-18.827
		C159.068,111.037,145.415,97.498,128.634,97.498z M104.138,109.692c-3.73,5.052-5.94,11.392-5.94,18.139
		c0,16.781,13.653,30.486,30.436,30.486c6.746,0,12.985-2.413,18.036-6.143L164.699,170H65V85h14.65L104.138,109.692z
		 M202.841,197.057L184.012,178H201V77H82.963L58.894,53.135c18.89-17.539,43.324-27.056,69.241-27.056
		c27.209,0,52.79,10.533,72.03,29.772C238.966,94.653,239.853,157.159,202.841,197.057z"/>
</g>
</svg>
