<?xml version="1.0" encoding="iso-8859-1"?>
<!-- Generator: Adobe Illustrator 19.2.1, SVG Export Plug-In . SVG Version: 6.00 Build 0)  -->
<svg version="1.1" id="Lager_12" xmlns="http://www.w3.org/2000/svg" xmlns:xlink="http://www.w3.org/1999/xlink" x="0px" y="0px"
	 viewBox="0 0 256 256" style="enable-background:new 0 0 256 256;" xml:space="preserve">
<g>
	<path style="fill:#041E42;" d="M205.821,50.36c-21.453-21.453-49.57-32.179-77.687-32.179c-28.117,0-56.234,10.726-77.687,32.179
		c-42.905,42.905-42.905,112.468,0,155.373c21.453,21.453,49.57,32.179,77.687,32.179c28.117,0,56.234-10.726,77.687-32.179
		C248.726,162.828,248.726,93.265,205.821,50.36z M128.134,229.912c-27.209,0-52.79-10.596-72.03-29.836
		C17.367,161.338,16.419,98.91,53.246,59.004L108.242,114H57v30h81.242l58.936,58.936
		C178.316,220.36,153.961,229.912,128.134,229.912z M130.242,136H65v-14h51.242L130.242,136z M127.555,122H171v14h-29.445
		L127.555,122z M202.841,197.286L149.555,144H179v-30h-59.445L58.894,53.339c18.89-17.539,43.324-27.159,69.241-27.159
		c27.209,0,52.79,10.596,72.03,29.836C238.966,94.818,239.853,157.388,202.841,197.286z"/>
	<rect x="186" y="114" style="fill:#041E42;" width="8" height="30"/>
	<rect x="201" y="114" style="fill:#041E42;" width="8" height="30"/>
</g>
</svg>
