<?xml version="1.0" encoding="iso-8859-1"?>
<!-- Generator: Adobe Illustrator 19.2.1, SVG Export Plug-In . SVG Version: 6.00 Build 0)  -->
<svg version="1.1" id="Lager_12" xmlns="http://www.w3.org/2000/svg" xmlns:xlink="http://www.w3.org/1999/xlink" x="0px" y="0px"
	 viewBox="0 0 256 256" style="enable-background:new 0 0 256 256;" xml:space="preserve">
<g>
	<path style="fill:none;" d="M78,175.299c0,2.596,2.004,4.701,4.6,4.701H106v-55H78V175.299z"/>
	<path style="fill:none;" d="M126.806,99.78l-0.409,0.223c-4.44,2.867-6.983,7.298-8.441,11.399L128.554,122H160v-0.466
		c-0.001-0.142-0.212-14.955-10.396-21.532l-0.409-0.222C145.2,97.382,143,93.677,143,89.349V53.292l1-0.573v-2.577l-1-0.573V48h-5
		h-5v1.568l-1,0.573v2.577l1,0.573v36.057C133,93.677,130.8,97.382,126.806,99.78z"/>
	<polygon style="fill:none;" points="116,132 116,168 160,168 160,167.587 124.413,132 	"/>
	<path style="fill:none;" d="M110.334,103.78c2.259-4.546,5.693-9.071,10.92-12.358l0.534-0.295C123,90.362,123,89.802,123,89.349
		v-31.27c-1-1.713-1-3.509-1-4.274v-4.75c0-0.812,0-2.778,1.189-4.578c0.822-3.648,4.216-6.477,8.139-6.477H138h6.672
		c3.923,0,7.317,2.828,8.139,6.477C154,46.276,154,48.243,154,49.055v4.75c0,0.766,0,2.562-1,4.274v31.27
		c0,0.453,0,1.014,1.212,1.778l0.534,0.295c15.08,9.483,15.254,29.274,15.254,30.112v41.912l31.624,31.624
		c35.483-39.149,34.346-99.877-3.417-137.64c-18.862-18.862-43.94-29.25-70.616-29.25c-25.017,0-48.629,9.136-67.026,25.831
		L110.334,103.78z"/>
	<polygon style="fill:none;" points="138.554,132 160,153.446 160,132 	"/>
	<path style="fill:none;" d="M170,177.587v28.912c0,6.234-5.321,11.501-11.619,11.501H138h-20.381
		c-6.298,0-11.619-5.267-11.619-11.501V190H82.6c-8.106,0-14.6-6.595-14.6-14.701v-50.266V115h9.899H106h0.687
		c0.036-0.2,0.076-0.404,0.116-0.61l-5.39-5.39H68V99h23.412L53.499,61.087c-35.423,39.151-34.265,99.833,3.477,137.575
		c18.862,18.862,43.941,29.25,70.616,29.25c24.987,0,48.573-9.115,66.961-25.772L170,177.587z"/>
	<path style="fill:none;" d="M117.619,208H138h20.381c0.802,0,1.619-0.758,1.619-1.501V178h-44v2v10v16.499
		C116,207.242,116.817,208,117.619,208z"/>
	<path style="fill:#041E42;" d="M205.278,50.36c-21.453-21.453-49.57-32.179-77.687-32.179c-28.117,0-56.234,10.726-77.687,32.179
		c-42.905,42.905-42.905,112.468,0,155.373c21.453,21.453,49.57,32.179,77.687,32.179c28.117,0,56.234-10.726,77.687-32.179
		C248.183,162.828,248.183,93.265,205.278,50.36z M198.207,57.431c37.763,37.763,38.9,98.491,3.417,137.64L170,163.446v-41.912
		c0-0.838-0.174-20.629-15.254-30.112l-0.534-0.295C153,90.362,153,89.802,153,89.349v-31.27c1-1.713,1-3.509,1-4.274v-4.75
		c0-0.812,0-2.778-1.189-4.578c-0.821-3.648-4.216-6.477-8.139-6.477h-13.344c-3.923,0-7.317,2.828-8.139,6.477
		C122,46.276,122,48.243,122,49.055v4.75c0,0.766,0,2.562,1,4.274v31.27c0,0.453,0,1.014-1.211,1.778l-0.534,0.295
		c-5.228,3.287-8.662,7.813-10.92,12.358L60.565,54.011c18.398-16.694,42.01-25.831,67.026-25.831
		C154.266,28.181,179.345,38.569,198.207,57.431z M106,180H82.6c-2.596,0-4.6-2.105-4.6-4.701V125h28V180z M132,52.719v-2.577
		l1-0.573V48h5h5v1.568l1,0.573v2.577l-1,0.573v36.057c0,4.328,2.2,8.033,6.194,10.432l0.409,0.222
		c10.185,6.577,10.396,21.391,10.396,21.532V122h-31.446l-10.598-10.598c1.458-4.1,4.002-8.532,8.441-11.399l0.409-0.223
		C130.8,97.382,133,93.677,133,89.349V53.292L132,52.719z M160,168h-44v-36h8.413L160,167.587V168z M116,178h44v28.499
		c0,0.743-0.817,1.501-1.619,1.501h-40.762c-0.802,0-1.619-0.758-1.619-1.501V178z M138.554,132H160v21.446L138.554,132z
		 M56.976,198.662c-37.742-37.742-38.9-98.424-3.477-137.575L91.412,99H68v10h33.412l5.39,5.39c-0.04,0.206-0.08,0.41-0.116,0.61
		H106H68v60.299C68,183.405,74.494,190,82.6,190H106v16.499c0,6.234,5.321,11.501,11.619,11.501h40.762
		c6.298,0,11.619-5.267,11.619-11.501v-28.912l24.553,24.552c-18.388,16.657-41.974,25.772-66.961,25.772
		C100.916,227.912,75.838,217.524,56.976,198.662z"/>
</g>
</svg>
