<?xml version="1.0" encoding="iso-8859-1"?>
<!-- Generator: Adobe Illustrator 19.2.1, SVG Export Plug-In . SVG Version: 6.00 Build 0)  -->
<svg version="1.1" id="Lager_12" xmlns="http://www.w3.org/2000/svg" xmlns:xlink="http://www.w3.org/1999/xlink" x="0px" y="0px"
	 viewBox="0 0 256 256" style="enable-background:new 0 0 256 256;" xml:space="preserve">
<g>
	<path style="fill:#041E42;" d="M205.821,50.36c-21.453-21.453-49.57-32.179-77.687-32.179c-28.117,0-56.234,10.726-77.687,32.179
		c-42.905,42.905-42.905,112.468,0,155.373c21.453,21.453,49.57,32.179,77.687,32.179c28.117,0,56.234-10.726,77.687-32.179
		C248.726,162.828,248.726,93.265,205.821,50.36z M56.105,200.076C17.367,161.338,16.521,98.91,53.348,59.004L86,91.553v100.399
		c0,4.997,3.846,9.047,8.843,9.047h66.056c4.997,0,9.101-4.051,9.101-9.047v-16.248l27.205,27.232
		c-18.862,17.423-43.231,26.976-69.057,26.976C100.939,229.912,75.345,219.316,56.105,200.076z M94,171h68v20.953
		c0,0.578-0.523,1.047-1.101,1.047H94.843c-0.578,0-0.843-0.47-0.843-1.047V171z M162,78H94V66.714C94,66.137,94.266,66,94.843,66
		h66.056c0.578,0,1.101,0.137,1.101,0.714V78z M94,86h68v70.392L94,88.241V86z M156.745,163H94V99.553L156.745,163z
		 M202.867,197.286L170,164.392V66.714c0-4.997-4.104-8.714-9.101-8.714H94.843C89.846,58,86,61.717,86,66.714v13.527L58.996,53.339
		c18.89-17.539,43.273-27.159,69.189-27.159c27.209,0,52.778,10.596,72.018,29.836C239.005,94.818,239.88,157.388,202.867,197.286z"
		/>
	<rect x="115" y="177" style="fill:#041E42;" width="26" height="8"/>
</g>
</svg>
