<?xml version="1.0" encoding="iso-8859-1"?>
<!-- Generator: Adobe Illustrator 19.2.1, SVG Export Plug-In . SVG Version: 6.00 Build 0)  -->
<svg version="1.1" id="Lager_12" xmlns="http://www.w3.org/2000/svg" xmlns:xlink="http://www.w3.org/1999/xlink" x="0px" y="0px"
	 viewBox="0 0 256 256" style="enable-background:new 0 0 256 256;" xml:space="preserve">
<g>
	<g>
		<path style="fill:#041E42;" d="M155,238h-54v-25.886l-18-9.264v-98.634l1.682-1.196c4.931-3.506,19.935-14.175,43.318-14.175
			c20.958,0,39.088,8.67,44.118,14.929l0.882,1.098v97.979l-18,9.264V238z M109,230h38v-22.765l18-9.265v-90.094
			c-4.309-3.873-18.431-11.031-37-11.031c-18.647,0-31.371,7.658-37,11.516v89.609l18,9.265V230z"/>
	</g>
</g>
<g>
	<path style="fill:#041E42;" d="M127.781,77c-15.715,0-28.5-12.785-28.5-28.5s12.785-28.5,28.5-28.5s28.5,12.785,28.5,28.5
		S143.496,77,127.781,77z M127.781,28c-11.304,0-20.5,9.196-20.5,20.5s9.196,20.5,20.5,20.5s20.5-9.196,20.5-20.5
		S139.085,28,127.781,28z"/>
</g>
<g>
	<g>
		<path style="fill:#041E42;" d="M217.571,73.993c-1.133-0.766-2.199-1.646-3.17-2.614c-0.969-0.97-1.849-2.036-2.617-3.173
			c-0.774-1.146-1.439-2.372-1.979-3.646c-0.547-1.294-0.969-2.65-1.251-4.03c-0.289-1.412-0.436-2.865-0.436-4.317
			s0.146-2.905,0.436-4.317c0.282-1.379,0.703-2.735,1.251-4.031c0.539-1.274,1.205-2.5,1.979-3.645
			c0.769-1.137,1.648-2.203,2.616-3.171c0.972-0.971,2.038-1.851,3.171-2.616l4.479,6.629c-0.712,0.481-1.383,1.035-1.994,1.646
			c-0.606,0.606-1.16,1.277-1.643,1.991c-0.485,0.718-0.901,1.485-1.239,2.282c-0.342,0.81-0.605,1.657-0.781,2.519
			c-0.182,0.887-0.273,1.799-0.273,2.714s0.092,1.827,0.273,2.714c0.176,0.861,0.439,1.709,0.781,2.518
			c0.338,0.798,0.754,1.565,1.239,2.283c0.482,0.714,1.036,1.385,1.644,1.993c0.61,0.608,1.281,1.162,1.993,1.644L217.571,73.993z"
			/>
	</g>
	<g>
		<path style="fill:#041E42;" d="M203.514,94.842c-2.464-1.666-4.782-3.579-6.891-5.686c-2.107-2.107-4.021-4.427-5.687-6.894
			c-1.683-2.489-3.128-5.152-4.296-7.915c-1.189-2.81-2.104-5.754-2.717-8.75c-0.628-3.068-0.946-6.227-0.946-9.385
			s0.318-6.316,0.946-9.385c0.613-2.996,1.527-5.94,2.717-8.751c1.167-2.762,2.613-5.425,4.296-7.916
			c1.665-2.464,3.578-4.782,5.687-6.891c2.104-2.105,4.423-4.019,6.891-5.687l4.48,6.629c-2.047,1.383-3.969,2.969-5.715,4.714
			c-1.748,1.748-3.334,3.671-4.714,5.714c-1.395,2.062-2.591,4.268-3.557,6.553c-0.984,2.325-1.74,4.761-2.247,7.238
			c-0.521,2.542-0.784,5.16-0.784,7.781s0.264,5.239,0.784,7.781c0.507,2.478,1.263,4.913,2.246,7.237
			c0.967,2.286,2.164,4.49,3.558,6.552c1.382,2.046,2.968,3.969,4.714,5.716c1.748,1.747,3.671,3.333,5.715,4.714L203.514,94.842z"
			/>
	</g>
</g>
</svg>
