<?xml version="1.0" encoding="utf-8"?>
<!-- Generator: Adobe Illustrator 16.0.3, SVG Export Plug-In . SVG Version: 6.00 Build 0)  -->
<!DOCTYPE svg PUBLIC "-//W3C//DTD SVG 1.1//EN" "http://www.w3.org/Graphics/SVG/1.1/DTD/svg11.dtd">
<svg version="1.1" id="Layer_1" xmlns="http://www.w3.org/2000/svg" xmlns:xlink="http://www.w3.org/1999/xlink" x="0px" y="0px"
	 width="256px" height="256px" viewBox="0 0 256 256" enable-background="new 0 0 256 256" xml:space="preserve">
<g>
	<defs>
		<rect id="SVGID_1_" width="256" height="256"/>
	</defs>
	<clipPath id="SVGID_2_">
		<use xlink:href="#SVGID_1_"  overflow="visible"/>
	</clipPath>
	<path clip-path="url(#SVGID_2_)" fill="#041E42" d="M185,112V93.204l-2.176-0.89c-0.918-0.375-22.846-9.188-54.754-9.188
		c-32.165,0-53.987,8.816-54.9,9.191L71,93.209V112H54v28.696l1.831,0.993c1.403,0.762,2.737,1.498,4.034,2.213
		c3.695,2.038,7.21,3.976,11.135,5.834V238h23.118l4.9-14h58.746l4.924,14H185v-88.494c5.32-2.509,10.053-5.124,14.409-7.959
		l1.591-1.036V112H185z M71,141.938c-2.566-1.306-5.043-2.671-7.754-4.166c-0.734-0.405-1.481-0.817-2.246-1.236V119h10V141.938z
		 M178,231h-10.343l-4.946-14H94.113l-4.973,14H78v-51.492c4.878,1.91,9.772,3.546,14.602,4.864c0.541,0.148,1.099,0.291,1.66,0.435
		l4.123,13.985l1.62,0.618c7.873,3.002,20.507,4.622,28.396,4.622c7.89,0,20.523-1.62,28.396-4.622l1.62-0.618l4.081-13.847
		c0.559-0.14,1.113-0.281,1.651-0.427c4.543-1.23,9.183-2.77,13.85-4.576V231z M102.055,186.485
		c8.585,1.573,18.218,2.515,26.538,2.515h0.192c8.152,0,17.553-0.899,25.93-2.402l-2.015,6.834
		c-6.908,2.239-17.633,3.601-24.299,3.601c-6.667,0-17.39-1.361-24.298-3.601L102.055,186.485z M178,172.394
		c-5.29,2.164-10.554,3.98-15.678,5.367c-9.371,2.536-22.849,4.239-33.537,4.239h-0.192c-10.834,0-24.557-1.761-34.148-4.38
		c-5.431-1.483-10.954-3.402-16.445-5.673V110h100V172.394z M178,103H78v-5.005c6.174-2.146,25-7.869,50.07-7.869
		c24.874,0,43.739,5.727,49.93,7.872V103z M194,136.694c-2.825,1.766-5.779,3.414-9,5.029V119h9V136.694z"/>
	<path clip-path="url(#SVGID_2_)" fill="#041E42" d="M214.53,69.428c-4.699-4.699-9.183-3.935-9.183-3.935
		c-5.58,0.794-11.452-0.955-15.742-5.247c-4.854-4.854-6.438-11.721-4.791-17.91l13.573,13.57l9.582-3.532l3.535-9.585
		l-13.571-13.57c6.188-1.648,13.058-0.066,17.911,4.789c4.292,4.292,6.041,10.164,5.247,15.744c0,0-0.565,4.679,3.935,9.179
		l8.094,8.094c3.096-4.926,4.893-10.751,4.893-16.999c0-17.673-14.327-32-32-32s-32,14.327-32,32s14.327,32,32,32
		c6.046,0,11.7-1.678,16.523-4.592L214.53,69.428z"/>
</g>
</svg>
