<?xml version="1.0" encoding="utf-8"?>
<!-- Generator: Adobe Illustrator 16.0.3, SVG Export Plug-In . SVG Version: 6.00 Build 0)  -->
<!DOCTYPE svg PUBLIC "-//W3C//DTD SVG 1.1//EN" "http://www.w3.org/Graphics/SVG/1.1/DTD/svg11.dtd">
<svg version="1.1" id="Layer_1" xmlns="http://www.w3.org/2000/svg" xmlns:xlink="http://www.w3.org/1999/xlink" x="0px" y="0px"
	 width="256px" height="256px" viewBox="0 0 256 256" enable-background="new 0 0 256 256" xml:space="preserve">
<g>
	<defs>
		<rect id="SVGID_1_" width="256" height="256"/>
	</defs>
	<clipPath id="SVGID_2_">
		<use xlink:href="#SVGID_1_"  overflow="visible"/>
	</clipPath>
	<path clip-path="url(#SVGID_2_)" fill="#041E42" d="M214.53,69.428c-4.699-4.699-9.183-3.935-9.183-3.935
		c-5.58,0.794-11.452-0.955-15.742-5.247c-4.854-4.854-6.438-11.721-4.791-17.91l13.573,13.57l9.582-3.532l3.535-9.585
		l-13.571-13.57c6.188-1.648,13.058-0.066,17.911,4.789c4.292,4.292,6.041,10.164,5.247,15.744c0,0-0.565,4.679,3.935,9.179
		l8.094,8.094c3.096-4.926,4.893-10.751,4.893-16.999c0-17.673-14.327-32-32-32s-32,14.327-32,32s14.327,32,32,32
		c6.046,0,11.7-1.678,16.523-4.592L214.53,69.428z"/>
	<path clip-path="url(#SVGID_2_)" fill="#041E42" d="M50.037,18c-17.68,0-32.013,14.333-32.013,32.013
		c0,17.68,14.333,32.013,32.013,32.013c17.681,0,32.013-14.333,32.013-32.013C82.05,32.333,67.718,18,50.037,18 M50.088,25.27
		c2.357,0.642,4.391,1.196,8.071,0.301l1.182,4.858c-1.82,0.443-3.375,0.611-4.747,0.611c-2.346,0-4.153-0.492-5.82-0.946
		c-2.663-0.725-4.962-1.352-9.716,0.272l-1.616-4.732C43.646,23.515,47.069,24.446,50.088,25.27 M69,66H28V46.373l11.396,5.597
		L39.55,52h0.059l-0.03-0.03l-0.002-5.582l11.213,5.597l-0.003-5.582L62,52V32h7V66z"/>
	<polygon clip-path="url(#SVGID_2_)" fill="#041E42" points="50.804,52 50.79,51.985 50.774,52 	"/>
	<path clip-path="url(#SVGID_2_)" fill="#041E42" d="M157.263,129.149c-2.401-2.015-6.744-4.472-6.928-4.576l-2.259-1.275
		l-12.262,20.822l3.671-23.935l-2.492-0.485c-0.191-0.037-4.712-0.911-7.859-0.911c-3.137,0-8.042,0.91-8.249,0.949l-2.551,0.476
		l3.991,23.83l-12.571-20.692l-2.222,1.23c-0.17,0.094-4.195,2.331-6.606,4.354c-2.402,2.015-5.575,5.865-5.709,6.028l-1.648,2.003
		l18.375,15.69l-22.932-7.771l-0.911,2.37c-0.07,0.181-1.716,4.481-2.262,7.582c-0.545,3.089-0.501,8.076-0.499,8.287l0.026,2.595
		l24.161,0.208l-22.561,8.788l0.826,2.4c0.062,0.184,1.566,4.536,3.139,7.262c1.569,2.717,4.809,6.51,4.946,6.67l1.688,1.971
		l18.642-15.372l-11.634,21.235l2.175,1.308c0.167,0.101,4.116,2.468,7.074,3.545c2.947,1.072,7.867,1.896,8.075,1.93l2.559,0.426
		l4.401-23.757l4.735,23.743l2.508-0.396c0.192-0.031,4.74-0.756,7.697-1.832c2.948-1.073,7.245-3.605,7.427-3.712l2.234-1.32
		l-11.9-21.027l18.891,15.145l1.667-1.915c0.128-0.147,3.145-3.626,4.719-6.351c1.568-2.717,3.233-7.42,3.303-7.618l0.863-2.447
		l-22.631-8.458l24.205-0.541l0.045-2.539c0.004-0.195,0.079-4.799-0.467-7.897c-0.545-3.09-2.292-7.762-2.367-7.959l-0.911-2.43
		l-22.775,8.068l18.195-15.975l-1.597-1.974C162.576,134.748,159.674,131.173,157.263,129.149 M129.134,124.077
		c1.301,0,2.978,0.196,4.345,0.396l-3.154,20.575c-0.449-0.035-0.9-0.059-1.357-0.059c-0.375,0-0.747,0.017-1.116,0.039
		l-3.436-20.51C125.981,124.292,127.835,124.077,129.134,124.077 M90.661,160.479c0.049-1.58,0.159-3.444,0.385-4.723
		c0.225-1.281,0.71-2.898,1.144-4.21l19.708,6.678c-0.203,0.791-0.35,1.604-0.442,2.435L90.661,160.479z M98.251,185.601
		c-0.94-1.191-2.064-2.692-2.741-3.865c-0.651-1.126-1.318-2.677-1.829-3.961l19.393-7.554c0.359,0.747,0.77,1.464,1.226,2.147
		L98.251,185.601z M100.993,136.355c1.011-1.133,2.295-2.501,3.332-3.371c0.996-0.836,2.406-1.763,3.583-2.489l10.811,17.794
		c-0.671,0.482-1.306,1.01-1.902,1.577L100.993,136.355z M120.214,199.967c-1.487-0.309-3.312-0.736-4.584-1.199
		c-1.223-0.445-2.731-1.203-3.948-1.859l10.003-18.255c0.746,0.34,1.519,0.63,2.316,0.864L120.214,199.967z M128.967,174.947
		c-6.802,0-12.336-5.533-12.336-12.335s5.534-12.336,12.336-12.336s12.336,5.534,12.336,12.336S135.769,174.947,128.967,174.947
		 M146.272,196.854c-1.394,0.747-3.063,1.584-4.283,2.028c-1.223,0.445-2.864,0.834-4.218,1.113l-4.071-20.411
		c0.8-0.224,1.578-0.502,2.329-0.831L146.272,196.854z M164.234,177.719c-0.588,1.468-1.328,3.182-1.979,4.307
		c-0.649,1.126-1.659,2.479-2.516,3.565l-16.243-13.022c0.466-0.678,0.885-1.39,1.254-2.132L164.234,177.719z M165.693,151.516
		c0.476,1.44,1.019,3.236,1.253,4.57c0.227,1.28,0.323,2.966,0.364,4.348l-20.806,0.465c-0.081-0.831-0.222-1.645-0.415-2.438
		L165.693,151.516z M141.292,150.033c-0.588-0.577-1.216-1.112-1.88-1.604l10.555-17.925c1.344,0.834,2.904,1.859,3.898,2.693
		c0.997,0.837,2.154,2.065,3.074,3.099L141.292,150.033z"/>
	<path clip-path="url(#SVGID_2_)" fill="#041E42" d="M184,126.136v-14.56c-7.665-3.189-15.201-5.968-22.942-8.114
		c-0.019-0.005-0.039-0.01-0.058-0.015V87.634c0-4.216-3.418-7.634-7.634-7.634h-48.732C100.418,80,97,83.418,97,87.634v15.96
		c-0.11,0.029-0.215,0.058-0.326,0.087c-7.916,2.1-15.921,4.784-23.674,7.895v14.818l-17,7.72v56.792l17,7.558v7.816l24.753,18.881
		L103.275,238h52.558l5.601-12.839L184,206.28v-7.304l17-8.142v-56.687L184,126.136z M73,190.803l-10-4.446v-47.733l10-4.541
		V190.803z M104,87.634c0-0.35,0.284-0.634,0.634-0.634h48.732c0.35,0,0.634,0.284,0.634,0.634v14.118
		c-8.132-1.845-16.197-2.922-24.049-2.922c-8.214,0-16.997,1.118-25.951,3.07V87.634z M177,202.986l-20.029,16.782l-1.118,1.026
		l-0.604,1.465l-3.919,8.74h-43.491l-3.822-8.664l-0.731-1.658l-1.302-1.094L80,202.804v-86.39c5.893-2.179,11.559-4.023,17-5.532
		c12.104-3.357,23.09-5.052,32.951-5.052c9.435,0,19.406,1.606,31.049,5.058c4.996,1.482,10.295,3.297,16,5.48V202.986z
		 M194,186.427l-10,4.79v-57.342l10,4.713V186.427z"/>
</g>
</svg>
