<?xml version="1.0" encoding="utf-8"?>
<!-- Generator: Adobe Illustrator 16.0.3, SVG Export Plug-In . SVG Version: 6.00 Build 0)  -->
<!DOCTYPE svg PUBLIC "-//W3C//DTD SVG 1.1//EN" "http://www.w3.org/Graphics/SVG/1.1/DTD/svg11.dtd">
<svg version="1.1" id="Layer_1" xmlns="http://www.w3.org/2000/svg" xmlns:xlink="http://www.w3.org/1999/xlink" x="0px" y="0px"
	 width="256px" height="256px" viewBox="0 0 256 256" enable-background="new 0 0 256 256" xml:space="preserve">
<g>
	<defs>
		<rect id="SVGID_1_" width="256" height="256"/>
	</defs>
	<clipPath id="SVGID_2_">
		<use xlink:href="#SVGID_1_"  overflow="visible"/>
	</clipPath>
	<path clip-path="url(#SVGID_2_)" fill="#041E42" d="M214.53,69.428c-4.699-4.699-9.183-3.935-9.183-3.935
		c-5.58,0.794-11.452-0.955-15.742-5.247c-4.854-4.854-6.438-11.721-4.791-17.91l13.573,13.57l9.582-3.532l3.535-9.585
		l-13.571-13.57c6.188-1.648,13.058-0.066,17.911,4.789c4.292,4.292,6.041,10.164,5.247,15.744c0,0-0.565,4.679,3.935,9.179
		l8.094,8.094c3.096-4.926,4.893-10.751,4.893-16.999c0-17.673-14.327-32-32-32s-32,14.327-32,32s14.327,32,32,32
		c6.046,0,11.7-1.678,16.523-4.592L214.53,69.428z"/>
	<path clip-path="url(#SVGID_2_)" fill="#041E42" d="M194.19,198l6.487-53.37l-11.175,3.304L172.002,107H131v-8h19V80h-19v-9h4v-7
		h-15v7h4v9h-19v19h19v8H83.7l-17.464,40.802l-10.983-3.215L61.749,198H36v7h28.013l64.486,33l63.576-33H220v-7H194.19z
		 M167.389,114l14.768,34.493c-2.187-0.787-12.172-4.229-25.062-7.021c-2.324-0.513-4.598-1.024-6.834-1.429L143.68,114H167.389z
		 M112,87h31v5h-31V87z M119.381,114h17.078l6.283,24.892c-5.35-0.698-10.408-1.019-15.112-1.019l-0.223,0.023l-0.178-0.035
		c-4.69,0-9.445,0.317-14.097,0.888L119.381,114z M88.314,114h23.846l-6.53,25.859c-15.023,2.604-27.814,6.915-32.003,8.426
		L88.314,114z M69.1,199.378l-5.457-45.107L125,173.104v55.387L69.1,199.378z M82.359,152.884c9.969-3.127,28.11-7.967,44.896-7.967
		l0.178,0.002l0.197-0.003c8.22,0,17.625,1.156,27.969,3.438c7.012,1.52,13.197,3.273,17.611,4.641L128.5,167L82.359,152.884z
		 M187.011,199.459L132,228.49v-55.387l60.56-18.834L187.011,199.459z"/>
</g>
</svg>
