<?xml version="1.0" encoding="utf-8"?>
<!-- Generator: Adobe Illustrator 16.0.3, SVG Export Plug-In . SVG Version: 6.00 Build 0)  -->
<!DOCTYPE svg PUBLIC "-//W3C//DTD SVG 1.1//EN" "http://www.w3.org/Graphics/SVG/1.1/DTD/svg11.dtd">
<svg version="1.1" id="Layer_1" xmlns="http://www.w3.org/2000/svg" xmlns:xlink="http://www.w3.org/1999/xlink" x="0px" y="0px"
	 width="256px" height="256px" viewBox="0 0 256 256" enable-background="new 0 0 256 256" xml:space="preserve">
<g>
	<defs>
		<rect id="SVGID_1_" width="256" height="256"/>
	</defs>
	<clipPath id="SVGID_2_">
		<use xlink:href="#SVGID_1_"  overflow="visible"/>
	</clipPath>
	<path clip-path="url(#SVGID_2_)" fill="#041E42" d="M214.53,69.428c-4.699-4.699-9.183-3.935-9.183-3.935
		c-5.58,0.794-11.452-0.955-15.742-5.247c-4.854-4.854-6.438-11.721-4.791-17.91l13.573,13.57l9.582-3.532l3.535-9.585
		l-13.571-13.57c6.188-1.648,13.058-0.066,17.911,4.789c4.292,4.292,6.041,10.164,5.247,15.744c0,0-0.565,4.679,3.935,9.179
		l8.094,8.094c3.096-4.926,4.893-10.751,4.893-16.999c0-17.673-14.327-32-32-32s-32,14.327-32,32s14.327,32,32,32
		c6.046,0,11.7-1.678,16.523-4.592L214.53,69.428z"/>
	<path clip-path="url(#SVGID_2_)" fill="#041E42" d="M184,116V81.901l-1.978-0.955C164.927,72.687,147.256,68.5,129.5,68.5
		s-35.427,4.187-52.522,12.446L75,81.901v24.164L58.552,93.547l3.68,22.843l-28.015-0.163l18.341,17.587l-28.019,11.828
		l28.013,11.777l-18.335,17.581l28.015-0.162l-3.68,22.841L75,185.162V238h24.123l6.644-23h49.124l6.644,23H184v-85.14
		c4.872-2.348,9.676-4.974,14.356-7.901l1.644-1.028V116H184z M75,176.366l-6.751,5.138l2.21-13.712l-18.723,0.107l13.353-12.802
		l-22.521-9.469l22.515-9.504l-13.347-12.796l18.723,0.107l-2.21-13.711L75,114.863V176.366z M177,231h-10.202l-6.644-23h-59.651
		l-6.644,23H82v-74.774c2.79,1.146,5.625,2.209,8.499,3.163l11.254,37.365l1.627,0.607c7.474,2.789,19.463,4.294,26.948,4.294
		c7.484,0,19.475-1.505,26.949-4.294l1.627-0.607l11.502-38.185c2.205-0.793,4.404-1.636,6.594-2.55V231z M98.526,161.768
		c10.471,2.761,21.189,4.232,31.434,4.232h0.185c10.449,0,21.321-1.661,32.157-4.801l-9.081,30.153
		c-6.537,2.055-16.617,3.303-22.893,3.303c-6.276,0-16.354-1.248-22.891-3.303L98.526,161.768z M177,148.4
		c-15.552,6.897-31.699,10.6-46.855,10.6h-0.185c-15.763,0-32.736-3.687-47.96-10.383V123h95V148.4z M177,116H82V86.314
		C97.52,79.137,113.487,75.5,129.5,75.5c16.013,0,31.98,3.637,47.5,10.814V116z M193,140.038c-2.958,1.796-5.965,3.458-9,5.012V123
		h9V140.038z"/>
</g>
</svg>
