<?xml version="1.0" encoding="utf-8"?>
<!-- Generator: Adobe Illustrator 16.0.3, SVG Export Plug-In . SVG Version: 6.00 Build 0)  -->
<!DOCTYPE svg PUBLIC "-//W3C//DTD SVG 1.1//EN" "http://www.w3.org/Graphics/SVG/1.1/DTD/svg11.dtd">
<svg version="1.1" id="Layer_1" xmlns="http://www.w3.org/2000/svg" xmlns:xlink="http://www.w3.org/1999/xlink" x="0px" y="0px"
	 width="256px" height="256px" viewBox="0 0 256 256" enable-background="new 0 0 256 256" xml:space="preserve">
<g>
	<defs>
		<rect id="SVGID_1_" width="256" height="256"/>
	</defs>
	<clipPath id="SVGID_2_">
		<use xlink:href="#SVGID_1_"  overflow="visible"/>
	</clipPath>
	<path clip-path="url(#SVGID_2_)" fill="#041E42" d="M214.53,69.428c-4.699-4.699-9.183-3.935-9.183-3.935
		c-5.58,0.794-11.452-0.955-15.742-5.247c-4.854-4.854-6.438-11.721-4.791-17.91l13.573,13.57l9.582-3.532l3.535-9.585
		l-13.571-13.57c6.188-1.648,13.058-0.066,17.911,4.789c4.292,4.292,6.041,10.164,5.247,15.744c0,0-0.565,4.679,3.935,9.179
		l8.094,8.094c3.096-4.926,4.893-10.751,4.893-16.999c0-17.673-14.327-32-32-32s-32,14.327-32,32s14.327,32,32,32
		c6.046,0,11.7-1.678,16.523-4.592L214.53,69.428z"/>
	<path clip-path="url(#SVGID_2_)" fill="#041E42" d="M128,68.667c-46.528,0-84.382,37.854-84.382,84.381
		c0,46.528,37.854,84.382,84.382,84.382c46.528,0,84.382-37.854,84.382-84.382C212.382,106.521,174.528,68.667,128,68.667
		 M128,230.43c-42.669,0-77.382-34.713-77.382-77.382c0-42.668,34.713-77.381,77.382-77.381s77.382,34.713,77.382,77.381
		C205.382,195.717,170.669,230.43,128,230.43"/>
	<path clip-path="url(#SVGID_2_)" fill="#041E42" d="M127.737,100.683c-28.729,0-52.103,23.374-52.103,52.104
		s23.374,52.103,52.103,52.103c28.729,0,52.104-23.373,52.104-52.103S156.466,100.683,127.737,100.683 M127.737,197.889
		c-24.869,0-45.103-20.233-45.103-45.103c0-24.871,20.234-45.104,45.103-45.104c24.87,0,45.104,20.233,45.104,45.104
		C172.841,177.655,152.607,197.889,127.737,197.889"/>
	<path clip-path="url(#SVGID_2_)" fill="#041E42" d="M127.476,131.446c-11.912,0-21.603,9.69-21.603,21.602
		c0,11.912,9.691,21.603,21.603,21.603c11.911,0,21.602-9.69,21.602-21.603C149.077,141.137,139.387,131.446,127.476,131.446
		 M127.476,167.65c-8.052,0-14.603-6.551-14.603-14.603s6.551-14.602,14.603-14.602s14.602,6.55,14.602,14.602
		S135.527,167.65,127.476,167.65"/>
	<path clip-path="url(#SVGID_2_)" fill="#041E42" d="M127.621,125.284c3.144,0,5.691-2.548,5.691-5.691s-2.548-5.691-5.691-5.691
		c-3.143,0-5.691,2.548-5.691,5.691S124.479,125.284,127.621,125.284"/>
	<path clip-path="url(#SVGID_2_)" fill="#041E42" d="M127.621,180.792c-3.143,0-5.691,2.548-5.691,5.69
		c0,3.144,2.548,5.691,5.691,5.691c3.144,0,5.691-2.548,5.691-5.691C133.313,183.34,130.765,180.792,127.621,180.792"/>
	<path clip-path="url(#SVGID_2_)" fill="#041E42" d="M94.177,147.347c-3.143,0-5.691,2.548-5.691,5.691
		c0,3.143,2.548,5.69,5.691,5.69s5.691-2.548,5.691-5.69C99.868,149.895,97.32,147.347,94.177,147.347"/>
	<path clip-path="url(#SVGID_2_)" fill="#041E42" d="M155.375,153.038c0,3.143,2.548,5.691,5.69,5.691
		c3.144,0,5.691-2.549,5.691-5.691s-2.548-5.691-5.691-5.691C157.923,147.347,155.375,149.896,155.375,153.038"/>
	<path clip-path="url(#SVGID_2_)" fill="#041E42" d="M99.948,172.663c-2.223,2.223-2.223,5.826,0,8.048
		c2.222,2.223,5.826,2.223,8.048,0c2.223-2.222,2.223-5.825,0-8.048C105.774,170.44,102.17,170.44,99.948,172.663"/>
	<path clip-path="url(#SVGID_2_)" fill="#041E42" d="M155.294,133.413c2.224-2.222,2.224-5.826,0-8.048
		c-2.222-2.223-5.825-2.223-8.048,0c-2.223,2.222-2.223,5.826,0,8.048C149.469,135.636,153.072,135.636,155.294,133.413"/>
	<path clip-path="url(#SVGID_2_)" fill="#041E42" d="M107.997,133.413c2.222-2.222,2.222-5.826,0-8.048
		c-2.222-2.223-5.826-2.223-8.048,0c-2.223,2.222-2.223,5.826,0,8.048C102.17,135.636,105.774,135.636,107.997,133.413"/>
	<path clip-path="url(#SVGID_2_)" fill="#041E42" d="M147.246,172.663c-2.222,2.223-2.222,5.826,0,8.048
		c2.223,2.223,5.826,2.223,8.048,0c2.223-2.222,2.223-5.825,0-8.048C153.072,170.44,149.469,170.44,147.246,172.663"/>
</g>
</svg>
