<?xml version="1.0" encoding="utf-8"?>
<!-- Generator: Adobe Illustrator 16.0.3, SVG Export Plug-In . SVG Version: 6.00 Build 0)  -->
<!DOCTYPE svg PUBLIC "-//W3C//DTD SVG 1.1//EN" "http://www.w3.org/Graphics/SVG/1.1/DTD/svg11.dtd">
<svg version="1.1" id="Layer_1" xmlns="http://www.w3.org/2000/svg" xmlns:xlink="http://www.w3.org/1999/xlink" x="0px" y="0px"
	 width="256px" height="256px" viewBox="0 0 256 256" enable-background="new 0 0 256 256" xml:space="preserve">
<g>
	<defs>
		<rect id="SVGID_1_" width="256" height="256"/>
	</defs>
	<clipPath id="SVGID_2_">
		<use xlink:href="#SVGID_1_"  overflow="visible"/>
	</clipPath>
	<path clip-path="url(#SVGID_2_)" fill="#041E42" d="M206.037,18c-17.681,0-32.014,14.333-32.014,32.013
		c0,17.68,14.333,32.013,32.014,32.013s32.013-14.333,32.013-32.013C238.05,32.333,223.718,18,206.037,18 M225.883,53
		c-0.113-1-1.662-3.354-3.562-3.354S218.873,52,218.759,53h-2.354c-0.114-1-1.662-3.354-3.563-3.354
		c-1.898,0-3.448,2.354-3.562,3.354H204v6h-20V40h20v6h25v7H225.883z"/>
	<rect x="188" y="43" clip-path="url(#SVGID_2_)" fill="#041E42" width="6" height="13"/>
	<path clip-path="url(#SVGID_2_)" fill="#041E42" d="M182,116V82.421l-1.827-0.967c-16.34-8.155-34.364-12.466-52.228-12.466
		c-17.865,0-35.806,4.311-52.146,12.466L74,82.421V116H57v28.429l1.974,1.026C63.709,148.393,69,151.033,74,153.394V238h22.777
		l6.643-23h49.16l6.643,23H182v-84.485c5-2.395,10.329-5.083,15.055-8.077l1.945-1.031V116H182z M74,145.625
		c-3-1.584-7-3.279-10-5.109V123h10V145.625z M175,231h-10.549l-6.643-23H98.191l-6.642,23H81v-74.544
		c2,0.996,4.826,1.924,7.317,2.777l11.095,37.017l1.599,0.607c7.474,2.789,19.448,4.294,26.934,4.294s19.467-1.505,26.942-4.294
		l1.623-0.607l10.969-36.792c2.564-0.872,5.521-1.836,7.521-2.863V231z M96.266,161.563c10.776,2.977,21.62,4.438,31.918,4.438
		h0.184c10.116,0,20.694-1.377,31.169-4.23l-8.714,29.006c-6.537,2.055-16.615,3.34-22.891,3.34c-6.277,0-16.356-1.23-22.892-3.284
		L96.266,161.563z M175,149.009c-15,6.625-31.427,9.991-46.632,9.991h-0.184C112.938,159,96,155.586,81,148.875V123h94V149.009z
		 M175,116H81V86.774c15-7.062,30.917-10.786,47-10.786s32,3.724,47,10.786V116z M192,140.537c-3,1.863-7,3.586-10,5.193V123h10
		V140.537z"/>
</g>
</svg>
