<?xml version="1.0" encoding="utf-8"?>
<!-- Generator: Adobe Illustrator 16.0.3, SVG Export Plug-In . SVG Version: 6.00 Build 0)  -->
<!DOCTYPE svg PUBLIC "-//W3C//DTD SVG 1.1//EN" "http://www.w3.org/Graphics/SVG/1.1/DTD/svg11.dtd">
<svg version="1.1" id="Layer_1" xmlns="http://www.w3.org/2000/svg" xmlns:xlink="http://www.w3.org/1999/xlink" x="0px" y="0px"
	 width="256px" height="256px" viewBox="0 0 256 256" enable-background="new 0 0 256 256" xml:space="preserve">
<polygon fill="#041E42" points="205.459,51 205.499,51.041 205.541,51 "/>
<g>
	<defs>
		<rect id="SVGID_1_" width="256" height="256"/>
	</defs>
	<clipPath id="SVGID_2_">
		<use xlink:href="#SVGID_1_"  overflow="visible"/>
	</clipPath>
	<path clip-path="url(#SVGID_2_)" fill="#041E42" d="M206.037,18c-17.68,0-32.013,14.333-32.013,32.013
		c0,17.68,14.333,32.013,32.013,32.013c17.681,0,32.013-14.333,32.013-32.013C238.05,32.333,223.718,18,206.037,18 M194.357,39.899
		L203,48.541V28h5v20.541l8.677-8.676l0.004,6.459L205.5,57.506l-11.181-11.182L194.357,39.899z M223,67h-35V53h4v10h27V53h4V67z"/>
	<path clip-path="url(#SVGID_2_)" fill="#041E42" d="M18,220.039h220V117.661H18V220.039z M228,210.039H28v-82.378h200V210.039z"/>
	<polygon clip-path="url(#SVGID_2_)" fill="#041E42" points="183.479,163.978 188.744,168.965 176.135,180.91 183.011,188.17 
		196.015,175.853 209.017,188.17 215.894,180.91 203.284,168.965 208.549,163.978 212.297,167.717 219.359,160.638 206.095,147.404 
		199.033,154.482 201.467,156.912 196.015,162.078 190.562,156.912 192.995,154.482 185.933,147.404 172.669,160.638 
		179.731,167.717 	"/>
	<polygon clip-path="url(#SVGID_2_)" fill="#041E42" points="46.428,174.351 68.428,174.351 68.428,184.851 78.428,184.851 
		78.428,164.351 46.428,164.351 46.428,152.851 36.428,152.851 36.428,184.851 46.428,184.851 	"/>
	<path clip-path="url(#SVGID_2_)" fill="#041E42" d="M127.572,152.726h-40.82v32.25h40.82V152.726z M107.017,162.726l-10.265,8.626
		v-8.626H107.017z M107.984,174.976l9.588-8.059v8.059H107.984z"/>
	<path clip-path="url(#SVGID_2_)" fill="#041E42" d="M151.044,185.185c9.021,0,16.333-7.313,16.333-16.335
		c0-9.02-7.313-16.332-16.333-16.332c-9.021,0-16.333,7.313-16.333,16.332C134.711,177.871,142.022,185.185,151.044,185.185
		 M151.044,162.518c3.492,0,6.333,2.841,6.333,6.332c0,3.493-2.841,6.335-6.333,6.335s-6.333-2.842-6.333-6.335
		C144.711,165.358,147.552,162.518,151.044,162.518"/>
	<path clip-path="url(#SVGID_2_)" fill="#041E42" d="M151.044,172.145c1.819,0,3.294-1.475,3.294-3.294
		c0-1.82-1.475-3.295-3.294-3.295s-3.294,1.475-3.294,3.295C147.75,170.67,149.225,172.145,151.044,172.145"/>
</g>
</svg>
