<?xml version="1.0" encoding="utf-8"?>
<!-- Generator: Adobe Illustrator 16.0.3, SVG Export Plug-In . SVG Version: 6.00 Build 0)  -->
<!DOCTYPE svg PUBLIC "-//W3C//DTD SVG 1.1//EN" "http://www.w3.org/Graphics/SVG/1.1/DTD/svg11.dtd">
<svg version="1.1" id="Layer_1" xmlns="http://www.w3.org/2000/svg" xmlns:xlink="http://www.w3.org/1999/xlink" x="0px" y="0px"
	 width="256px" height="256px" viewBox="0 0 256 256" enable-background="new 0 0 256 256" xml:space="preserve">
<polygon fill="#041E42" points="205.459,51 205.499,51.041 205.541,51 "/>
<g>
	<defs>
		<rect id="SVGID_1_" width="256" height="256"/>
	</defs>
	<clipPath id="SVGID_2_">
		<use xlink:href="#SVGID_1_"  overflow="visible"/>
	</clipPath>
	<path clip-path="url(#SVGID_2_)" fill="#041E42" d="M206.037,18c-17.68,0-32.013,14.333-32.013,32.013
		c0,17.68,14.333,32.013,32.013,32.013c17.681,0,32.013-14.333,32.013-32.013C238.05,32.333,223.718,18,206.037,18 M194.357,39.899
		L203,48.541V28h5v20.541l8.677-8.676l0.004,6.459L205.5,57.506l-11.181-11.182L194.357,39.899z M223,67h-35V53h4v10h27V53h4V67z"/>
	<path clip-path="url(#SVGID_2_)" fill="#041E42" d="M231,213.545H25v-88.378h206V213.545z M238,118.167H18v102.378h220V118.167z"/>
	<polygon clip-path="url(#SVGID_2_)" fill="#041E42" points="215.068,162.611 218.618,166.246 223.626,161.355 212.753,150.222 
		207.745,155.112 210.178,157.604 201.608,165.973 193.038,157.604 195.471,155.112 190.463,150.222 179.59,161.355 
		184.598,166.246 188.147,162.611 196.599,170.864 183.618,183.541 188.508,188.55 201.607,175.757 214.708,188.55 219.599,183.541 
		206.618,170.864 	"/>
	<polygon clip-path="url(#SVGID_2_)" fill="#041E42" points="41.491,153.356 34.491,153.356 34.491,185.356 41.491,185.356 
		41.491,173.356 66.491,173.356 66.491,185.356 73.491,185.356 73.491,166.356 41.491,166.356 	"/>
	<path clip-path="url(#SVGID_2_)" fill="#041E42" d="M86.02,185.481h37v-32.25h-37V185.481z M116.02,178.481H99.446l16.574-14.465
		V178.481z M93.02,160.231h16.692L93.02,174.799V160.231z"/>
	<path clip-path="url(#SVGID_2_)" fill="#041E42" d="M153.063,160.022c5.146,0,9.333,4.188,9.333,9.333
		c0,5.147-4.187,9.334-9.333,9.334c-5.146,0-9.333-4.187-9.333-9.334C143.73,164.21,147.918,160.022,153.063,160.022
		 M153.063,153.022c-9.021,0-16.333,7.313-16.333,16.333c0,9.021,7.313,16.334,16.333,16.334c9.021,0,16.333-7.313,16.333-16.334
		C169.396,160.336,162.085,153.022,153.063,153.022"/>
	<path clip-path="url(#SVGID_2_)" fill="#041E42" d="M153.063,166.062c-1.818,0-3.294,1.476-3.294,3.295s1.476,3.295,3.294,3.295
		c1.819,0,3.294-1.476,3.294-3.295S154.883,166.062,153.063,166.062"/>
</g>
</svg>
