<?xml version="1.0" encoding="utf-8"?>
<!-- Generator: Adobe Illustrator 16.0.3, SVG Export Plug-In . SVG Version: 6.00 Build 0)  -->
<!DOCTYPE svg PUBLIC "-//W3C//DTD SVG 1.1//EN" "http://www.w3.org/Graphics/SVG/1.1/DTD/svg11.dtd">
<svg version="1.1" id="Layer_1" xmlns="http://www.w3.org/2000/svg" xmlns:xlink="http://www.w3.org/1999/xlink" x="0px" y="0px"
	 width="256px" height="256px" viewBox="0 0 256 256" enable-background="new 0 0 256 256" xml:space="preserve">
<path fill="#041E42" d="M18,220.039h220V117.661H18V220.039z M228,210.039H28v-82.378h200V210.039z"/>
<polygon fill="#041E42" points="183.479,163.979 188.743,168.965 176.135,180.91 183.012,188.17 196.015,175.853 209.017,188.17 
	215.894,180.91 203.284,168.965 208.549,163.979 212.297,167.718 219.359,160.637 206.096,147.404 199.033,154.484 201.467,156.912 
	196.015,162.078 190.562,156.912 192.995,154.484 185.933,147.404 172.669,160.637 179.731,167.718 "/>
<polygon fill="#041E42" points="46.428,174.351 68.428,174.351 68.428,184.851 78.428,184.851 78.428,164.351 46.428,164.351 
	46.428,152.851 36.428,152.851 36.428,184.851 46.428,184.851 "/>
<path fill="#041E42" d="M127.573,152.726h-40.82v32.25h40.82V152.726z M107.017,162.726l-10.264,8.626v-8.626H107.017z
	 M107.985,174.976l9.588-8.059v8.059H107.985z"/>
<g>
	<defs>
		<rect id="SVGID_1_" width="256" height="256"/>
	</defs>
	<clipPath id="SVGID_2_">
		<use xlink:href="#SVGID_1_"  overflow="visible"/>
	</clipPath>
	<path clip-path="url(#SVGID_2_)" fill="#041E42" d="M151.044,185.185c9.021,0,16.333-7.313,16.333-16.335
		c0-9.02-7.313-16.332-16.333-16.332c-9.021,0-16.333,7.313-16.333,16.332C134.711,177.871,142.022,185.185,151.044,185.185
		 M151.044,162.518c3.492,0,6.333,2.841,6.333,6.332c0,3.493-2.841,6.335-6.333,6.335s-6.333-2.842-6.333-6.335
		C144.711,165.358,147.552,162.518,151.044,162.518"/>
	<path clip-path="url(#SVGID_2_)" fill="#041E42" d="M151.044,172.145c1.819,0,3.294-1.475,3.294-3.294
		c0-1.82-1.475-3.295-3.294-3.295s-3.294,1.475-3.294,3.295C147.75,170.67,149.225,172.145,151.044,172.145"/>
	<path clip-path="url(#SVGID_2_)" fill="#041E42" d="M187.637,56.638C186.395,55.049,186,52.95,186,50.396
		c0,2.553,0.363,4.652,1.606,6.241c1.273,1.625,2.852,2.449,5.219,2.449c0.031,0,0.059-0.004,0.09-0.004
		C190.595,59.062,188.895,58.242,187.637,56.638"/>
	<path clip-path="url(#SVGID_2_)" fill="#041E42" d="M193.005,40.097c-0.021,0-0.039,0.003-0.059,0.003
		c2.336,0.014,4.042,0.835,5.303,2.446c1.244,1.589,1.751,3.689,1.751,6.24c0-2.551-0.448-4.651-1.691-6.24
		C197.036,40.921,195.373,40.097,193.005,40.097"/>
	<path clip-path="url(#SVGID_2_)" fill="#041E42" d="M206.037,18c-17.681,0-32.014,14.333-32.014,32.013
		c0,17.68,14.333,32.013,32.014,32.013s32.014-14.333,32.014-32.013C238.051,32.333,223.718,18,206.037,18 M203.304,56.2
		c-0.896,1.859-2.235,3.318-3.983,4.335c-1.757,1.023-3.922,1.541-6.434,1.541c-2.513,0-4.677-0.518-6.433-1.541
		c-1.748-1.017-3.089-2.476-3.984-4.335c-0.908-1.883-1.368-4.106-1.368-6.608c0-2.502,0.46-4.726,1.368-6.609
		c0.896-1.858,2.236-3.317,3.984-4.335c1.757-1.023,3.921-1.542,6.433-1.542c2.511,0,4.676,0.519,6.434,1.542
		c1.748,1.018,3.088,2.477,3.983,4.335c0.908,1.883,1.368,4.107,1.368,6.609C204.672,52.094,204.212,54.317,203.304,56.2
		 M226.593,62l-7.051-11.736L214,56.013V62h-4V38h4v13.321L226.325,38h4.56l-8.45,9.351L231.302,62H226.593z"/>
	<path clip-path="url(#SVGID_2_)" fill="#041E42" d="M192.946,40.1c-0.021,0-0.039-0.003-0.06-0.003c-2.368,0-3.977,0.825-5.25,2.45
		c-1.243,1.588-1.637,3.688-1.637,6.24v1.61c0,2.553,0.394,4.652,1.637,6.241c1.257,1.604,2.959,2.424,5.278,2.446
		c0.031,0,0.059,0.004,0.09,0.004c2.367,0,4.03-0.825,5.304-2.45c1.243-1.589,1.691-3.688,1.691-6.241v-1.61
		c0-2.552-0.507-4.652-1.75-6.24C196.988,40.936,195.283,40.113,192.946,40.1"/>
</g>
</svg>
