<?xml version="1.0" encoding="utf-8"?>
<!-- Generator: Adobe Illustrator 16.0.3, SVG Export Plug-In . SVG Version: 6.00 Build 0)  -->
<!DOCTYPE svg PUBLIC "-//W3C//DTD SVG 1.1//EN" "http://www.w3.org/Graphics/SVG/1.1/DTD/svg11.dtd">
<svg version="1.1" id="Layer_1" xmlns="http://www.w3.org/2000/svg" xmlns:xlink="http://www.w3.org/1999/xlink" x="0px" y="0px"
	 width="256px" height="256px" viewBox="0 0 256 256" enable-background="new 0 0 256 256" xml:space="preserve">
<polygon fill="#041E42" points="188.147,162.611 196.599,170.864 183.617,183.542 188.508,188.55 201.608,175.756 214.708,188.55 
	219.599,183.542 206.617,170.865 215.068,162.611 218.618,166.246 223.626,161.355 212.753,150.222 207.745,155.112 
	210.179,157.604 201.608,165.973 193.039,157.604 195.471,155.112 190.463,150.222 179.59,161.355 184.598,166.246 "/>
<path fill="#041E42" d="M18,220.545h220V118.167H18V220.545z M231,213.545H25v-88.378h206V213.545z"/>
<polygon fill="#041E42" points="41.491,173.356 66.491,173.356 66.491,185.356 73.491,185.356 73.491,166.356 41.491,166.356 
	41.491,153.356 34.491,153.356 34.491,185.356 41.491,185.356 "/>
<path fill="#041E42" d="M123.02,153.231h-37v32.25h37V153.231z M109.71,160.231L93.02,174.798v-14.566H109.71z M99.446,178.481
	l16.574-14.465v14.465H99.446z"/>
<g>
	<defs>
		<rect id="SVGID_1_" width="256" height="256"/>
	</defs>
	<clipPath id="SVGID_2_">
		<use xlink:href="#SVGID_1_"  overflow="visible"/>
	</clipPath>
	<path clip-path="url(#SVGID_2_)" fill="#041E42" d="M153.063,185.689c9.021,0,16.333-7.313,16.333-16.334
		c0-9.02-7.312-16.333-16.333-16.333c-9.021,0-16.333,7.313-16.333,16.333C136.73,178.377,144.043,185.689,153.063,185.689
		 M153.063,160.022c5.146,0,9.333,4.188,9.333,9.333c0,5.147-4.187,9.334-9.333,9.334c-5.146,0-9.333-4.187-9.333-9.334
		C143.73,164.21,147.918,160.022,153.063,160.022"/>
	<path clip-path="url(#SVGID_2_)" fill="#041E42" d="M153.063,172.65c1.819,0,3.294-1.475,3.294-3.294
		c0-1.82-1.475-3.295-3.294-3.295c-1.818,0-3.294,1.475-3.294,3.295C149.77,171.176,151.245,172.65,153.063,172.65"/>
	<path clip-path="url(#SVGID_2_)" fill="#041E42" d="M187.637,56.638C186.395,55.049,186,52.95,186,50.396
		c0,2.553,0.363,4.652,1.606,6.241c1.273,1.625,2.852,2.449,5.219,2.449c0.031,0,0.059-0.004,0.09-0.004
		C190.595,59.062,188.895,58.242,187.637,56.638"/>
	<path clip-path="url(#SVGID_2_)" fill="#041E42" d="M193.005,40.097c-0.021,0-0.039,0.003-0.059,0.003
		c2.336,0.014,4.042,0.835,5.303,2.446c1.244,1.589,1.751,3.689,1.751,6.24c0-2.551-0.448-4.651-1.691-6.24
		C197.036,40.921,195.373,40.097,193.005,40.097"/>
	<path clip-path="url(#SVGID_2_)" fill="#041E42" d="M206.037,18c-17.681,0-32.014,14.333-32.014,32.013
		c0,17.68,14.333,32.013,32.014,32.013s32.014-14.333,32.014-32.013C238.051,32.333,223.718,18,206.037,18 M203.304,56.2
		c-0.896,1.859-2.235,3.318-3.983,4.335c-1.757,1.023-3.922,1.541-6.434,1.541c-2.513,0-4.677-0.518-6.433-1.541
		c-1.748-1.017-3.089-2.476-3.984-4.335c-0.908-1.883-1.368-4.106-1.368-6.608c0-2.502,0.46-4.726,1.368-6.609
		c0.896-1.858,2.236-3.317,3.984-4.335c1.757-1.023,3.921-1.542,6.433-1.542c2.511,0,4.676,0.519,6.434,1.542
		c1.748,1.018,3.088,2.477,3.983,4.335c0.908,1.883,1.368,4.107,1.368,6.609C204.672,52.094,204.212,54.317,203.304,56.2
		 M226.593,62l-7.051-11.736L214,56.013V62h-4V38h4v13.321L226.325,38h4.56l-8.45,9.351L231.302,62H226.593z"/>
	<path clip-path="url(#SVGID_2_)" fill="#041E42" d="M192.946,40.1c-0.021,0-0.039-0.003-0.06-0.003c-2.368,0-3.977,0.825-5.25,2.45
		c-1.243,1.588-1.637,3.688-1.637,6.24v1.61c0,2.553,0.394,4.652,1.637,6.241c1.257,1.604,2.959,2.424,5.278,2.446
		c0.031,0,0.059,0.004,0.09,0.004c2.367,0,4.03-0.825,5.304-2.45c1.243-1.589,1.691-3.688,1.691-6.241v-1.61
		c0-2.552-0.507-4.652-1.75-6.24C196.988,40.936,195.283,40.113,192.946,40.1"/>
</g>
</svg>
