<?xml version="1.0" encoding="utf-8"?>
<!-- Generator: Adobe Illustrator 16.0.3, SVG Export Plug-In . SVG Version: 6.00 Build 0)  -->
<!DOCTYPE svg PUBLIC "-//W3C//DTD SVG 1.1//EN" "http://www.w3.org/Graphics/SVG/1.1/DTD/svg11.dtd">
<svg version="1.1" id="Layer_1" xmlns="http://www.w3.org/2000/svg" xmlns:xlink="http://www.w3.org/1999/xlink" x="0px" y="0px"
	 width="256px" height="256px" viewBox="0 0 256 256" enable-background="new 0 0 256 256" xml:space="preserve">
<path fill="#041E42" d="M105.347,238.001h42v-33.182h-42V238.001z M140.347,231.001h-19.623l19.623-16.491V231.001z
	 M112.347,211.819h20.319l-20.319,17.078V211.819z"/>
<polygon fill="#041E42" points="42.005,204.002 35.005,204.002 35.005,238.002 42.005,238.002 42.005,225.033 69.005,225.033 
	69.005,238.002 76.005,238.002 76.005,218.033 42.005,218.033 "/>
<polygon fill="#041E42" points="209.043,215.002 214.072,220.019 219.015,215.063 205.292,201.373 200.349,206.328 204.085,210.056 
	196.043,217.674 188.001,210.056 191.738,206.328 186.794,201.373 173.072,215.063 178.015,220.019 183.043,215.002 
	190.954,222.495 176.626,236.068 181.441,241.149 196.043,227.317 210.646,241.149 215.46,236.068 201.133,222.495 "/>
<g>
	<defs>
		<rect id="SVGID_1_" width="256" height="256"/>
	</defs>
	<clipPath id="SVGID_2_">
		<use xlink:href="#SVGID_1_"  overflow="visible"/>
	</clipPath>
	<path clip-path="url(#SVGID_2_)" fill="#041E42" d="M113.162,156.635c1.076,3.479,3.442,6.331,6.662,8.031
		c1.99,1.049,4.158,1.581,6.345,1.581c1.354,0,2.715-0.203,4.044-0.615c3.479-1.076,6.331-3.442,8.031-6.662
		c1.699-3.221,2.042-6.91,0.967-10.39c-1.076-3.479-3.442-6.33-6.663-8.03s-6.911-2.042-10.389-0.967
		c-2.291,0.709-4.302,1.987-5.899,3.689l-41.695-22l-3.383,6.41l41.696,22.001C112.373,151.964,112.453,154.344,113.162,156.635
		 M120.539,149.628c0.796-1.509,2.131-2.617,3.761-3.12c0.623-0.193,1.26-0.289,1.894-0.289c1.025,0,2.041,0.25,2.972,0.742
		c1.509,0.795,2.617,2.131,3.12,3.761c0.504,1.629,0.343,3.357-0.453,4.866c-0.795,1.508-2.131,2.616-3.761,3.12
		c-1.63,0.502-3.356,0.343-4.866-0.453c-1.508-0.796-2.616-2.132-3.12-3.761S119.743,151.137,120.539,149.628"/>
	<path clip-path="url(#SVGID_2_)" fill="#041E42" d="M171.731,180.286v7l27.572,0.008c5.925-11.25,9.093-23.787,9.093-36.709
		c0-44.273-36.807-80.291-82.05-80.291c-45.243,0-82.05,36.018-82.05,80.291c0,12.923,3.172,25.458,9.099,36.709l26.17-0.008v-7
		H57.934c-3.888-8.527-6.073-17.611-6.341-26.992h16.306v-7H51.757c1.262-18,8.742-33.483,20.279-45.39l12.688,12.043l5.039-5.326
		L77.162,95.535c12.409-10.537,28.737-17.213,45.737-17.916v16.675h7V77.659c18,0.938,33.723,7.784,46.002,18.525l-11.552,11.32
		l5.114,5.21l11.919-11.031c11.11,11.808,18.32,26.611,19.555,44.611h-17.038v7h17.202c-0.268,9.367-2.434,18.497-6.293,26.992
		H171.731z"/>
	<path clip-path="url(#SVGID_2_)" fill="#041E42" d="M205.004,18.015c-17.673,0-32,14.327-32,32s14.327,32,32,32
		c6.046,0,11.7-1.678,16.522-4.592l-8.006-8.006c-4.698-4.699-9.182-3.935-9.182-3.935c-5.58,0.793-11.452-0.955-15.742-5.247
		c-4.854-4.854-6.438-11.721-4.791-17.911l13.573,13.57l9.582-3.531l3.535-9.585l-13.571-13.57
		c6.187-1.648,13.057-0.066,17.911,4.788c4.292,4.293,6.04,10.165,5.247,15.744c0,0-0.565,4.68,3.935,9.18l8.093,8.094
		c3.097-4.926,4.894-10.751,4.894-16.999C237.004,32.342,222.677,18.015,205.004,18.015"/>
</g>
</svg>
