<?xml version="1.0" encoding="utf-8"?>
<!-- Generator: Adobe Illustrator 16.0.3, SVG Export Plug-In . SVG Version: 6.00 Build 0)  -->
<!DOCTYPE svg PUBLIC "-//W3C//DTD SVG 1.1//EN" "http://www.w3.org/Graphics/SVG/1.1/DTD/svg11.dtd">
<svg version="1.1" id="Layer_1" xmlns="http://www.w3.org/2000/svg" xmlns:xlink="http://www.w3.org/1999/xlink" x="0px" y="0px"
	 width="256px" height="256px" viewBox="0 0 256 256" enable-background="new 0 0 256 256" xml:space="preserve">
<g>
	<defs>
		<rect id="SVGID_1_" width="256" height="256"/>
	</defs>
	<clipPath id="SVGID_2_">
		<use xlink:href="#SVGID_1_"  overflow="visible"/>
	</clipPath>
	<path clip-path="url(#SVGID_2_)" fill="#041E42" d="M183,191H75V77h107.619c-2.297-2.058-4.323-4.412-6.023-7H68v128h7v40h20.177
		l5.725-20h55.28l5.726,20H183v-40h7V82.093c-2.526-1.309-4.873-2.911-7-4.763V191z M176,231h-7.617l-5.726-20H95.625l-5.726,20H82
		v-33h94V231z"/>
	<path clip-path="url(#SVGID_2_)" fill="#041E42" d="M206.013,18.026c-17.673,0-32,14.327-32,32c0,17.673,14.327,32,32,32
		c6.046,0,11.7-1.678,16.523-4.592l-8.006-8.006c-4.699-4.699-9.183-3.935-9.183-3.935c-5.58,0.793-11.452-0.955-15.742-5.247
		c-4.854-4.854-6.438-11.721-4.791-17.911l13.573,13.57l9.582-3.531l3.535-9.585l-13.571-13.57
		c6.188-1.648,13.058-0.066,17.911,4.788c4.292,4.293,6.04,10.165,5.247,15.744c0,0-0.564,4.68,3.936,9.18l8.093,8.094
		c3.096-4.926,4.893-10.751,4.893-16.999C238.013,32.353,223.686,18.026,206.013,18.026"/>
	<rect x="95" y="201" clip-path="url(#SVGID_2_)" fill="#041E42" width="15" height="7"/>
	<path clip-path="url(#SVGID_2_)" fill="#041E42" d="M173.186,155.469l-10.277-5.934l12.94-3.479l-1.817-6.76l-17.733,4.769
		l-2.785-10.064l2.784-10.065l17.734,4.768l1.817-6.761l-12.94-3.478l10.277-5.934l-3.5-6.062l-10.276,5.933l3.457-12.945
		l-6.762-1.807l-4.739,17.744l-10.108-2.622l-7.324-7.443l12.996-12.976l-4.946-4.953l-9.481,9.467V85H125.5v11.866l-9.482-9.466
		l-4.946,4.954l12.996,12.975l-7.323,7.444l-10.11,2.621l-4.738-17.744l-6.762,1.806l3.457,12.947l-10.277-5.934l-3.5,6.063
		l10.277,5.933l-12.941,3.479l1.817,6.759l17.735-4.768l2.786,10.066l-2.784,10.063l-17.736-4.768l-1.817,6.761l12.939,3.478
		l-10.276,5.935l3.5,6.062l10.277-5.934l-3.457,12.946l6.762,1.807l4.739-17.743l10.109,2.622l7.324,7.443l-12.997,12.975
		l4.946,4.953l9.482-9.466v11.866h7v-11.867l9.482,9.467l4.947-4.954l-12.997-12.975l7.324-7.443l10.108-2.621l4.738,17.743
		l6.762-1.806l-3.457-12.947l10.277,5.934L173.186,155.469z M132.5,154.147v-14.085l12.197,7.042l-7.071,1.835L132.5,154.147z
		 M111.75,134.001l-1.948-7.043L122,134l-12.197,7.042L111.75,134.001z M125.5,113.854v14.084l-12.197-7.042l7.073-1.834
		L125.5,113.854z M146.251,134.001l1.947,7.042L136,134.001l12.198-7.043L146.251,134.001z M144.696,120.896l-12.195,7.042v-14.084
		l5.124,5.208L144.696,120.896z M113.303,147.104l12.197-7.042v14.083l-5.123-5.207L113.303,147.104z"/>
</g>
</svg>
