<?xml version="1.0" encoding="utf-8"?>
<!-- Generator: Adobe Illustrator 16.0.3, SVG Export Plug-In . SVG Version: 6.00 Build 0)  -->
<!DOCTYPE svg PUBLIC "-//W3C//DTD SVG 1.1//EN" "http://www.w3.org/Graphics/SVG/1.1/DTD/svg11.dtd">
<svg version="1.1" id="Layer_1" xmlns="http://www.w3.org/2000/svg" xmlns:xlink="http://www.w3.org/1999/xlink" x="0px" y="0px"
	 width="256px" height="256px" viewBox="0 0 256 256" enable-background="new 0 0 256 256" xml:space="preserve">
<path fill="#041E42" d="M93.012,113.523l9.88,6.722l3.803,11.327l10.423,5.843l4.766,10.958l10.888,4.921l5.694,10.505l11.272,3.962
	l6.581,9.974l14.615,3.049l-5.01-27.649l-9.871-6.721l-3.79-11.324l-10.414-5.843l-4.755-10.954l-10.879-4.923l-5.683-10.504
	l-11.263-3.964l-6.57-9.974l-16.037-4.261L93.012,113.523z M98.341,95.034l6.38,9.688l10.941,3.85l5.519,10.201l10.568,4.782
	l4.618,10.642l10.115,5.675l3.683,11l9.588,6.527l3.408,14.864l-2.485-0.639l-6.393-9.687l-10.95-3.849l-5.53-10.204l-10.577-4.78
	l-4.629-10.644l-10.125-5.677l-3.693-11.003l-9.597-6.528L95.82,94.385L98.341,95.034z"/>
<g>
	<defs>
		<rect id="SVGID_1_" width="256" height="256"/>
	</defs>
	<clipPath id="SVGID_2_">
		<use xlink:href="#SVGID_1_"  overflow="visible"/>
	</clipPath>
	<path clip-path="url(#SVGID_2_)" fill="#041E42" d="M183,191H75V76h107.739c-2.298-2.058-4.323-4.412-6.023-7H68v129h6v40h21.131
		l5.724-20h56.478l5.726,20H183v-40h7V81.093c-3-1.309-5-2.911-7-4.763V191z M176,231h-7.664l-5.726-20H95.578l-5.724,20H81v-33h95
		V231z"/>
	<path clip-path="url(#SVGID_2_)" fill="#041E42" d="M205.966,18.026c-17.673,0-32,14.327-32,32c0,17.673,14.327,32,32,32
		c6.046,0,11.7-1.678,16.523-4.592l-8.006-8.006c-4.699-4.699-9.183-3.935-9.183-3.935c-5.58,0.793-11.451-0.955-15.741-5.247
		c-4.854-4.854-6.438-11.721-4.791-17.911l13.572,13.57l9.582-3.531l3.535-9.585l-13.571-13.57
		c6.188-1.648,13.058-0.066,17.911,4.788c4.292,4.293,6.04,10.165,5.247,15.744c0,0-0.564,4.68,3.936,9.18l8.093,8.094
		c3.096-4.926,4.893-10.751,4.893-16.999C237.966,32.353,223.64,18.026,205.966,18.026"/>
	<rect x="94" y="201" clip-path="url(#SVGID_2_)" fill="#041E42" width="15" height="7"/>
</g>
</svg>
