<?xml version="1.0" encoding="utf-8"?>
<!-- Generator: Adobe Illustrator 16.0.3, SVG Export Plug-In . SVG Version: 6.00 Build 0)  -->
<!DOCTYPE svg PUBLIC "-//W3C//DTD SVG 1.1//EN" "http://www.w3.org/Graphics/SVG/1.1/DTD/svg11.dtd">
<svg version="1.1" id="Layer_1" xmlns="http://www.w3.org/2000/svg" xmlns:xlink="http://www.w3.org/1999/xlink" x="0px" y="0px"
	 width="256px" height="256px" viewBox="0 0 256 256" enable-background="new 0 0 256 256" xml:space="preserve">
<g>
	<defs>
		<rect id="SVGID_1_" width="256" height="256"/>
	</defs>
	<clipPath id="SVGID_2_">
		<use xlink:href="#SVGID_1_"  overflow="visible"/>
	</clipPath>
	<path clip-path="url(#SVGID_2_)" fill="#041E42" d="M182,116V82.421l-1.827-0.967c-16.34-8.155-34.364-12.466-52.228-12.466
		c-17.865,0-35.806,4.311-52.146,12.466L74,82.421V116H57v28.429l1.974,1.026C63.709,148.393,69,151.033,74,153.394V238h22.777
		l6.643-23h49.16l6.643,23H182v-84.485c5-2.395,10.329-5.083,15.055-8.077l1.945-1.031V116H182z M74,145.625
		c-3-1.584-7-3.279-10-5.109V123h10V145.625z M175,231h-10.549l-6.643-23H98.191l-6.642,23H81v-74.544
		c2,0.996,4.826,1.924,7.317,2.777l11.095,37.017l1.599,0.607c7.474,2.789,19.448,4.294,26.934,4.294s19.467-1.505,26.942-4.294
		l1.623-0.607l10.969-36.792c2.564-0.872,5.521-1.836,7.521-2.863V231z M96.266,161.563c10.776,2.977,21.62,4.438,31.918,4.438
		h0.184c10.116,0,20.694-1.377,31.169-4.23l-8.714,29.006c-6.537,2.055-16.615,3.34-22.891,3.34c-6.277,0-16.356-1.23-22.892-3.284
		L96.266,161.563z M175,149.009c-15,6.625-31.427,9.991-46.632,9.991h-0.184C112.938,159,96,155.586,81,148.875V123h94V149.009z
		 M175,116H81V86.774c15-7.062,30.917-10.786,47-10.786s32,3.724,47,10.786V116z M192,140.537c-3,1.863-7,3.586-10,5.193V123h10
		V140.537z"/>
	<path clip-path="url(#SVGID_2_)" fill="#041E42" d="M206.021,18C188.34,18,174,32.33,174,50.01c0,17.68,14.34,32.02,32.021,32.02
		c17.68,0,32.01-14.34,32.01-32.02C238.03,32.33,223.7,18,206.021,18 M192.437,58.5l-1.531-4h-7.102l-1.552,4h-3.245l6.513-18h3.771
		l6.543,18H192.437z M212.633,54.082L212.633,54.082c-0.648,1.383-1.626,2.479-2.902,3.255c-1.271,0.771-2.83,1.163-4.641,1.163
		h-6.609v-18h6.609c2.033,0,3.466,0.318,4.641,1.032c1.322,0.805,2.271,1.851,2.902,3.197c0.645,1.363,0.957,2.881,0.957,4.641
		C213.59,51.142,213.269,52.728,212.633,54.082 M228.299,58.5l-4.18-6h-4.639v6h-3v-18h8.359c1.054,0,2.166,0.076,3.181,0.632
		c1.066,0.583,1.726,1.183,2.202,2.008c0.522,0.902,0.788,1.935,0.788,3.07c0,1.364-0.389,2.566-1.151,3.573
		c-0.625,0.821-1.445,1.432-2.442,1.823l4.585,6.894H228.299z"/>
	<polygon clip-path="url(#SVGID_2_)" fill="#041E42" points="184.119,52 190.591,52 187.379,42.611 	"/>
	<path clip-path="url(#SVGID_2_)" fill="#041E42" d="M208.178,43.595c-0.86-0.527-1.89-0.595-3.09-0.595h-4.107v13h4.107
		c1.2,0,2.229-0.196,3.09-0.725c0.859-0.526,1.599-1.221,2.045-2.153c0.446-0.933,0.758-1.95,0.758-3.118v-1.265
		c0-1.168-0.312-2.12-0.758-3.052C209.776,44.754,209.037,44.121,208.178,43.595"/>
	<path clip-path="url(#SVGID_2_)" fill="#041E42" d="M227.98,45.942c0-1.053-0.207-1.678-0.914-2.262
		c-0.705-0.584-1.48-0.68-2.615-0.68h-5.471v7h5.471c1.135,0,1.91-0.388,2.615-0.97c0.707-0.584,0.914-1.498,0.914-2.553V45.942z"/>
</g>
</svg>
