<?xml version="1.0" encoding="utf-8"?>
<!-- Generator: Adobe Illustrator 16.0.3, SVG Export Plug-In . SVG Version: 6.00 Build 0)  -->
<!DOCTYPE svg PUBLIC "-//W3C//DTD SVG 1.1//EN" "http://www.w3.org/Graphics/SVG/1.1/DTD/svg11.dtd">
<svg version="1.1" id="Layer_1" xmlns="http://www.w3.org/2000/svg" xmlns:xlink="http://www.w3.org/1999/xlink" x="0px" y="0px"
	 width="256px" height="256px" viewBox="0 0 256 256" enable-background="new 0 0 256 256" xml:space="preserve">
<g>
	<defs>
		<rect id="SVGID_1_" width="256" height="256"/>
	</defs>
	<clipPath id="SVGID_2_">
		<use xlink:href="#SVGID_1_"  overflow="visible"/>
	</clipPath>
	<path clip-path="url(#SVGID_2_)" fill="#041E42" d="M214.53,69.428c-4.699-4.699-9.183-3.935-9.183-3.935
		c-5.58,0.794-11.452-0.955-15.742-5.247c-4.854-4.854-6.438-11.721-4.791-17.91l13.573,13.57l9.582-3.532l3.535-9.585
		l-13.571-13.57c6.188-1.648,13.058-0.066,17.911,4.789c4.292,4.292,6.041,10.164,5.247,15.744c0,0-0.565,4.679,3.935,9.179
		l8.094,8.094c3.096-4.926,4.893-10.751,4.893-16.999c0-17.673-14.327-32-32-32s-32,14.327-32,32s14.327,32,32,32
		c6.046,0,11.7-1.678,16.523-4.592L214.53,69.428z"/>
	<path clip-path="url(#SVGID_2_)" fill="#041E42" d="M212.762,137.001c-0.017,0-0.034-0.001-0.051-0.001
		c-7.271,0-13.798,3.086-18.403,8H177v-5h-71v-6h-7v6H75v10H54.711c-3.745-4.857-9.602-8-16.211-8c-11.321,0-20.5,9.178-20.5,20.5
		c0,11.321,9.179,20.5,20.5,20.5c7.052,0,13.25-3.577,16.937-9H75v10h102v-4h4v7h7v-7h6.702c4.58,5,10.944,7.582,18.009,7.582
		c0.017,0,0.034-0.003,0.051-0.003C226.706,187.551,238,176.239,238,162.29S226.706,137.028,212.762,137.001 M38.5,176
		c-7.444,0-13.5-6.057-13.5-13.5c0-7.444,6.056-13.5,13.5-13.5c7.444,0,13.5,6.056,13.5,13.5C52,169.943,45.944,176,38.5,176
		 M59,157h16v10H59 M170,177H82v-30h17v10h7v-10h64V177z M188,173v-2h-7v2h-4v-21h12.657c-0.714,1.598-1.285,3.272-1.657,5.024
		c-0.051,0.236-0.117,0.465-0.16,0.702c-0.271,1.481-0.418,3.004-0.418,4.563c0,1.558,0.147,3.081,0.418,4.562
		c0.043,0.238,0.109,0.469,0.16,0.705c0.403,1.904,1.04,3.443,1.845,5.443H188z M212.711,180.579
		c-10.085,0-18.289-8.205-18.289-18.289c0-10.085,8.204-18.29,18.289-18.29S231,152.205,231,162.29
		C231,172.374,222.796,180.579,212.711,180.579"/>
</g>
</svg>
