<?xml version="1.0" encoding="utf-8"?>
<!-- Generator: Adobe Illustrator 16.0.3, SVG Export Plug-In . SVG Version: 6.00 Build 0)  -->
<!DOCTYPE svg PUBLIC "-//W3C//DTD SVG 1.1//EN" "http://www.w3.org/Graphics/SVG/1.1/DTD/svg11.dtd">
<svg version="1.1" id="Layer_1" xmlns="http://www.w3.org/2000/svg" xmlns:xlink="http://www.w3.org/1999/xlink" x="0px" y="0px"
	 width="256px" height="256px" viewBox="0 0 256 256" enable-background="new 0 0 256 256" xml:space="preserve">
<g>
	<defs>
		<rect id="SVGID_1_" width="256" height="256"/>
	</defs>
	<clipPath id="SVGID_2_">
		<use xlink:href="#SVGID_1_"  overflow="visible"/>
	</clipPath>
	<path clip-path="url(#SVGID_2_)" fill="#041E42" d="M182,116V82.421l-1.827-0.967c-16.34-8.155-34.364-12.466-52.228-12.466
		c-17.865,0-35.806,4.311-52.146,12.466L74,82.421V116H57v28.429l1.974,1.026C63.709,148.393,69,151.033,74,153.394V238h22.777
		l6.643-23h49.16l6.643,23H182v-84.485c5-2.395,10.329-5.083,15.055-8.077l1.945-1.031V116H182z M74,145.625
		c-3-1.584-7-3.279-10-5.109V123h10V145.625z M175,231h-10.549l-6.643-23H98.191l-6.642,23H81v-74.544
		c2,0.996,4.826,1.924,7.317,2.777l11.095,37.017l1.599,0.607c7.474,2.789,19.448,4.294,26.934,4.294s19.467-1.505,26.942-4.294
		l1.623-0.607l10.969-36.792c2.564-0.872,5.521-1.836,7.521-2.863V231z M96.266,161.563c10.776,2.977,21.62,4.438,31.918,4.438
		h0.184c10.116,0,20.694-1.377,31.169-4.23l-8.714,29.006c-6.537,2.055-16.615,3.34-22.891,3.34c-6.277,0-16.356-1.23-22.892-3.284
		L96.266,161.563z M175,149.009c-15,6.625-31.427,9.991-46.632,9.991h-0.184C112.938,159,96,155.586,81,148.875V123h94V149.009z
		 M175,116H81V86.774c15-7.062,30.917-10.786,47-10.786s32,3.724,47,10.786V116z M192,140.537c-3,1.863-7,3.586-10,5.193V123h10
		V140.537z"/>
	<path clip-path="url(#SVGID_2_)" fill="#041E42" d="M205.966,17.997c-17.68,0-32.02,14.33-32.02,32.01
		c0,17.68,14.34,32.02,32.02,32.02c17.681,0,32.011-14.34,32.011-32.02C237.977,32.327,223.646,17.997,205.966,17.997
		 M196.945,57.637h-13.939v-1.449c0-0.383,0.015-0.634,0.044-0.813c0.022-0.21,0.101-0.427,0.175-0.61
		c0.318-0.735,0.859-1.47,1.608-2.189c0.751-0.72,1.736-1.488,3.013-2.345l3.331-2.232c0.65-0.45,1.172-0.844,1.546-1.171
		c0.356-0.301,0.659-0.68,0.903-1.129c0.232-0.437,0.351-0.942,0.351-1.501v-0.521c0-0.873-0.341-1.579-1.039-2.157
		c-0.712-0.571-1.652-0.862-2.791-0.862c-1.31,0-2.297,0.343-2.939,1.021c-0.657,0.694-1.083,1.567-1.265,2.593l-0.038,0.206h-2.846
		l0.018-0.268c0.073-1.046,0.399-2.034,0.969-2.936c0.558-0.908,1.377-1.649,2.437-2.199c1.033-0.542,2.272-0.818,3.685-0.818
		c1.421,0,2.645,0.262,3.635,0.778c1.022,0.538,1.768,1.226,2.28,2.106c0.501,0.865,0.755,1.826,0.755,2.856
		c0,0.986-0.209,1.87-0.621,2.629c-0.418,0.743-0.918,1.365-1.486,1.852c-0.596,0.489-1.346,1.042-2.232,1.646l-3.311,2.211
		c-0.892,0.608-1.585,1.137-2.122,1.618c-0.44,0.387-0.814,0.801-1.119,1.235h11.001V57.637z M212.727,57.637h-2.741v-8.34
		c0-1.285-0.28-2.222-0.855-2.863c-0.563-0.628-1.396-0.946-2.475-0.946c-1.074,0-1.883,0.31-2.476,0.949
		c-0.572,0.637-0.863,1.6-0.863,2.86v8.34h-2.741v-14.13h2.631v1.308c0.318-0.4,0.72-0.744,1.201-1.032
		c0.754-0.461,1.684-0.686,2.838-0.686c1.626,0,2.96,0.498,3.965,1.481c1.006,0.996,1.517,2.355,1.517,4.039V57.637z
		 M226.296,57.637v-1.292c-0.429,0.463-0.932,0.834-1.502,1.108c-0.807,0.381-1.724,0.575-2.728,0.575
		c-1.291,0-2.447-0.32-3.436-0.95c-0.968-0.635-1.725-1.528-2.252-2.655c-0.514-1.119-0.772-2.416-0.772-3.855
		c0-1.43,0.259-2.727,0.771-3.854c0.532-1.148,1.289-2.045,2.252-2.667c0.974-0.631,2.129-0.95,3.437-0.95
		c1.704,0,3.086,0.523,4.12,1.56v-6.66h2.739v19.64H226.296z"/>
	<path clip-path="url(#SVGID_2_)" fill="#041E42" d="M222.408,45.242c-1.317,0-2.354,0.45-3.107,1.352
		c-0.754,0.901-1.131,2.123-1.131,3.666v0.572c0,1.543,0.377,2.768,1.131,3.679c0.753,0.91,1.79,1.365,3.107,1.365
		c1.213,0,2.188-0.368,2.925-1.106c0.736-0.736,1.104-1.703,1.104-2.898V49.22c0-1.231-0.368-2.202-1.104-2.913
		C224.596,45.597,223.621,45.242,222.408,45.242"/>
</g>
</svg>
