<?xml version="1.0" encoding="utf-8"?>
<!-- Generator: Adobe Illustrator 16.0.3, SVG Export Plug-In . SVG Version: 6.00 Build 0)  -->
<!DOCTYPE svg PUBLIC "-//W3C//DTD SVG 1.1//EN" "http://www.w3.org/Graphics/SVG/1.1/DTD/svg11.dtd">
<svg version="1.1" id="Layer_1" xmlns="http://www.w3.org/2000/svg" xmlns:xlink="http://www.w3.org/1999/xlink" x="0px" y="0px"
	 width="256px" height="256px" viewBox="0 0 256 256" enable-background="new 0 0 256 256" xml:space="preserve">
<g>
	<defs>
		<rect id="SVGID_1_" width="256" height="256"/>
	</defs>
	<clipPath id="SVGID_2_">
		<use xlink:href="#SVGID_1_"  overflow="visible"/>
	</clipPath>
	<path clip-path="url(#SVGID_2_)" fill="#041E42" d="M206.013,87.365c6.046,0,11.7-1.678,16.523-4.592l-8.006-8.006
		c-4.699-4.699-9.183-3.935-9.183-3.935c-5.58,0.793-11.452-0.955-15.742-5.247c-4.854-4.854-6.438-11.721-4.791-17.911
		l13.573,13.57l9.582-3.531l3.534-9.585l-13.57-13.57c6.188-1.648,13.058-0.066,17.911,4.788c4.292,4.293,6.041,10.165,5.247,15.744
		c0,0-0.564,4.68,3.936,9.18l8.093,8.094c3.096-4.926,4.893-10.751,4.893-16.999c0-17.673-14.327-32-32-32s-32,14.327-32,32
		S188.34,87.365,206.013,87.365"/>
	<path clip-path="url(#SVGID_2_)" fill="#041E42" d="M194.166,207.699c-8.38,0-15.173,6.794-15.173,15.174
		c0,3.324,1.081,6.388,2.893,8.888c2.758,3.803,7.225,6.285,12.28,6.285c8.38,0,15.173-6.793,15.173-15.173
		c0-2.174-0.465-4.236-1.288-6.105C205.7,211.431,200.372,207.699,194.166,207.699 M194.166,231.046
		c-2.45,0-4.645-1.089-6.144-2.801c-1.261-1.438-2.029-3.314-2.029-5.372c0-4.507,3.666-8.174,8.173-8.174
		c3.602,0,6.661,2.345,7.747,5.586c0.271,0.814,0.426,1.683,0.426,2.588C202.339,227.379,198.673,231.046,194.166,231.046"/>
	<path clip-path="url(#SVGID_2_)" fill="#041E42" d="M223.933,128.99c-13.03-1.58-57.526-6.687-57.526-6.687L160,147.454v48.895
		l5.042,13.643c-0.057-0.035-0.107-0.077-0.165-0.112c-2.283-1.374-4.946-2.18-7.806-2.18c-4.011,0-7.647,1.567-10.36,4.108
		L152,157.413v-38.188l68.473-6.367l-0.649-6.97L145,112.846v23.947h-0.869l-46.659-18.024c-4.015-1.759-8.61-1.754-12.622,0.021
		l-40.758,18.004H33.374L18.156,175.21l15.474,38.97l-7.139,7.064l4.923,4.978l7.44-7.362c-0.344,1.294-0.537,2.677-0.537,4.049
		c0,8.38,6.794,15.138,15.174,15.138s15.173-6.739,15.173-15.119c0-3.019-0.892-6.134-2.411-8.134h4.868
		c-1.636,2-2.534,5.545-2.382,8.832c0.355,7.728,6.713,14.049,14.44,14.404c8.706,0.401,15.89-6.485,15.89-15.103
		c0-1.512-0.224-3.047-0.638-4.454l8.849,8.32h35.146c1.731,6.477,7.622,11.253,14.645,11.253c8.38,0,15.173-6.793,15.173-15.173
		c0-4.378-1.865-8.311-4.83-11.08h11.339l5.795-4.565c6.967-5.335,16.654-4.864,22.987,1.213c3.451,3.312,5.465,7.89,5.465,12.672
		v8.681h25v-53.904l-6.323-39.244C230.99,132.549,227.918,129.474,223.933,128.99 M87.68,125.191
		c2.235-0.986,4.798-0.985,7.032,0.009l29.999,11.593H61.414L87.68,125.191z M112.399,143.793l-10.205,31.477l-37.167-0.016
		l10.376-31.461H112.399z M25.692,175.207l12.428-31.414h29.912l-10.375,31.459l-31.952-0.013L25.692,175.207z M38.616,207.793
		L28.482,182.24l26.867,0.011l-8.423,25.542H38.616z M53.491,231.011c-4.507,0-8.174-3.667-8.174-8.174s3.667-8.174,8.174-8.174
		c4.506,0,8.173,3.667,8.173,8.174S57.997,231.011,53.491,231.011 M92.048,223.238c-0.005,0.105-0.003,0.208-0.012,0.313
		c-0.026,0.307-0.067,0.615-0.128,0.928c-0.624,3.182-3.188,5.747-6.37,6.37c-5.223,1.022-9.816-2.969-9.816-8.013
		c0-0.268,0.015-0.531,0.04-0.794c0.009-0.087,0.025-0.173,0.036-0.259c0.022-0.172,0.045-0.343,0.078-0.51
		c0.02-0.104,0.047-0.206,0.071-0.31c0.034-0.146,0.07-0.292,0.112-0.435c0.032-0.109,0.069-0.217,0.106-0.324
		c0.044-0.131,0.091-0.26,0.141-0.387c0.045-0.112,0.093-0.224,0.143-0.334c0.052-0.115,0.107-0.229,0.164-0.34
		c0.059-0.115,0.118-0.229,0.182-0.341c0.056-0.099,0.116-0.194,0.176-0.289c0.074-0.119,0.149-0.238,0.229-0.353
		c0.052-0.075,0.109-0.146,0.163-0.219c0.097-0.128,0.193-0.257,0.297-0.379c0.021-0.025,0.045-0.048,0.066-0.073
		c0.589-0.679,1.287-1.258,2.068-1.714c0.009-0.005,0.017-0.01,0.026-0.016c0.189-0.109,0.384-0.21,0.583-0.305
		c0.02-0.009,0.039-0.019,0.059-0.027c0.197-0.093,0.397-0.176,0.602-0.251c0.022-0.009,0.044-0.017,0.066-0.024
		c0.207-0.074,0.417-0.141,0.632-0.199c0.017-0.005,0.034-0.009,0.051-0.014c0.222-0.058,0.448-0.109,0.677-0.149
		c0.458-0.08,0.925-0.13,1.405-0.13c0.472,0,0.931,0.053,1.381,0.13c2.131,0.365,3.978,1.554,5.207,3.23
		c0.039,0.053,0.08,0.104,0.118,0.158c0.104,0.148,0.2,0.306,0.294,0.462c0.053,0.088,0.107,0.175,0.157,0.265
		c0.078,0.143,0.15,0.289,0.22,0.437c0.054,0.111,0.106,0.226,0.155,0.341c0.058,0.138,0.111,0.276,0.162,0.419
		c0.047,0.133,0.09,0.267,0.131,0.402c0.04,0.135,0.078,0.269,0.112,0.405c0.036,0.151,0.066,0.304,0.094,0.457
		c0.024,0.131,0.048,0.26,0.066,0.393c0.022,0.169,0.035,0.341,0.046,0.513c0.009,0.123,0.021,0.245,0.024,0.369
		C92.067,222.839,92.058,223.039,92.048,223.238 M91.65,207.793H54.296l8.423-25.539l37.206,0.015L91.65,207.793z M107.282,182.271
		l35.287,0.013l-2.458,25.509H99.008L107.282,182.271z M142.211,219.793h-32.157l-5.318-5h39.507
		C143.29,216.304,142.584,217.985,142.211,219.793 M145,157.051l-1.757,18.233l-33.692-0.013l10.205-31.479H145V157.051z
		 M157.071,231.046c-4.507,0-8.174-3.667-8.174-8.173c0-4.507,3.667-8.174,8.174-8.174c4.506,0,8.173,3.667,8.173,8.174
		C165.244,227.379,161.577,231.046,157.071,231.046 M231,203.793h-7v14.171l7,1.342v3.487h-11v-1.681
		c0-6.679-2.799-13.163-7.619-17.788c-8.843-8.486-22.342-9.105-32.071-1.655l-3.928,3.124h-5.784L167,195.104v-46.781l4.696-18.366
		c9.785,1.127,40.437,4.658,51.36,5.982c1.363,0.165,1.702,1.469,1.767,1.847l1.728,10.557l-41.766-2.531l-2.342,13.821
		l7.374,15.307L231,183.115V203.793z M194.66,168.75l-4.937-10.16l0.916-5.411l37.073,2.245l3.345,20.539L194.66,168.75z"/>
</g>
</svg>
