<?xml version="1.0" encoding="utf-8"?>
<!-- Generator: Adobe Illustrator 16.0.3, SVG Export Plug-In . SVG Version: 6.00 Build 0)  -->
<!DOCTYPE svg PUBLIC "-//W3C//DTD SVG 1.1//EN" "http://www.w3.org/Graphics/SVG/1.1/DTD/svg11.dtd">
<svg version="1.1" id="Layer_1" xmlns="http://www.w3.org/2000/svg" xmlns:xlink="http://www.w3.org/1999/xlink" x="0px" y="0px"
	 width="256px" height="256px" viewBox="0 0 256 256" enable-background="new 0 0 256 256" xml:space="preserve">
<g>
	<defs>
		<rect id="SVGID_1_" width="256" height="256"/>
	</defs>
	<clipPath id="SVGID_2_">
		<use xlink:href="#SVGID_1_"  overflow="visible"/>
	</clipPath>
	<path clip-path="url(#SVGID_2_)" fill="#041E42" d="M214.54,69.485c-4.699-4.699-9.182-3.935-9.182-3.935
		c-5.58,0.794-11.452-0.954-15.742-5.247c-4.854-4.854-6.438-11.721-4.791-17.91l13.573,13.57l9.582-3.532l3.535-9.585
		l-13.571-13.57c6.187-1.648,13.057-0.066,17.911,4.789c4.292,4.292,6.041,10.164,5.247,15.744c0,0-0.565,4.679,3.935,9.179
		l8.093,8.094c3.097-4.926,4.894-10.751,4.894-16.999c0-17.673-14.327-32-32-32s-32,14.327-32,32c0,17.673,14.327,32,32,32
		c6.046,0,11.7-1.678,16.522-4.592L214.54,69.485z"/>
	<path clip-path="url(#SVGID_2_)" fill="#041E42" d="M114,118h124v-7H107v103h7v-10h25.974L134,211.625V224h7v-9.959L148.866,204
		h9.764c-8.311,1.177-14.709,8.299-14.709,16.935c0,9.457,7.667,17.124,17.124,17.124c9.458,0,17.125-7.667,17.125-17.124
		c0-8.636-6.397-15.758-14.709-16.935h8.856l15.644,20H238v-27H114V118z M171.17,220.935c0,5.582-4.542,10.124-10.125,10.124
		c-5.582,0-10.124-4.542-10.124-10.124c0-5.583,4.542-10.125,10.124-10.125C166.628,210.81,171.17,215.352,171.17,220.935
		 M181.204,204H205v13h-13.627L181.204,204z M231,217h-19v-13h19V217z"/>
	<polygon clip-path="url(#SVGID_2_)" fill="#041E42" points="44.333,211 99,211 99,204 36,204 	"/>
	<path clip-path="url(#SVGID_2_)" fill="#041E42" d="M92,148H43v49h49V148z M85,190H50v-35h35V190z"/>
</g>
</svg>
