<?xml version="1.0" encoding="utf-8"?>
<!-- Generator: Adobe Illustrator 16.0.3, SVG Export Plug-In . SVG Version: 6.00 Build 0)  -->
<!DOCTYPE svg PUBLIC "-//W3C//DTD SVG 1.1//EN" "http://www.w3.org/Graphics/SVG/1.1/DTD/svg11.dtd">
<svg version="1.1" id="Layer_1" xmlns="http://www.w3.org/2000/svg" xmlns:xlink="http://www.w3.org/1999/xlink" x="0px" y="0px"
	 width="256px" height="256px" viewBox="0 0 256 256" enable-background="new 0 0 256 256" xml:space="preserve">
<g>
	<defs>
		<rect id="SVGID_1_" width="256" height="256"/>
	</defs>
	<clipPath id="SVGID_2_">
		<use xlink:href="#SVGID_1_"  overflow="visible"/>
	</clipPath>
</g>
<g>
	<path fill="#041E42" d="M124.777,108.212l-0.907,0.062c-0.534,0.03-1.014,0.104-1.528,0.151c0.517-0.047,1.005-0.121,1.539-0.151
		L124.777,108.212z"/>
	<path fill="#041E42" d="M131.792,117.504l-1.757-0.543l1.757,0.671c2.287,0.724,4.23,1.878,5.76,3.335
		C136.024,119.467,134.086,118.229,131.792,117.504"/>
	<path fill="#041E42" d="M153.834,125.243c0.274,1.176,0.46,2.402,0.542,3.687C154.294,127.645,154.108,126.418,153.834,125.243"/>
	<path fill="#041E42" d="M100.103,128.603c0-1.782,0.226-3.5,0.686-5.147c-0.48,1.647-0.727,3.365-0.727,5.147
		c0,5.073,1.379,9.048,4.274,11.814c2.538,2.432,6.48,4.442,11.922,6.002c-5.406-1.56-9.232-3.57-11.771-6.002
		C101.595,137.65,100.103,133.676,100.103,128.603"/>
	<path fill="#041E42" d="M146.066,113.575c-3.682-2.712-8.633-4.518-14.791-5.095l-1.24-0.112l1.24,0.241
		C137.424,109.182,142.382,110.905,146.066,113.575"/>
	<path fill="#041E42" d="M151.11,118.905c0.554,0.845,1.047,1.72,1.464,2.635C152.157,120.625,151.667,119.75,151.11,118.905"/>
	<path fill="#041E42" d="M148.888,116.077c0.672,0.727,1.29,1.478,1.84,2.262C150.178,117.555,149.56,116.803,148.888,116.077"/>
	<path fill="#041E42" d="M152.749,121.937c0.428,1.007,0.786,2.055,1.046,3.153C153.531,123.993,153.18,122.944,152.749,121.937"/>
	<path fill="#041E42" d="M139.036,170.654c0.398-0.283,0.81-0.558,1.168-0.884c2.227-2.027,2.98-4.84,2.98-8.355
		c0,3.516-0.773,6.328-2.999,8.355C139.825,170.097,139.428,170.371,139.036,170.654"/>
	<path fill="#041E42" d="M123.549,172.856l1.228,0.32l-1.228-0.565c-3.999-0.818-6.76-2.903-8.898-5.712
		c-1.863-2.457-2.971-3.787-3.304-9.048c0.333,5.261,1.264,6.591,3.129,9.048C116.617,169.708,119.55,172.041,123.549,172.856"/>
	<path fill="#041E42" d="M111.63,128.294c0,2.579,1.064,4.673,2.863,6.223c0.858,0.742,1.968,1.394,3.312,1.96
		c-1.257-0.566-2.28-1.218-3.137-1.96C112.872,132.967,111.63,130.873,111.63,128.294"/>
	<path fill="#041E42" d="M104.96,173.808c-3.82-3.991-5.903-8.065-6.209-15.956c0.306,7.891,2.217,11.965,6.037,15.956
		c4.082,4.278,10.398,7.239,19.115,7.829l0.875,0.088l-0.875-0.332C115.186,180.802,109.045,178.086,104.96,173.808"/>
	<path fill="#041E42" d="M127.505,63.197c-46.484,0-84.17,37.686-84.17,84.174c0,46.485,37.686,84.171,84.17,84.171
		c46.487,0,84.175-37.686,84.175-84.171C211.68,100.883,173.992,63.197,127.505,63.197 M149.661,175.103
		c-4.291,3.872-10.448,6.076-18.311,6.534l-1.247,0.072v6.786h-5.261v-6.771l-0.91-0.088c-8.716-0.59-15.049-4.011-19.129-8.289
		c-3.818-3.994-5.747-8.525-6.054-16.417h12.596c0.333,5.261,1.442,7.055,3.305,9.509c2.142,2.812,4.932,5.126,8.93,5.941
		l1.262,0.796v-24.722l-5.529-1.24c-1.065-0.249-2.077-0.518-3.041-0.794c-5.441-1.563-9.388-3.57-11.932-6.003
		c-2.892-2.766-4.279-6.743-4.279-11.813c0-1.782,0.249-3.501,0.732-5.151c0.459-1.647,1.156-3.223,2.09-4.714
		c1.877-2.994,4.568-5.44,8.159-7.273c3.26-1.653,6.995-2.651,11.302-3.042c0.509-0.046,1.025-0.121,1.558-0.15l0.94-0.063v-9.147
		h5.261v9.299l1.201,0.113c6.163,0.577,11.097,2.385,14.779,5.097c0.934,0.678,1.802,1.4,2.566,2.201
		c0.091,0.096,0.15,0.204,0.243,0.302c0.673,0.726,1.286,1.479,1.838,2.261c0.131,0.188,0.257,0.376,0.385,0.566
		c0.554,0.845,1.041,1.72,1.455,2.635c0.063,0.131,0.118,0.264,0.178,0.395c0.431,1.007,0.782,2.058,1.048,3.158
		c0.015,0.05,0.024-0.366,0.037-0.317c0.274,1.176,0.454,3.224,0.542,3.224h-12.754c-0.373-2.631-1.292-4.088-2.696-5.94
		c-0.411-0.542-0.874-0.829-1.374-1.322c-1.532-1.457-3.438-2.496-5.725-3.22l-1.724-0.556v22.514l5.552,1.382
		c7.118,1.582,12.408,3.925,15.667,6.96c3.206,2.981,4.753,7.093,4.753,12.575C156.075,166.417,153.959,171.229,149.661,175.103"/>
	<path fill="#041E42" d="M139.036,170.654c0.392-0.283,0.824-0.558,1.186-0.884c2.22-2.027,3.033-4.84,3.033-8.355v-0.821
		c0-2.834-0.59-5.092-2.367-6.713c-1.686-1.531-3.826-2.674-7.31-3.49l-3.475-0.765v23.801l1.45-0.138
		C134.747,172.982,137.082,172.078,139.036,170.654"/>
	<path fill="#041E42" d="M115.158,120.067c-2.104,2.025-3.466,4.517-3.466,7.407v0.82c0,2.579,1.208,4.672,3.003,6.224
		c0.862,0.742,1.867,1.39,3.122,1.961c1.2,0.544,2.63,1.014,4.338,1.422l2.688,0.437v-21.691l-1.229,0.083
		C119.964,116.95,117.23,118.073,115.158,120.067"/>
</g>
</svg>
