<?xml version="1.0" encoding="utf-8"?>
<!-- Generator: Adobe Illustrator 21.1.0, SVG Export Plug-In . SVG Version: 6.00 Build 0)  -->
<svg version="1.1" id="Lager_6" xmlns="http://www.w3.org/2000/svg" xmlns:xlink="http://www.w3.org/1999/xlink" x="0px" y="0px"
	 viewBox="0 0 256 256" style="enable-background:new 0 0 256 256;" xml:space="preserve">
<style type="text/css">
	.st0{fill:#020E45;}
</style>
<g>
	<path class="st0" d="M182,116V82.4l-1.8-1C163.8,73.3,145.8,69,127.9,69s-35.8,4.3-52.1,12.5l-1.8,1V116H57v28.4l2,1
		c4.7,2.9,10,5.6,15,7.9V238h22.8l6.6-23h49.2l6.6,23H182v-84.5c5-2.4,10.3-5.1,15.1-8.1l1.9-1V116H182z M74,145.6
		c-3-1.6-7-3.3-10-5.1V123h10V145.6z M175,231h-10.5l-6.6-23H98.2l-6.6,23H81v-74.5c2,1,4.8,1.9,7.3,2.8l11.1,37l1.6,0.6
		c7.5,2.8,19.4,4.3,26.9,4.3c7.5,0,19.5-1.5,26.9-4.3l1.6-0.6l11-36.8c2.6-0.9,5.5-1.8,7.5-2.9V231z M96.3,161.6
		c10.8,3,21.6,4.4,31.9,4.4h0.2c10.1,0,20.7-1.4,31.2-4.2l-8.7,29c-6.5,2.1-16.6,3.3-22.9,3.3s-16.4-1.2-22.9-3.3L96.3,161.6z
		 M175,149c-15,6.6-31.4,10-46.6,10h-0.2c-15.2,0-32.2-3.4-47.2-10.1V123h94V149z M175,116H81V86.8C96,79.7,111.9,76,128,76
		s32,3.7,47,10.8V116z M192,140.5c-3,1.9-7,3.6-10,5.2V123h10V140.5z"/>
</g>
<g>
	<path class="st0" d="M194.1,42.1c-3.9,0-5.9,3-5.9,7v1.4c0,4,2,7,5.9,7s5.9-3,5.9-7v-1.4C200,45.1,198,42.1,194.1,42.1z"/>
	<path class="st0" d="M206,18.1c-17.7,0-32,14.3-32,32s14.3,32,32,32s32-14.3,32-32S223.7,18.1,206,18.1z M194.1,61
		c-6.9,0-10.5-4.5-10.5-11.1s3.7-11.1,10.5-11.1c6.8,0,10.5,4.5,10.5,11.1S200.9,61,194.1,61z M222.8,60.5l-5.8-9.6l-4.2,4.6v5h-4.4
		V39.2h4.4v11l9.8-11h5.1l-7.7,8.4l7.8,12.9H222.8z"/>
</g>
</svg>
