<?xml version="1.0" encoding="utf-8"?>
<!-- Generator: Adobe Illustrator 21.1.0, SVG Export Plug-In . SVG Version: 6.00 Build 0)  -->
<svg version="1.1" id="Lager_6" xmlns="http://www.w3.org/2000/svg" xmlns:xlink="http://www.w3.org/1999/xlink" x="0px" y="0px"
	 viewBox="0 0 256 256" style="enable-background:new 0 0 256 256;" xml:space="preserve">
<style type="text/css">
	.st0{fill:#020E45;}
</style>
<g>
	<path class="st0" d="M184,113V80l-2.9-1.4C164.5,70.4,146.1,66,128,66s-36.6,4.4-53.1,12.6L72,80v33H56v30.8l2.2,1.5
		c4.5,2.8,8.8,5.3,13.8,7.6V238h25.8l6.6-23h46.9l6.6,23h26v-85c4-2.3,9.3-4.9,13.9-7.8l2.1-1.5V113H184z M72,141.7
		c-2-1.1-4-2.3-6-3.5V123h6V141.7z M174,228h-8.5l-6.6-23H97l-6.6,23H82v-70.8c1.5,0.6,3.1,1.2,4.7,1.7l11.4,38l2.3,0.9
		c7.6,2.9,19.9,4.4,27.5,4.4s19.8-1.5,27.5-4.4l2.3-0.9l11.4-37.8c1.6-0.6,3.3-1.1,4.9-1.8V228z M98.1,162.3
		c10.1,2.5,20.4,3.7,30,3.7h0.2c9.5,0,19.5-1.2,29.4-3.6l-8.1,26.7c-6.4,1.9-15.8,3-21.7,3c-5.9,0-15.3-1.1-21.7-3L98.1,162.3z
		 M174,146.5c-15,6.3-31,9.5-45.7,9.5h-0.2c-14.8,0-31.1-3.2-46.1-9.6V123h92V146.5z M174,113H82V86.2C97,79.5,112.4,76,128,76
		s31,3.5,46,10.2V113z M190,138.2c-2,1.3-4,2.4-6,3.6V123h6V138.2z"/>
</g>
<g>
	<path class="st0" d="M206,18c-17.7,0-32,14.3-32,32c0,17.7,14.3,32,32,32c17.7,0,32-14.3,32-32C238,32.4,223.7,18,206,18z
		 M194.1,60.8c-6.9,0-10.5-4.5-10.5-11.1s3.7-11.1,10.5-11.1c6.8,0,10.5,4.5,10.5,11.1S201,60.8,194.1,60.8z M222.8,60.4l-5.8-9.6
		l-4.2,4.6v5h-4.4V39.1h4.4v11l9.8-11h5.1l-7.7,8.4l7.8,12.9H222.8z"/>
	<path class="st0" d="M194.1,42c-3.9,0-5.9,3-5.9,7v1.4c0,4,2,7,5.9,7s5.9-3,5.9-7V49C200,45,198.1,42,194.1,42z"/>
</g>
</svg>
