<?xml version="1.0" encoding="iso-8859-1"?>
<!-- Generator: Adobe Illustrator 19.2.0, SVG Export Plug-In . SVG Version: 6.00 Build 0)  -->
<svg version="1.1" id="Lager_12" xmlns="http://www.w3.org/2000/svg" xmlns:xlink="http://www.w3.org/1999/xlink" x="0px" y="0px"
	 viewBox="0 0 256 256" style="enable-background:new 0 0 256 256;" xml:space="preserve">
<g>
	<path style="fill:#FAFAFA;" d="M192.888,45.551c-35.786-35.785-94.011-35.785-129.796,0
		c-35.786,35.787-35.786,94.016,0.052,129.854l64.85,62.201l64.895-62.253C228.675,139.567,228.675,81.337,192.888,45.551z
		 M187.99,170.354l-59.997,57.554l-59.952-57.503c-33.057-33.058-33.057-86.847,0-119.904
		c16.527-16.527,38.238-24.791,59.948-24.791s43.42,8.264,59.949,24.791C220.996,83.558,220.996,137.347,187.99,170.354z"/>
	<path style="fill:#FAFAFA;" d="M127.993,74.495c-19.827,0-35.957,16.13-35.957,35.957c0,19.823,16.13,35.95,35.957,35.95
		c19.823,0,35.95-16.127,35.95-35.95C163.943,90.625,147.816,74.495,127.993,74.495z M127.993,139.402
		c-15.967,0-28.957-12.987-28.957-28.95c0-15.967,12.99-28.957,28.957-28.957c15.963,0,28.95,12.99,28.95,28.957
		C156.943,126.415,143.956,139.402,127.993,139.402z"/>
</g>
</svg>
