<?xml version="1.0" encoding="iso-8859-1"?>
<!-- Generator: Adobe Illustrator 19.2.0, SVG Export Plug-In . SVG Version: 6.00 Build 0)  -->
<svg version="1.1" id="Lager_12" xmlns="http://www.w3.org/2000/svg" xmlns:xlink="http://www.w3.org/1999/xlink" x="0px" y="0px"
	 viewBox="0 0 256 256" style="enable-background:new 0 0 256 256;" xml:space="preserve">
<path style="fill:#FAFAFA;" d="M185.037,162.04c-3.067-3.118-7.165-4.854-11.537-4.89c-3.221-0.007-6.281,0.881-8.915,2.56
	l-8.785-8.929c12.783-13.944,20.656-32.472,20.822-52.833c0.354-43.676-34.892-79.497-78.567-79.853
	c-21.138-0.209-41.114,7.905-56.195,22.745C26.78,55.68,18.38,75.504,18.208,96.662s7.905,41.116,22.742,56.198
	c14.837,15.082,34.661,23.483,55.818,23.655c0.219,0.002,0.434,0.003,0.652,0.003c20.548,0,39.321-7.878,53.427-20.79l8.772,8.916
	c-1.676,2.584-2.599,5.589-2.625,8.744c-0.035,4.374,1.635,8.499,4.701,11.616l52.265,53.119l23.341-22.965L185.037,162.04z
	 M97.42,169.519c-0.197,0-0.398-0.001-0.595-0.003c-19.288-0.156-37.359-7.815-50.885-21.564s-20.889-31.943-20.732-51.232
	c0.156-19.288,7.813-37.361,21.561-50.889C60.375,32.443,78.33,25.093,97.395,25.093c0.2,0,0.403,0.001,0.604,0.003
	c39.816,0.323,71.947,32.979,71.624,72.796C169.3,137.511,136.969,169.519,97.42,169.519z M166.686,180.077
	c-1.756-1.785-2.712-4.165-2.691-6.668c0.021-2.504,1.015-4.887,2.799-6.643c1.767-1.737,4.096-2.766,6.57-2.766
	c0.026,0,0.053,0,0.079,0c2.504,0,4.849,1.086,6.604,2.872l47.355,48.203l-13.362,13.142L166.686,180.077z"/>
</svg>
