<?xml version="1.0" encoding="iso-8859-1"?>
<!-- Generator: Adobe Illustrator 19.2.0, SVG Export Plug-In . SVG Version: 6.00 Build 0)  -->
<svg version="1.1" id="Lager_13" xmlns="http://www.w3.org/2000/svg" xmlns:xlink="http://www.w3.org/1999/xlink" x="0px" y="0px"
	 viewBox="0 0 256 256" style="enable-background:new 0 0 256 256;" xml:space="preserve">
<g>
	<g>
		<path style="fill:#FAFAFA;" d="M128.021,60.062c-19.118,0-34.671,15.546-34.671,34.655s15.553,34.655,34.671,34.655
			c19.109,0,34.655-15.546,34.655-34.655S147.13,60.062,128.021,60.062z M128.021,122.373c-15.258,0-27.671-12.406-27.671-27.655
			s12.413-27.655,27.671-27.655c15.249,0,27.655,12.406,27.655,27.655S143.27,122.373,128.021,122.373z"/>
	</g>
	<g>
		<path style="fill:#FAFAFA;" d="M128.013,17.917c-60.739,0-110.154,49.415-110.154,110.154c0,36.442,17.792,68.802,45.142,88.864
			V217h0.088c18.219,13.337,40.666,21.226,64.924,21.226c60.739,0,110.154-49.415,110.154-110.154S188.752,17.917,128.013,17.917z
			 M70,213.322v-40.951c13.998-12.828,34.615-20.157,56.842-20.157c21.973,0,42.34,7.043,56.158,19.368v43.727
			c-15.927,10.075-34.787,15.916-54.987,15.916C106.518,231.226,86.541,224.614,70,213.322z M190,210.47v-41.947l-1.107-1.038
			c-15.108-14.153-37.725-22.271-62.051-22.271c-24.593,0-47.47,8.426-62.766,23.117L63,169.364v38.732
			c-23.257-18.93-38.142-47.77-38.142-80.025c0-56.88,46.275-103.154,103.154-103.154c56.88,0,103.154,46.274,103.154,103.154
			C231.167,161.705,214.985,191.627,190,210.47z"/>
	</g>
</g>
</svg>
