<?xml version="1.0" encoding="iso-8859-1"?>
<!-- Generator: Adobe Illustrator 19.2.0, SVG Export Plug-In . SVG Version: 6.00 Build 0)  -->
<svg version="1.1" id="Lager_13" xmlns="http://www.w3.org/2000/svg" xmlns:xlink="http://www.w3.org/1999/xlink" x="0px" y="0px"
	 viewBox="0 0 256 256" style="enable-background:new 0 0 256 256;" xml:space="preserve">
<g>
	<g>
		<path style="fill:#FAFAFA;" d="M99.455,129.607c0,15.681,12.757,28.438,28.438,28.438c15.681,0,28.439-12.758,28.439-28.438
			s-12.758-28.438-28.439-28.438C112.212,101.17,99.455,113.927,99.455,129.607z M149.332,129.607
			c0,11.821-9.617,21.438-21.439,21.438c-11.821,0-21.438-9.617-21.438-21.438c0-11.82,9.617-21.438,21.438-21.438
			C139.715,108.17,149.332,117.787,149.332,129.607z"/>
	</g>
	<g>
		<path style="fill:#FAFAFA;" d="M237.897,153l-26.347-43.928L185.193,153h21.319c-0.82,2.688-1.763,5.341-2.855,7.923
			c-4.105,9.706-9.983,18.423-17.47,25.91c-7.486,7.486-16.204,13.363-25.91,17.469c-10.047,4.25-20.721,6.404-31.726,6.404
			s-21.68-2.154-31.727-6.404c-9.706-4.105-18.423-9.982-25.91-17.469l-4.949,4.949c8.127,8.127,17.593,14.509,28.133,18.967
			c10.914,4.616,22.506,6.957,34.453,6.957c11.948,0,23.539-2.341,34.453-6.957c10.541-4.458,20.006-10.84,28.133-18.967
			c8.128-8.127,14.51-17.593,18.968-28.133c1.462-3.458,2.697-7.027,3.707-10.649H237.897z M211.549,122.68L225.536,146h-27.979
			L211.549,122.68z"/>
	</g>
	<g>
		<path style="fill:#FAFAFA;" d="M48.09,108c1.031-4.249,2.39-8.426,4.092-12.448c4.105-9.706,9.983-18.424,17.47-25.91
			c7.486-7.486,16.204-13.364,25.91-17.47c10.047-4.25,20.721-6.404,31.727-6.404c11.006,0,21.68,2.154,31.727,6.404
			c9.707,4.105,18.424,9.983,25.91,17.47l4.949-4.949c-8.126-8.128-17.592-14.51-28.133-18.968
			c-10.914-4.616-22.506-6.957-34.453-6.957s-23.539,2.341-34.453,6.957c-10.541,4.458-20.006,10.84-28.133,18.968
			c-8.127,8.126-14.509,17.592-18.967,28.133c-2.068,4.888-3.672,9.99-4.825,15.175H17.951l26.348,43.928L70.655,108H48.09z
			 M30.312,115h27.979L44.3,138.32L30.312,115z"/>
	</g>
</g>
</svg>
