<?xml version="1.0" encoding="utf-8"?>
<!-- Generator: Adobe Illustrator 16.0.3, SVG Export Plug-In . SVG Version: 6.00 Build 0)  -->
<!DOCTYPE svg PUBLIC "-//W3C//DTD SVG 1.1//EN" "http://www.w3.org/Graphics/SVG/1.1/DTD/svg11.dtd">
<svg version="1.1" id="Layer_1" xmlns="http://www.w3.org/2000/svg" xmlns:xlink="http://www.w3.org/1999/xlink" x="0px" y="0px"
	 width="256px" height="256px" viewBox="0 0 256 256" enable-background="new 0 0 256 256" xml:space="preserve">
<g>
	<defs>
		<rect id="SVGID_1_" width="256" height="256"/>
	</defs>
	<clipPath id="SVGID_2_">
		<use xlink:href="#SVGID_1_"  overflow="visible"/>
	</clipPath>
	<path clip-path="url(#SVGID_2_)" fill="#FFFFFF" d="M219.804,128h-7v-1.411c0-45.983-37.41-83.393-83.393-83.393H128v-7h1.412
		c49.843,0,90.393,40.55,90.393,90.393V128z"/>
	<path clip-path="url(#SVGID_2_)" fill="#FFFFFF" d="M182.717,128h-7v-1.411c0-25.533-20.772-46.306-46.306-46.306h-1.396v-7h1.396
		c29.393,0,53.306,23.913,53.306,53.306V128z"/>
	<path clip-path="url(#SVGID_2_)" fill="#FFFFFF" d="M181.166,237.972c-1.401,0-2.989-0.261-4.808-0.819l-0.197-0.067
		c-38.933-14.559-69.824-32.493-94.438-54.828l-0.124-0.117l-7.893-7.902c-22.343-24.623-40.281-55.518-54.839-94.452L18.8,79.589
		c-3.024-9.829,2.659-12.927,11.018-16.23c4.953-2.055,9.948-4.148,14.944-6.241c4.747-1.988,9.495-3.978,14.254-5.954l0.113-0.045
		c3.882-1.454,9.672-1.661,15.22,5.634l0.145,0.204c3.651,5.587,7.257,11.12,10.861,16.651c3.818,5.859,7.634,11.715,11.501,17.63
		l0.152,0.255c3.343,6.203,3.033,11.404-0.946,15.9c-2.639,2.866-5.428,5.439-8.125,7.928c-2.087,1.925-4.085,3.769-5.987,5.701
		l0.501,0.945c2.982,5.628,5.556,10.488,8.644,15.264c3.418,5.288,7.592,10.41,12.406,15.225c4.819,4.818,9.945,8.995,15.236,12.414
		c4.752,3.069,9.584,5.629,15.18,8.594l1.009,0.535c1.923-1.895,3.75-3.877,5.657-5.948c2.475-2.687,5.034-5.465,7.852-8.061
		c4.571-4.05,9.781-4.368,15.98-1.027l0.254,0.151c5.795,3.788,11.536,7.522,17.278,11.258c5.654,3.678,11.31,7.356,17.018,11.088
		l0.204,0.145c7.296,5.551,7.095,11.336,5.641,15.211l-0.045,0.114c-1.942,4.675-3.896,9.338-5.849,14.001
		c-2.127,5.078-4.254,10.154-6.364,15.246C189.877,232.943,187.325,237.972,181.166,237.972 M178.516,230.492
		c3.625,1.114,4.312,1.243,7.548-6.942c2.137-5.154,4.267-10.238,6.396-15.323c1.942-4.637,3.884-9.273,5.815-13.922
		c0.682-1.854,0.732-3.993-3.248-7.057c-5.667-3.704-11.282-7.356-16.896-11.008c-5.704-3.71-11.407-7.42-17.162-11.183
		c-4.443-2.355-6.311-1.229-7.842,0.127c-2.555,2.355-4.905,4.907-7.395,7.608c-2.473,2.685-5.03,5.461-7.845,8.056l-1.826,1.683
		l-5.42-2.882c-5.74-3.04-10.697-5.666-15.703-8.9c-5.705-3.686-11.218-8.176-16.387-13.344
		c-5.162-5.162-9.649-10.671-13.335-16.373c-3.252-5.032-5.893-10.017-8.95-15.788l-2.847-5.355l1.682-1.826
		c2.595-2.817,5.388-5.394,8.089-7.886c2.714-2.505,5.277-4.871,7.677-7.475c1.295-1.464,2.403-3.316,0.046-7.763
		c-3.84-5.874-7.631-11.69-11.423-17.509c-3.578-5.493-7.159-10.988-10.785-16.535c-3.06-3.977-5.206-3.924-7.064-3.241
		c-4.733,1.965-9.454,3.943-14.174,5.92c-5.003,2.097-10.006,4.191-15.021,6.272c-8.235,3.255-8.105,3.944-6.987,7.584
		c14.224,38.009,31.683,68.118,53.374,92.042l7.657,7.658C110.405,198.813,140.508,216.269,178.516,230.492"/>
</g>
</svg>
