<?xml version="1.0" encoding="iso-8859-1"?>
<!-- Generator: Adobe Illustrator 19.2.0, SVG Export Plug-In . SVG Version: 6.00 Build 0)  -->
<svg version="1.1" id="Guides" xmlns="http://www.w3.org/2000/svg" xmlns:xlink="http://www.w3.org/1999/xlink" x="0px" y="0px"
	 viewBox="0 0 256 256" style="enable-background:new 0 0 256 256;" xml:space="preserve">
<g>
	<path style="fill:#FAFAFA;" d="M231,216.676c0,3.785-1.496,7.397-4.196,10.097c-2.701,2.7-6.281,4.227-10.066,4.227H39.304
		c-3.785,0-7.387-1.527-10.087-4.226c-2.7-2.701-4.217-6.313-4.217-10.098V39.247c0-3.786,1.517-7.358,4.216-10.059
		C31.917,26.488,35.518,25,39.304,25H128v-7H39.304c-5.655,0-11.015,2.217-15.037,6.239C20.244,28.261,18,33.592,18,39.247v177.429
		c0,5.655,2.244,11.024,6.267,15.048C28.29,235.746,33.648,238,39.304,238h177.434c5.654,0,10.992-2.254,15.017-6.277
		c4.022-4.023,6.246-9.393,6.246-15.047V128h-7V216.676z"/>
	<polygon style="fill:#FAFAFA;" points="174,18 174,25 225.927,25 72.017,178.952 76.966,183.922 231,29.908 231,82 238,82 238,18 	
		"/>
</g>
</svg>
