<?xml version="1.0" encoding="iso-8859-1"?>
<!-- Generator: Adobe Illustrator 19.2.0, SVG Export Plug-In . SVG Version: 6.00 Build 0)  -->
<svg version="1.1" id="Lager_13" xmlns="http://www.w3.org/2000/svg" xmlns:xlink="http://www.w3.org/1999/xlink" x="0px" y="0px"
	 viewBox="0 0 256 256" style="enable-background:new 0 0 256 256;" xml:space="preserve">
<g>
	<path style="fill:#FAFAFA;" d="M193.741,45.505c-17.428-17.429-40.601-27.026-65.251-27.026c-24.65,0-47.824,9.598-65.252,27.026
		C45.807,62.936,36.207,86.11,36.207,110.76c0,24.648,9.6,47.824,27.083,65.307l65.203,62.54l65.248-62.592
		c17.432-17.431,27.031-40.605,27.031-65.255S211.173,62.936,193.741,45.505z M188.844,171.015l-60.351,57.893l-60.305-57.842
		c-16.109-16.109-24.981-37.526-24.981-60.306c0-22.78,8.872-44.196,24.981-60.306c16.105-16.105,37.521-24.976,60.302-24.976
		s44.197,8.87,60.302,24.976c16.109,16.109,24.98,37.525,24.98,60.306C213.772,133.539,204.901,154.956,188.844,171.015z"/>
	<path style="fill:#FAFAFA;" d="M128.493,74.619c-19.928,0-36.14,16.213-36.14,36.141c0,19.924,16.212,36.133,36.14,36.133
		c19.924,0,36.134-16.209,36.134-36.133C164.627,90.832,148.417,74.619,128.493,74.619z M128.493,139.893
		c-16.068,0-29.14-13.069-29.14-29.133c0-16.068,13.072-29.141,29.14-29.141c16.064,0,29.134,13.072,29.134,29.141
		C157.627,126.823,144.558,139.893,128.493,139.893z"/>
</g>
</svg>
