<?xml version="1.0" encoding="iso-8859-1"?>
<!-- Generator: Adobe Illustrator 19.2.0, SVG Export Plug-In . SVG Version: 6.00 Build 0)  -->
<svg version="1.1" id="Lager_13" xmlns="http://www.w3.org/2000/svg" xmlns:xlink="http://www.w3.org/1999/xlink" x="0px" y="0px"
	 viewBox="0 0 256 256" style="enable-background:new 0 0 256 256;" xml:space="preserve">
<g>
	<path style="fill:#FAFAFA;" d="M202.136,36H53.864C44.095,36,36,44.274,36,54.047v148.252C36,212.068,44.095,220,53.864,220
		h148.272c9.77,0,17.864-7.932,17.864-17.701V54.047C220,44.274,211.905,36,202.136,36z M210,202.299
		c0,4.255-3.609,7.701-7.864,7.701H53.864c-4.255,0-7.864-3.446-7.864-7.701V54.047C46,49.789,49.609,46,53.864,46h148.272
		c4.255,0,7.864,3.789,7.864,8.047V202.299z"/>
	<polygon style="fill:#FAFAFA;" points="117.483,148.848 90.576,124.824 83.916,132.283 118,162.715 181.231,97.178 174.034,90.234 
			"/>
</g>
</svg>
