<?xml version="1.0" encoding="iso-8859-1"?>
<!-- Generator: Adobe Illustrator 19.2.0, SVG Export Plug-In . SVG Version: 6.00 Build 0)  -->
<svg version="1.1" id="Lager_13" xmlns="http://www.w3.org/2000/svg" xmlns:xlink="http://www.w3.org/1999/xlink" x="0px" y="0px"
	 viewBox="0 0 256 256" style="enable-background:new 0 0 256 256;" xml:space="preserve">
<g>
	<path style="fill:#FAFAFA;" d="M193.502,45.809c-35.847-35.848-94.176-35.848-130.025,0c-35.85,35.85-35.85,94.183,0.052,130.084
		l64.964,62.311l65.009-62.362C229.352,139.991,229.352,81.658,193.502,45.809z M188.604,170.841l-60.111,57.663l-60.066-57.612
		c-33.121-33.121-33.121-87.013,0-120.134c16.561-16.561,38.309-24.839,60.062-24.839c21.75,0,43.505,8.282,60.063,24.839
		C221.673,83.879,221.673,137.771,188.604,170.841z"/>
	<path style="fill:#FAFAFA;" d="M128.493,74.809c-19.859,0-36.016,16.156-36.016,36.016c0,19.855,16.157,36.01,36.016,36.01
		c19.855,0,36.01-16.154,36.01-36.01C164.503,90.965,148.349,74.809,128.493,74.809z"/>
</g>
</svg>
