<?xml version="1.0" encoding="iso-8859-1"?>
<!-- Generator: Adobe Illustrator 19.2.0, SVG Export Plug-In . SVG Version: 6.00 Build 0)  -->
<svg version="1.1" id="Lager_13" xmlns="http://www.w3.org/2000/svg" xmlns:xlink="http://www.w3.org/1999/xlink" x="0px" y="0px"
	 viewBox="0 0 256 256" style="enable-background:new 0 0 256 256;" xml:space="preserve">
<g>
	<path style="fill:#FAFAFA;" d="M127.967,126.622c12.748,0,23.118-10.37,23.118-23.117s-10.37-23.118-23.118-23.118
		c-12.752,0-23.127,10.371-23.127,23.118S115.215,126.622,127.967,126.622z M127.967,90.387c7.233,0,13.118,5.885,13.118,13.118
		c0,7.232-5.885,13.117-13.118,13.117c-7.238,0-13.127-5.885-13.127-13.117C114.84,96.271,120.729,90.387,127.967,90.387z"/>
	<path style="fill:#FAFAFA;" d="M128.199,129.905c-14.612,0-27.616,4.916-37.606,14.217L89,145.604V175h10v-24.969
		c7.887-6.633,17.934-10.126,29.199-10.126c11.284,0,20.961,3.257,28.801,9.688V175h10v-29.907l-1.639-1.488
		C155.489,134.643,142.639,129.905,128.199,129.905z"/>
	<path style="fill:#FAFAFA;" d="M219.622,50.41c-0.234-1.145-0.592-2.266-1.041-3.328c-0.442-1.048-0.996-2.06-1.638-3.013
		c-0.634-0.939-1.363-1.82-2.16-2.617c-0.8-0.802-1.683-1.53-2.619-2.162c-0.95-0.644-1.965-1.194-3.01-1.635
		c-1.072-0.455-2.196-0.933-3.332-1.166c-1.167-0.239-2.367-0.49-3.569-0.49H54.024c-1.2,0-2.4,0.25-3.562,0.49
		c-1.141,0.232-2.264,0.646-3.331,1.098c-1.049,0.443-2.063,1.026-3.014,1.669c-0.936,0.633-1.816,1.376-2.617,2.176
		c-0.8,0.8-1.527,1.689-2.161,2.628c-0.64,0.947-1.189,1.964-1.634,3.014c-0.454,1.072-0.957,2.195-1.191,3.336
		C36.277,51.578,36,52.779,36,53.979v148.207c0,1.199,0.277,2.398,0.516,3.566c0.233,1.14,0.66,2.261,1.113,3.332
		c0.445,1.052,1.034,2.065,1.673,3.009c0.634,0.939,1.381,1.821,2.18,2.618c0.801,0.801,1.691,1.527,2.631,2.163
		c0.948,0.64,1.966,1.188,3.009,1.629c1.07,0.453,2.195,0.853,3.334,1.085c1.167,0.24,2.369,0.412,3.569,0.412h131.771L220,185.731
		V53.979C220,52.781,219.861,51.582,219.622,50.41z M183,208.356v-16.868c0-0.512,0.148-1.019,0.25-1.514
		c0.098-0.477,0.292-0.946,0.48-1.391c0.188-0.445,0.445-0.874,0.711-1.267c0.271-0.399,0.592-0.774,0.932-1.115
		c0.338-0.338,0.717-0.645,1.115-0.913c0.4-0.27,0.829-0.501,1.274-0.688c0.448-0.189,0.92-0.343,1.397-0.441
		c0.492-0.101,1.003-0.159,1.516-0.159h16.864L183,208.356z M210,174h-19.325c-1.184,0-2.366,0.126-3.518,0.362
		c-1.125,0.229-2.23,0.577-3.285,1.022c-1.037,0.438-2.037,0.982-2.972,1.613c-0.927,0.626-1.797,1.344-2.585,2.133
		c-0.787,0.787-1.504,1.655-2.134,2.584c-0.628,0.931-1.17,1.928-1.611,2.969c-0.447,1.058-0.888,2.164-1.116,3.281
		c-0.236,1.149-0.454,2.335-0.454,3.523V210H54.024c-0.526,0-1.049-0.104-1.561-0.208c-0.494-0.102-0.977-0.276-1.441-0.474
		c-0.455-0.191-0.896-0.443-1.305-0.72c-0.409-0.276-0.795-0.601-1.148-0.955c-0.349-0.349-0.666-0.736-0.944-1.147
		c-0.277-0.411-0.516-0.852-0.709-1.308c-0.196-0.464-0.503-0.949-0.604-1.441c-0.104-0.509-0.313-1.035-0.313-1.562V146.03V53.979
		c0-0.527,0.209-1.053,0.313-1.562c0.101-0.493,0.329-0.979,0.526-1.441c0.193-0.457,0.471-0.897,0.75-1.311
		c0.277-0.41,0.615-0.796,0.964-1.146c0.351-0.351,0.746-0.669,1.155-0.945c0.414-0.279,0.858-0.519,1.316-0.712
		c0.462-0.195,0.947-0.475,1.442-0.577C52.973,46.182,53.499,46,54.024,46h148.228c0.527,0,1.052,0.182,1.562,0.287
		c0.492,0.101,0.976,0.316,1.442,0.514c0.452,0.19,0.891,0.461,1.307,0.742c0.408,0.276,0.792,0.609,1.144,0.961
		c0.35,0.35,0.667,0.743,0.941,1.15c0.28,0.415,0.52,0.861,0.714,1.32s0.362,0.946,0.463,1.439c0.104,0.511,0.175,1.039,0.175,1.566
		V174z"/>
</g>
</svg>
