<?xml version="1.0" encoding="iso-8859-1"?>
<!-- Generator: Adobe Illustrator 19.2.0, SVG Export Plug-In . SVG Version: 6.00 Build 0)  -->
<svg version="1.1" id="Lager_13" xmlns="http://www.w3.org/2000/svg" xmlns:xlink="http://www.w3.org/1999/xlink" x="0px" y="0px"
	 viewBox="0 0 256 256" style="enable-background:new 0 0 256 256;" xml:space="preserve">
<g>
	<path style="fill:#FAFAFA;" d="M128.493,237.493l-65.016-62.364c-17.367-17.366-26.932-40.456-26.932-65.016
		c0-24.559,9.564-47.648,26.932-65.015c17.364-17.364,40.453-26.928,65.013-26.928s47.649,9.563,65.012,26.928l0,0l0,0
		c35.85,35.85,35.85,94.181,0,130.03l-0.074,0.073L128.493,237.493z M70.513,168.022l57.98,55.613l57.974-55.613
		c31.916-31.954,31.903-83.914-0.035-115.854l0,0c-15.476-15.476-36.053-23.998-57.942-23.998c-21.889,0-42.466,8.523-57.941,23.998
		C55.07,67.647,46.545,88.226,46.545,110.113C46.545,131.985,55.056,152.549,70.513,168.022z M128.493,147.071
		c-20.382,0-36.964-16.579-36.964-36.958c0-20.382,16.582-36.964,36.964-36.964c20.379,0,36.958,16.582,36.958,36.964
		C165.451,130.492,148.872,147.071,128.493,147.071z M128.493,83.149c-14.868,0-26.964,12.096-26.964,26.964
		c0,14.864,12.096,26.958,26.964,26.958c14.864,0,26.958-12.094,26.958-26.958C155.451,95.245,143.357,83.149,128.493,83.149z"/>
</g>
</svg>
