<?xml version="1.0" encoding="iso-8859-1"?>
<!-- Generator: Adobe Illustrator 19.2.0, SVG Export Plug-In . SVG Version: 6.00 Build 0)  -->
<svg version="1.1" id="Lager_13" xmlns="http://www.w3.org/2000/svg" xmlns:xlink="http://www.w3.org/1999/xlink" x="0px" y="0px"
	 viewBox="0 0 256 256" style="enable-background:new 0 0 256 256;" xml:space="preserve">
<g>
	<path style="fill:#FAFAFA;" d="M127.921,143.734c8.569,0,15.54-6.972,15.54-15.54s-6.971-15.54-15.54-15.54
		c-8.568,0-15.54,6.972-15.54,15.54S119.353,143.734,127.921,143.734z M127.921,119.654c4.708,0,8.54,3.831,8.54,8.54
		s-3.831,8.54-8.54,8.54s-8.54-3.831-8.54-8.54S123.213,119.654,127.921,119.654z"/>
	<path style="fill:#FAFAFA;" d="M127.971,18.188c-60.605,0-109.912,49.306-109.912,109.911S67.365,238.01,127.971,238.01
		s109.911-49.306,109.911-109.911S188.576,18.188,127.971,18.188z M25.059,128.099c0-56.745,46.166-102.911,102.912-102.911
		c28.37,0,54.096,11.54,72.73,30.171l-99.382,46.233l-46.141,99.183C36.577,182.145,25.059,156.442,25.059,128.099z M186.371,69.745
		l-37.116,79.782l-79.782,37.116l37.116-79.782L186.371,69.745z M127.971,231.01c-28.32,0-54.003-11.499-72.629-30.073l99.183-46.14
		l46.233-99.381c18.604,18.63,30.125,44.336,30.125,72.682C230.882,184.844,184.716,231.01,127.971,231.01z"/>
</g>
</svg>
