<?xml version="1.0" encoding="iso-8859-1"?>
<!-- Generator: Adobe Illustrator 19.2.0, SVG Export Plug-In . SVG Version: 6.00 Build 0)  -->
<svg version="1.1" id="Lager_12" xmlns="http://www.w3.org/2000/svg" xmlns:xlink="http://www.w3.org/1999/xlink" x="0px" y="0px"
	 viewBox="0 0 256 256" style="enable-background:new 0 0 256 256;" xml:space="preserve">
<g>
	<path style="fill:#FAFAFA;" d="M198,80V35.457l-1.948-0.967c-21.289-10.624-44.846-16.24-68.115-16.24
		c-23.269,0-46.765,5.616-68.055,16.24L58,35.457V80H36v35.538l1.707,1.026C44.218,120.602,51,124.233,58,127.437V238h28.151
		l8.716-30h66.129l8.716,30H198V127.602c7-3.249,13.828-6.941,20.321-11.055l1.679-1.031V80H198z M58,119.698
		c-5-2.455-10-5.144-15-8.069V87h15V119.698z M191,231h-16.06l-8.716-30H89.638l-8.716,30H65V130.501c3,1.166,5.604,2.26,8.46,3.282
		l15.68,53.294l1.606,0.618c9.926,3.784,26.702,6.046,37.193,6.046s27.272-2.262,37.198-6.046l1.618-0.618l15.653-53.075
		c2.88-1.03,5.592-2.134,8.592-3.314V231z M81.491,136.536c15.71,4.82,31.643,7.464,46.684,7.464h0.243
		c14.88,0,30.53-2.569,45.891-7.254l-13.278,45.017c-9.31,3.148-23.796,4.994-33.099,4.994s-23.789-1.869-33.099-5.018
		L81.491,136.536z M191,123.068C171,131.958,148.727,137,128.417,137h-0.243C107.813,137,86,131.894,65,122.89V87h126V123.068z
		 M191,80H65V39.805c20-9.527,41.514-14.555,63-14.555c21.487,0,43,5.027,63,14.555V80z M213,111.651c-5,2.977-10,5.714-15,8.204V87
		h15V111.651z"/>
</g>
</svg>
