<?xml version="1.0" encoding="iso-8859-1"?>
<!-- Generator: Adobe Illustrator 19.2.0, SVG Export Plug-In . SVG Version: 6.00 Build 0)  -->
<svg version="1.1" id="Lager_13" xmlns="http://www.w3.org/2000/svg" xmlns:xlink="http://www.w3.org/1999/xlink" x="0px" y="0px"
	 viewBox="0 0 256 256" style="enable-background:new 0 0 256 256;" xml:space="preserve">
<g>
	<path style="fill:#FAFAFA;" d="M137.964,121.443L133,120.155V97.673c6,2.108,9.461,7.327,9.929,12.327h17.446
		C160.259,98,152,86.315,133,84.441V76h-9v8.207c-18,0.937-28.766,11.592-28.766,24.706c0,12.646,6.83,18.852,23.341,22.716
		l5.425,1.171v25.175c-9-1.874-12.569-8.976-12.92-15.976H93.75c0.117,16,9.25,27.451,30.25,28.973V180h9v-9.027
		c19-1.171,29.531-11.475,29.531-25.761C162.531,131.747,154.475,125.073,137.964,121.443z M124,118.281l-1.492-0.234
		c-6.791-1.639-10.508-4.215-10.508-9.485v-0.937c0-5.62,4-10.304,12-10.773V118.281z M145,146.384c0,7.377-4,11.241-12,12.061
		v-23.653l1.726,0.468c7.026,1.639,10.274,4.45,10.274,10.187V146.384z"/>
	<path style="fill:#FAFAFA;" d="M128,18C67.249,18,18,67.249,18,128c0,60.751,49.249,110,110,110c60.751,0,110-49.249,110-110
		C238,67.249,188.751,18,128,18z M128,231c-56.794,0-103-46.206-103-103C25,71.206,71.206,25,128,25c56.794,0,103,46.206,103,103
		C231,184.794,184.794,231,128,231z"/>
</g>
</svg>
