<?xml version="1.0" encoding="iso-8859-1"?>
<!-- Generator: Adobe Illustrator 19.2.0, SVG Export Plug-In . SVG Version: 6.00 Build 0)  -->
<svg version="1.1" id="Lager_13" xmlns="http://www.w3.org/2000/svg" xmlns:xlink="http://www.w3.org/1999/xlink" x="0px" y="0px"
	 viewBox="0 0 256 256" style="enable-background:new 0 0 256 256;" xml:space="preserve">
<g>
	<path style="fill:#FAFAFA;" d="M157,88.988H99v51h58V88.988z M150,132.988h-44v-37h44V132.988z"/>
	<path style="fill:#FAFAFA;" d="M94.2,88.988h-58v51h58V88.988z M87.2,132.988h-44v-37h44V132.988z"/>
	<path style="fill:#FAFAFA;" d="M220,88.988h-58v51h58V88.988z M213,132.988h-44v-37h44V132.988z"/>
	<path style="fill:#FAFAFA;" d="M168.205,238c-0.053,0-0.104-0.007-0.157-0.007c-0.053,0.001-0.104,0.007-0.157,0.007H168.205z"/>
	<circle style="fill:#FAFAFA;" cx="87.414" cy="174.875" r="6.712"/>
	<circle style="fill:#FAFAFA;" cx="127.437" cy="174.875" r="6.712"/>
	<circle style="fill:#FAFAFA;" cx="44.954" cy="174.993" r="6.75"/>
	<path style="fill:#FAFAFA;" d="M219.199,149.212c-2.536-0.795-5.234-1.224-8.032-1.224H44.833
		c-12.056,0-22.254,7.951-25.639,18.895c-0.805,2.56-1.241,5.284-1.241,8.11c0,3.267,0.581,6.399,1.644,9.298
		c3.597,9.935,12.893,17.139,23.939,17.665c0.469,0.024,0.941,0.037,1.417,0.037c0.059,0,0.117-0.004,0.176-0.004H75v23.533
		C75,232.413,80.586,238,88,238s13-5.587,13-12.479v-23.533h54v23.533c0,6.842,5.711,12.392,13.048,12.471
		c7.336-0.079,12.952-5.629,12.952-12.471v-23.533h29.707c0.156,0.003,0.311,0.012,0.468,0.012c14.912,0,27-12.088,27-27
		C238.175,162.882,230.192,152.629,219.199,149.212z M44.954,194.953c-11.006,0-19.96-8.954-19.96-19.96
		c0-11.006,8.954-19.96,19.96-19.96c11.006,0,19.96,8.954,19.96,19.96C64.914,185.999,55.96,194.953,44.954,194.953z M94,225.521
		c0,3.021-2.458,5.479-6,5.479c-3.542,0-6-2.458-6-5.479v-23.533h12V225.521z M174,225.521c0,3.021-2.458,5.479-6,5.479
		c-3.542,0-6-2.458-6-5.479v-23.533h12V225.521z M63.097,194.988c5.44-4.939,8.857-12.068,8.857-19.996
		c0-7.932-3.421-15.065-8.867-20.004h129.965c-5.451,4.94-8.876,12.076-8.876,20.012c0,7.923,3.413,15.049,8.848,19.988H63.097z
		 M218.911,193.398c-2.38,1.005-4.994,1.562-7.736,1.562c-11.006,0-19.96-8.954-19.96-19.96s8.954-19.96,19.96-19.96
		c3.548,0,6.877,0.941,9.767,2.571c6.009,3.459,10.08,9.982,10.08,17.391C231.023,183.201,226.022,190.338,218.911,193.398z"/>
	<circle style="fill:#FAFAFA;" cx="211.175" cy="175" r="6.75"/>
	<circle style="fill:#FAFAFA;" cx="167.46" cy="174.875" r="6.712"/>
</g>
</svg>
