<?xml version="1.0" encoding="iso-8859-1"?>
<!-- Generator: Adobe Illustrator 19.2.0, SVG Export Plug-In . SVG Version: 6.00 Build 0)  -->
<svg version="1.1" id="Lager_6" xmlns="http://www.w3.org/2000/svg" xmlns:xlink="http://www.w3.org/1999/xlink" x="0px" y="0px"
	 viewBox="0 0 256 256" style="enable-background:new 0 0 256 256;" xml:space="preserve">
<g>
	<path style="fill:#FAFAFA;" d="M166.047,143.56c2.856,0.399,5.764,0.601,8.648,0.601c16.705,0,32.455-6.554,44.347-18.455
		c15.2-15.211,21.395-38.383,16.167-60.474l-2.891-12.215l-8.873,8.879L185.848,99.52l-21.473-7.886l-7.909-21.525l37.617-37.615
		l8.589-8.588l-11.736-3.126c-5.294-1.41-10.76-2.125-16.245-2.126c-16.738-0.001-32.47,6.518-44.297,18.353
		c-14.171,14.172-20.706,33.514-17.928,53.063l0.002,0.011c0.07,0.607,1.002,10.43-10.029,21.469l-74.873,74.925
		c-11.417,11.425-11.331,30.102,0.192,41.633c5.566,5.57,12.975,8.638,20.862,8.638c7.823,0,15.16-3.031,20.66-8.534l74.925-74.873
		c8.843-8.849,17.643-9.804,21.017-9.805C165.649,143.534,165.934,143.551,166.047,143.56z M139.255,148.387l-74.928,74.877
		c-4.326,4.329-10.012,6.482-15.708,6.482c-5.76,0-11.532-2.204-15.911-6.586c-8.702-8.708-8.894-23.029-0.192-31.737l74.872-74.925
		c14.115-14.125,12.006-27.413,12.006-27.413c-2.384-16.772,3.055-34.235,15.949-47.13c10.874-10.881,25.102-16.302,39.346-16.301
		c4.857,0,9.717,0.631,14.444,1.89l-40.781,40.779l10.57,28.765l28.714,10.546l40.762-40.79
		c4.231,17.878,0.274,39.323-14.307,53.914c-10.899,10.906-25.13,16.403-39.396,16.403c-2.611,0-5.225-0.184-7.819-0.553
		c0,0-0.594-0.074-1.657-0.074C161.108,136.534,149.996,137.638,139.255,148.387z"/>
	<path style="fill:#FAFAFA;" d="M218.066,169h-39.868l-19.934,34.5l19.934,34.5h39.868L238,203.5L218.066,169z M214.025,231H182.24
		l-15.892-27.5L182.24,176h31.785l15.892,27.5L214.025,231z"/>
	<path style="fill:#FAFAFA;" d="M198.132,189.026c-7.966,0-14.447,6.481-14.447,14.447s6.481,14.447,14.447,14.447
		s14.447-6.481,14.447-14.447S206.098,189.026,198.132,189.026z M198.132,210.921c-4.106,0-7.447-3.341-7.447-7.447
		s3.341-7.447,7.447-7.447s7.447,3.341,7.447,7.447S202.238,210.921,198.132,210.921z"/>
</g>
</svg>
