<?xml version="1.0" encoding="iso-8859-1"?>
<!-- Generator: Adobe Illustrator 19.2.0, SVG Export Plug-In . SVG Version: 6.00 Build 0)  -->
<svg version="1.1" id="Lager_6" xmlns="http://www.w3.org/2000/svg" xmlns:xlink="http://www.w3.org/1999/xlink" x="0px" y="0px"
	 viewBox="0 0 256 256" style="enable-background:new 0 0 256 256;" xml:space="preserve">
<g>
	<path style="fill:#FAFAFA;" d="M181,116V82.933l-1.865-0.967c-16.34-8.155-34.384-12.466-52.248-12.466
		c-17.864,0-35.776,4.311-52.117,12.466L73,82.933V116H56v28.94l1.974,1.026C62.709,148.903,68,151.544,73,153.904V238h22.701
		l6.643-22h49.159l6.643,22H181v-83.973c5-2.395,10.329-5.084,15.055-8.079l1.945-1.03V116H181z M73,146.136
		c-3-1.584-7-3.278-10-5.109V123h10V146.136z M174,231h-10.626l-6.643-22H97.114l-6.643,22H80v-74.033
		c2,0.962,4.617,1.858,7.022,2.686l11.401,38.101l1.59,0.607c7.475,2.789,19.444,4.294,26.93,4.294s19.464-1.505,26.939-4.294
		l1.622-0.607l11.349-37.927c2.425-0.834,5.148-1.747,7.148-2.72V231z M94.937,162.261c10.86,3.023,21.792,4.739,32.171,4.739h0.184
		c10.245,0,20.965-1.664,31.57-4.589l-9.047,29.991c-6.537,2.055-16.615,3.278-22.892,3.278c-6.276,0-16.355-1.26-22.891-3.315
		L94.937,162.261z M174,149.521C159,156.146,142.496,160,127.292,160h-0.184C111.861,160,95,156.098,80,149.386V123h94V149.521z
		 M174,116H80V87.286C95,80.224,110.917,76.5,127,76.5s32,3.724,47,10.786V116z M191,141.049c-4,1.863-7,3.586-10,5.193V123h10
		V141.049z"/>
	<path style="fill:#FAFAFA;" d="M126.923,27.387c10.485,0,20.023,4.106,27.112,10.785l4.963-4.963
		c-8.353-7.94-19.641-12.822-32.075-12.822c-12.435,0-23.722,4.882-32.075,12.822l4.963,4.963
		C106.9,31.493,116.438,27.387,126.923,27.387z"/>
	<path style="fill:#FAFAFA;" d="M145.1,47.108c-4.79-4.387-11.17-7.065-18.177-7.065s-13.387,2.678-18.177,7.065l4.976,4.976
		c3.519-3.125,8.135-5.041,13.2-5.041c5.066,0,9.681,1.916,13.2,5.041L145.1,47.108z"/>
	<path style="fill:#FAFAFA;" d="M121.689,60.05l5.233,5.233l0.001,0l0.001,0l5.233-5.233c-1.456-1.104-3.266-1.767-5.234-1.767
		C124.955,58.283,123.145,58.946,121.689,60.05z"/>
</g>
</svg>
