<?xml version="1.0" encoding="iso-8859-1"?>
<!-- Generator: Adobe Illustrator 19.2.0, SVG Export Plug-In . SVG Version: 6.00 Build 0)  -->
<svg version="1.1" id="Lager_6" xmlns="http://www.w3.org/2000/svg" xmlns:xlink="http://www.w3.org/1999/xlink" x="0px" y="0px"
	 viewBox="0 0 256 256" style="enable-background:new 0 0 256 256;" xml:space="preserve">
<g>
	<path style="fill:#FAFAFA;" d="M27,153.498V79.002C27,73.763,30.766,70,36.005,70h133.553c5.239,0,9.442,3.763,9.442,9.002V105h7
		V79.002c0-9.1-7.343-16.002-16.442-16.002H36.005C26.906,63,20,69.902,20,79.002v74.496c0,9.1,6.906,16.502,16.005,16.502H147v-7
		H36.005C30.766,163,27,158.737,27,153.498z"/>
	<path style="fill:#FAFAFA;" d="M213.56,118.013c7.595,0,13.773-6.179,13.773-13.774c0-7.595-6.179-13.773-13.773-13.773
		c-7.598,0-13.779,6.179-13.779,13.773C199.78,111.834,205.962,118.013,213.56,118.013z M213.56,97.465
		c3.735,0,6.773,3.038,6.773,6.773s-3.038,6.774-6.773,6.774c-3.738,0-6.779-3.039-6.779-6.774S209.821,97.465,213.56,97.465z"/>
	<path style="fill:#FAFAFA;" d="M231.902,129.375c-4.543-2.266-8.131-4.055-15.36-4.055c-6.713,0-12.261,3.565-14.132,4.922
		l-0.038-0.057l-29.078,19.674l-21.298-10.888l-3.186,6.232l24.979,12.771l26.752-18.101l0.578,43.527l-0.035,50.096l0.058,3.503
		H228v-52.684l7-3.766v-49.643L231.902,129.375z M228,176.367l-7,3.766V230h-12.912l0.032-46.618l-0.638-48.124
		c1.798-1.138,5.243-2.938,9.06-2.938c5.224,0,7.753,1.095,11.458,2.932V176.367z"/>
	
		<rect x="105.799" y="86.64" transform="matrix(0.4551 -0.8904 0.8904 0.4551 -48.252 163.2922)" style="fill:#FAFAFA;" width="7" height="68.864"/>
</g>
</svg>
