<?xml version="1.0" encoding="iso-8859-1"?>
<!-- Generator: Adobe Illustrator 19.2.0, SVG Export Plug-In . SVG Version: 6.00 Build 0)  -->
<svg version="1.1" id="Lager_6" xmlns="http://www.w3.org/2000/svg" xmlns:xlink="http://www.w3.org/1999/xlink" x="0px" y="0px"
	 viewBox="0 0 256 256" style="enable-background:new 0 0 256 256;" xml:space="preserve">
<g>
	<path style="fill:#FAFAFA;" d="M184,92.647l-1.991-0.908c-0.885-0.379-21.984-9.277-54.154-9.277
		c-32.427,0-53.672,8.901-54.553,9.28L71,92.652V113H53v27.429l1.905,0.99c2.1,1.128,3.984,2.311,5.989,3.453
		c3.482,1.986,7.106,3.86,10.106,5.524V238h22.278l4.946-13h59.33l2.436,6.261l2.496,6.739H184v-87.856
		c3-1.48,5.914-3.113,8.81-4.836c2.167-1.289,4.693-2.621,7.057-3.887l2.133-0.989V113h-18V92.647z M71,142.57
		c-2-1.181-4.34-2.451-6.669-3.779c-1.462-0.833-2.331-1.687-4.331-2.533V120h11V142.57z M177,231h-9.613l-5.014-13H93.412
		l-4.999,13H78v-50.95c5,1.745,9.258,3.239,13.613,4.428c0.557,0.152,1.241,0.3,1.818,0.447l4.187,14.017l1.648,0.618
		c7.93,3.023,20.667,4.654,28.612,4.654c7.946,0,20.676-1.631,28.605-4.654l1.624-0.618l4.092-13.878
		c0.576-0.144,1.015-0.29,1.568-0.439c4.308-1.166,9.234-2.633,13.234-4.432V231z M101.338,186.508
		c8.723,1.619,18.442,2.492,26.747,2.492h0.192c8.001,0,17.605-0.843,26.137-2.386l-2.023,6.917
		c-6.962,2.258-17.779,3.658-24.5,3.658s-17.538-1.361-24.501-3.619L101.338,186.508z M177,172.661
		c-5,2.181-10.221,3.792-15.061,5.102c-9.595,2.597-23.043,4.237-33.662,4.237h-0.192c-10.767,0-24.813-1.697-34.628-4.377
		c-4.927-1.346-9.457-3.002-15.457-5.1V110h99V172.661z M177,103H78v-5.641c6-2.164,24.294-7.897,49.57-7.897
		c24.997,0,43.43,5.741,49.43,7.904V103z M195,120v16.263c-2,1.013-3.876,2.034-5.549,3.029c-1.729,1.028-3.451,2.022-5.451,2.96
		V120H195z"/>
	<path style="fill:#FAFAFA;" d="M207.187,18.241c-17.055,0-30.88,13.824-30.88,30.88c0,17.051,13.825,30.88,30.88,30.88
		c17.055,0,30.88-13.829,30.88-30.88C238.066,32.065,224.242,18.241,207.187,18.241z M207.187,73
		c-13.167,0-23.88-10.712-23.88-23.88c0-13.167,10.712-23.88,23.88-23.88c13.167,0,23.88,10.712,23.88,23.88
		C231.066,62.288,220.354,73,207.187,73z"/>
	<polygon style="fill:#FAFAFA;" points="211,35 204,35 204,45 194,45 194,52 204,52 204,62 211,62 211,52 221,52 221,45 211,45 	"/>
</g>
</svg>
