<?xml version="1.0" encoding="iso-8859-1"?>
<!-- Generator: Adobe Illustrator 19.2.0, SVG Export Plug-In . SVG Version: 6.00 Build 0)  -->
<svg version="1.1" id="Lager_6" xmlns="http://www.w3.org/2000/svg" xmlns:xlink="http://www.w3.org/1999/xlink" x="0px" y="0px"
	 viewBox="0 0 256 256" style="enable-background:new 0 0 256 256;" xml:space="preserve">
<g>
	<path style="fill:#FAFAFA;" d="M229.083,128c0,56-45.344,101.085-101.079,101.085c-55.74,0-101.087-45.349-101.087-101.088
		c0-55.735,45.347-101.08,101.087-101.08c26.246,0,51.116,10.01,70.028,28.189l4.852-5.047
		c-20.223-19.438-46.815-30.143-74.88-30.143c-59.599,0-108.087,48.484-108.087,108.079c0,59.6,48.488,108.089,108.087,108.089
		c59.595,0,108.079-48.085,108.079-108.085H229.083z"/>
	<path style="fill:#FAFAFA;" d="M181.023,57.279L97.901,129.16l23.372,23.372l73.912-81.094L181.023,57.279z M121.039,142.397
		l-12.866-12.866l72.505-62.699l4.831,4.831L121.039,142.397z"/>
	<polygon style="fill:#FAFAFA;" points="75,112 75,106 57.108,106 49,106 49,149 54.826,149 75,149 75,142 57,142 57,131 74,131 
		74,124 57,124 57,112 	"/>
	<polygon style="fill:#FAFAFA;" points="207,112 207,106 189.372,106 181,106 181,149 189,149 189,131 206,131 206,124 189,124 
		189,112 	"/>
</g>
</svg>
