<?xml version="1.0" encoding="iso-8859-1"?>
<!-- Generator: Adobe Illustrator 19.2.0, SVG Export Plug-In . SVG Version: 6.00 Build 0)  -->
<svg version="1.1" id="Lager_13" xmlns="http://www.w3.org/2000/svg" xmlns:xlink="http://www.w3.org/1999/xlink" x="0px" y="0px"
	 viewBox="0 0 256 256" style="enable-background:new 0 0 256 256;" xml:space="preserve">
<g>
	<path style="fill:#FAFAFA;" d="M184.309,184.697c-15.62,14.523-35.977,22.522-57.319,22.522c-0.542,0-1.085-0.023-1.628-0.033
		c-2.01-0.039-4.019-0.143-6.02-0.323l23.044-18.332l-9.479-1.059l-27.039,21.502l21.503,27.039l9.481,1.097l-18.546-23.318
		c1.794,0.169,3.594,0.295,5.397,0.36c1.095,0.039,2.191,0.066,3.286,0.066c23.117,0,45.166-8.664,62.085-24.396
		c16.83-15.649,27.071-36.842,28.836-59.675l-6.979-0.539C209.303,150.685,199.848,170.248,184.309,184.697z"/>
	<path style="fill:#FAFAFA;" d="M126.99,38.827c37.077,0,69.158,23.946,80.167,58.352c0.581,1.816,1.087,3.669,1.548,5.542
		l-25.906-15.169l2.434,9.223l29.809,17.46L232.5,84.425l-2.397-9.238l-14.762,25.209c-0.457-1.8-0.951-3.583-1.511-5.335
		c-11.919-37.284-46.673-63.234-86.84-63.234c-15.823,0-31.412,4.117-45.083,11.905l3.465,6.082
		C97.989,42.627,112.38,38.827,126.99,38.827z"/>
	<path style="fill:#FAFAFA;" d="M42.793,123.023c0-17.968,5.615-35.117,16.001-49.401c1.259-1.731,2.605-3.407,4.002-5.05
		l-0.012,29.939l6.731-6.758l0.019-34.545l-34.546-0.018l-6.763,6.734l29.325,0.012c-1.115,1.307-2.19,2.64-3.223,3.998
		c-12.006,15.78-18.534,34.953-18.534,55.087c0,17.407,4.922,34.332,14.234,48.945c9.063,14.222,21.847,25.646,36.969,33.036
		l3.073-6.289C60.909,184.464,42.793,155.46,42.793,123.023z"/>
</g>
</svg>
