<?xml version="1.0" encoding="iso-8859-1"?>
<!-- Generator: Adobe Illustrator 19.2.0, SVG Export Plug-In . SVG Version: 6.00 Build 0)  -->
<svg version="1.1" id="Lager_13" xmlns="http://www.w3.org/2000/svg" xmlns:xlink="http://www.w3.org/1999/xlink" x="0px" y="0px"
	 viewBox="0 0 256 256" style="enable-background:new 0 0 256 256;" xml:space="preserve">
<g>
	<path style="fill:#FAFAFA;" d="M176.832,58.537c10.637,0,19.291-8.65,19.291-19.284c0-10.638-8.654-19.292-19.291-19.292
		c-10.638,0-19.292,8.654-19.292,19.292C157.54,49.887,166.194,58.537,176.832,58.537z M176.832,26.961
		c6.777,0,12.291,5.515,12.291,12.292c0,6.773-5.514,12.284-12.291,12.284s-12.292-5.511-12.292-12.284
		C164.54,32.476,170.055,26.961,176.832,26.961z"/>
	<path style="fill:#FAFAFA;" d="M170.472,63.326l-0.82,0.13l-38.315,27.509l-37.508-2.211l-3.297-10.196l-19.404-1.914L62.2,102.149
		l70.481,20.127l12.307-6.243l-0.306,24.484l1.066,4.762l-57.108,2.231c-9.19,0.358-16.859,7.22-18.235,16.313l-10.255,67.768
		l23.718,3.658l17.314-55.944l56.031,6.772l2.728,9.367l6.721-1.957l-2.209-7.584c14.367-2.309,20.832-15.887,22.301-23.648
		l0.036-0.241c0.055-0.46,5.442-46.272,7.972-72.255c0.923-9.475-1.107-16.632-6.035-21.274
		C181.499,61.676,170.917,63.255,170.472,63.326z M96.222,171.655l-17.256,55.757l-10.851-1.674l9.21-60.867
		c0.875-5.778,5.748-10.138,11.588-10.366l58.439-2.284l7.732,26.549L96.222,171.655z M187.795,89.082
		c-2.455,25.218-7.616,69.218-7.94,71.981c-0.32,1.574-3.719,16.459-17.383,18.036l-8.55-29.357l-2.229-9.955l0.421-27.329
		L166,105.453v-7.848l-33.959,17.187L71.298,97.456l4.638-13.307l9.355,0.924l3.353,10.388l44.76,2.639l38.9-27.932
		c2.036-0.146,7.803-0.186,11.622,3.412C187.196,76.66,188.497,81.875,187.795,89.082z"/>
</g>
</svg>
