<?xml version="1.0" encoding="iso-8859-1"?>
<!-- Generator: Adobe Illustrator 19.2.0, SVG Export Plug-In . SVG Version: 6.00 Build 0)  -->
<svg version="1.1" id="Lager_13" xmlns="http://www.w3.org/2000/svg" xmlns:xlink="http://www.w3.org/1999/xlink" x="0px" y="0px"
	 viewBox="0 0 256 256" style="enable-background:new 0 0 256 256;" xml:space="preserve">
<g>
	<path style="fill:#FAFAFA;" d="M148.96,58.857c10.638,0,19.292-8.65,19.292-19.284c0-10.637-8.654-19.291-19.292-19.291
		s-19.292,8.654-19.292,19.291C129.668,50.207,138.322,58.857,148.96,58.857z M148.96,27.282c6.777,0,12.292,5.514,12.292,12.291
		c0,6.773-5.515,12.284-12.292,12.284s-12.292-5.511-12.292-12.284C136.668,32.796,142.183,27.282,148.96,27.282z"/>
	<path style="fill:#FAFAFA;" d="M114.06,34.906l-1.129-6.908c-24.746,4.041-47.034,18.32-61.147,39.176l5.797,3.924
		C70.619,51.829,91.205,38.639,114.06,34.906z"/>
	<path style="fill:#FAFAFA;" d="M181.455,44.145l-4.104,5.672c21.99,15.91,35.119,41.588,35.119,68.688
		c0,46.697-37.99,84.688-84.688,84.688c-16.397,0-32.294-4.685-45.97-13.547l-3.807,5.875c14.812,9.599,32.024,14.672,49.776,14.672
		c50.557,0,91.688-41.131,91.688-91.688C219.471,89.165,205.259,61.367,181.455,44.145z"/>
	<g>
		<path style="fill:#FAFAFA;" d="M36.231,113.371c-0.097,1.635-0.144,3.313-0.144,5.133c0,8.396,1.135,16.721,3.373,24.742
			l6.742-1.881c-2.067-7.41-3.115-15.102-3.115-22.861c0-1.68,0.043-3.224,0.132-4.719L36.231,113.371z"/>
		<path style="fill:#FAFAFA;" d="M160.855,68.807c-7.225-6.81-17.806-5.23-18.256-5.16l-0.82,0.13l-38.315,27.51l-37.508-2.211
			l-3.297-10.197l-19.403-1.914l-8.928,25.507l70.48,20.127l12.307-6.243l-0.306,24.484l1.066,4.762l-57.108,2.23
			c-9.189,0.358-16.859,7.22-18.235,16.313l-10.255,67.768l23.719,3.658l17.313-55.944l56.031,6.772l2.729,9.368l6.721-1.957
			l-2.209-7.583c14.359-2.306,20.831-15.888,22.3-23.649l0.036-0.241c0.055-0.46,5.442-46.273,7.972-72.255
			C167.812,80.606,165.783,73.449,160.855,68.807z M68.351,171.976l-17.257,55.757l-10.852-1.674l9.212-60.867
			c0.874-5.778,5.747-10.138,11.587-10.366l58.439-2.283l7.732,26.548L68.351,171.976z M159.923,89.402
			c-2.456,25.22-7.617,69.225-7.94,71.982c-0.321,1.576-3.714,16.465-17.383,18.036l-8.544-29.333l-2.236-9.979l0.357-27.329
			L138,105.775v-7.848l-34.04,17.187L43.322,97.777l4.723-13.308l9.364,0.924l3.359,10.389l44.762,2.639l38.901-27.933
			c2.038-0.143,7.805-0.187,11.624,3.413C159.323,76.98,160.625,82.196,159.923,89.402z"/>
	</g>
</g>
</svg>
