<?xml version="1.0" encoding="iso-8859-1"?>
<!-- Generator: Adobe Illustrator 19.2.0, SVG Export Plug-In . SVG Version: 6.00 Build 0)  -->
<svg version="1.1" id="Lager_12" xmlns="http://www.w3.org/2000/svg" xmlns:xlink="http://www.w3.org/1999/xlink" x="0px" y="0px"
	 viewBox="0 0 256 256" style="enable-background:new 0 0 256 256;" xml:space="preserve">
<g>
	<path style="fill:#FAFAFA;" d="M235.15,106.045c-1.438-7.026-3.583-13.937-6.375-20.538c-2.741-6.48-6.135-12.732-10.087-18.583
		c-3.911-5.79-8.405-11.236-13.356-16.188s-10.397-9.445-16.188-13.356c-5.849-3.951-12.102-7.345-18.583-10.086
		c-6.6-2.792-13.5-4.938-20.53-6.376C142.824,19.443,135,18.695,128,18.695v7c7,0,13.883,0.7,20.629,2.08
		c6.576,1.347,13.036,3.354,19.211,5.966c6.065,2.564,11.915,5.74,17.389,9.439c5.421,3.662,10.518,7.869,15.155,12.505
		c4.636,4.637,8.842,9.735,12.504,15.156c3.699,5.477,6.875,11.327,9.44,17.392c2.612,6.177,4.619,12.642,5.965,19.215
		c1.38,6.747,2.08,13.691,2.08,20.64c0,6.947-0.7,13.892-2.08,20.639c-1.346,6.574-3.353,13.039-5.965,19.217
		c-2.566,6.067-5.743,11.919-9.44,17.393c-3.663,5.423-7.87,10.522-12.505,15.157c-4.639,4.638-9.737,8.846-15.157,12.506
		c-5.472,3.698-11.323,6.875-17.391,9.441c-6.18,2.614-12.645,4.621-19.216,5.966c-13.49,2.762-27.785,2.762-41.28,0
		c-6.571-1.345-13.036-3.352-19.216-5.966c-6.067-2.566-11.919-5.743-17.393-9.441c-5.42-3.661-10.519-7.868-15.157-12.506
		c-4.634-4.635-8.842-9.734-12.506-15.157c-3.697-5.472-6.873-11.323-9.44-17.393c-2.614-6.18-4.62-12.645-5.965-19.217
		c-1.38-6.745-2.08-13.689-2.08-20.639c0-6.95,0.7-13.895,2.081-20.64c1.344-6.571,3.351-13.036,5.964-19.215
		c2.566-6.066,5.742-11.917,9.44-17.392c3.011-4.457,6.39-8.696,10.073-12.639l15.653,15.653l4.95-4.949L53.098,48.262l-2.475,2.475
		c-4.95,4.95-9.444,10.396-13.356,16.188c-3.951,5.848-7.345,12.101-10.087,18.583c-2.793,6.604-4.938,13.515-6.375,20.538
		c-1.475,7.206-2.223,14.622-2.223,22.043c0,7.42,0.748,14.836,2.222,22.042c1.437,7.024,3.582,13.935,6.375,20.54
		c2.744,6.486,6.138,12.738,10.087,18.584c3.914,5.793,8.407,11.239,13.356,16.188c4.953,4.953,10.4,9.447,16.188,13.357
		c5.848,3.951,12.101,7.345,18.584,10.088c6.606,2.794,13.517,4.939,20.541,6.376c7.208,1.476,14.625,2.224,22.045,2.224
		c7.419,0,14.835-0.748,22.042-2.224c7.024-1.437,13.935-3.582,20.539-6.376c6.484-2.743,12.737-6.138,18.583-10.088
		c5.788-3.91,11.234-8.404,16.188-13.357c4.95-4.949,9.443-10.396,13.356-16.188c3.95-5.848,7.344-12.1,10.087-18.584
		c2.792-6.604,4.937-13.514,6.375-20.54c1.475-7.209,2.223-14.625,2.223-22.042C237.373,120.67,236.625,113.254,235.15,106.045z"/>
	<path style="fill:#FAFAFA;" d="M113.118,139.224c1.263,1.771,6.498,7.009,13.732,7.803c0.594,0.065,1.187,0.098,1.777,0.098
		c4.282,0,8.428-1.709,12.086-5.001l0.542-0.542c3.76-4.178,5.461-8.996,4.919-13.935c-0.737-6.723-5.541-12.152-7.752-13.729
		c-0.951-0.678-32.729-23.996-49.4-36.231l-2.421-1.777L75.108,87.401l1.777,2.422C89.121,106.493,112.439,138.271,113.118,139.224z
		 M87.303,85.105c9.892,7.261,45.974,33.741,47.056,34.512c0.658,0.474,4.353,4.109,4.859,8.812
		c0.318,2.953-0.699,5.703-3.109,8.405l-0.146,0.146c-2.691,2.398-5.421,3.405-8.347,3.088c-4.684-0.513-8.324-4.244-8.799-4.908
		c-0.772-1.083-27.252-37.166-34.511-47.058L87.303,85.105z"/>
</g>
</svg>
