<?xml version="1.0" encoding="iso-8859-1"?>
<!-- Generator: Adobe Illustrator 19.2.0, SVG Export Plug-In . SVG Version: 6.00 Build 0)  -->
<svg version="1.1" id="Lager_13" xmlns="http://www.w3.org/2000/svg" xmlns:xlink="http://www.w3.org/1999/xlink" x="0px" y="0px"
	 viewBox="0 0 256 256" style="enable-background:new 0 0 256 256;" xml:space="preserve">
<g>
	<polygon style="fill:#FAFAFA;" points="139.842,195 129.646,214.406 111.718,195 18,195 18,205 107.342,205 131.912,231.594 
		145.885,205 238,205 238,195 	"/>
	<path style="fill:#FAFAFA;" d="M127.878,185.93c32.192,0,58.289-26.097,58.289-58.289s-26.097-58.289-58.289-58.289
		s-58.289,26.097-58.289,58.289S95.686,185.93,127.878,185.93z M127.878,79.352c26.627,0,48.289,21.662,48.289,48.289
		c0,26.627-21.662,48.289-48.289,48.289s-48.289-21.662-48.289-48.289C79.589,101.014,101.251,79.352,127.878,79.352z"/>
	<path style="fill:#FAFAFA;" d="M127.688,167.479c22.071,0,40.027-17.956,40.027-40.026c0-22.071-17.956-40.027-40.027-40.027
		c-22.071,0-40.027,17.956-40.027,40.027C87.662,149.522,105.618,167.479,127.688,167.479z M127.688,97.425
		c16.557,0,30.027,13.47,30.027,30.027c0,16.557-13.471,30.026-30.027,30.026s-30.027-13.47-30.027-30.026
		C97.662,110.895,111.132,97.425,127.688,97.425z"/>
	<path style="fill:#FAFAFA;" d="M127.5,145.687c9.951,0,18.045-8.096,18.045-18.046s-8.095-18.045-18.045-18.045
		c-9.95,0-18.045,8.095-18.045,18.045S117.549,145.687,127.5,145.687z M127.5,119.596c4.436,0,8.045,3.609,8.045,8.045
		c0,4.437-3.609,8.046-8.045,8.046s-8.045-3.609-8.045-8.046C119.454,123.205,123.063,119.596,127.5,119.596z"/>
	<circle style="fill:#FAFAFA;" cx="127.605" cy="103.531" r="4.101"/>
	<circle style="fill:#FAFAFA;" cx="127.605" cy="151.736" r="4.101"/>
	<circle style="fill:#FAFAFA;" cx="103.502" cy="127.634" r="4.101"/>
	<circle style="fill:#FAFAFA;" cx="151.707" cy="127.634" r="4.101"/>
	
		<ellipse transform="matrix(0.7071 -0.7071 0.7071 0.7071 -69.9191 120.5537)" style="fill:#FAFAFA;" cx="110.562" cy="144.677" rx="4.101" ry="4.101"/>
	
		<ellipse transform="matrix(0.7071 -0.7071 0.7071 0.7071 -35.833 134.6717)" style="fill:#FAFAFA;" cx="144.648" cy="110.59" rx="4.101" ry="4.101"/>
	
		<ellipse transform="matrix(0.7071 -0.7071 0.7071 0.7071 -45.8165 110.5693)" style="fill:#FAFAFA;" cx="110.562" cy="110.59" rx="4.101" ry="4.101"/>
	
		<ellipse transform="matrix(0.7071 -0.7071 0.7071 0.7071 -59.9354 144.6563)" style="fill:#FAFAFA;" cx="144.648" cy="144.677" rx="4.101" ry="4.101"/>
	
		<rect x="201.285" y="168.202" transform="matrix(0.7071 -0.7071 0.7071 0.7071 -63.7411 200.6719)" style="fill:#FAFAFA;" width="18.152" height="18.152"/>
	
		<rect x="41.216" y="158.327" transform="matrix(0.7071 -0.7071 0.7071 0.7071 -103.642 84.5927)" style="fill:#FAFAFA;" width="18.152" height="18.152"/>
	
		<rect x="179.462" y="181.392" transform="matrix(0.7071 -0.7071 0.7071 0.7071 -77.5798 184.5668)" style="fill:#FAFAFA;" width="9.076" height="9.076"/>
</g>
</svg>
