<?xml version="1.0" encoding="iso-8859-1"?>
<!-- Generator: Adobe Illustrator 19.2.0, SVG Export Plug-In . SVG Version: 6.00 Build 0)  -->
<svg version="1.1" id="Lager_13" xmlns="http://www.w3.org/2000/svg" xmlns:xlink="http://www.w3.org/1999/xlink" x="0px" y="0px"
	 viewBox="0 0 256 256" style="enable-background:new 0 0 256 256;" xml:space="preserve">
<g>
	<path style="fill:#FAFAFA;" d="M93.109,128.205c0-18.242,14.891-33.084,32.891-33.084v-7c-22,0-39.891,17.93-39.891,40.033
		s18.175,40.034,40.278,40.034S166.471,150,166.471,128h-7c0,18-14.938,33.188-33.181,33.188
		C108.047,161.188,93.109,146.448,93.109,128.205z"/>
	<path style="fill:#FAFAFA;" d="M229.785,128c0,57-46.081,102.871-102.678,102.871c-56.597,0-102.678-45.816-102.678-102.414
		S71,25.814,127,25.814v-7c-60,0-109.571,49.071-109.571,109.528s49.257,109.528,109.714,109.528S236.785,189,236.785,128H229.785z"
		/>
	<path style="fill:#FAFAFA;" d="M192,128.447c0,38.159-29.453,68.05-66.997,68.05c-18.13,0-35.096-7.127-47.692-20.069
		c-12.536-12.879-19.529-30.071-19.529-48.41C57.782,90.137,88,59.318,125,59.318v-7c-41,0-74.218,33.959-74.218,75.699
		c0,20.173,7.788,39.099,21.603,53.293c13.925,14.308,32.628,22.187,52.664,22.187c20.049,0,38.726-7.801,52.589-21.965
		C191.413,167.458,199,148.605,199,128.447v-66.54l34,34.06v-9.966l-37.235-37.235L161,83.719v9.899l31-31.166V128.447z"/>
</g>
</svg>
