<?xml version="1.0" encoding="iso-8859-1"?>
<!-- Generator: Adobe Illustrator 19.2.0, SVG Export Plug-In . SVG Version: 6.00 Build 0)  -->
<svg version="1.1" id="Lager_13" xmlns="http://www.w3.org/2000/svg" xmlns:xlink="http://www.w3.org/1999/xlink" x="0px" y="0px"
	 viewBox="0 0 256 256" style="enable-background:new 0 0 256 256;" xml:space="preserve">
<g>
	<path style="fill:#FAFAFA;" d="M127.178,230.71c-34.293,0-62.193-27.604-62.193-61.535c0-5.254,0.673-10.48,2.001-15.532
		l0.048-0.209c2.194-11.062,12.78-30.658,27.432-57.78c9.249-17.12,20.58-38.097,32.712-62.351
		c5.961,11.918,11.727,23.04,17.15,33.306c1.947-1.248,3.988-2.386,6.114-3.414c-6.325-11.977-13.113-25.109-20.127-39.304
		l-3.138-6.35l-3.138,6.35c-13.255,26.826-25.719,49.897-35.733,68.436c-15.455,28.608-25.68,47.536-28.118,59.64
		c-1.463,5.601-2.205,11.39-2.205,17.209c0,37.79,31.04,68.535,69.193,68.535c37.631,0,68.32-29.914,69.154-66.992
		c-2.327,0.865-4.689,1.586-7.082,2.146C187.313,205.082,160.219,230.71,127.178,230.71z"/>
	<path style="fill:#FAFAFA;" d="M155.852,101.587l0.013-23.626l-23.627-0.012l-3.904,4.021L125.423,85h0.805h0.156l16.531-0.125
		l-1.126,1.122c-0.913,1.005-1.787,2.075-2.598,3.177c-0.8,1.085-1.561,2.233-2.262,3.413c-0.688,1.158-1.331,2.372-1.916,3.61
		c-0.575,1.222-1.104,2.491-1.57,3.775c-0.461,1.27-0.872,2.585-1.223,3.908c-0.347,1.31-0.64,2.66-0.872,4.014
		c-0.231,1.347-0.406,2.722-0.519,4.084c-0.113,1.364-0.167,2.753-0.161,4.128c0,0,0,0,0,0c-0.003-0.687,0.009-1.378,0.036-2.068
		c-0.027,0.69-0.039,1.38-0.036,2.068v0c0.007,1.376,0.074,2.768,0.202,4.14c0.128,1.373,0.319,2.76,0.57,4.124
		c0.127,0.687,0.27,1.373,0.427,2.053s0.33,1.355,0.517,2.019c0.379,1.353,0.824,2.695,1.323,3.992
		c0.508,1.318,1.083,2.622,1.71,3.877c0.634,1.268,1.342,2.522,2.104,3.73c0.771,1.221,1.612,2.414,2.501,3.547l5.508-4.318
		c-0.742-0.947-1.445-1.944-2.089-2.964c-0.639-1.013-1.231-2.064-1.762-3.126c-0.527-1.054-1.012-2.151-1.438-3.261
		c-0.421-1.093-0.797-2.228-1.117-3.369c-0.315-1.125-0.585-2.286-0.8-3.449c-0.213-1.157-0.376-2.335-0.484-3.504
		c-0.108-1.168-0.167-2.354-0.172-3.522c-0.006-1.172,0.041-2.355,0.138-3.52c0.096-1.161,0.244-2.331,0.44-3.476
		c0.198-1.151,0.447-2.298,0.741-3.408c0.297-1.122,0.645-2.236,1.035-3.31c0.393-1.082,0.838-2.152,1.321-3.179
		c0.489-1.037,1.029-2.055,1.604-3.022c0.584-0.981,1.216-1.936,1.88-2.837c0.671-0.912,1.393-1.795,2.14-2.613l2.106-2.049
		l-0.008,19.735L155.852,101.587z"/>
	<path style="fill:#FAFAFA;" d="M209.947,133.801c-0.555,1.053-1.169,2.092-1.826,3.088c-0.653,0.989-1.361,1.957-2.106,2.877
		c-0.735,0.911-1.529,1.803-2.358,2.652c-0.82,0.839-1.69,1.652-2.588,2.417c-0.894,0.763-1.833,1.492-2.791,2.17
		c-0.951,0.675-1.95,1.318-2.965,1.911c-1.01,0.589-2.059,1.142-3.114,1.64s-2.144,0.955-3.234,1.357
		c-1.083,0.4-2.201,0.758-3.322,1.062c-1.116,0.304-2.254,0.559-3.383,0.758c-1.137,0.201-2.285,0.352-3.416,0.444
		c-1.136,0.095-2.289,0.136-3.415,0.122c-1.145-0.014-2.286-0.084-3.395-0.208c-1.112-0.124-2.217-0.304-3.284-0.533l-2.889-0.817
		l17.096-9.862l-9.291-2.471l-20.467,11.802l11.803,20.468l5.344,1.444l3.94,1.065l-0.476-0.826l-8.332-14.446l1.46,0.404
		l0.125,0.032l0.141,0.033c1.32,0.287,2.684,0.51,4.054,0.663c1.336,0.149,2.71,0.233,4.084,0.251
		c0.174,0.002,0.349,0.003,0.523,0.003c1.184,0,2.38-0.05,3.561-0.148c1.343-0.111,2.708-0.289,4.055-0.528
		c1.335-0.235,2.681-0.537,3.999-0.896c1.319-0.358,2.636-0.779,3.911-1.251c1.279-0.472,2.557-1.008,3.798-1.593
		c1.239-0.586,2.469-1.233,3.656-1.926c1.192-0.697,2.364-1.452,3.479-2.243c1.128-0.798,2.233-1.657,3.287-2.555
		c1.059-0.902,2.086-1.862,3.055-2.854c0.982-1.005,1.923-2.062,2.794-3.142c0.885-1.093,1.728-2.244,2.506-3.423
		c0.784-1.188,1.517-2.428,2.178-3.685c0.669-1.272,1.282-2.598,1.822-3.938l-6.494-2.613
		C211.019,131.629,210.506,132.737,209.947,133.801z"/>
	<path style="fill:#FAFAFA;" d="M229.249,91.636l-1.06-3.991l-0.483,0.836l-8.332,14.418l-0.453-1.718
		c-0.414-1.29-0.902-2.582-1.452-3.838c-0.537-1.23-1.15-2.463-1.825-3.667c-0.666-1.184-1.396-2.349-2.168-3.462
		c-0.771-1.11-1.606-2.203-2.485-3.249c-0.871-1.036-1.804-2.05-2.774-3.015c-0.965-0.957-1.986-1.886-3.04-2.762
		c-1.054-0.875-2.155-1.713-3.278-2.492c-1.139-0.788-2.313-1.528-3.491-2.2c-1.196-0.684-2.437-1.321-3.688-1.896
		c-1.258-0.578-2.555-1.104-3.854-1.567c-1.318-0.467-2.663-0.877-3.997-1.218c-1.354-0.346-2.739-0.632-4.122-0.851
		c-1.396-0.219-2.813-0.373-4.212-0.457c-1.427-0.084-2.866-0.099-4.281-0.043c-1.438,0.057-2.894,0.188-4.323,0.392l0.986,6.93
		c1.194-0.17,2.41-0.279,3.614-0.327c1.185-0.046,2.39-0.036,3.586,0.037c1.175,0.07,2.367,0.199,3.541,0.384
		c1.166,0.184,2.335,0.425,3.478,0.717c1.13,0.289,2.271,0.637,3.387,1.033c1.104,0.393,2.208,0.841,3.276,1.331
		c1.063,0.489,2.119,1.032,3.14,1.615c1.004,0.573,2.006,1.204,2.975,1.875c0.954,0.662,1.894,1.376,2.791,2.121
		c0.895,0.744,1.764,1.534,2.582,2.347c0.821,0.815,1.612,1.675,2.349,2.55c0.739,0.881,1.443,1.802,2.093,2.737
		c0.648,0.934,1.259,1.908,1.814,2.896c0.56,1,1.07,2.024,1.517,3.046c0.455,1.039,0.858,2.105,1.185,3.124l0.765,2.916
		l-17.13-9.899l2.506,9.282l20.455,11.824l11.824-20.456L229.249,91.636z"/>
</g>
</svg>
