<?xml version="1.0" encoding="iso-8859-1"?>
<!-- Generator: Adobe Illustrator 19.2.0, SVG Export Plug-In . SVG Version: 6.00 Build 0)  -->
<svg version="1.1" id="Lager_13" xmlns="http://www.w3.org/2000/svg" xmlns:xlink="http://www.w3.org/1999/xlink" x="0px" y="0px"
	 viewBox="0 0 256 256" style="enable-background:new 0 0 256 256;" xml:space="preserve">
<g>
	<path style="fill:#FAFAFA;" d="M188.625,80.263C186.91,71.52,179.617,65,171.253,65H152v-6.855c0-12.458-10.094-22.593-22.5-22.593
		c-12.407,0-22.5,10.174-22.5,22.68V65H87.275c-8.365,0-15.657,6.52-17.373,15.263L33,204.952V238h192v-33.048L188.625,80.263z
		 M114,58.231c0-8.499,7.098-15.68,15.5-15.68c8.547,0,15.5,6.995,15.5,15.593V65h-31V58.231z M218,231H40v-25.036L76.615,82.269
		l0.129-0.314l0.081-0.344C77.916,76.055,82.321,72,87.275,72H171h0.253c4.954,0,9.341,4.055,10.431,9.611l0.06,0.319l0.16,0.307
		L218,205.951V231z"/>
	<polygon style="fill:#FAFAFA;" points="84,137 94,137 94,157 101,157 101,137 110,137 110,131 84,131 	"/>
	<path style="fill:#FAFAFA;" d="M134.706,132.514c-2.268-1.128-5.01-1.692-8.227-1.692c-3.216,0-5.958,0.564-8.226,1.692
		s-3.984,2.699-5.148,4.716c-1.165,2.016-1.746,4.355-1.746,7.02s0.582,5.004,1.746,7.021c1.164,2.016,2.88,3.588,5.148,4.716
		s5.01,1.692,8.226,1.692c3.217,0,5.959-0.564,8.227-1.692s3.984-2.7,5.148-4.716c1.164-2.017,1.746-4.356,1.746-7.021
		s-0.582-5.004-1.746-7.02C138.691,135.213,136.974,133.642,134.706,132.514z M134,144.934c0,2.16-0.681,3.912-1.941,5.256
		c-1.262,1.344-3.146,2.016-5.569,2.016s-4.308-0.672-5.568-2.016c-1.26-1.344-1.922-3.096-1.922-5.256v-1.368
		c0-2.16,0.675-3.912,1.935-5.256c1.26-1.344,3.147-2.017,5.57-2.017s4.292,0.673,5.553,2.017c1.26,1.344,1.941,3.096,1.941,5.256
		V144.934z"/>
	<polygon style="fill:#FAFAFA;" points="167,149.037 154.236,131 145,131 145,157 152,157 152,139.209 164.999,157 174,157 174,131 
		167,131 	"/>
</g>
</svg>
