<?xml version="1.0" encoding="iso-8859-1"?>
<!-- Generator: Adobe Illustrator 19.2.0, SVG Export Plug-In . SVG Version: 6.00 Build 0)  -->
<svg version="1.1" id="Lager_13" xmlns="http://www.w3.org/2000/svg" xmlns:xlink="http://www.w3.org/1999/xlink" x="0px" y="0px"
	 viewBox="0 0 256 256" style="enable-background:new 0 0 256 256;" xml:space="preserve">
<g>
	<path style="fill:#FAFAFA;" d="M127.241,18C66.485,18,17.237,67.248,17.237,127.996C17.237,188.744,66.485,238,127.241,238
		c60.748,0,109.996-49.256,109.996-110.004C237.237,67.248,187.989,18,127.241,18z M127.241,231
		c-56.797,0-103.004-46.207-103.004-103.004C24.237,71.204,70.444,25,127.241,25c56.792,0,102.996,46.204,102.996,102.996
		C230.237,184.793,184.033,231,127.241,231z"/>
	<path style="fill:#FAFAFA;" d="M184.594,149.153l33.247-26.634l-2.443-19.109l-52.44-13.067l-0.006,0.165
		c-1.791-0.418-3.65-0.508-5.554-0.508H97.084c-2.26,0-4.456,0.185-6.548,0.767l-0.007-0.101l-51.296,12.781l-2.449,19.07
		l33.413,27.239l9.995,17.314l-12.372,27.424l15.073,10.615l23.583-12.187c0.861,0.091,1.73,0.079,2.61,0.079h36.311
		c0.964,0,1.917,0.006,2.858-0.103l23.63,12.176l15.072-10.599l-12.5-27.704l9.84-17.046
		C184.405,149.536,184.492,149.344,184.594,149.153z M210.399,119.512l-23.391,18.738c-0.068-1.108-0.211-2.214-0.464-3.309
		l-6.486-28.16c-0.45-1.952-1.191-3.793-2.161-5.5l31.164,7.765L210.399,119.512z M45.568,109.044l31.006-7.747
		c-0.965,1.702-1.703,3.538-2.151,5.484l-0.031,0.148c-0.017,0.092-1.724,9.339-3.142,18.925
		c-0.943,6.375-1.477,10.961-1.743,14.299l-25.285-20.62L45.568,109.044z M83.46,196.945l-6.883-4.847l7.924-17.565l4.178,7.24
		c1.99,3.444,4.893,6.242,8.341,8.203L83.46,196.945z M178.199,192.099l-6.883,4.847l-13.72-7.05
		c3.388-1.957,6.243-4.724,8.206-8.123l4.343-7.526L178.199,192.099z M159.741,178.272c-2.168,3.753-5.95,6.398-10.349,7.408
		l-0.039-0.02l-0.016-0.037c-1.271,0.287-2.591,0.377-3.941,0.377h-36.311c-1.232,0-2.44-0.063-3.608-0.303l-0.054-0.071
		l-0.127,0.083c-4.486-0.973-8.353-3.633-10.554-7.443L76.377,146.45c-0.711-3.424,1.954-22.174,4.883-38.028
		C82.844,101.716,89.485,97,97.084,97h60.313c7.626,0,14.287,4.751,15.839,11.493l6.487,28.093c0.76,3.284,0.231,6.698-1.489,9.679
		L159.741,178.272z"/>
	<path style="fill:#FAFAFA;" d="M127.244,107.605c-9.753,0-17.688,7.931-17.688,17.68s7.935,17.681,17.688,17.681
		c9.749,0,17.681-7.932,17.681-17.681S136.993,107.605,127.244,107.605z M127.244,135.966c-5.894,0-10.688-4.791-10.688-10.681
		c0-5.889,4.794-10.68,10.688-10.68c5.89,0,10.681,4.791,10.681,10.68C137.925,131.175,133.134,135.966,127.244,135.966z"/>
</g>
</svg>
