<?xml version="1.0" encoding="iso-8859-1"?>
<!-- Generator: Adobe Illustrator 19.2.0, SVG Export Plug-In . SVG Version: 6.00 Build 0)  -->
<svg version="1.1" id="Lager_6" xmlns="http://www.w3.org/2000/svg" xmlns:xlink="http://www.w3.org/1999/xlink" x="0px" y="0px"
	 viewBox="0 0 256 256" style="enable-background:new 0 0 256 256;" xml:space="preserve">
<g>
	<path style="fill:#FAFAFA;" d="M67,197v-92H43v92H67z M50,112h10v78H50V112z"/>
	<path style="fill:#FAFAFA;" d="M25,202.83V25h146v45h7V18H18v184.83C18,212.265,29.509,223,39.415,223H140v-7H39.415
		C33.444,216,25,208.378,25,202.83z"/>
	<path style="fill:#FAFAFA;" d="M153,72.059V41h-24v30.987c2-0.409,4-0.701,7-0.871V48h10v23.148C148,71.332,151,71.638,153,72.059z
		"/>
	<path style="fill:#FAFAFA;" d="M185.006,178.289c9.21-10.354,14.859-23.955,14.981-38.869c0.128-15.833-5.916-30.769-17.021-42.055
		c-11.104-11.287-25.939-17.573-41.772-17.702c-0.165-0.001-0.329-0.002-0.494-0.002c-15.649,0-30.391,6.034-41.558,17.023
		c-11.285,11.104-17.571,25.939-17.699,41.772c-0.265,32.685,26.107,59.49,58.789,59.756c15.205,0.121,29.231-5.557,39.825-14.975
		l52.72,52.894l4.957-4.941L185.006,178.289z M140.72,191.215c-0.144,0-0.288-0.001-0.433-0.002
		c-28.821-0.233-52.079-23.875-51.845-52.699c0.113-13.964,5.657-27.047,15.609-36.84c9.849-9.691,22.848-15.013,36.649-15.013
		c0.145,0,0.292,0.001,0.437,0.002c13.963,0.113,27.046,5.657,36.84,15.611c9.793,9.954,15.124,23.126,15.011,37.089
		C192.754,168.044,169.348,191.215,140.72,191.215z"/>
	<path style="fill:#FAFAFA;" d="M110,78.285V60H86v38.842c2-2.893,4-5.623,7-8.145V67h10v15.371C105,80.872,108,79.515,110,78.285z"
		/>
	<path style="fill:#FAFAFA;" d="M86,179.127V197h19.755c-3.413-2-6.627-4-9.616-7H93v-2.78C90,184.707,88,182.008,86,179.127z"/>
</g>
</svg>
