<?xml version="1.0" encoding="iso-8859-1"?>
<!-- Generator: Adobe Illustrator 19.2.0, SVG Export Plug-In . SVG Version: 6.00 Build 0)  -->
<svg version="1.1" id="Lager_13" xmlns="http://www.w3.org/2000/svg" xmlns:xlink="http://www.w3.org/1999/xlink" x="0px" y="0px"
	 viewBox="0 0 256 256" style="enable-background:new 0 0 256 256;" xml:space="preserve">
<g>
	<path style="fill:#FAFAFA;" d="M213.931,77.459c-9.916-7.858-22.133-12.001-34.69-11.847c-1.691-13.604-8.661-26.083-19.458-34.641
		c-22.658-17.958-55.704-14.133-73.661,8.527c-5.892,7.436-9.619,16.202-10.872,25.517c-1.855,0.028-3.71,0.149-5.551,0.362
		c-3.514,0.406-7.001,1.152-10.366,2.218c-3.398,1.076-6.704,2.487-9.826,4.194c-3.178,1.737-6.196,3.801-8.971,6.133
		c-2.844,2.389-5.467,5.09-7.796,8.028c-2.327,2.936-4.357,6.106-6.036,9.425c-1.636,3.235-2.956,6.646-3.92,10.135
		c-0.949,3.427-1.567,6.968-1.838,10.523c-0.268,3.52-0.198,7.085,0.209,10.599c0.406,3.512,1.152,6.999,2.218,10.365
		c1.076,3.4,2.487,6.707,4.193,9.826c1.737,3.177,3.801,6.195,6.133,8.971c2.389,2.844,5.09,5.466,8.029,7.796
		c2.938,2.328,6.108,4.359,9.424,6.036c3.237,1.638,6.647,2.956,10.135,3.921c3.43,0.949,6.971,1.567,10.524,1.838l5.225,0.074
		l102.972-0.215l2.309-0.019l0.021-0.05c15.915-0.708,30.575-8.17,40.509-20.705C241.621,130.781,237.621,96.233,213.931,77.459z
		 M217.36,150.124c-9.084,11.463-22.703,18.062-37.364,18.107l-1.988,0.018L77.074,168.46l-4.84-0.062
		c-3.066-0.24-6.12-0.777-9.081-1.596c-3.042-0.842-6.018-1.993-8.842-3.421c-2.896-1.465-5.667-3.24-8.236-5.276
		c-2.57-2.037-4.931-4.329-7.017-6.812c-2.035-2.422-3.835-5.055-5.351-7.827c-1.49-2.723-2.721-5.609-3.661-8.578
		c-0.931-2.942-1.583-5.989-1.938-9.059c-0.355-3.071-0.417-6.188-0.183-9.263c0.237-3.104,0.776-6.195,1.605-9.188
		c0.842-3.044,1.993-6.019,3.42-8.842c1.466-2.897,3.241-5.669,5.276-8.236c2.037-2.569,4.328-4.931,6.812-7.017
		c2.421-2.034,5.055-3.835,7.828-5.352c2.725-1.49,5.611-2.722,8.579-3.661c2.94-0.931,5.988-1.583,9.059-1.938
		c3.072-0.354,6.187-0.417,9.263-0.182c3.102,0.235,6.193,0.775,9.188,1.604c3.042,0.842,6.018,1.993,8.842,3.421
		c2.896,1.465,5.667,3.24,8.236,5.276c2.57,2.037,4.931,4.329,7.008,6.801l0.565,0.678c1.023,1.255,1.993,2.574,2.882,3.92
		c0.876,1.327,1.697,2.715,2.438,4.125l6.196-3.256c-0.849-1.616-1.789-3.206-2.793-4.727c-1.018-1.541-2.127-3.051-3.322-4.515
		l-0.597-0.717c-2.389-2.844-5.09-5.466-8.029-7.796c-2.938-2.328-6.108-4.359-9.424-6.036c-3.237-1.638-6.647-2.956-10.135-3.921
		c-2.794-0.773-5.662-1.327-8.549-1.651c1.162-7.845,4.357-15.225,9.336-21.509c15.56-19.633,44.19-22.949,63.827-7.389
		c10.137,8.034,16.381,20.062,17.131,32.997l0.206,3.554l3.55-0.266c12.012-0.895,23.825,2.723,33.262,10.202
		C230.248,99.322,233.737,129.459,217.36,150.124z"/>
	<path style="fill:#FAFAFA;" d="M96.715,230.67c-7.808,0-11.715-5.906-11.715-13.955v-2.643c0-8.047,3.848-14.018,11.715-14.018
		c6.486,0,10.334,3.944,11.475,9.944h9.129c-1.08-10-8.708-16.852-20.6-16.852c-13.693,0-21.021,9.111-21.021,22.265
		c0,13.152,7.327,22.172,21.021,22.172c12.132,0,19.819-6.585,20.721-17.585h-9.129C107.35,226,103.502,230.67,96.715,230.67z"/>
	<path style="fill:#FAFAFA;" d="M143.387,193.113c-13.754,0-21.081,9.009-21.081,22.282c0,13.272,7.327,22.281,21.081,22.281
		c13.693,0,21.08-9.009,21.08-22.281C164.467,202.122,157.08,193.113,143.387,193.113z M155,216.776
		c0,8.048-3.633,14.054-11.5,14.054c-7.868,0-11.5-6.006-11.5-14.054v-2.763c0-8.048,3.632-14.054,11.5-14.054
		c7.867,0,11.5,6.006,11.5,14.054V216.776z"/>
	<path style="fill:#FAFAFA;" d="M183.748,227.827c5.045-2.582,8.047-4.564,8.047-9.369c0-4.385-3.663-8.047-10.33-8.047
		c-7.086,0-10.39,3.589-10.689,8.589h6.605c0.181-2,1.377-3.905,4.081-3.905c2.162,0,3.539,1.201,3.539,3.123v0.601
		c0,1.741-1.017,2.763-3.479,4.024l-3.541,1.922c-3.784,1.981-6.362,4.023-7.383,6.186c-0.3,0.66-0.597,1.321-0.597,2.643V237h22v-5
		h-15.1c0.901-1,2.043-1.486,3.363-2.207L183.748,227.827z"/>
</g>
</svg>
