<?xml version="1.0" encoding="iso-8859-1"?>
<!-- Generator: Adobe Illustrator 19.2.0, SVG Export Plug-In . SVG Version: 6.00 Build 0)  -->
<svg version="1.1" id="Lager_13" xmlns="http://www.w3.org/2000/svg" xmlns:xlink="http://www.w3.org/1999/xlink" x="0px" y="0px"
	 viewBox="0 0 256 256" style="enable-background:new 0 0 256 256;" xml:space="preserve">
<g>
	<path style="fill:#FAFAFA;" d="M237.73,33.71c-0.222-1.079-0.484-2.334-1.011-3.583c-0.48-1.137-1.063-2.229-1.749-3.244
		c-0.691-1.025-1.47-1.978-2.322-2.829c-0.896-0.896-1.841-1.685-2.814-2.342c-1.117-0.755-2.176-1.342-3.237-1.79
		c-0.944-0.4-2.205-0.896-3.583-1.177l-0.229-0.162c-1.06-0.22-2.26-0.583-3.611-0.583H37.742c-1.353,0-2.559,0.364-3.623,0.585
		l-0.217,0.103c-1.29,0.264-2.415,0.77-3.407,1.192l-0.179,0.091c-1.144,0.483-2.235,1.082-3.247,1.765
		c-1.035,0.7-1.988,1.487-2.832,2.331c-0.92,0.92-1.712,1.871-2.354,2.821c-0.812,1.204-1.39,2.235-1.842,3.305
		c-0.436,1.026-0.929,2.19-1.2,3.52c-0.047,0.229-0.215,0.462-0.271,0.697C18.366,35.273,18,36.351,18,37.553V218.96
		c0,1.204,0.367,2.281,0.571,3.146c0.055,0.234,0.167,0.466,0.212,0.691c0.233,1.142,0.718,2.141,1.084,2.943
		c0.099,0.217,0.211,0.431,0.3,0.642c0.478,1.128,1.075,2.218,1.766,3.242c0.686,1.014,1.471,1.962,2.33,2.82
		c0.871,0.87,1.822,1.653,2.819,2.326c1.038,0.701,2.129,1.295,3.24,1.765c1.196,0.506,2.403,0.846,3.583,1.087
		c1.368,0.28,2.623,0.377,3.836,0.377h160.209L238,197.729V37.553C238,36.418,238.013,35.092,237.73,33.71z M25.384,36.017
		c0.071-0.302,0.197-0.602,0.258-0.901c0.133-0.646,0.478-1.396,0.845-2.26c0.244-0.58,0.629-1.23,1.183-2.049
		c0.393-0.582,0.905-1.184,1.509-1.788c0.529-0.528,1.139-1.025,1.806-1.476c0.636-0.431,1.329-0.804,2.058-1.112l0.189-0.08
		c0.755-0.321,1.469-0.625,2.074-0.748l0.23-0.163C36.344,25.272,37.106,25,37.742,25h181.432c0.635,0,1.393,0.271,2.194,0.438
		l0.243,0.108c0.77,0.157,1.573,0.503,2.259,0.793c0.64,0.271,1.309,0.658,2.046,1.158c0.605,0.408,1.207,0.917,1.788,1.498
		c0.535,0.536,1.03,1.143,1.473,1.799c0.434,0.642,0.808,1.334,1.112,2.056c0.279,0.66,0.423,1.481,0.583,2.262
		c0.137,0.665,0.128,1.457,0.128,2.44V80H25V37.553C25,37.165,25.244,36.607,25.384,36.017z M35.309,230.766
		c-0.729-0.149-1.488-0.37-2.259-0.696c-0.695-0.294-1.384-0.66-2.049-1.109c-0.63-0.426-1.231-0.918-1.786-1.471
		c-0.543-0.543-1.039-1.143-1.474-1.785c-0.437-0.647-0.811-1.336-1.112-2.05c-0.114-0.271-0.238-0.543-0.365-0.821
		c-0.241-0.529-0.491-1.076-0.565-1.441c-0.062-0.296-0.243-0.595-0.314-0.895c-0.14-0.592-0.384-1.149-0.384-1.538v-68.507V87h206
		v101h-24.211c-0.228,0-0.453-0.059-0.678-0.063c-0.918-0.017-1.959-0.067-3.099,0.166c-0.218,0.044-0.434,0.07-0.647,0.108
		c-0.859,0.155-1.833,0.325-2.878,0.767c-1.106,0.467-2.18,1.046-3.188,1.726c-0.979,0.661-1.911,1.43-2.769,2.287
		c-0.828,0.826-1.572,1.733-2.277,2.776c-0.632,0.936-1.188,1.978-1.7,3.187c-0.533,1.259-0.953,2.491-1.165,3.531
		c-0.261,1.275-0.389,2.495-0.389,3.571V231H37.742C37.006,231,36.21,230.949,35.309,230.766z M195,230.856v-24.809
		c0-0.85,0.128-1.583,0.247-2.163c0.144-0.7,0.394-1.51,0.687-2.201c0.334-0.789,0.712-1.443,1.087-1.998
		c0.45-0.666,0.932-1.236,1.441-1.745c0.543-0.543,1.135-1.025,1.745-1.438c0.634-0.428,1.309-0.792,1.998-1.084
		c0.331-0.14,0.829-0.229,1.402-0.333c0.266-0.048,0.534-0.097,0.804-0.152c0.376-0.077,0.948-0.011,1.552,0.003
		c0.272,0.005,0.548,0.064,0.825,0.064h24.231L195,230.856z"/>
	<path style="fill:#FAFAFA;" d="M74.635,68.873c9.148,0,16.592-7.443,16.592-16.592s-7.443-16.592-16.592-16.592
		c-9.149,0-16.593,7.443-16.593,16.592S65.485,68.873,74.635,68.873z M74.635,42.689c5.289,0,9.592,4.303,9.592,9.592
		s-4.303,9.592-9.592,9.592s-9.593-4.303-9.593-9.592S69.346,42.689,74.635,42.689z"/>
	<path style="fill:#FAFAFA;" d="M183.608,68.873c9.148,0,16.592-7.443,16.592-16.592s-7.443-16.592-16.592-16.592
		s-16.592,7.443-16.592,16.592S174.46,68.873,183.608,68.873z M183.608,42.689c5.289,0,9.592,4.303,9.592,9.592
		s-4.303,9.592-9.592,9.592s-9.592-4.303-9.592-9.592S178.319,42.689,183.608,42.689z"/>
	<path style="fill:#FAFAFA;" d="M176.478,141h-16.354h-16.8l-7.78-18.453l-6.501-15.38l-6.404,15.452L115.014,141h-17.07H81.483
		l11.419,11.735l12.239,12.648l-5.184,18.986l-4.408,16.156l14.6-8.241l18.938-10.683l18.748,10.646l14.473,8.22l-4.248-16.094
		l-5.026-19.045l12.154-12.617L176.478,141z M145.267,163.45l6.026,22.77L129.1,173.585l-22.389,12.61l6.229-22.738L97.944,148
		h21.736l9.42-22.598L138.69,148h21.434L145.267,163.45z"/>
</g>
</svg>
