<?xml version="1.0" encoding="iso-8859-1"?>
<!-- Generator: Adobe Illustrator 19.2.0, SVG Export Plug-In . SVG Version: 6.00 Build 0)  -->
<svg version="1.1" id="Lager_13" xmlns="http://www.w3.org/2000/svg" xmlns:xlink="http://www.w3.org/1999/xlink" x="0px" y="0px"
	 viewBox="0 0 256 256" style="enable-background:new 0 0 256 256;" xml:space="preserve">
<g>
	<path style="fill:#FAFAFA;" d="M129.678,143h0.775c17.991,0,41.924-7.466,56.547-14.402l2-0.948V84H68v43.152l2.226,0.87
		C86.668,134.452,110.72,143,129.678,143z M75,91h107v32.197C167.555,129.704,145.879,136,130.453,136h-0.775
		c-16.963,0-38.879-7.535-54.678-13.632V91z"/>
	<path style="fill:#FAFAFA;" d="M189,32.483l-1.755-1.01c-13.585-7.813-37.1-13.062-58.512-13.062
		c-20.687,0-42.679,4.939-58.829,13.214L68,32.601V73h121V32.483z M182,66H75V36.91c15.014-7.222,34.912-11.499,53.733-11.499
		c19.384,0,40.425,4.447,53.267,11.168V66z"/>
	<path style="fill:#FAFAFA;" d="M31,116.01l2.065,0.929c2.297,1.032,4.706,2.247,7.256,3.533c3.981,2.008,8.098,4.084,12.241,5.688
		l4.689,1.813L57.896,84H31V116.01z M38,91h12.792l-0.39,26.621c-2.318-1.074-4.646-2.249-6.929-3.399
		c-1.886-0.951-3.697-1.864-5.473-2.71V91z"/>
	<path style="fill:#FAFAFA;" d="M200.627,84l-0.107,44.007l4.775-1.848c7.027-2.72,14.176-6.823,18.162-9.511l1.543-1.041V84
		H200.627z M218,111.852c-2.741,1.737-6.475,3.858-10.455,5.727L207.609,91H218V111.852z"/>
	<path style="fill:#FAFAFA;" d="M158.642,189.623C150.732,192.25,136.803,195,129.42,195h-1.923c-7.536,0-19.547-2.909-26.727-5.367
		l-13.677-42.516L68,139.231V238h28.665l6.96-22.877l55.687,0.012l6.96,22.865H192v-98.768l-19.388,7.885L158.642,189.623z
		 M185,149.703V231h-13.543l-6.96-22.875l-66.058,0.009L91.479,231H75v-81.298l6.432,2.725l13.814,42.777l1.558,0.436
		c6.846,2.518,21.205,6.36,30.691,6.36h1.924c8.739,0,25.035-3.349,33.224-6.36l1.596-0.511l14.034-42.739L185,149.703z"/>
</g>
</svg>
