<?xml version="1.0" encoding="iso-8859-1"?>
<!-- Generator: Adobe Illustrator 19.2.0, SVG Export Plug-In . SVG Version: 6.00 Build 0)  -->
<svg version="1.1" id="Lager_13" xmlns="http://www.w3.org/2000/svg" xmlns:xlink="http://www.w3.org/1999/xlink" x="0px" y="0px"
	 viewBox="0 0 256 256" style="enable-background:new 0 0 256 256;" xml:space="preserve">
<path style="fill:#FAFAFA;" d="M187.01,209.888c-1.377-2.424-4.092-3.888-7.05-3.888H173v-24.728c0-8.241-2.334-16.261-6.344-22.87
	l-21.05-30.439c0,0,13.833-18.551,21.132-30.631c3.987-6.597,6.262-14.59,6.262-22.805V50h6.96c2.958,0,5.673-1.413,7.05-3.838
	l9.879-17.374C199.679,23.877,195.833,18,189.84,18H66.098c-5.993,0-9.839,5.929-7.05,10.841l9.88,17.306
	C70.305,48.571,73.019,50,75.977,50H84v24.527c0,8.215,2.082,16.207,6.069,22.805c7.295,12.073,20.957,30.611,20.972,30.631
	l-20.916,30.439C86.115,165.01,84,173.031,84,181.272V206h-8.023c-2.958,0-5.673,1.463-7.05,3.888l-9.879,17.349
	C56.258,232.148,60.105,238,66.098,238H189.84c5.993,0,9.839-5.852,7.05-10.763L187.01,209.888z M75.014,42.705L65.15,25.358
	C65.233,25.238,65.484,25,66.098,25H189.84c0.614,0,0.865,0.291,0.948,0.41l-9.864,17.279C180.829,42.855,180.468,43,179.96,43
	H75.977C75.47,43,75.109,42.871,75.014,42.705z M91,181.272c0-6.877,1.751-13.643,5.002-19.076l20.806-30.266l2.818-4.11
	l-2.967-4.014c-0.135-0.183-13.56-18.449-20.597-30.095C92.775,88.271,91,81.458,91,74.527V50h75v24.527
	c0,6.83-1.925,13.643-5.273,19.185c-7.04,11.651-20.605,29.896-20.741,30.079l-3.007,4.024l2.837,4.125l20.963,30.262
	c3.32,5.546,5.222,12.31,5.222,19.071V206H91V181.272z M189.84,231H66.098c-0.614,0-0.865-0.241-0.948-0.36l9.864-17.304
	c0.094-0.166,0.455-0.336,0.963-0.336H179.96c0.508,0,0.869,0.179,0.963,0.345l9.864,17.322C190.704,230.787,190.453,231,189.84,231
	z"/>
</svg>
