<?xml version="1.0" encoding="iso-8859-1"?>
<!-- Generator: Adobe Illustrator 19.2.0, SVG Export Plug-In . SVG Version: 6.00 Build 0)  -->
<svg version="1.1" id="Lager_13" xmlns="http://www.w3.org/2000/svg" xmlns:xlink="http://www.w3.org/1999/xlink" x="0px" y="0px"
	 viewBox="0 0 256 256" style="enable-background:new 0 0 256 256;" xml:space="preserve">
<g>
	<path style="fill:#FAFAFA;" d="M172.658,172.394c-0.011,0.012-0.024,0.024-0.035,0.037c-0.137,0.153-0.303,0.309-0.471,0.464
		c-0.81,0.726-1.984,1.473-3.341,2.241l-5.251,3.026c-2.458,1.387-4.437,2.726-5.917,4.017c-1.481,1.293-2.522,2.617-3.09,3.971
		c-0.347,0.725-0.553,1.813-0.553,3.262V193h27v-6h-20.078c1.197-1,2.973-2.331,5.305-3.687l5.069-2.741
		c2.3-1.292,4.104-2.425,5.364-3.403c1.26-0.976,2.321-2.14,3.094-3.496c0.771-1.354,1.246-3.021,1.246-5.007
		c0-0.003,0-0.006,0-0.008c0-0.004,0-0.007,0-0.011c0-1.921-0.585-3.641-1.578-5.17c-0.993-1.529-2.503-2.986-4.44-3.885
		c-1.938-0.898-4.301-1.593-7.042-1.593c-0.004,0-0.007,0-0.011,0c-0.004,0-0.008,0-0.011,0c-2.836,0-5.247,0.744-7.232,1.738
		c-1.986,0.992-3.499,2.685-4.539,4.339c-0.78,1.241-1.303,2.257-1.569,3.922c-0.089,0.555-0.149,1.22-0.18,1.97
		c0.013-0.3,0.034-0.565,0.056-0.827c-0.022,0.277-0.043,0.558-0.056,0.858h7.233c0.219-2,0.896-3.262,1.936-4.381
		c0.374-0.403,0.816-0.762,1.317-1.061c0.864-0.473,1.907-0.739,3.129-0.739c1.702,0,3.246,0.364,4.271,1.214
		c1.023,0.851,1.717,1.909,1.717,3.295v0.851C174,170.44,173.431,171.512,172.658,172.394z"/>
	<path style="fill:#FAFAFA;" d="M135.303,112.216c7.052-1.193,13.654-2.79,19.617-4.761c0.607,0.217,1.217,0.432,1.807,0.658
		c7.141,2.73,12.584,5.908,16.024,9.255c3.594-0.679,7.297-1.049,11.088-1.049c0.908,0,1.809,0.028,2.708,0.068
		c0.625-4.121,0.953-8.339,0.953-12.633c0-8.847-1.387-17.373-3.938-25.386c-0.202-0.84-0.498-1.667-0.844-2.488
		c-11.517-32.578-42.609-55.989-79.081-55.989c-36.474,0-67.568,23.413-79.083,55.994c-0.343,0.816-0.637,1.638-0.838,2.473
		c-2.553,8.016-3.941,16.545-3.941,25.396s1.388,17.38,3.941,25.396c0.201,0.834,0.495,1.657,0.838,2.473
		c11.516,32.581,42.609,55.994,79.083,55.994c7.415,0,14.603-0.978,21.455-2.793c-0.356-2.322-0.56-4.693-0.638-7.095
		c-2.276,0.642-4.594,1.18-6.95,1.611c2.831-3.429,5.433-7.953,7.737-13.489c0.962-5.733,2.737-11.188,5.216-16.24
		c-0.009,0.001-0.017,0.003-0.026,0.004C133.138,138.478,134.809,125.699,135.303,112.216z M135.448,105.098
		c0.003-0.448,0.012-0.894,0.012-1.343s-0.009-0.895-0.012-1.343c2.271,0.404,4.491,0.851,6.649,1.343
		C139.939,104.247,137.719,104.693,135.448,105.098z M179.71,92.825c0.511,3.572,0.79,7.219,0.79,10.93s-0.279,7.358-0.79,10.93
		c-3.3-4.046-8.46-7.748-15.323-10.93C171.249,100.573,176.409,96.871,179.71,92.825z M176.111,78.188
		c0.225,0.636,0.442,1.275,0.65,1.919c0.135,0.598,0.224,1.195,0.224,1.791c0,6.201-7.384,12.579-20.258,17.5
		c-0.59,0.226-1.201,0.441-1.807,0.658c-5.963-1.971-12.565-3.568-19.617-4.761c-0.494-13.483-2.165-26.262-4.871-37.4
		c9.766,1.416,18.716,3.607,26.295,6.503C167.04,68.339,173.818,73.216,176.111,78.188z M168.034,61.868
		c-2.637-1.426-5.566-2.77-8.808-4.009c-8.821-3.372-19.346-5.839-30.804-7.297c-0.467-1.524-0.949-3.021-1.46-4.461
		c-2.696-7.604-5.901-13.621-9.46-17.931C138.607,32.032,156.719,44.532,168.034,61.868z M128.254,94.255
		c-7.849-0.992-16.13-1.515-24.616-1.515s-16.767,0.523-24.616,1.515c0.602-14.292,2.531-26.938,5.268-37.274
		c6.232-0.627,12.719-0.956,19.348-0.956c6.629,0,13.116,0.33,19.348,0.956C125.723,67.317,127.652,79.964,128.254,94.255z
		 M103.638,27.374c6.022,0,12.392,8.268,17.173,22.381c-5.58-0.476-11.327-0.729-17.173-0.729s-11.593,0.253-17.173,0.729
		C91.246,35.642,97.617,27.374,103.638,27.374z M89.772,28.169c-3.558,4.31-6.763,10.327-9.459,17.931
		c-0.51,1.44-0.992,2.937-1.46,4.461c-11.458,1.459-21.983,3.925-30.805,7.298c-3.242,1.239-6.171,2.583-8.808,4.009
		C50.557,44.532,68.668,32.032,89.772,28.169z M30.515,80.103c0.208-0.641,0.424-1.278,0.648-1.911
		c2.292-4.973,9.07-9.851,19.385-13.794c7.58-2.897,16.529-5.088,26.296-6.503c-2.706,11.137-4.377,23.917-4.871,37.4
		c-7.053,1.193-13.655,2.79-19.618,4.761c-0.606-0.217-1.217-0.432-1.807-0.658c-12.874-4.921-20.258-11.299-20.258-17.5
		C30.291,81.3,30.38,80.702,30.515,80.103z M71.828,105.098c-2.271-0.404-4.491-0.851-6.649-1.343
		c2.158-0.492,4.378-0.939,6.649-1.343c-0.003,0.448-0.012,0.894-0.012,1.343S71.826,104.65,71.828,105.098z M27.566,114.685
		c-0.511-3.573-0.791-7.219-0.791-10.931s0.279-7.358,0.791-10.931c3.3,4.047,8.46,7.748,15.323,10.931
		C36.026,106.937,30.866,110.639,27.566,114.685z M31.163,129.319c-0.224-0.634-0.44-1.271-0.648-1.912
		c-0.135-0.599-0.225-1.198-0.225-1.795c0-6.201,7.384-12.579,20.258-17.5c0.59-0.226,1.201-0.441,1.807-0.658
		c5.963,1.971,12.565,3.568,19.618,4.761c0.494,13.483,2.165,26.263,4.871,37.4c-9.766-1.416-18.716-3.607-26.296-6.503
		C40.234,139.171,33.456,134.292,31.163,129.319z M39.242,145.642c2.637,1.427,5.566,2.771,8.808,4.01
		c8.822,3.372,19.346,5.838,30.804,7.297c0.467,1.524,0.949,3.021,1.46,4.461c2.696,7.604,5.9,13.621,9.458,17.931
		C68.668,175.477,50.557,162.978,39.242,145.642z M103.638,180.137c-6.022,0-12.392-8.268-17.173-22.382
		c5.58,0.476,11.327,0.729,17.173,0.729s11.593-0.253,17.173-0.729C116.03,171.868,109.66,180.137,103.638,180.137z
		 M122.986,150.528c-6.232,0.627-12.719,0.956-19.348,0.956c-6.629,0-13.116-0.33-19.348-0.956
		c-2.737-10.335-4.666-22.982-5.268-37.274c7.849,0.992,16.13,1.515,24.616,1.515s16.767-0.523,24.616-1.515
		C127.652,127.546,125.723,140.193,122.986,150.528z M128.438,106.181c-7.859,1.042-16.213,1.588-24.8,1.588
		c-8.587,0-16.941-0.547-24.8-1.588c-0.009-0.807-0.022-1.61-0.022-2.426s0.013-1.619,0.022-2.426
		c7.859-1.042,16.212-1.588,24.8-1.588c8.587,0,16.941,0.547,24.8,1.588c0.009,0.807,0.022,1.61,0.022,2.426
		S128.446,105.374,128.438,106.181z"/>
	<path style="fill:#FAFAFA;" d="M199.825,159L185,180.571V186h17v7h7v-7h5v-5h-5v-22H199.825z M202,181h-10.352L202,165.35V181z"/>
	<path style="fill:#FAFAFA;" d="M236.099,176.299c0-28.516-23.199-51.715-51.714-51.715c-28.516,0-51.715,23.199-51.715,51.715
		c0,11.485,3.687,22.361,10.661,31.453l5.555-4.262c-6.029-7.857-9.216-17.261-9.216-27.191c0-24.656,20.059-44.715,44.715-44.715
		c24.655,0,44.714,20.059,44.714,44.715c0,24.365-19.592,44.227-43.848,44.692l8.845-8.906l-7.14,0.041l-12.367,12.449l10.65,10.58
		l1.8,1.788l7.142-0.012l-2.311-2.295l-6.687-6.642C213.329,227.563,236.099,204.546,236.099,176.299z"/>
</g>
</svg>
