<?xml version="1.0" encoding="iso-8859-1"?>
<!-- Generator: Adobe Illustrator 19.2.0, SVG Export Plug-In . SVG Version: 6.00 Build 0)  -->
<svg version="1.1" id="Lager_13" xmlns="http://www.w3.org/2000/svg" xmlns:xlink="http://www.w3.org/1999/xlink" x="0px" y="0px"
	 viewBox="0 0 256 256" style="enable-background:new 0 0 256 256;" xml:space="preserve">
<g>
	<path style="fill:#FAFAFA;" d="M28,204.991V28h141v46h10V18H18v186.991C18,215.276,27.934,225,38.44,225H140v-10H38.44
		C33.366,215,28,209.855,28,204.991z"/>
	<rect x="44" y="63" style="fill:#FAFAFA;" width="107" height="10"/>
	<rect x="45" y="100" style="fill:#FAFAFA;" width="61" height="10"/>
	<rect x="45" y="138" style="fill:#FAFAFA;" width="52" height="10"/>
	<path style="fill:#FAFAFA;" d="M172.733,81.429c-35.962,0-65.22,29.258-65.22,65.22s29.258,65.219,65.22,65.219
		s65.219-29.257,65.219-65.219S208.695,81.429,172.733,81.429z M172.733,201.867c-30.448,0-55.22-24.771-55.22-55.219
		c0-30.448,24.771-55.22,55.22-55.22c30.447,0,55.219,24.771,55.219,55.22C227.952,177.096,203.181,201.867,172.733,201.867z"/>
	<polygon style="fill:#FAFAFA;" points="165.362,158.977 147.807,143.303 141.146,150.762 165.878,172.844 210.744,126.342 
		203.547,119.398 	"/>
</g>
</svg>
