<?xml version="1.0" encoding="iso-8859-1"?>
<!-- Generator: Adobe Illustrator 19.2.0, SVG Export Plug-In . SVG Version: 6.00 Build 0)  -->
<svg version="1.1" id="Lager_6" xmlns="http://www.w3.org/2000/svg" xmlns:xlink="http://www.w3.org/1999/xlink" x="0px" y="0px"
	 viewBox="0 0 256 256" style="enable-background:new 0 0 256 256;" xml:space="preserve">
<g>
	<path style="fill:#FAFAFA;" d="M128.182,35.869c-0.061,0-0.121,0.002-0.182,0.002V18.07C67,18.07,18.02,67,18.02,128H36h0.119
		c0.037,50.733,41.321,91.996,92.063,91.996c50.764,0,92.064-41.299,92.064-92.064C220.246,77.169,178.946,35.869,128.182,35.869z
		 M28.516,118C33.22,71,71,33.271,118,28.566v7.869v10.814v5.102C84,56.833,56.783,84,52.301,118h-4.835H36.655H28.516z
		 M128.182,209.276c-44.831,0-81.305-36.454-81.342-81.276h14.809C61.648,91,91,61.699,128,61.699V46.594
		c0.061,0,0.121-0.005,0.182-0.005c44.854,0,81.344,36.49,81.344,81.343C209.526,172.786,173.035,209.276,128.182,209.276z"/>
	<path style="fill:#FAFAFA;" d="M127.9,70.189c-31.684,0-57.461,25.778-57.461,57.462s25.777,57.461,57.461,57.461
		c31.684,0,57.462-25.777,57.462-57.461S159.584,70.189,127.9,70.189z M127.9,174.393c-25.774,0-46.741-20.967-46.741-46.741
		s20.967-46.742,46.741-46.742c25.774,0,46.742,20.969,46.742,46.742S153.674,174.393,127.9,174.393z"/>
	<path style="fill:#FAFAFA;" d="M127.62,103.168c-13.656,0-24.766,11.109-24.766,24.764c0,13.656,11.109,24.765,24.766,24.765
		c13.655,0,24.764-11.109,24.764-24.765C152.384,114.277,141.275,103.168,127.62,103.168z M127.62,141.978
		c-7.745,0-14.046-6.301-14.046-14.046c0-7.745,6.301-14.045,14.046-14.045s14.045,6.3,14.045,14.045
		C141.664,135.677,135.364,141.978,127.62,141.978z"/>
	<circle style="fill:#FAFAFA;" cx="127.776" cy="92.069" r="6.101"/>
	<circle style="fill:#FAFAFA;" cx="127.776" cy="163.774" r="6.101"/>
	<circle style="fill:#FAFAFA;" cx="91.924" cy="127.922" r="6.101"/>
	<circle style="fill:#FAFAFA;" cx="163.628" cy="127.922" r="6.101"/>
	
		<ellipse transform="matrix(0.7071 -0.7071 0.7071 0.7071 -78.3807 117.3177)" style="fill:#FAFAFA;" cx="102.425" cy="153.273" rx="6.101" ry="6.101"/>
	
		<ellipse transform="matrix(0.7071 -0.7071 0.7071 0.7071 -27.6782 138.3193)" style="fill:#FAFAFA;" cx="153.127" cy="102.57" rx="6.101" ry="6.101"/>
	
		<ellipse transform="matrix(0.7071 -0.7071 0.7071 0.7071 -42.5286 102.4673)" style="fill:#FAFAFA;" cx="102.425" cy="102.57" rx="6.101" ry="6.101"/>
	
		<ellipse transform="matrix(0.7071 -0.7071 0.7071 0.7071 -63.5303 153.1697)" style="fill:#FAFAFA;" cx="153.127" cy="153.273" rx="6.101" ry="6.101"/>
</g>
</svg>
