<?xml version="1.0" encoding="utf-8"?>
<!-- Generator: Adobe Illustrator 21.0.0, SVG Export Plug-In . SVG Version: 6.00 Build 0)  -->
<svg version="1.1" id="Layer_1" xmlns="http://www.w3.org/2000/svg" xmlns:xlink="http://www.w3.org/1999/xlink" x="0px" y="0px"
	 width="256px" height="256px" viewBox="0 0 256 256" style="enable-background:new 0 0 256 256;" xml:space="preserve">
<style type="text/css">
	.st0{clip-path:url(#SVGID_2_);fill:#FAFAFA;}
</style>
<g>
	<defs>
		<rect id="SVGID_1_" width="256" height="256"/>
	</defs>
	<clipPath id="SVGID_2_">
		<use xlink:href="#SVGID_1_"  style="overflow:visible;"/>
	</clipPath>
	<path class="st0" d="M172.3,98.7c-1.9-0.4-4.2-0.4-6.8-0.4c-10.7,0-20.5,2.3-29.7,7.2s-16,11.4-21.3,19.8
		c-5.3,8.4-7.6,17.5-7.6,27.4c0,4.9,0.8,9.9,2.3,14.5c-2.3,0.4-4.6,0.4-6.5,0.4c-1.5,0-3.4,0-4.9,0c-1.5,0-3.4-0.4-5.3-0.8
		c-1.9-0.4-3.4-0.4-4.2-0.8c-0.8,0-2.7-0.4-5.3-1.1c-2.7-0.4-4.2-0.8-4.9-1.1l-24.4,12.2l6.8-20.9C42.6,142.8,33,127.2,33,109
		c0-10.7,3-20.5,9.1-29.7c6.5-9.1,14.8-16.4,25.5-21.7S89.7,50,102.3,50c11,0,21.7,2.3,31.6,6.5S152.1,66.4,159,74
		C165.8,81.2,170.4,89.6,172.3,98.7z M86.3,94.5c1.5-1.5,2.3-3.8,2.3-6.1c0-2.7-0.8-4.6-2.3-6.5c-1.5-1.5-3.8-2.3-6.5-2.3
		c-2.7,0-5.3,0.8-7.2,2.3c-2.3,1.5-3,3.8-3,6.1c0,2.7,1.1,4.6,3,6.1c2.3,1.5,4.6,2.3,7.2,2.3C82.5,96.8,84.4,96,86.3,94.5z
		 M229,152.4c0,7.6-2.3,14.5-6.5,21.3c-4.6,6.8-10.7,12.9-17.9,18.3L210,209l-19-10.3c-9.5,2.3-16.4,3.4-20.9,3.4
		c-10.7,0-20.5-2.3-29.7-6.8s-16-10.7-21.3-18.3c-5.3-7.6-7.6-16-7.6-25.1c0-9.1,2.7-17.5,7.6-25.1c5.3-7.6,12.2-13.7,21.3-18.3
		c9.1-4.6,19-6.8,29.7-6.8c10.3,0,19.8,2.3,28.9,6.8c9.1,4.6,16.4,10.7,21.7,18.3C226,134.9,229,143.2,229,152.4z M134.6,94.5
		c1.5-1.5,2.3-3.8,2.3-6.1c0-2.7-0.8-4.6-2.3-6.5c-1.5-1.5-3.8-2.3-6.1-2.3c-2.7,0-5.3,0.8-7.2,2.3c-2.3,1.5-3,3.8-3,6.1
		c0,2.7,1.1,4.6,3,6.1c2.3,1.5,4.6,2.3,7.2,2.3C131.2,96.8,133.1,96,134.6,94.5z M159.7,136.8c0-1.9-0.8-3.4-2.3-4.9
		c-1.5-1.5-3.8-2.3-6.1-2.3c-1.9,0-3.4,0.8-4.6,2.3c-1.5,1.5-2.3,3-2.3,4.6c0,1.9,0.8,3.4,2.3,4.9c1.5,1.5,3,2.3,4.6,2.3
		c2.7,0,4.6-0.8,6.1-2.3C158.6,140.2,159.7,138.3,159.7,136.8z M197.8,136.8c0-1.9-0.8-3.4-2.7-4.9c-1.5-1.5-3.8-2.3-6.1-2.3
		c-1.9,0-3.4,0.8-4.6,2.3c-1.5,1.5-2.3,3-2.3,4.6c0,1.9,0.8,3.4,2.3,4.9c1.5,1.5,3,2.3,4.6,2.3c2.7,0,4.6-0.8,6.1-2.3
		C197,140.2,197.8,138.3,197.8,136.8z"/>
</g>
</svg>
