<?xml version="1.0" encoding="utf-8"?>
<!-- Generator: Adobe Illustrator 21.0.0, SVG Export Plug-In . SVG Version: 6.00 Build 0)  -->
<svg version="1.1" id="Layer_1" xmlns="http://www.w3.org/2000/svg" xmlns:xlink="http://www.w3.org/1999/xlink" x="0px" y="0px"
	 width="256px" height="256px" viewBox="0 0 256 256" style="enable-background:new 0 0 256 256;" xml:space="preserve">
<style type="text/css">
	.st0{clip-path:url(#SVGID_2_);fill:#FAFAFA;}
</style>
<g>
	<defs>
		<rect id="SVGID_1_" width="256" height="256"/>
	</defs>
	<clipPath id="SVGID_2_">
		<use xlink:href="#SVGID_1_"  style="overflow:visible;"/>
	</clipPath>
	<path class="st0" d="M118.9,62.7c-2.8,0-5.6,0.7-7.9,2.4c-5.3,3.6-8.2,14.8-11.7,22.8c-3.9,8.8-7.3,17.6-11.1,24
		c-10.2-11.6-17.2-37.4-29.6-46.8c-4-3-12.7-3-16.6,0c-10.6,8,0,22.2,4.3,29.6c9.4,16.3,19.8,33.7,27.7,48.7
		c-5.2,13.6-31.2,52.1,3.7,49.9c8.5-5.5,12-16.8,16.6-27.1c9.4-21.1,17.4-39.2,27.1-61c4-9,13.8-22.4,11.7-32.7
		C132,66.7,125.4,62.7,118.9,62.7L118.9,62.7z M203.4,71c-5.1,0.1-10.1,2.4-12.4,7c-3.6,4.2-7.6,8.1-11.7,11.7
		c-2,2.5-4.3,4.8-6.8,6.8c-2.9,3-5.3,6.6-9.2,8.6v-24c-0.1-13.1-24.6-13.1-24.6,0v68.4c1.1,4.9,3.3,8.6,8.6,9.2h7.4
		c5.1-0.9,8-4,8.6-9.2v-14.8c0-5.1-1-13.8,2.5-8.6c5,4.9,12.1,10.2,18.5,16c6.1,5.6,12,14.6,18.5,16c13.2,2.8,19.1-9.9,14.2-19.1
		c-5.2-9.8-20.1-16-26.5-24.7c4.3-9.9,27.9-16,25.9-33.3C215.5,74.3,209.5,71,203.4,71L203.4,71L203.4,71z"/>
</g>
</svg>
