<?xml version="1.0" encoding="iso-8859-1"?>
<!-- Generator: Adobe Illustrator 19.2.0, SVG Export Plug-In . SVG Version: 6.00 Build 0)  -->
<svg version="1.1" id="Guide" xmlns="http://www.w3.org/2000/svg" xmlns:xlink="http://www.w3.org/1999/xlink" x="0px" y="0px"
	 viewBox="0 0 256 256" style="enable-background:new 0 0 256 256;" xml:space="preserve">
<g>
	<path id="u_2_" style="fill:#FAFAFA;" d="M100.189,156.418h-8.351v-4.835c-3.166,3.629-5.849,5.461-8.775,5.461
		c-2.567,0-4.349-1.211-5.242-3.398c-0.543-1.33-0.927-3.407-0.927-6.458v-35.161h8.351v32.963c0,1.864,0,2.637,0,3.077
		c0.195,1.234,0.719,1.684,1.78,1.684c1.598,0,3.045-1.389,4.812-3.882v-33.842h8.351V156.418z"/>
	<path id="o_2_" style="fill:#FAFAFA;" d="M70.741,126.531c0-4.744-0.953-8.306-2.637-10.548c-2.225-3.036-5.714-4.279-9.23-4.279
		c-3.98,0-7.008,1.243-9.23,4.279c-1.711,2.242-2.629,5.843-2.629,10.587l-0.008,15.784c0,4.717,0.816,7.976,2.527,10.197
		c2.221,3.027,5.823,4.63,9.339,4.63s7.181-1.604,9.406-4.63c1.684-2.221,2.461-5.48,2.461-10.197V126.531z M62.391,143.232
		c0.44,4.395-0.924,6.576-3.517,6.576c-2.593,0-3.955-2.181-3.515-6.576v-17.58c-0.44-4.395,0.923-6.455,3.516-6.455
		c2.593,0,3.96,2.06,3.52,6.455L62.391,143.232z"/>
	<path id="y_2_" style="fill:#FAFAFA;" d="M37.778,132.245v24.173h-8.79v-24.173c0,0-9.109-29.637-10.988-35.161h9.23l6.168,23.151
		l6.138-23.151h9.23L37.778,132.245z"/>
	<g>
		<path style="fill:#FAFAFA;" d="M236.792,101.878c0,0-1.231-9.003-5.166-12.968c-4.99-5.203-10.56-5.257-13.124-5.561
			C200.136,82.027,172.613,82,172.613,82h-0.057c0,0-27.549,0.027-45.914,1.349c-2.566,0.304-8.158,0.344-13.15,5.547
			c-3.935,3.965-5.197,12.975-5.197,12.975S107,112.45,107,123.023v9.912c0,10.572,1.294,21.145,1.294,21.145
			s1.272,9.003,5.207,12.968c4.992,5.205,11.546,5.039,14.467,5.584c10.499,1.003,44.619,1.313,44.619,1.313
			s27.576-0.041,45.941-1.362c2.565-0.305,8.16-0.331,13.15-5.535c3.935-3.965,5.115-12.968,5.115-12.968S238,143.508,238,132.936
			v-9.912C238,112.45,236.792,101.878,236.792,101.878z M136,156h-9v-50h-9v-8.467l27-0.009V106h-9V156z M167,156h-8v-4.417
			c-3,3.629-5.808,5.461-8.733,5.461c-2.567,0-4.398-1.211-5.291-3.398c-0.542-1.33-0.976-3.407-0.976-6.458V112h8v32.99
			c0,1.865,0,2.637,0,3.077c0,0.792,0.922,1.684,1.984,1.684c1.598,0,3.016-1.389,5.016-3.882V112h8V156z M198,143.232
			c0,4.062-0.468,6.928-0.999,8.79c-1.062,3.265-3.437,4.962-6.605,4.962c-2.829,0-5.758-1.911-8.417-5.201L181.938,156H174V98
			h7.938l-0.009,18.963c2.57-3.162,5.48-5.082,8.407-5.082c3.168,0,5.418,1.771,6.48,5.06c0.531,1.767,1.185,4.551,1.185,8.711
			V143.232z M215.05,149.751c1.959,0,3.197-1.083,3.651-3.21c0.074-0.434,0.156-2.541,0.156-5.541H227v1.28
			c0,2.564-0.108,4.379-0.179,5.175c-0.269,1.764-0.842,3.36-1.809,4.768c-2.201,3.189-5.441,4.761-9.598,4.761
			c-4.162,0-7.335-1.498-9.636-4.499c-1.69-2.198-2.778-5.465-2.778-10.132v-15.383c0-4.694,1.003-8.323,2.694-10.544
			c2.301-3.005,5.478-4.596,9.54-4.596c3.992,0,7.164,1.591,9.395,4.596c1.664,2.222,2.59,5.775,2.59,10.469l0.004,9.105H211v7.653
			C211,147.709,212.319,149.751,215.05,149.751z"/>
		<path style="fill:#FAFAFA;" d="M219,124.37c0-4.062-1.314-5.283-3.952-5.283c-2.658,0-4.048,1.12-4.048,5.228v4.861l8-0.008
			V124.37z"/>
		<path style="fill:#FAFAFA;" d="M185.874,119.087c-1.31,0-2.708,0.691-4.039,2.005l0.042,26.654
			c1.331,1.331,2.661,2.005,3.971,2.005c2.295,0,3.152-1.684,3.152-6.079v-18.899C189,120.378,188.168,119.087,185.874,119.087z"/>
	</g>
</g>
</svg>
