<?xml version="1.0" encoding="utf-8"?>
<!-- Generator: Adobe Illustrator 21.0.0, SVG Export Plug-In . SVG Version: 6.00 Build 0)  -->
<svg version="1.1" id="Layer_1" xmlns="http://www.w3.org/2000/svg" xmlns:xlink="http://www.w3.org/1999/xlink" x="0px" y="0px"
	 width="256px" height="256px" viewBox="0 0 256 256" style="enable-background:new 0 0 256 256;" xml:space="preserve">
<style type="text/css">
	.st0{clip-path:url(#SVGID_2_);fill:#FAFAFA;}
</style>
<g>
	<defs>
		<rect id="SVGID_1_" width="256" height="256"/>
	</defs>
	<clipPath id="SVGID_2_">
		<use xlink:href="#SVGID_1_"  style="overflow:visible;"/>
	</clipPath>
	<path class="st0" d="M202.2,152.1c0,5.1-1.2,10.3-4,15.4c-2.8,5.1-6.7,10.3-11.9,15s-11.5,9.1-18.6,13.1c-7.1,4-15.4,6.7-24.9,9.1
		c-9.5,2.4-19.4,3.6-29.7,3.6s-20.6-1.2-30.5-3.6s-18.6-5.9-26.5-10.3s-14.2-9.9-19-16.6c-4.7-6.7-7.1-14.2-7.1-22.2
		c0-8.3,2.4-17.4,7.5-26.9s12.3-19,21.8-28.5c12.3-12.3,24.9-21,37.6-26.1c12.7-4.7,21.8-4.7,27.3,0.8c4.7,4.7,5.5,12.3,2.4,23
		c-0.4,1.2-0.4,1.6,0,2.4c0.4,0.4,0.4,0.8,1.2,0.8c0.4,0,1.2,0,1.6,0c0.4,0,1.2-0.4,1.6-0.4l0.8-0.4c10.3-4.4,19.4-6.3,27.3-6.3
		c7.9,0,13.5,2.4,17,6.7c3.2,4.7,3.2,11.1,0,19.8c0,0.8-0.4,1.6-0.4,2.4c0,0.4,0,0.8,0.4,1.2c0.4,0.4,0.8,0.8,1.2,0.8
		c0.4,0,1.2,0.4,2,0.8c4.4,1.2,7.9,3.2,11.5,5.1s6.3,5.1,8.7,9.1C201.8,143.7,202.2,147.7,202.2,152.1z M168.1,151.7
		c-0.8-7.1-4-13.5-9.9-18.6c-5.9-5.5-13.5-9.5-23-11.9c-9.5-2.8-19.4-3.2-30.5-2.4c-16.2,1.6-30.1,6.7-40.8,15.4
		s-15.8,18.6-14.6,29.3c0.8,7.1,4,13.5,9.9,18.6c5.9,5.5,13.5,9.5,23,11.9c9.5,2.8,19.4,3.2,30.5,2.4c16.2-1.6,30.1-6.7,40.8-15.4
		C164.2,172.2,168.9,162.3,168.1,151.7z M133.7,169.5c-3.2,7.5-9.1,13.1-17.4,16.6c-8.3,3.6-16.6,4-24.5,1.2
		c-7.9-2.4-13.5-7.1-16.2-13.9c-3.2-6.7-2.8-13.9,0.8-20.6c3.6-6.7,9.1-11.9,16.6-15.4c7.5-3.6,15.4-4,23.3-2
		c8.3,2,13.9,6.7,17.4,13.1C136.9,155.2,136.9,162,133.7,169.5z M104,171.1c1.6-2.4,2-5.1,1.2-7.5c-0.8-2.8-2.4-4.4-5.1-5.5
		c-2.4-1.2-5.1-1.2-7.9,0s-5.1,2.8-6.7,5.1s-2,5.1-1.6,7.5c0.8,2.4,2.4,4.4,4.7,5.5s5.1,1.2,8.3,0.4
		C100,175.4,102.4,173.4,104,171.1z M114.3,157.6c0.4-0.8,0.8-2,0.4-2.8c-0.4-1.2-0.8-1.6-2-2c-1.2-0.4-2-0.4-3.2,0
		c-1.2,0.4-2,1.2-2.4,2c-1.2,2.4-0.8,4,1.6,5.1c1.2,0.4,2,0.4,3.2,0C113.1,159.2,113.9,158.4,114.3,157.6z M213.6,65.4
		c6.3,7.1,10.7,15.4,12.3,24.5c2,9.5,1.2,18.2-1.6,26.5c-0.8,2-2,3.6-3.6,4.4c-2,0.8-3.6,1.2-5.9,0.4c-2-0.8-3.6-2-4.4-3.6
		c-0.8-2-1.2-3.6-0.4-5.9c2-5.9,2.4-12.3,1.2-19s-4.4-12.3-8.7-17.4c-4.7-5.1-9.9-8.7-16.2-10.7c-6.3-2-12.7-2.4-19-0.8
		c-2,0.4-4,0-5.9-1.2c-1.6-1.2-2.8-2.8-3.2-4.7c-0.4-2,0-4,1.2-5.5c1.2-1.6,2.8-2.8,4.7-3.2c9.1-2,18.2-1.6,26.9,1.2
		C199.8,53.1,207.3,58.3,213.6,65.4z M182.8,76.1c4.4,1.2,7.9,4,11.1,7.1c3.2,3.2,5.1,7.5,5.9,11.9c0.8,4.4,0.8,8.7-0.8,13.1
		c-0.4,1.6-1.6,2.8-3.2,3.6c-1.6,0.8-3.2,0.8-4.7,0.4s-2.8-1.6-3.6-3.2c-0.8-1.6-0.8-3.2-0.4-4.7c1.6-4.7,0.4-8.7-2.8-12.3
		c-3.2-3.6-7.1-4.7-11.9-4c-1.6,0.4-3.6,0-5.1-0.8c-1.6-0.8-2.4-2.4-2.8-4c-0.4-1.6,0-3.6,0.8-4.7c0.8-1.6,2.4-2.4,4-2.8
		C174.1,74.5,178.4,74.9,182.8,76.1z"/>
</g>
</svg>
