<?xml version="1.0" encoding="utf-8"?>
<!-- Generator: Adobe Illustrator 16.0.3, SVG Export Plug-In . SVG Version: 6.00 Build 0)  -->
<!DOCTYPE svg PUBLIC "-//W3C//DTD SVG 1.1//EN" "http://www.w3.org/Graphics/SVG/1.1/DTD/svg11.dtd">
<svg version="1.1" id="Layer_1" xmlns="http://www.w3.org/2000/svg" xmlns:xlink="http://www.w3.org/1999/xlink" x="0px" y="0px"
	 width="256px" height="256px" viewBox="0 0 256 256" enable-background="new 0 0 256 256" xml:space="preserve">
<polygon fill="#FAFAFA" points="127.572,134.435 73.275,80.137 78.224,75.188 127.619,124.583 155.93,96.81 160.832,101.806 "/>
<g>
	<defs>
		<rect id="SVGID_1_" width="256" height="256"/>
	</defs>
	<clipPath id="SVGID_2_">
		<use xlink:href="#SVGID_1_"  overflow="visible"/>
	</clipPath>
	<path clip-path="url(#SVGID_2_)" fill="#FAFAFA" d="M128.004,25C184.796,25,231,71.204,231,127.996
		C231,184.793,184.796,231,128.004,231C71.207,231,25,184.793,25,127.996C25,71.204,71.207,25,128.004,25 M128.004,18
		C67.248,18,18,67.248,18,127.996C18,188.745,67.248,238,128.004,238C188.752,238,238,188.745,238,127.996
		C238,67.248,188.752,18,128.004,18"/>
</g>
</svg>
