<?xml version="1.0" encoding="utf-8"?>
<!-- Generator: Adobe Illustrator 16.0.3, SVG Export Plug-In . SVG Version: 6.00 Build 0)  -->
<!DOCTYPE svg PUBLIC "-//W3C//DTD SVG 1.1//EN" "http://www.w3.org/Graphics/SVG/1.1/DTD/svg11.dtd">
<svg version="1.1" id="Layer_1" xmlns="http://www.w3.org/2000/svg" xmlns:xlink="http://www.w3.org/1999/xlink" x="0px" y="0px"
	 width="256px" height="256px" viewBox="0 0 256 256" enable-background="new 0 0 256 256" xml:space="preserve">
<g>
	<defs>
		<rect id="SVGID_1_" width="256" height="256"/>
	</defs>
	<clipPath id="SVGID_2_">
		<use xlink:href="#SVGID_1_"  overflow="visible"/>
	</clipPath>
	<path clip-path="url(#SVGID_2_)" fill="#FAFAFA" d="M157.938,165.684l-3.92-5.799c2.025-1.369,3.928-2.938,5.655-4.666
		c1.732-1.733,3.302-3.636,4.665-5.655c1.378-2.039,2.563-4.221,3.521-6.485c0.976-2.304,1.723-4.715,2.226-7.165
		c0.514-2.514,0.774-5.104,0.774-7.701c0-2.595-0.261-5.186-0.774-7.7c-0.503-2.45-1.25-4.861-2.226-7.165
		c-0.958-2.264-2.142-4.446-3.521-6.486c-1.363-2.019-2.934-3.922-4.666-5.655c-1.727-1.727-3.629-3.296-5.654-4.666l3.92-5.798
		c2.394,1.617,4.643,3.473,6.685,5.515c2.048,2.049,3.903,4.298,5.517,6.686c1.631,2.414,3.033,4.997,4.167,7.677
		c1.154,2.73,2.041,5.585,2.635,8.488c0.609,2.974,0.918,6.038,0.918,9.104c0,3.067-0.309,6.13-0.918,9.105
		c-0.594,2.902-1.48,5.758-2.635,8.487c-1.135,2.682-2.536,5.265-4.168,7.678c-1.611,2.387-3.467,4.637-5.515,6.686
		C162.58,162.21,160.331,164.066,157.938,165.684"/>
	<path clip-path="url(#SVGID_2_)" fill="#FAFAFA" d="M174.392,189.679l-3.92-5.801c3.583-2.421,6.951-5.2,10.011-8.259
		c3.059-3.06,5.838-6.428,8.259-10.011c2.443-3.616,4.541-7.481,6.233-11.484c1.726-4.078,3.051-8.348,3.939-12.688
		c0.912-4.456,1.373-9.043,1.373-13.632c0-4.588-0.461-9.175-1.373-13.632c-0.889-4.34-2.214-8.608-3.939-12.686
		c-1.692-4.005-3.79-7.87-6.233-11.487c-2.421-3.583-5.2-6.951-8.259-10.008c-3.063-3.063-6.43-5.842-10.01-8.26l3.918-5.801
		c3.949,2.668,7.664,5.733,11.041,9.11c3.374,3.373,6.438,7.087,9.11,11.041c2.696,3.992,5.011,8.257,6.88,12.677
		c1.905,4.504,3.369,9.219,4.35,14.012c1.007,4.917,1.516,9.975,1.516,15.034c0,5.059-0.509,10.118-1.516,15.035
		c-0.98,4.794-2.444,9.509-4.35,14.013c-1.869,4.418-4.184,8.683-6.88,12.676c-2.672,3.953-5.736,7.667-9.11,11.041
		S178.344,187.008,174.392,189.679"/>
	<path clip-path="url(#SVGID_2_)" fill="#FAFAFA" d="M191.53,215.507l-3.918-5.801c5.203-3.515,10.098-7.554,14.547-12.002
		c4.448-4.449,8.486-9.344,12.002-14.547c3.55-5.254,6.599-10.869,9.061-16.692c2.508-5.928,4.434-12.133,5.725-18.441
		c1.325-6.475,1.997-13.14,1.997-19.811s-0.672-13.336-1.997-19.81c-1.291-6.309-3.217-12.514-5.725-18.443
		c-2.462-5.822-5.511-11.438-9.061-16.692c-3.518-5.206-7.556-10.101-12.002-14.547c-4.447-4.446-9.341-8.485-14.548-12.002
		l3.92-5.801c5.575,3.768,10.816,8.092,15.577,12.854c4.762,4.76,9.086,10.002,12.854,15.577c3.802,5.629,7.067,11.645,9.707,17.885
		c2.688,6.354,4.752,13.004,6.135,19.766c1.42,6.934,2.14,14.071,2.14,21.213c0,7.142-0.72,14.279-2.14,21.214
		c-1.383,6.762-3.447,13.411-6.135,19.765c-2.64,6.24-5.905,12.257-9.707,17.885c-3.766,5.572-8.09,10.813-12.854,15.576
		C202.344,207.418,197.103,211.742,191.53,215.507"/>
	<path clip-path="url(#SVGID_2_)" fill="#FAFAFA" d="M112.084,63.968v128.121l-41.457-38.72l-2.017-1.885h-2.761H25.084v-46.968
		h41.015h2.77l2.02-1.895L112.084,63.968 M114.223,54.102c-1.206,0-2.434,0.455-3.422,1.471L66.099,97.516H18.084v60.968h47.765
		l44.96,41.993c0.987,1.011,2.212,1.462,3.414,1.462c2.479,0,4.861-1.922,4.861-4.834V58.936
		C119.084,56.023,116.701,54.102,114.223,54.102"/>
</g>
</svg>
