<?xml version="1.0" encoding="iso-8859-1"?>
<!-- Generator: Adobe Illustrator 19.2.1, SVG Export Plug-In . SVG Version: 6.00 Build 0)  -->
<svg version="1.1" id="Lager_12" xmlns="http://www.w3.org/2000/svg" xmlns:xlink="http://www.w3.org/1999/xlink" x="0px" y="0px"
	 viewBox="0 0 256 256" style="enable-background:new 0 0 256 256;" xml:space="preserve">
<g>
	<path style="fill:#FAFAFA;" d="M173.634,118.178c7.631,0,13.84-6.209,13.84-13.84s-6.209-13.84-13.84-13.84
		c-7.632,0-13.841,6.209-13.841,13.84S166.002,118.178,173.634,118.178z M173.634,98.498c3.22,0,5.84,2.62,5.84,5.84
		s-2.62,5.84-5.84,5.84c-3.221,0-5.841-2.62-5.841-5.84S170.413,98.498,173.634,98.498z"/>
	<path style="fill:#FAFAFA;" d="M205.821,50.36c-21.453-21.453-49.57-32.179-77.687-32.179c-28.117,0-56.234,10.726-77.687,32.179
		c-42.905,42.905-42.905,112.468,0,155.373c21.453,21.453,49.57,32.179,77.687,32.179c28.117,0,56.234-10.726,77.687-32.179
		C248.726,162.828,248.726,93.265,205.821,50.36z M56.105,200.076C17.367,161.338,16.419,98.706,53.246,58.8L71.65,77H57v101
		h115.699l24.479,24.708c-18.862,17.423-43.217,27.09-69.044,27.09C100.925,229.797,75.345,219.316,56.105,200.076z
		 M109.881,115.639l31.047,31.047c-3.534,2.324-7.757,3.682-12.293,3.682c-12.371,0-22.436-10.064-22.436-22.435
		C106.198,123.396,107.556,119.172,109.881,115.639z M115.392,109.837c3.714-2.725,8.292-4.339,13.242-4.339
		c12.37,0,22.435,10.064,22.435,22.435c0,4.949-1.614,9.527-4.34,13.241L115.392,109.837z M128.634,97.498
		c-7.157,0-13.74,2.285-18.942,6.435L90.963,85H193v85h-16.988l-23.583-23.354c4.15-5.202,6.639-11.671,6.639-18.827
		C159.068,111.037,145.415,97.498,128.634,97.498z M104.138,109.692c-3.73,5.052-5.94,11.392-5.94,18.139
		c0,16.781,13.653,30.486,30.436,30.486c6.746,0,12.985-2.413,18.036-6.143L164.699,170H65V85h14.65L104.138,109.692z
		 M202.841,197.057L184.012,178H201V77H82.963L58.894,53.135c18.89-17.539,43.324-27.056,69.241-27.056
		c27.209,0,52.79,10.533,72.03,29.772C238.966,94.653,239.853,157.159,202.841,197.057z"/>
</g>
</svg>
