<?xml version="1.0" encoding="iso-8859-1"?>
<!-- Generator: Adobe Illustrator 19.2.1, SVG Export Plug-In . SVG Version: 6.00 Build 0)  -->
<svg version="1.1" id="Lager_12" xmlns="http://www.w3.org/2000/svg" xmlns:xlink="http://www.w3.org/1999/xlink" x="0px" y="0px"
	 viewBox="0 0 256 256" style="enable-background:new 0 0 256 256;" xml:space="preserve">
<g>
	<path style="fill:#FAFAFA;" d="M205.821,50.36c-21.453-21.453-49.57-32.179-77.687-32.179c-28.117,0-56.234,10.726-77.687,32.179
		c-42.905,42.905-42.905,112.468,0,155.373c21.453,21.453,49.57,32.179,77.687,32.179c28.117,0,56.234-10.726,77.687-32.179
		C248.726,162.828,248.726,93.265,205.821,50.36z M200.164,56.016c38.712,38.712,39.685,101.083,2.932,140.993L167,160.913V126v-7
		v-1.466c0-0.804-0.164-19.719-14.278-28.739l-0.428-0.301C150,87.116,150,85.832,150,85.349V53.652c1-1.426,1-3.028,1-3.848v-4.75
		c0-0.842,0-2.511-1.086-3.966c-0.485-3.006-2.983-5.089-6.295-5.089h-13.092c-3.386,0-5.941,2.082-6.439,5.086
		C123,42.541,123,44.212,123,45.055v4.75c0,0.819,0,2.422,1,3.848v31.696c0,0.839-0.243,1.946-2.121,3.099l-0.441,0.244
		c-6.152,3.868-9.679,9.609-11.705,14.955L59.169,53.083c18.851-17.377,43.175-26.903,68.965-26.903
		C155.344,26.181,180.924,36.777,200.164,56.016z M130,49.588v-4.315l1-0.573V43h12v1.699l1,0.573v4.315l-1,0.573v35.188
		c0,2.576,0.959,6.215,5.489,9.023l0.343,0.245C159.872,101.56,160,117.375,160,117.534V119h-34.914l-9.804-9.804
		c1.346-4.93,4.105-10.895,9.773-14.511l0.351-0.19c4.623-2.776,5.594-6.506,5.594-9.146V50.161L130,49.588z M114,126h6.774l39,39
		H114V126z M132.086,126H160v27.913L132.086,126z M114,172h46v30.499c0,1.844-1.38,2.501-2.672,2.501h-40.51
		c-1.403,0-2.818-0.773-2.818-2.501V172z M56.105,200.076c-38.827-38.827-39.69-101.454-2.603-141.348L94.774,100H70v8h32.774
		l4.648,4.648c-0.017,0.118-0.035,0.237-0.051,0.352h-1.705H77.566H70v8.033v50.266C70,178.302,75.264,184,82.267,184H107v18.499
		c0,5.416,4.221,9.501,9.818,9.501h40.51c5.514,0,9.672-4.085,9.672-9.501v-30.273l30.454,30.454
		c-18.9,17.586-43.367,27.232-69.32,27.232C100.925,229.912,75.345,219.316,56.105,200.076z M106,121v55H82.267
		c-2.596,0-4.267-2.105-4.267-4.701V121H106z"/>
</g>
</svg>
