<?xml version="1.0" encoding="iso-8859-1"?>
<!-- Generator: Adobe Illustrator 19.2.1, SVG Export Plug-In . SVG Version: 6.00 Build 0)  -->
<svg version="1.1" id="Lager_12" xmlns="http://www.w3.org/2000/svg" xmlns:xlink="http://www.w3.org/1999/xlink" x="0px" y="0px"
	 viewBox="0 0 256 256" style="enable-background:new 0 0 256 256;" xml:space="preserve">
<g>
	<path style="fill:#FAFAFA;" d="M205.278,50.36c-21.453-21.453-49.57-32.179-77.687-32.179c-28.117,0-56.234,10.726-77.687,32.179
		c-42.905,42.905-42.905,112.468,0,155.373c21.453,21.453,49.57,32.179,77.687,32.179c28.117,0,56.234-10.726,77.687-32.179
		C248.183,162.828,248.183,93.265,205.278,50.36z M198.207,57.431c37.763,37.763,38.9,98.491,3.417,137.64L170,163.446v-41.912
		c0-0.838-0.174-20.629-15.254-30.112l-0.534-0.295C153,90.362,153,89.802,153,89.349v-31.27c1-1.713,1-3.509,1-4.274v-4.75
		c0-0.812,0-2.778-1.189-4.578c-0.821-3.648-4.216-6.477-8.139-6.477h-13.344c-3.923,0-7.317,2.828-8.139,6.477
		C122,46.276,122,48.243,122,49.055v4.75c0,0.766,0,2.562,1,4.274v31.27c0,0.453,0,1.014-1.211,1.778l-0.534,0.295
		c-5.228,3.287-8.662,7.813-10.92,12.358L60.565,54.011c18.398-16.694,42.01-25.831,67.026-25.831
		C154.266,28.181,179.345,38.569,198.207,57.431z M106,180H82.6c-2.596,0-4.6-2.105-4.6-4.701V125h28V180z M132,52.719v-2.577
		l1-0.573V48h5h5v1.568l1,0.573v2.577l-1,0.573v36.057c0,4.328,2.2,8.033,6.194,10.432l0.409,0.222
		c10.185,6.577,10.396,21.391,10.396,21.532V122h-31.446l-10.598-10.598c1.458-4.1,4.002-8.532,8.441-11.399l0.409-0.223
		C130.8,97.382,133,93.677,133,89.349V53.292L132,52.719z M160,168h-44v-36h8.413L160,167.587V168z M116,178h44v28.499
		c0,0.743-0.817,1.501-1.619,1.501h-40.762c-0.802,0-1.619-0.758-1.619-1.501V178z M138.554,132H160v21.446L138.554,132z
		 M56.976,198.662c-37.742-37.742-38.9-98.424-3.477-137.575L91.412,99H68v10h33.412l5.39,5.39c-0.04,0.206-0.08,0.41-0.116,0.61
		H106H68v60.299C68,183.405,74.494,190,82.6,190H106v16.499c0,6.234,5.321,11.501,11.619,11.501h40.762
		c6.298,0,11.619-5.267,11.619-11.501v-28.912l24.553,24.552c-18.388,16.657-41.974,25.772-66.961,25.772
		C100.916,227.912,75.838,217.524,56.976,198.662z"/>
</g>
</svg>
