<?xml version="1.0" encoding="iso-8859-1"?>
<!-- Generator: Adobe Illustrator 19.2.1, SVG Export Plug-In . SVG Version: 6.00 Build 0)  -->
<svg version="1.1" id="Lager_12" xmlns="http://www.w3.org/2000/svg" xmlns:xlink="http://www.w3.org/1999/xlink" x="0px" y="0px"
	 viewBox="0 0 256 256" style="enable-background:new 0 0 256 256;" xml:space="preserve">
<g>
	<path style="fill:#FAFAFA;" d="M18,79v141h220V79H18z M230,212H26V87h204V212z"/>
	<rect x="152" y="118" style="fill:#FAFAFA;" width="62" height="8"/>
	<rect x="152" y="146" style="fill:#FAFAFA;" width="62" height="8"/>
	<rect x="152" y="173" style="fill:#FAFAFA;" width="62" height="8"/>
	<path style="fill:#FAFAFA;" d="M138,99H38v101h100V99z M118,192H58v-11.471c8-6.865,18.351-10.628,30.194-10.628
		c11.7,0,22.806,3.609,29.806,10.192V192z M130,192h-5v-15.047l-0.659-1.042c-9.244-8.39-21.682-13.01-35.705-13.01
		c-14.181,0-27.206,4.795-36.563,13.502L51,177.441V192h-5v-85h84V192z"/>
	<path style="fill:#FAFAFA;" d="M88.453,156.939c11.679,0,21.18-9.501,21.18-21.18s-9.501-21.18-21.18-21.18
		c-11.684,0-21.188,9.501-21.188,21.18S76.769,156.939,88.453,156.939z M88.453,121.58c7.818,0,14.18,6.361,14.18,14.18
		s-6.361,14.18-14.18,14.18c-7.824,0-14.188-6.361-14.188-14.18S80.629,121.58,88.453,121.58z"/>
</g>
</svg>
