<?xml version="1.0" encoding="iso-8859-1"?>
<!-- Generator: Adobe Illustrator 19.2.1, SVG Export Plug-In . SVG Version: 6.00 Build 0)  -->
<svg version="1.1" id="Lager_12" xmlns="http://www.w3.org/2000/svg" xmlns:xlink="http://www.w3.org/1999/xlink" x="0px" y="0px"
	 viewBox="0 0 256 256" style="enable-background:new 0 0 256 256;" xml:space="preserve">
<g>
	<rect x="110" y="202" style="fill:#FAFAFA;" width="36" height="8"/>
	<path style="fill:#FAFAFA;" d="M205.278,50.36c-21.453-21.453-49.57-32.179-77.687-32.179c-28.117,0-56.234,10.726-77.687,32.179
		c-42.905,42.905-42.905,112.468,0,155.373c21.453,21.453,49.57,32.179,77.687,32.179c28.117,0,56.234-10.726,77.687-32.179
		C248.183,162.828,248.183,93.265,205.278,50.36z M127.715,26.181c27.209,0,52.666,10.596,71.906,29.836
		c19.24,19.24,29.836,44.941,29.836,72.15c0,3.945-0.25,7.833-0.69,11.833h-83.869l-0.977-1.097l4.079-3.871V81.676l-5.174-2.026
		c-4.873-1.978-9.791-2.94-14.848-2.94c-5.607,0-9.901,1.224-14.926,3.061L108,81.692v20.675L58.664,53.278
		C77.544,35.778,101.829,26.181,127.715,26.181z M116,131.642v-9.963l19,19.302V187h-15v-50.383L116,131.642z M116,110.366V87.285
		c4-1.615,7.856-2.575,12.317-2.575c4.9,0,8.683,1.134,11.683,2.352v44.68l-1.305,1.383L116,110.366z M53.011,59.058L108,113.679
		v21.205l3.919,5.116H26.552C23.343,111,32.189,81.582,53.011,59.058z M67.555,210H80v-8H57.924c-0.796,0-1.587-1.206-2.363-1.982
		C40.731,185.188,31.496,167,27.787,148H112v47h31v-46.019L196.281,202H175v8h12.677c-17.329,13-38.166,19.555-60.037,19.555
		C105.754,229.555,84.893,223,67.555,210z M202.36,197.462L152.898,148h74.65C223.952,166,215.335,183.464,202.36,197.462z"/>
	<path style="fill:#FAFAFA;" d="M127.775,70.521c8.997,0,16.316-7.319,16.316-16.316s-7.319-16.317-16.316-16.317
		c-9,0-16.322,7.32-16.322,16.317S118.775,70.521,127.775,70.521z M127.775,45.887c4.586,0,8.316,3.731,8.316,8.317
		s-3.73,8.316-8.316,8.316c-4.589,0-8.322-3.73-8.322-8.316S123.187,45.887,127.775,45.887z"/>
</g>
</svg>
