<?xml version="1.0" encoding="iso-8859-1"?>
<!-- Generator: Adobe Illustrator 19.2.1, SVG Export Plug-In . SVG Version: 6.00 Build 0)  -->
<svg version="1.1" id="Lager_12" xmlns="http://www.w3.org/2000/svg" xmlns:xlink="http://www.w3.org/1999/xlink" x="0px" y="0px"
	 viewBox="0 0 256 256" style="enable-background:new 0 0 256 256;" xml:space="preserve">
<g>
	<path style="fill:#FAFAFA;" d="M128.112,75.199c15.715,0,28.5-12.785,28.5-28.5s-12.785-28.5-28.5-28.5s-28.5,12.785-28.5,28.5
		S112.397,75.199,128.112,75.199z M128.112,26.199c11.304,0,20.5,9.196,20.5,20.5s-9.196,20.5-20.5,20.5s-20.5-9.196-20.5-20.5
		S116.809,26.199,128.112,26.199z"/>
	<path style="fill:#FAFAFA;" d="M197.473,191.985L173,170.644v-69.026l-1.178-1.173c-5.896-5.868-22.431-14.6-43.822-14.6
		c-16.48,0-30.389,5.379-39.327,11.261l-28.382-24.75l-5.258,6.029L83,102.774V191H57v8h26v6.851l18,9.264V238h54v-22.886l18-9.264
		V199h21.844L197.473,191.985z M128,93.846c17.958,0,31.765,6.985,37,11.224v58.598l-70.015-61.057
		C101.314,98.843,112.596,93.846,128,93.846z M91,109.75l74,64.532V191H91V109.75z M165,200.971l-18,9.265V230h-38v-19.765
		l-18-9.265V199h74V200.971z M173,191v-9.742L184.171,191H173z"/>
</g>
</svg>
