<?xml version="1.0" encoding="utf-8"?>
<!-- Generator: Adobe Illustrator 21.0.0, SVG Export Plug-In . SVG Version: 6.00 Build 0)  -->
<svg version="1.1"
	 id="svg2" xmlns:cc="http://creativecommons.org/ns#" xmlns:dc="http://purl.org/dc/elements/1.1/" xmlns:rdf="http://www.w3.org/1999/02/22-rdf-syntax-ns#" xmlns:svg="http://www.w3.org/2000/svg"
	 xmlns="http://www.w3.org/2000/svg" xmlns:xlink="http://www.w3.org/1999/xlink" x="0px" y="0px" viewBox="0 0 340 390"
	 style="enable-background:new 0 0 340 390;" xml:space="preserve">
<style type="text/css">
	.st0{fill:#F7DE9F;}
	.st1{fill:#F9CE5C;}
	.st2{fill:#D8A016;}
	.st3{fill:#9F6B08;}
	.st4{fill:#5C4B21;}
	.st5{fill:#282928;}
	.st6{fill:#040404;}
</style>
<g id="g3854" transform="translate(-2.3121387,3.8535645)">
	<path id="path3040" class="st0" d="M162.1,383.3c-5.5-3.1-21.2-15.2-33.7-25.9c-20.7-17.8-38.9-37.5-55.2-59.6
		c-35-47.6-56.6-103.1-66.1-169.3C2.6,96.9,0.9,52.7,3.7,42.9c1.8-6.2,6-12,11.2-15.7c5.7-4,23.7-11.1,39.9-15.7
		C89.1,1.6,127-3.2,172-3.2c57.3,0,104.2,7.6,143.8,23.5c14.1,5.7,19.4,9.7,23.4,18.2l2.7,5.6l-0.1,24.3
		c-0.2,67.6-15.4,133.3-43.2,186.4c-7.1,13.5-23.8,39.7-32.1,50.1c-15.3,19.4-33.1,38-50.7,53.1c-11.9,10.2-29.5,23.6-34.3,26.1
		C175.5,387.1,168.4,386.8,162.1,383.3L162.1,383.3z M174,381.5c-0.9-0.2-2.4-0.2-3.3,0c-0.9,0.2-0.2,0.4,1.7,0.4
		C174.2,382,175,381.8,174,381.5z M136.1,357.5c0-0.2-0.8-1-1.7-1.7c-1.5-1.2-1.5-1.2-0.4,0.4C135.3,357.8,136.1,358.3,136.1,357.5
		L136.1,357.5z M130.3,352.7c0-0.2-1.2-1.4-2.6-2.7l-2.6-2.4l2.3,2.7C129.6,352.8,130.3,353.5,130.3,352.7z M117,339.9
		c-3.4-3.5-6.4-6.3-6.6-6.3c-0.3,0,2.3,2.8,5.7,6.3s6.4,6.3,6.6,6.3C122.9,346.2,120.3,343.4,117,339.9z M102.6,325.3
		c-3.4-3.5-6.4-6.3-6.6-6.3c-0.3,0,2.3,2.8,5.7,6.3c3.4,3.5,6.4,6.3,6.6,6.3C108.6,331.6,106,328.8,102.6,325.3z M94,315.7
		c0-0.2-1.2-1.4-2.6-2.7l-2.6-2.4l2.3,2.7C93.3,315.9,94,316.5,94,315.7z M88.3,308.9c0-0.2-1-1.2-2.1-2.2l-2.1-1.9l1.8,2.2
		C87.5,309.1,88.3,309.7,88.3,308.9z M84.5,304c0-0.2-1-1.2-2.1-2.2l-2.1-1.9l1.8,2.2C83.7,304.2,84.5,304.8,84.5,304L84.5,304z
		 M80.7,299.1c0-0.2-0.8-1-1.7-1.7c-1.5-1.2-1.5-1.2-0.4,0.4C79.9,299.4,80.7,299.9,80.7,299.1z M77.8,295.2c0-0.2-0.8-1-1.7-1.7
		c-1.5-1.2-1.5-1.2-0.4,0.4C77,295.5,77.8,296,77.8,295.2L77.8,295.2z M74.9,291.3c0-0.2-0.8-1-1.7-1.7c-1.5-1.2-1.5-1.2-0.4,0.4
		C74.1,291.6,74.9,292.1,74.9,291.3L74.9,291.3z M61.5,271.3c-0.6-1.1-1.2-1.9-1.5-1.9s0,0.9,0.5,1.9c0.6,1.1,1.2,1.9,1.5,1.9
		S62.1,272.3,61.5,271.3z M58.7,266.4c-0.6-1.1-1.2-1.9-1.5-1.9s0,0.9,0.5,1.9c0.6,1.1,1.2,1.9,1.5,1.9
		C59.5,268.3,59.2,267.5,58.7,266.4z M55.8,261.5c-0.6-1.1-1.2-1.9-1.5-1.9s0,0.9,0.5,1.9c0.6,1.1,1.2,1.9,1.5,1.9
		S56.4,262.6,55.8,261.5z M47,244.5c-2.7-5.6-5.1-10-5.3-9.8c-0.4,0.4,9.2,20,9.8,20C51.8,254.7,49.7,250.1,47,244.5z M38.7,226.8
		c-1.1-2-1.4-1.3-0.5,1.1c0.3,0.9,0.8,1.4,1,1.1C39.5,228.8,39.3,227.8,38.7,226.8z M130.5,58.4c-0.7-0.3-1.5-0.2-1.8,0.1
		c-0.3,0.3,0.2,0.6,1.3,0.5C131,59,131.3,58.7,130.5,58.4z M10.3,40.1c0.3-0.9,0.2-1.3-0.4-0.9c-0.5,0.3-0.9,1-0.9,1.5
		C9,42.1,9.7,41.8,10.3,40.1z M335.7,40.7c0-0.5-0.9-1.9-2-3.2l-2-2.3l1.7,3.2C335.3,41.7,335.7,42.2,335.7,40.7z M109.5,26.3
		c-0.7-0.3-1.5-0.2-1.8,0.1c-0.3,0.3,0.2,0.6,1.3,0.5C110,26.9,110.3,26.6,109.5,26.3z M150.9,25c1-1.1,1.5-1.9,1.3-1.9
		s-1.3,0.9-2.2,1.9s-1.5,1.9-1.3,1.9C148.9,27,149.9,26.1,150.9,25z M126.7,24.4c-0.7-0.3-1.5-0.2-1.8,0.1c-0.3,0.3,0.2,0.6,1.3,0.5
		C127.2,24.9,127.5,24.7,126.7,24.4z M241.3,5.9c-0.7-0.3-1.5-0.2-1.8,0.1c-0.3,0.3,0.2,0.6,1.3,0.5C241.9,6.4,242.1,6.2,241.3,5.9z
		 M233.7,4.9c-0.7-0.3-1.5-0.2-1.8,0.1c-0.3,0.3,0.2,0.6,1.3,0.5C234.2,5.4,234.5,5.2,233.7,4.9z M226.1,3.9c-0.7-0.3-1.7-0.3-2.4,0
		c-0.7,0.3-0.1,0.5,1.2,0.5C226.2,4.4,226.8,4.2,226.1,3.9z M131.5,3c-0.7-0.3-1.5-0.2-1.8,0.1c-0.3,0.3,0.2,0.6,1.3,0.5
		C132,3.5,132.2,3.3,131.5,3z M215.1,2.9c-0.9-0.2-2.2-0.2-2.9,0c-0.6,0.3,0.1,0.5,1.7,0.4C215.5,3.4,216,3.2,215.1,2.9z M149.7,1.9
		c-1.7-0.2-4.3-0.2-5.7,0c-1.4,0.2,0,0.4,3.1,0.4C150.2,2.3,151.4,2.2,149.7,1.9z M200.3,1.9c-1.7-0.2-4.3-0.2-5.7,0
		c-1.4,0.2,0,0.4,3.1,0.4C200.8,2.3,202,2.2,200.3,1.9L200.3,1.9z"/>
	<path id="path3038" class="st1" d="M163.4,383.7c-17.1-9.2-57.1-45.4-77.9-70.6C32.6,249,6.3,171.6,2.7,69.9
		C1.8,44.7,3.4,38.2,12.8,29.6C24.8,18.6,72,5,114.1,0.3c78.1-8.6,153-0.5,206.6,22.3c15,6.4,20.8,14.9,21.6,31.6
		c0.5,10.9-1.2,43.6-3.2,61.2c-12.3,108.2-56.7,190.1-137.9,254.2c-17,13.4-21.1,15.8-27.6,16.2
		C169.1,386.1,167.2,385.7,163.4,383.7z M185.4,376.4c30.9-21.4,62.7-53,85.8-85.2c30.5-42.6,50.6-93.1,60.6-152.3
		c5.9-34.7,8.4-84.8,4.8-96.8c-2.1-7.1-8.5-12.2-22.6-17.8C273.3,7.9,217.4-0.6,160.4,1C108.6,2.5,66.7,10,30.8,24.2
		c-10.3,4.1-12.9,5.5-17.3,9.9C8.4,39,8.2,39.3,7.1,47C5.7,56,7,90.9,9.5,113.6C21.9,223.8,67.2,306,150.9,370.3
		c13.1,10.1,16.5,11.9,21.6,11.9C176.5,382.2,178.1,381.5,185.4,376.4z M162.8,377.2c-4.5-2.8-17-12.5-26.7-20.6
		c-52-43.8-87.8-97.1-108.4-161.3c-7.9-24.7-13.9-53.7-17.2-83.7C8.9,97.1,7,55.5,7.7,50.8c1.2-7.3,1.2-7.4,3.3-6.3
		c3,1.7,4.4-0.3,2.4-3.4c-1.2-1.9-1.4-2.9-0.6-4.5c5.2-10,53.1-25.2,96-30.5c20.7-2.6,37-3.5,63.6-3.5c51.4,0,90.3,5.5,127.4,18
		c16.8,5.6,26.9,10.2,29.7,13.2c1.7,1.9,1.7,2.1,0.1,4.9c-2.1,3.6-1.4,4.8,2.8,4.8c3.5,0,3.4-0.1,4.7,7.6c0.8,4.8-1.1,47.2-2.8,62.4
		c-7.8,70.3-29.8,130.3-65.8,179.7c-21.2,29.1-53.8,61.3-82.6,81.5l-6.8,4.8l-1.5-2.2c-1.3-1.9-2.1-2.2-5.4-1.7
		c-2.1,0.3-4.4,1.2-5,2C166.2,379,165.6,379,162.8,377.2L162.8,377.2z M142.2,256.1c1.7-1.7,2-4.3,0.5-4.3c-0.5,0-1,0.4-1,1
		s-1.1,1.2-2.4,1.6c-2.4,0.6-2.9,1.5-1.8,2.7C138.7,258.1,140.6,257.7,142.2,256.1z M117,243.5c0-0.2-0.4-0.4-1-0.4s-1,0.5-1,1
		c0,0.6,0.4,0.8,1,0.4S117,243.7,117,243.5z M183.7,235.2c-1.6-2.7-3.1-4.8-3.3-4.8s0.8,2.3,2.2,5.2s2.9,5,3.3,4.8
		C186.3,240.2,185.3,237.9,183.7,235.2z M199.6,218.7c0.3-0.6-0.3-0.9-1.6-0.7c-1.7,0.2-2.3-0.4-2.8-2.7c-0.6-2.7-0.6-2.8-0.8-0.4
		C194.3,218.6,198,221.4,199.6,218.7L199.6,218.7z M178,203.8c4.3-0.8,5.8-2.2,5.8-5.4c0-2.8-2.8-7.6-2.8-4.9c0,0.8-1.9,3.4-4.2,5.7
		c-2.3,2.3-4.4,5.1-4.7,6.1c-0.4,1.7-0.3,1.8,1.1,0.5C174,205,176.2,204.1,178,203.8L178,203.8z M208.7,202.2
		c-6.3-0.8-8.5-1.9-11.8-5.9c-4.1-5-3-10.7,2.6-13.1l3-1.3l-3.4,0c-10-0.1-10.2,14-0.2,19.3c2.5,1.4,5.3,1.9,9.4,1.9l5.7-0.1
		L208.7,202.2L208.7,202.2z M235.3,192.9c0-1.1-0.3-1.4-0.6-0.7c-0.3,0.7-1.3,1.2-2.3,1.2s-1.8,0.3-1.8,0.7c0,0.4,1.1,0.7,2.4,0.7
		C234.8,194.9,235.4,194.4,235.3,192.9L235.3,192.9z M133.6,187.3c1.6-2.5,3.9-4.8,5.1-5.2c2.6-0.7,9.1,1.1,12.8,3.8
		c3.8,2.6,8.6,3.2,10.2,1.3c0.7-0.9,2.4-1.6,3.8-1.6c2.4,0,2.4-0.1,0.7-1.5c-1.2-0.9-4.1-1.4-7.6-1.4c-7,0-10.1-1.5-12-5.7l-1.5-3.2
		l-1.8,2c-2.6,2.9-5.6,2.2-6.2-1.5l-0.5-2.9l-3,4.4c-4.2,6.2-6.1,10.2-6.1,12.9C127.5,194,129.7,193.4,133.6,187.3L133.6,187.3z
		 M191.2,175.9c1-0.2-0.1-6.7-1.7-9.7c-1.4-2.9-2.6-3.9-5-4.4c-9.4-1.9-11.7-4.8-10.9-13.5c0.7-6.7,0.6-6.8-4.5-10.7
		c-2-1.5-4.1-3.8-4.7-5.1c-1.4-3.1-2.7-2.9-9.3,0.7c-7.7,4.3-8.4,5.8-4.9,10.3c1.6,2,3.1,5.5,3.5,7.8c0.4,2.3,1.2,4.1,1.8,4.1
		c1.8,0,3.4,4.4,3.4,9.1c0,3.5,0.7,4.9,4.2,9l4.2,4.9l11.8-1.2C185.7,176.5,191.1,176,191.2,175.9L191.2,175.9z M212,168.5
		c-1.3-3.5-3.7-11.5-5.2-17.8c-1.7-6.6-4.7-15.2-7.2-20.4c-4.1-8.5-5.3-10.1-6.5-8.2c-0.6,1,4.4,13.6,8,20.1
		c1.5,2.7,3.9,9.5,5.3,15.1c1.5,5.9,3.6,11.8,5,13.9c1.4,2,2.6,3.6,2.8,3.6C214.2,174.9,213.3,172,212,168.5z M189.3,118.2
		c-5-4.1-2.4-7.2,3.6-4.4c1.9,0.9,2.4,1.7,2.1,3.5c-0.3,1.5-0.1,2,0.5,1.4c1.7-1.7,0.3-4.5-3.2-6.3c-6.3-3.1-9.5,0.6-4.6,5.2
		c1.6,1.6,3.2,2.8,3.6,2.8C191.7,120.4,190.8,119.4,189.3,118.2z M229.3,112.2c0.8-1.9,1.4-4.4,1.4-5.6c0-3-3.2-8.1-5.9-9.6
		l-2.2-1.2l2,2.3c4.4,5.1,5.3,9.5,2.7,14.5c-0.9,1.8-1.1,2.9-0.4,2.9C227.4,115.5,228.5,114,229.3,112.2z M159.2,89.2
		c-4.2-2.6-3.9-6.3,0.8-9.5c2.7-1.8,4.3-2.2,8.4-2c3.4,0.2,5-0.1,5-0.8c0-0.6,2-1.8,4.5-2.6l4.5-1.5l-5.7,0.5
		c-8.8,0.8-15,2.9-19.1,6.5c-3.1,2.7-3.6,3.7-3,5.8c0.4,1.4,1.8,3.2,3.3,4C161.7,91.9,162.8,91.5,159.2,89.2L159.2,89.2z M33.7,65.2
		C33.4,46.1,33.4,46,35.5,45c3.2-1.4,2.6-2.5-0.7-1.3l-2.9,1v19.9c0,13.7,0.3,19.9,1,19.9C33.7,84.4,33.9,78.7,33.7,65.2z
		 M191.3,83.5c1-0.6,0.9-0.9-0.5-1.3c-1-0.3-2.3,0.1-3,0.8c-1,1.1-0.9,1.3,0.5,1.3C189.3,84.4,190.6,84,191.3,83.5z M309.7,44.6
		c1.5,0.6,2.2,0.6,1.7,0.1c-0.5-0.5-1.9-1.2-3.1-1.6l-2.1-0.7l0.2,20.3l0.2,20.3l0.3-19.7l0.3-19.7L309.7,44.6L309.7,44.6z
		 M50.6,73.5c0.6-0.6,0.1-0.7-1.4-0.2c-3.7,1.1-8.6,3.3-8.6,3.8C40.5,77.7,49.5,74.6,50.6,73.5z M59.7,54.8
		c4.1-17.9,4.2-18.4,7.1-19.7l2.9-1.3l-2.5,0c-1.4,0-2.9,0.5-3.5,1.2c-1,1.2-9.8,38.6-9.7,40.9C54.1,78.4,55.7,72.5,59.7,54.8z
		 M291.9,72.1c-1.1-2-1.4-1.3-0.5,1.1c0.3,0.9,0.8,1.4,1,1.1S292.5,73,291.9,72.1z M278.9,35c1.3,0.3,2.1,0.1,1.8-0.4
		c-0.3-0.5-1.6-0.8-2.8-0.8h-2.3l0.2,19.7l0.2,19.7l0.3-19.3l0.3-19.3C276.5,34.5,278.9,35,278.9,35z M72.5,67.4
		c-0.4-2-0.9-3.3-1.1-3.1s-0.2,2.1,0.2,4c0.4,2,0.9,3.3,1.1,3.1S72.8,69.4,72.5,67.4z M84.8,50.2C85,31.5,85,31.4,87.1,31
		c1.2-0.2,2.1-0.8,2.1-1.3c0-0.6-0.9-0.8-2.1-0.4c-1.2,0.3-2.5,0.6-2.9,0.6c-0.4,0-0.7,9.1-0.7,20.1s0.2,19.9,0.5,19.6
		C84.4,69.3,84.7,60.6,84.8,50.2z M265.8,31.6c2.4-0.4,2.4-0.4-0.5-0.5l-3.1-0.1l0.2,19.7l0.2,19.7l0.3-19.2l0.3-19.2L265.8,31.6
		L265.8,31.6z M95.1,58.6c-1.3-4-2.6-7.1-2.8-6.9c-0.2,0.2,0.7,3.9,1.9,8.2c1.2,4.3,2.5,7.4,2.8,6.9C97.3,66.3,96.4,62.6,95.1,58.6z
		 M249.5,54.5c-0.2-2.5-0.4-0.5-0.4,4.6s0.2,7.2,0.4,4.6C249.7,61.2,249.7,57,249.5,54.5z M106.5,55.5c0-5.7-0.2-10.2-0.3-10
		c-0.8,0.9-1.3,20.4-0.5,20.4C106.1,65.9,106.5,61.2,106.5,55.5z M119.8,45V26.1l4.3-0.7c2.4-0.4,5.8-0.5,7.6-0.3
		c1.8,0.2,3,0,2.6-0.4c-0.4-0.5-4.2-0.7-8.4-0.5l-7.6,0.3l-0.3,20.3c-0.2,13.6,0.1,20.1,0.7,19.7C119.5,64.1,119.8,56.8,119.8,45
		L119.8,45z M235.2,26.9l2.6-0.1l-2.4-0.7c-1.3-0.4-2.7-0.5-3.1-0.3s-0.6,9.2-0.5,20l0.2,19.7l0.3-19.2l0.3-19.2
		C232.6,27,235.2,26.9,235.2,26.9z M296.4,40c2.5,0.5,2.5,0.5-0.3-0.8l-2.9-1.3l-0.5,11.8c-0.3,6.5-0.3,12.5,0,13.3
		c0.3,0.8,0.6-4.2,0.7-11l0.3-12.5C293.8,39.4,296.4,40,296.4,40z M150,59.1c-3-3.6-3.9-7.9-3.8-17.2c0.1-8,2.3-15.1,5.4-17.3
		c1.1-0.8,3.8-1.5,5.9-1.5c3.2,0,3.5-0.2,2.1-1.1c-2.4-1.4-6.3-0.2-9.5,2.8c-6.7,6.5-7.4,27.8-1.1,34.7C152.2,63,153,62.6,150,59.1z
		 M183.8,23.2c4.1,0.2,7,0,6.4-0.4s-4.2-0.7-8-0.7l-6.9,0l0.2,20.2l0.2,20.2l0.3-19.8l0.3-19.8L183.8,23.2L183.8,23.2z M190,56.2
		c-0.9-2.7-1.8-4.8-2.1-4.5c-0.3,0.3,0.3,2.7,1.2,5.5s1.8,4.8,2.1,4.5S190.9,58.9,190,56.2z M133.3,57.6c2.3-2.1,2.5-8,0.4-10.7
		c-1.4-1.8-1.5-1.8-0.5,0.2c2.5,5.3,0.1,11-4.6,11c-1.4,0-3.1,0.5-3.9,1.1c-1.1,0.8-0.4,0.9,2.7,0.6
		C129.6,59.5,132.3,58.5,133.3,57.6L133.3,57.6z M205.2,56.9c-2.1-4.2-2.9-17.8-1.3-23.6c1.6-6,5.8-9.5,10.6-9c2,0.2,3.4,0,3.1-0.4
		c-0.2-0.4-2.2-0.7-4.3-0.7c-4.7,0-8.7,3.6-10.3,9.3c-1.7,6.3-1.3,18.8,0.8,23.5c1,2.3,2.1,4.1,2.4,4.1
		C206.6,60.1,206.1,58.6,205.2,56.9L205.2,56.9z M69,58.3c1-0.7,1-1.7-0.2-5.6l-1.5-4.8l0.5,4.4c0.5,4,0.3,4.6-1.7,5.5
		c-2,1-2.1,1.1-0.3,1.1C66.9,59,68.3,58.7,69,58.3z M219.2,57.2c0.5-1,1-2.5,1-3.2c0-0.7-0.6-0.2-1.2,1.2c-1,2-1.9,2.4-4.7,2.3
		c-1.9-0.1-3.3,0.3-3,0.7C212.2,59.9,218.1,59.2,219.2,57.2z M162.1,54.2c1.2-2.4,1.7-5.8,1.7-11.7c0-10.4-1.9-14.9-6.3-15.4
		c-1.8-0.2-3.4,0.3-4.1,1.2c-1,1.3-0.8,1.3,1.8,0.3c2.7-1,3.2-0.9,4.8,1.1c3.5,4.4,3.7,20,0.4,25.2c-1.3,1.9-2.2,2.4-4.3,2.1
		c-1.5-0.2-2.5,0-2.2,0.4s1.9,0.7,3.5,0.6C159.8,57.7,160.8,56.9,162.1,54.2z M106.1,27.9c0.4-0.4,1.7-1,2.7-1.2
		c1.3-0.3,0.9-0.5-1.1-0.6l-3-0.1l-3,10.5c-1.6,5.8-3,11.1-2.9,11.9c0,0.8,1.5-3.3,3.3-9.1C103.9,33.5,105.7,28.4,106.1,27.9z
		 M220.4,44.2l5-0.4l-5.5-0.2c-5.4-0.2-5.5-0.1-5.4,2.5c0.1,2.2,0.2,2.3,0.5,0.5C215.4,44.9,216.2,44.5,220.4,44.2z M138.5,44.6
		c-0.3-0.6-1.1-1-1.6-1c-0.6,0-0.6,0.6,0.2,1.5C138.4,46.6,139.5,46.3,138.5,44.6z M249.8,36.6v-7.9l2.6,0.6
		c1.9,0.5,2.3,0.4,1.2-0.4c-0.8-0.5-2.2-1-3.1-1c-1.5,0-1.7,1-1.7,7.8v7.8l-5-0.4c-3.9-0.3-4.3-0.2-1.7,0.3
		C250,45.2,249.8,45.4,249.8,36.6L249.8,36.6z M132.3,39.8c2.7-2.2,2.9-7.3,0.4-9.7c-1.6-1.5-1.7-1.5-0.6,0c1.6,2.1,1,7.7-0.8,8.6
		c-0.8,0.4-2.9,1.2-4.8,1.7l-3.3,1l3.5,0.1C128.7,41.5,131,40.9,132.3,39.8L132.3,39.8z M190.5,38.7c2.3-2.3,2.5-7.1,0.4-9.2
		c-2.2-2.2-2.7-1.9-0.9,0.6c3.3,4.8,1.2,8.5-5.5,9.6l-4,0.7l4.1,0.1C187.5,40.6,189.2,40,190.5,38.7L190.5,38.7z M218.8,32.1
		c-0.3-0.3-0.5,0.3-0.5,1.3c0,1.1,0.3,1.4,0.6,0.6C219.2,33.3,219.1,32.4,218.8,32.1L218.8,32.1z"/>
	<path id="path3036" class="st2" d="M164.2,383.9c-11.5-5.6-41.6-30.9-61.6-51.9C47.9,274.7,17.4,207,6.1,118
		c-1.5-11.8-3.8-47.4-3.8-58.5c0-18,5.6-29,18-35C33.5,18.1,59.9,9.8,80.2,5.7C115.5-1.5,165-4.7,202.5-2.2
		c41.9,2.8,73.5,8.7,103.9,19.4c21.7,7.7,28.2,12.1,33.1,22.4c2.5,5.3,2.5,5.5,2.3,26.8c-0.7,87.3-23.4,164.3-66.4,225.6
		c-20.2,28.8-48.8,58.2-79.7,81.8C179.2,386.4,173.3,388.3,164.2,383.9L164.2,383.9z M185,377c22.5-15.3,58-48.7,75.6-71.2
		c19-24.2,39.1-59,49.2-85.2c15.5-40.2,24.3-81.3,27.8-130.9c1.2-16.6,1.2-39.6,0.1-44.5c-0.6-2.5-0.5-3.7,0.2-4
		c1.4-0.5-1.8-5.6-3.5-5.6c-0.7,0-2.3-1.1-3.6-2.5c-9-9.8-55.2-23.6-97.4-29c-30.6-3.9-82.1-4.4-112.7-1.1
		c-47,5.2-97.2,19.4-107.4,30.5c-1.5,1.7-3.1,2.8-3.5,2.6C5,33.1,5,79.4,10,119.4c11,88,42.4,156.1,98.3,213.2
		c19.7,20.1,43.7,40.4,56.6,47.7C171.9,384.3,175.1,383.8,185,377L185,377z M167,372.1c-2.2-1.3-8.4-5.8-13.8-9.9
		c-5.4-4.2-10.4-7.6-11.1-7.6s-2.7-1.3-4.4-2.8l-3.1-2.8l3.6,2.6c4.8,3.5,4.6,2.5-0.4-1.5c-2.2-1.8-3.7-2.7-3.3-2.1
		c1.6,2.6-1.2,0.9-4.7-3c-2.1-2.3-2.7-3.3-1.4-2.2c1.3,1.1-4.7-5.5-13.4-14.6c-15.3-16-30-33.7-39.6-47.7c-5.5-8-6.9-9.7-5.4-6.3
		l1.1,2.4l-2-2.4c-1.1-1.3-1.8-3-1.5-3.7c0.2-0.7,0-1-0.5-0.7c-1,0.6-4.1-4.7-3.3-5.6c0.3-0.3-1.6-4.5-4.2-9.3
		c-6.9-12.9-12.1-24.2-18.3-39.4c-3-7.4-5.7-13.1-6-12.8s-0.3-0.4-0.1-1.7c0.3-1.5,0.2-1.9-0.4-1.1c-1.2,1.7-4.4-7.7-3.6-10.7
		c0.5-1.8,0.4-2-0.5-0.8c-0.8,1.1-0.9,0.7-0.5-1.9c0.5-2.7,0.4-3.1-0.5-1.9c-0.9,1.2-1,1.2-0.5-0.3c0.3-1-0.5-6-1.8-11.2
		c-6.2-25.1-12.7-69.8-13-89.7c0-3.1-0.3-3.8-0.8-2.5c-0.7,1.8-0.8,1.7-1.4-0.5c-0.3-1.3-0.6-4.7-0.6-7.5c0-7.7-1.9-6.7-3.2,1.7
		C8.5,76,8.3,70.5,8.2,62.5c-0.1-8,0.2-15,0.6-15.6c0.4-0.5,2-1,3.6-1c3.4,0,4.1-2.1,2.1-6.3c-1.3-2.7-1.3-3,1.1-5.5
		c2.4-2.5,11.4-7.2,16.4-8.6c2.3-0.6,2.3-0.6-0.2,0.9c-1.4,0.8-2.6,2-2.6,2.5c0,1.2,0,1.2,4.8-0.5c4.8-1.7,6.1-1.8,5.2-0.4
		c-0.4,0.7,0,0.9,1.1,0.5c20.6-6.6,38.2-11,56.7-14.2c8.8-1.5,14.9-3,13.9-3.3c-1.1-0.3,0.2-0.4,2.9-0.1c3.6,0.4,4.4,0.2,3.3-0.6
		c-1.1-0.8-0.2-1,3.8-0.6c2.9,0.3,14.5,0.1,25.8-0.4c38.1-1.6,54-1.9,52.8-1.1c-0.7,0.4,5.2,1.3,13,2c17.3,1.5,43.7,5.3,58,8.4
		c5.8,1.3,11.6,2.1,12.9,1.8c1.9-0.4,2-0.3,0.9,0.6c-1.2,0.9-1.1,1,0.6,0.5c2.5-0.7,7.2,0.3,6.5,1.4c-0.3,0.4,0.5,0.5,1.6,0.2
		c1.5-0.4,1.9-0.2,1.3,0.7c-0.6,0.9-0.2,1.1,1.4,0.5c1.4-0.4,1.9-0.3,1.5,0.3c-0.3,0.6,1.5,1.7,4.4,2.7c9.5,3.2,20.3,8.3,23,10.9
		c5.7,5.5,5.9,6.6,5.7,28.2c-0.2,16.7-2,46.5-3.7,58.6c-0.5,3.8-0.2,3.2,2.6-5.8c1.1-3.5,2.3-6.8,2.8-7.4c0.5-0.6,1.2-3.4,1.7-6.3
		c0.9-5,0.9-4.9,0.4,2c-3.3,48.6-19.8,106.4-42,147.3c-18.9,34.8-46.1,69.2-73,92.1l-6.2,5.3l4.3-4.8c2.4-2.6,5-6.4,5.9-8.3
		c0.9-1.9,3-5.2,4.7-7.3l3.1-3.8l-3.3,3c-1.8,1.6-6.1,5.5-9.5,8.7c-7.5,6.9-26.8,22.7-35.5,29C174.8,374.7,172.1,375.2,167,372.1
		L167,372.1z M142.8,256.7c4.1-4.1,1.6-7.1-3.1-3.7c-1.7,1.2-3.3,2.3-3.5,2.5c-0.8,0.5,2.1,3.2,3.4,3.2
		C140.3,258.6,141.7,257.7,142.8,256.7z M117.5,242c0.1-1.6-0.2-2.9-0.5-2.9c-1.3,0-3.2,4.7-2.5,6.4
		C115.4,248,117.4,245.7,117.5,242z M187.6,241.5c1.8-0.9,1.9-1.3,0.9-2c-0.7-0.5-2.3-2.4-3.4-4.2c-2.5-4.2-6-8.1-6.7-7.4
		c-0.3,0.3,0.9,2.7,2.6,5.5c2.6,4.1,3,5.6,2.6,8.7c-0.6,4.2,0.4,6.4,1.2,2.8C185.1,243.6,186.3,242.1,187.6,241.5L187.6,241.5z
		 M238.3,239.9c0-0.7-0.4-1.8-0.8-2.5c-1-1.7-2.4,0.3-1.7,2.3C236.4,241.4,238.3,241.6,238.3,239.9z M200.1,218.6
		c0-0.5-0.9-1.3-1.9-1.9c-1.1-0.6-1.9-1.7-1.9-2.5s-0.4-1.4-1-1.4c-1.6,0-1.1,5.7,0.7,6.7C197.7,220.5,200.1,220,200.1,218.6
		L200.1,218.6z M124.9,205.1l0.5-5.4l-1.5,3.4c-0.8,1.9-1.6,5.6-1.8,8.3c-0.3,4.8-0.3,4.8,1,1.9C123.8,211.8,124.6,208,124.9,205.1z
		 M175,211.3c0.2-1.6,1-1.9,4.9-1.9c5.4,0.1,8.2-1.9,9.2-6.4c0.5-2.2,0.1-3.4-1.4-5.1c-1.1-1.2-3.7-5.6-5.7-9.7
		c-4.2-8.5-4-8.9,3.8-8.1c2.6,0.3,4.7,0.2,4.7-0.2c0-1.3,4.9-2.9,8.6-2.9c2.7,0,4.1,0.5,5,1.9c0.7,1.1,1.8,1.9,2.6,1.9
		c1.1,0,1.1-0.2-0.2-1c-3-1.8-1.8-2.9,1.3-1.3c2.3,1.2,2.7,1.8,1.7,2.4c-1,0.6-0.7,0.9,1.1,0.8c2.4,0,2.4,0-0.7-2.9
		c-2.4-2.2-4-2.9-7-2.9c-2.1,0-4.7-0.5-5.7-1c-2.3-1.2-2.6-4.3-0.3-3.5c0.8,0.3,2.7,0.8,4.1,1.1l2.5,0.6L201,171
		c-1.3-1.2-3.6-2.6-5-3.1c-3.2-1.1-3.4-3.4-0.5-4.5c2-0.7,1.9-0.8-0.7-1.4c-1.8-0.4-3.4-1.7-4.5-3.6c-1.5-2.7-2-3-4.6-2.4
		c-3.3,0.7-7.6-1.5-7.6-3.9c0-0.8,0.9-2.4,2-3.5l2-2l-1.8-6c-1.8-5.7-2.1-6.1-7.1-8.6c-7.8-3.8-8.1-7.1-1-12c4.3-3,7.7-3.1,12.8-0.4
		c4.1,2.1,6.6,6.4,6.6,11.5c0,1.9,1.7,5.2,5.2,10c5.4,7.4,7.6,13.1,7.1,18c-0.3,2.3-0.8,2.9-3.2,3.3c-2.5,0.4-2.3,0.5,1.4,1
		c3.6,0.5,4.5,1,5.8,3.5c2,4,6.6,10,6.6,8.5c0-0.6-0.9-3.5-2-6.3c-1.1-2.8-3.5-10.8-5.3-17.8c-1.9-7.3-5-16.1-7.3-20.9
		c-2.2-4.5-4.2-8.6-4.3-9c-0.2-0.4,0.6-0.8,1.6-0.8c3.2,0,8.5,5.6,12.6,13.2c4,7.5,7.3,10.5,10.7,10c1.8-0.3,2.1-0.9,1.9-4.3
		c-0.2-4.7-3.3-11.5-6.1-13.2c-2.8-1.8-2.3-2.7,1.4-2.7c3.3,0,5.2-1.3,3.5-2.4c-0.5-0.3-4.1-1.4-8-2.4c-3.9-1-11.5-3.9-16.8-6.4
		c-5.9-2.7-10.4-4.3-11.5-3.9c-1,0.3-4.1,2.6-6.9,5.2c-7.8,7-14,11.3-20.9,14.6c-11.5,5.5-13.9,9.4-16.6,27.4
		c-0.9,5.6-1.9,10.4-2.3,10.7c-1.8,1.3-10.8,14.1-12.1,17.3c-1.7,4.1-1.8,6.2-0.3,9.5c1.4,3.1,4.9,3.3,6.9,0.4
		c2.2-3.2,4.4-1.7,3.8,2.5c-0.4,2.3-0.2,3.5,0.5,3.5c1.7,0,4.9-3.7,6.4-7.4c1.8-4.4,3.6-5,8-2.4c4.6,2.6,10,2.7,13.1,0.1
		c1.3-1.1,2.8-1.7,3.2-1.4c1,0.7,2.3-1.5,2.3-3.9c0-2.6,3-3,4.3-0.6c0.8,1.5,0.7,2.5-0.1,3.9c-1.7,2.8-0.2,3.7,3,1.9l2.7-1.6
		l0.4,3.5c0.4,3.2-0.1,4-4.2,8.1c-5,5-6.4,8.5-4.8,12.2C172.5,214.3,174.6,214.2,175,211.3L175,211.3z M138,190.9
		c0-2.9,1.6-6.3,2.9-6.3c1.3,0,1.1,6.2-0.2,7.6C138.9,194.1,138,193.6,138,190.9z M150.9,178.2c-0.9-0.9-2-2.6-2.4-3.9
		c-1.3-3.4-3.5-3.8-6.2-1.2c-2.8,2.7-3.9,2-2.6-1.7c0.6-1.5,1.5-6.8,2.1-11.9c1.8-14.4,5.9-16.8,9.1-5.3c0.8,2.9,2.1,5.9,2.9,6.6
		c0.8,0.8,1.4,3.1,1.4,5.3c0,3.2,0.7,4.8,3.8,8.4c2.1,2.5,3.8,4.7,3.8,4.9s-2.3,0.4-5.2,0.4C154.1,179.8,151.9,179.3,150.9,178.2
		L150.9,178.2z M189.1,117c-2.3-1.9-2.6-2.6-1.5-3.3c2.6-1.8,8.5,2.1,6.7,4.4C192.8,119.9,192.4,119.8,189.1,117z M217.4,202.4
		c0.9-1-0.3-1.2-5.7-1.2c-10.4,0-15.4-3.5-15.4-10.8c0-8,10-10.2,12.6-2.8c0.5,1.6,1.4,2.8,1.9,2.8c0.5,0,0.5-0.8-0.1-1.9
		c-1.6-3.1-1.2-4,2.1-4.1c2.3-0.1,1.8-0.3-2-1c-2.8-0.5-5.9-1.3-6.9-1.8c-3.9-2.1-10.4-0.7-13.1,2.8c-3.4,4.5,0.6,13.7,7.4,17.4
		c3.6,2,5.4,2.3,11.2,2C213.2,203.7,216.8,203.1,217.4,202.4L217.4,202.4z M236.8,196.2c-0.4-0.6-0.7-2-0.8-3.1
		c-0.1-1.1-0.7-2.2-1.4-2.4c-0.8-0.3-1.1,0-0.7,0.6c0.4,0.7-0.1,1.1-1.2,1.1c-1,0-2.1,0.7-2.4,1.5c-0.4,1.1,0.2,1.5,2.2,1.5
		c1.5,0,3,0.4,3.4,1s0.8,1,1.1,1C237.2,197.3,237.1,196.8,236.8,196.2L236.8,196.2z M232.9,171.4c0.7-1.9-0.3-9.2-1.3-9.2
		c-1.5,0-2.6,8.7-1.3,10.1C231.4,173.4,232.3,173.1,232.9,171.4L232.9,171.4z M134.2,166c2.1-3.3,3.8-6.5,3.8-7.1
		c0-0.6-1.1,0.8-2.4,3.1c-1.3,2.3-3.3,5.5-4.4,7.1s-1.7,2.9-1.4,2.9S132.1,169.3,134.2,166L134.2,166z M235.9,144.5
		c-0.7-4.1-2.1-5.6-3.4-3.6c-1.4,2.3-1,7.6,0.8,9.4c1.6,1.7,1.7,1.7,2.4-0.2C236.1,149.1,236.2,146.6,235.9,144.5z M139.5,146
		c-0.3-0.3-0.5,0.3-0.5,1.3c0,1.1,0.3,1.4,0.6,0.6C139.9,147.1,139.8,146.3,139.5,146L139.5,146z M147.1,132.1
		c1-1.1,1.5-1.9,1.3-1.9s-1.3,0.9-2.2,1.9c-1,1.1-1.5,1.9-1.3,1.9C145.1,134,146.1,133.2,147.1,132.1z M231.2,109.4
		c1.3-6.9-4.9-14.3-12.9-15.8c-3.3-0.6-3.3-0.6,1,1.7c7.5,4,10.9,12.6,7.1,18.1c-0.8,1.2-1.2,2.7-0.8,3.3
		C226.5,118.4,230.4,113.3,231.2,109.4z M173.8,114.6c1-1.1,1.5-1.9,1.3-1.9c-0.3,0-1.3,0.9-2.2,1.9c-1,1.1-1.5,1.9-1.3,1.9
		S172.9,115.6,173.8,114.6z M180,109.2c0.7-0.8,1-1.5,0.7-1.5s-1,0.7-1.7,1.5c-0.7,0.8-1,1.5-0.7,1.5
		C178.6,110.7,179.4,110,180,109.2z M163.3,90.7c-8.2-3-8.7-8.7-0.9-11.7c3.8-1.5,6.2-1.4,10.3,0.2c1,0.4,1.5,0.1,1.5-1
		c0-2.1,3.8-3.5,9.9-3.6c3.9-0.1,4.5-0.3,2.6-0.9c-9.8-3.2-27.9,1.9-32,9l-1.8,3l3.5,3.2c2.7,2.5,4.3,3.2,7.1,3.2l3.6-0.1
		L163.3,90.7L163.3,90.7z M33.8,65c0-16.3,0.2-19.4,1.4-19.9c1.2-0.5,1.4,1.7,1.4,16.4c0,18.9-0.4,18.1,6.7,15.5
		c4.7-1.7,5.7-1.8,5.7-0.6c0,0.5-3.2,2-7.2,3.5s-7,2.9-6.8,3.1c0.2,0.2,3.6-0.8,7.6-2.3c6.4-2.3,7.3-3,7.6-5.4c0.4-3,0-3-6.8-0.1
		c-6.2,2.6-6,3.1-5.7-15.7c0.2-9.4,0.2-17,0.2-17c-0.1,0-1.5,0.5-3.1,1.1l-3,1.1v20.4c0,13.4,0.3,20.2,1,19.8
		C33.5,84.5,33.8,76.8,33.8,65z M192.3,83.5c1-0.6,0.7-1-0.9-1.4c-1.2-0.3-2.4-0.2-2.7,0.3c-0.3,0.5-2,1-3.9,1.3
		c-2.7,0.3-2.4,0.4,1.4,0.6C188.9,84.3,191.6,84,192.3,83.5z M307.3,63.4L307,44.3l2.7,0.7c3.2,0.8,1.9-0.8-1.4-1.9l-2.1-0.7v20
		c0,11,0.3,20,0.7,20C307.2,82.5,307.4,73.9,307.3,63.4L307.3,63.4z M288.8,63.1c-3.2-8.1-6.1-14.6-6.3-14.4
		c-0.2,0.2,1.8,6,4.5,12.9s5.3,13.6,5.8,14.9c0.5,1.3,1.1,2.1,1.4,1.8C294.5,78.1,292.1,71.2,288.8,63.1L288.8,63.1z M60.1,71
		c0.9-6.1,1.3-6.8,4.1-7.5c1.4-0.3,3.3-0.8,4.2-1.1c1.3-0.4,1.8,0.6,2.7,4.8l1.1,5.3l2.9-1c3.4-1.2,3.6,1-2.3-22.2l-4.1-16.1
		L65.8,34c-2.8,0.7-3,1.2-4.6,8.3c-0.9,4.2-3.1,13.7-4.8,21.3l-3.2,13.7l3.1-1C59.1,75.5,59.5,74.9,60.1,71z M57.1,71.2
		c-0.3-0.8-0.4-1.7-0.1-2c0.3-0.3,0.7,0.4,1,1.5C58.6,73.1,57.9,73.4,57.1,71.2L57.1,71.2z M57.8,66.5c0-1,0.2-1.6,0.5-1.3
		c0.3,0.3,0.4,1.2,0.1,1.9C58.1,67.8,57.8,67.6,57.8,66.5L57.8,66.5z M59.7,57.7c0-1,0.2-1.6,0.5-1.3c0.3,0.3,0.4,1.2,0.1,1.9
		C60,59.1,59.8,58.9,59.7,57.7L59.7,57.7z M63.6,55.4c0.1-1.5,0.6-4.9,1.2-7.5L66,43l1.2,6.7c1,5.5,1,6.9-0.1,7.5
		C64.7,58.8,63.5,58.2,63.6,55.4z M60.7,53.8c0-1,0.2-1.6,0.5-1.3c0.3,0.3,0.4,1.2,0.1,1.9C60.9,55.2,60.7,55,60.7,53.8L60.7,53.8z
		 M62.2,47.9c1.1-6.5,2.3-9.4,1.7-3.9c-0.3,2.7-1,5.5-1.4,6.3C61.8,51.3,61.7,50.4,62.2,47.9z M64.4,37.4c0-1.1,0.7-1.7,2.1-1.6
		c1.4,0.1,1.7,0.3,0.7,0.6c-0.8,0.3-1.7,1-2.1,1.6C64.7,38.7,64.4,38.5,64.4,37.4z M277.5,53.9V35l2.6,0.4c2.1,0.3,2.3,0.2,1.2-0.6
		c-0.8-0.6-2.4-1-3.6-1l-2.1,0v19.5c0,12.3,0.4,19.5,1,19.5C277.1,72.7,277.5,65.8,277.5,53.9z M87.9,68.8c1.1,0,1.4-2.5,1.5-12.9
		c0.1-7.1,0.3-11.8,0.6-10.5c0.7,3.9,6.2,21.8,6.9,22.7c0.4,0.4,1-0.9,1.3-2.9c0.3-2,2.1-8.3,3.9-13.9l3.3-10.2l-0.6,12.7l-0.6,12.7
		l3-0.4l3-0.4l0.3-19.8l0.3-19.8l-3,0c-2.9,0-3.1,0.2-5.1,7.1c-1.2,3.9-2.8,10-3.8,13.7l-1.7,6.6l-3.5-11.1
		c-1.9-6.1-3.5-11.6-3.5-12.2c0-1.2-1.3-1.4-4.5-0.5c-2.1,0.6-2.1,0.7-2.1,20.5c0,17.8,0.2,19.9,1.5,19.4
		C85.9,69.1,87.2,68.8,87.9,68.8z M263.3,50.7l-0.3-19.1l2.4,0.6c1.3,0.3,2.4,0.2,2.4-0.3c0-0.5-1.3-1.1-2.9-1.3l-2.9-0.4V50
		c0,10.9,0.3,19.8,0.7,19.8C263.3,69.8,263.5,61.2,263.3,50.7L263.3,50.7z M249.5,53c-0.2-2.8-0.4-0.5-0.4,5.1s0.2,7.9,0.4,5.1
		C249.7,60.4,249.7,55.8,249.5,53z M131.4,62.9c5.2-1.3,7.8-4.8,8.3-11c0.4-4.6,0.1-5.6-1.9-7.7c-2.3-2.3-2.3-2.4-0.6-4.6
		c2.7-3.4,2.3-10.2-0.6-13.2c-2.2-2.3-2.9-2.4-10.3-2.1l-7.9,0.3l-0.3,20.1l-0.3,20.1l5-0.4C125.7,64,129.5,63.4,131.4,62.9z
		 M123.6,51.8v-6.3h3.7c4.4,0,6.8,2.3,6.8,6.5c0,3.8-2.6,6.2-7,6.2h-3.5V51.8z M124,39.2c-0.3-0.7-0.4-3.2-0.2-5.6
		c0.3-3.8,0.6-4.3,2.9-4.6c4.1-0.5,6.5,1.4,6.5,5.1c0,3.7-1.1,4.9-5.5,5.8C125.5,40.4,124.4,40.2,124,39.2L124,39.2z M233.5,45.8
		c0-18.6,0-19.1,1.9-18.6c1.1,0.3,1.9,0.2,1.9-0.3c0-0.7-3.2-1.9-5-2c-0.4,0-0.7,9-0.7,19.9c0,12.7,0.3,20,1,20
		C233.2,64.9,233.5,57.9,233.5,45.8z M296.4,40.1c2.6,0.5,2.6,0.5-0.3-0.9l-2.9-1.4L293,49.1c-0.2,10.1-0.4,11.1-1.7,9.4
		c-1.3-1.7-1.3-1.6-0.4,1.1c2.1,6.2,2.4,5.4,2.6-7.1l0.3-12.9L296.4,40.1L296.4,40.1z M220.1,62.4c1.6-1,1.7-1.3,0.5-0.8
		c-1.1,0.4-3.4,1-5.3,1.4c-3.3,0.7-3.3,0.7-0.5,0.8C216.5,63.9,218.8,63.2,220.1,62.4z M161.7,61c3.8-2.4,5.8-6.9,6.6-14.9
		c1.5-16.6-5.9-28.1-15.3-23.5c-4.8,2.3-7.5,8.4-8.1,18C143.9,58.2,151.5,67.4,161.7,61z M153.3,55.3c-3.9-4-4-20.6-0.1-24.9
		c2.9-3.2,5.3-3.1,7.4,0.2c1.3,2.1,1.7,4.7,1.7,12s-0.4,9.9-1.7,12C158.7,57.6,155.9,57.9,153.3,55.3L153.3,55.3z M196.3,61
		c0-0.4-1.2-4.4-2.7-8.7l-2.7-7.9l2.3-1.5c5.1-3.4,5-14.6-0.3-18.8c-2-1.6-3.9-2-10-2h-7.5v20v20h2.4c2.4,0,2.4-0.1,2.4-8.8v-8.8
		l2.6,0c2.5,0,2.8,0.5,5.4,9.1c2.7,8.9,2.8,9,5.5,8.6C195,62,196.3,61.4,196.3,61L196.3,61z M192.1,60.3c-0.2-0.4-1.6-4.3-3-8.8
		l-2.6-8h-3.7c-2.4,0-3.7-0.4-3.7-1.2c0-0.8,1.8-1.3,5.3-1.4c2.9-0.1,5.9-0.7,6.6-1.3c3.5-3,2.4-10.6-2-12.6
		c-2.8-1.3-8.6-1.5-9.4-0.2c-0.3,0.5-0.6,5.7-0.7,11.7c-0.1,5.9-0.4,10.5-0.7,10.2c-0.3-0.3-0.7-6-1-12.6l-0.5-12.1l6.7,0
		c7.8,0,10.3,1.3,11.9,6.3c1.5,4.6,0.4,8.8-3,11.4l-2.8,2.2l2.8,8.5c2.1,6.5,2.5,8.5,1.5,8.5C193.1,61,192.4,60.7,192.1,60.3
		L192.1,60.3z M180.4,38.3c-0.3-0.7-0.4-3.5-0.2-6.1c0.3-4.6,0.4-4.8,3.4-5c6.2-0.6,10.5,7.6,5.8,11C186.7,40,181.1,40.1,180.4,38.3
		z M208.8,60.5c-3.7-3.2-5.2-8-5.3-17c-0.1-9.7,2.3-16.2,6.6-18.1c4.4-1.9,9.5-0.1,11.8,3.9c0.6,1.1,1.1,1.4,1.1,0.7
		c0-0.7-1.2-2.6-2.8-4.1c-2.1-2.2-3.7-2.8-6.6-2.8c-8.3,0-12.1,7.1-11.5,21.6c0.4,10,2.4,15.9,6,17.4
		C211.6,63.5,211.8,63.1,208.8,60.5z M218.5,58.7c3.3-3.4,2.7-11.2-0.9-11.2c-0.7,0-1.3-0.7-1.3-1.6c0-1,0.5-1.4,1.5-1
		c0.8,0.3,2.5,0.6,3.8,0.6c2,0,2.3,0.5,2.6,5.1l0.4,5.1l0.2-6.1l0.2-6.1h-5.3c-4.9,0-5.3,0.1-5.3,2.4c0,1.9,0.6,2.4,2.6,2.7
		c2.3,0.3,2.6,0.7,2.3,3.2c-0.5,4.3-1.9,6.3-4.2,6.3c-3.5,0-6.4-3.1-7.3-7.8c-0.6-3-0.9-3.5-0.9-1.8
		C206.5,56.6,214.1,63.1,218.5,58.7z M223.8,57.6c-0.3-0.3-0.8,0.2-1.2,1.2c-0.5,1.4-0.4,1.5,0.5,0.5
		C223.8,58.7,224.1,57.9,223.8,57.6z M249.8,37.1c0-7.1,0-7.2,2.4-7.2c1.4,0,2.2-0.4,1.9-1c-0.3-0.5-1.6-1-2.9-1
		c-2.3,0-2.3,0.2-2.3,7.8c0,5.6-0.3,7.8-1.2,7.7c-0.7,0-3.2-0.4-5.7-0.8c-2.5-0.4-4.5-0.4-4.5,0c0,0.4,2,1,4.5,1.4s5,0.7,5.5,0.9
		C249.3,45.5,249.8,44.2,249.8,37.1L249.8,37.1z M208.2,35.4c0.3-2,1.4-4.6,2.5-5.6c1-1,1.4-1.9,0.9-1.9c-1.7,0-4,4.7-4.4,9
		C206.7,41.7,207.3,40.9,208.2,35.4L208.2,35.4z M220.1,34.3c0-1.3-2.3-5.4-3.3-5.7c-0.8-0.3-0.6,0.7,0.4,2.8
		C218.5,34.2,220.1,35.8,220.1,34.3L220.1,34.3z M224,32.8c0-0.5-0.6-0.7-1.4-0.4s-1.4,0.7-1.4,0.9s0.6,0.4,1.4,0.4
		S224,33.4,224,32.8z M27.7,30.1c-0.3-0.3-1.1,0-1.7,0.7c-0.9,1-0.8,1.1,0.5,0.5C27.4,30.9,28,30.4,27.7,30.1z"/>
	<path id="path2991" class="st3" d="M170.1,385.2c-3.6-0.5-6-1.7-11.2-5.4c-17.6-12.9-32.2-24.8-45.2-37.1c-5-4.7-16-16-19.9-20.4
		c-15.8-18-28.9-36.5-44.9-63.4c-3.5-5.9-7.8-14.8-13.7-28.2C16,187.2,6,143.2,3,89.6C2.5,79.1,2.3,71.1,2.3,59.3
		c0-9.8,0.1-11,0.6-13.5c0.9-4.9,2.6-9.5,4.7-12.6c2.6-3.9,9.5-9.4,15.1-12.1c7.9-3.7,27.1-9.5,44.4-13.4c4.7-1,14-2.9,17.1-3.5
		C85,4,87,3.6,88.4,3.4c1.4-0.3,3.4-0.6,4.3-0.7c0.9-0.1,2.4-0.4,3.3-0.6c0.9-0.2,2.6-0.5,3.8-0.6c1.2-0.2,3.7-0.5,5.5-0.7
		c1.8-0.3,3.8-0.5,4.4-0.6c5.8-0.7,7.6-0.9,11.5-1.3c19.5-2.1,45.3-3.1,64-2.5c8.2,0.3,26.8,1.4,28.2,1.6c0.4,0.1,2.2,0.2,4.1,0.3
		c1.8,0.1,4.8,0.4,6.7,0.6c1.8,0.2,4.8,0.6,6.6,0.8c8.3,0.9,15.6,1.9,18.6,2.4c1.1,0.2,4.1,0.7,6.6,1.1
		c26.3,4.2,48.1,10.4,64.3,18.2c7,3.4,9.8,5.3,13.2,8.9c4,4.3,6.3,8.8,7.6,14.5c1.1,4.8,0.6,34.8-0.9,53.9c-2,26-5.3,47.9-10.9,70.8
		c-6,24.7-14.1,47.4-25.8,72.5c-4,8.5-5,10.6-8.3,16.2c-1.8,3-3.3,5.6-3.3,5.7c-0.1,0.1-0.4,0.7-0.8,1.3s-0.8,1.3-1,1.6
		c-0.2,0.3-0.7,1.2-1.3,2.2s-1.1,1.8-1.1,1.9c-0.1,0.1-0.2,0.3-0.2,0.4c-0.1,0.1-0.6,0.9-1.2,1.8c-0.6,0.9-1.5,2.3-2,3.1
		s-0.9,1.5-0.9,1.6c0,0.1-0.1,0.3-0.2,0.3c-0.2,0.1-1.5,2.1-1.5,2.4c0,0.1-0.2,0.3-0.4,0.4c-0.2,0.1-0.4,0.3-0.4,0.4
		s-0.6,1.1-1.3,2.2s-1.3,2-1.3,2.2c0,0.1-0.2,0.3-0.4,0.4c-0.2,0.1-0.4,0.3-0.4,0.5c0,0.2-0.1,0.4-0.2,0.4c-0.1,0-0.4,0.3-0.5,0.7
		c-0.2,0.4-0.4,0.8-0.5,0.9c-0.8,1.1-1.8,2.5-3.5,5c-1.7,2.5-3.5,5-6,8.3c-21.5,29.1-44,50.9-79.4,77c-5.2,3.8-7.6,5.2-10.6,5.9
		C174.8,385.2,171.8,385.5,170.1,385.2L170.1,385.2z M176.2,383c3-0.8,5.5-2.1,10.2-5.6c45.2-33.3,70.4-60.4,99.1-106.5
		c7.7-12.4,11.5-18.9,14.6-25.5c8.4-17.8,14.4-32.5,19.3-47.5c12-36.3,18.5-74.7,20.2-119.1c0.4-10.4,0.3-30.7-0.1-33.2
		c-1.2-6.8-5.3-13.4-11.4-17.9c-2.2-1.7-10-5.7-15.1-7.7c-14.8-6.1-31.8-10.6-54-14.5c-13-2.3-30.1-4.4-46.5-5.7
		c-1.7-0.1-3.7-0.3-4.4-0.4c-2.2-0.2-12.7-0.8-18.8-1.1c-11.5-0.5-32.4-0.3-47,0.6c-38.2,2.3-80.2,10-108.9,19.9
		c-7.9,2.7-10.7,4-14.8,6.7c-6.6,4.4-9.7,7.7-11.8,13c-2.6,6.2-3,11.5-2.6,30.3c0.5,23.9,1.9,42.5,4.7,62
		c5.5,38.8,15.2,71.6,31.7,107.4c6.4,14,8.3,17.3,18.5,33.7c2.5,4,9.4,14.4,12.2,18.5c19.2,27.5,37.9,47.4,65.6,70
		c7.2,5.9,24.4,18.9,27.3,20.7c1.1,0.7,3.8,1.7,5.1,2C171.1,383.6,174.2,383.5,176.2,383L176.2,383z M169.7,373.2
		c-1.5-0.4-4.8-2.7-11.6-8.1c-41.7-32.8-65.3-58.5-88.8-96.8c-3.1-5.1-7.3-12.3-10.2-17.4c-2.8-5.1-11.8-24.1-16.3-34.6
		c-15.9-36.9-24.7-75.3-27.4-119.8c-0.9-15.7-1.1-37.1-0.3-41.6c0.9-4.9,2.5-9.2,4.7-12.6c2.4-3.6,6.8-7.2,11-9
		c8.6-3.6,28.2-9.2,44.9-12.9c29.1-6.4,56.3-9.8,86.8-10.6c8.4-0.2,23-0.2,25.9,0.1c0.5,0.1,2.6,0.2,4.5,0.2
		c18.9,0.8,44.2,3.5,62.4,6.7c22.4,4,39.5,9,54.2,16c2.3,1.1,5,2.4,6,2.8c8.1,3.8,11.8,9.7,13,20.7c0.6,5.4-0.8,32.3-2.7,51.1
		c-5.4,53.5-16.2,92.7-36.6,132.2c-8.2,16-21.4,37.8-31.3,52c-17,24.3-33.6,41.3-66.8,68.8c-0.7,0.6-3.5,2.9-6.2,5.2
		c-2.8,2.3-5.7,4.7-6.6,5.3C175.3,373.1,172.2,373.9,169.7,373.2L169.7,373.2z M107.8,286.2c2.9-1.4,3.9-3.4,4.3-9.2
		c0.3-3.8,1-5.3,2.9-5.7l0.9-0.2l-0.1-2.3c-0.2-3.4-0.1-8.5,0.1-9.3c0.1-0.4,1.3-2.1,2.6-3.8c3.2-4.1,5.1-6.9,5.7-8.3
		c0.2-0.6,0.7-2.7,0.9-4.7c0.6-3.9,0.3-3.4,4.6-10.5c1.3-2.1,3.2-5.7,4.3-7.9c1.2-2.4,2.3-4.4,2.8-5c0.5-0.5,1.1-1.2,1.4-1.6
		c0.3-0.3,0.6-0.6,0.7-0.6c0.5,0,1.9,1.5,2.4,2.6c0.5,1.1,0.6,1.4,0.6,6.8c0,5.7,0,5.7,0.6,6.1c0.3,0.3,0.8,0.5,1.1,0.5
		c0.5,0,0.5,0-0.1-0.7c-1-1.1-1.2-2.5-1-6.7c0.1-3.2,0.1-3.7-0.4-5.1c-0.3-0.9-0.5-2-0.5-2.4c0.1-0.7,0.1-0.8,1.2-0.9
		c1.2-0.1,1.8-0.5,2.4-1.8c0.5-0.9,0.6-1.6,0.5-3c0-0.7-0.2-0.9-1.3-1.5c-1.6-0.9-2.1-1.6-2.4-3.6c-0.3-2.3-0.1-9.6,0.4-11.2
		c0.4-1.5,0.6-1.5,2.3-0.3c1.7,1.2,6.7,3.4,9.2,4c3.1,0.8,7.2,0.9,8.6,0.2c1.2-0.6,5.4-3.9,7.2-5.6c0.8-0.8,2.1-1.9,2.9-2.5
		c0.8-0.6,1.9-1.4,2.4-1.9c0.5-0.4,1.2-0.8,1.5-0.8c0.8,0,3.1,0.9,3.9,1.6c1.4,1.2,0.7,2.5-2.8,4.8c-2.8,1.8-5.7,5.1-7.1,7.8
		c-0.6,1.3-3.5,10-3.5,10.6c0,1,0.8,3.2,1.6,4.3c2.9,4.1,4.3,6.3,4.6,7.5c0.2,0.7,0.5,1.7,0.7,2.1c0.8,1.9-0.2,2.9-3.3,3.7
		c-1.2,0.3-2.8,0.6-3.6,0.7l-1.4,0.2l0.4,0.6c0.3,0.5,0.4,0.5,0.6,0.2c0.2-0.3,0.7-0.4,2.9-0.4c2.2,0,3-0.1,4-0.5l1.3-0.5l0.6,0.8
		c0.7,0.9,4.5,4.9,4.5,4.8c0-0.6-1.8-4.9-3.3-7.7c-1-1.9-2.3-4.6-2.9-5.8c-0.6-1.3-1.9-3.5-3-5c-1.1-1.5-2-2.9-2.1-3.3
		c-0.3-1.2-0.2-3.3,0.4-5c0.9-2.6,1.7-2.5,1.7,0.4c0,2.1,0.3,2.7,2.6,6.1c2.6,3.9,2.8,4.2,4.1,7.5c1.1,2.8,2.5,5.4,4.1,7.7
		c0.8,1.2,2.3,5.4,2.3,6.4c0,0.4-0.3,0.9-0.8,1.4l-0.8,0.8l-0.5-0.7c-0.3-0.4-0.6-0.6-0.7-0.5c-0.1,0.1-0.2,0.9-0.3,1.7
		c-0.1,1.5-0.1,1.6,0.8,2.3c0.8,0.7,0.9,0.9,0.9,2.3c0,1.8,0.5,3,1.6,3.7c0.4,0.3,1.9,0.7,3.4,1.1l2.7,0.5l0.9-0.8
		c1.6-1.3,3.6-3.7,3.8-4.7c0.3-1.2,0.1-2.2-0.5-2.8c-0.3-0.2-0.6-0.7-0.8-1.1c-0.5-1-0.1-1.2,2.1-1.2c1.7,0,1.9,0,2.4-0.7
		c0.6-0.8,2.3-4.4,3.2-7.2c0.5-1.4,0.6-2.2,0.6-4.1c0-1.9,0.1-2.6,0.6-4.1c0.9-2.5,0.9-4.3,0-6c-0.7-1.4-1.2-1.9-3-3
		c-2-1.2-1.7-2,1-3.1c1.5-0.6,2.3-1.2,2.3-1.9c0-0.6,0-0.6-2.1-0.4c-2.1,0.1-2.1,0.1-2.6-0.5c-1.3-2-2.1-2.2-3.4-1.3
		c-1.5,1-4.8,7.1-4.8,8.8c0,1,1.1,2,3.1,2.8c1,0.4,2.1,0.9,2.4,1.1c1,0.6,1.5,1.8,1.5,3.4c0,0.8,0.1,1.8,0.2,2.2
		c0.1,0.4,0.3,1.4,0.3,2.2c0,1.3-0.1,1.9-0.7,3.1c-1,2-4,5.9-4.8,6.2c-0.9,0.3-1.7-0.4-2.2-1.7c-0.3-1-0.3-1.1,0.2-2.3
		c1.1-2.6,1.3-3.6,1-7.3c-0.1-1.9-0.4-3.8-0.5-4.1c-0.5-1.1-1.3-0.8-2.9,1.3c-1.6,1.9-2.6,2.7-3.4,2.7c-0.8,0-1.1-0.8-1-2.8
		c0.1-2,0.6-3.3,2.3-7.1c1.3-2.9,3.3-8.3,4-10.7c0.5-1.8,0.6-6.5,0.1-8.4c-0.3-1-0.6-1.6-1.6-2.7c-2.2-2.3-5-6.3-6.5-9.2
		c-1.7-3.3-2.9-6.8-2.3-6.8c0.3,0,3,3.5,4.1,5.3c1.3,2.3,2,2.8,3.2,2.7c0.9-0.1,0.9-0.1,1,0.8c0.5,2.9,1.8,5.7,3.9,8.2
		c1,1.2,5,4.5,6.2,5.1c1.4,0.7,3.6,1.4,6.2,2.1c1.6,0.4,2.9,0.5,5.9,0.5c4.1,0,5-0.2,6-1.2c0.3-0.3,1.1-0.7,1.9-1
		c0.8-0.3,1.7-0.7,2-0.8c0.8-0.4,1.5-1.4,1.3-2c-0.1-0.5-0.4-0.5-3.2-0.7c-3.6-0.2-6.8-0.9-9.3-2.2c-0.9-0.5-2.4-1.2-3.3-1.5
		c-2.8-1.1-4.9-2.8-5.4-4.4c-0.2-0.8,0.2-1.5,1.2-1.7c0.5-0.1,0.9-0.3,1-0.4c0.1-0.1,0.3-0.2,0.5-0.2c1,0,1.1-0.3,0.6-2.6
		c-0.6-2.8-0.6-3.2,0-3.2c1,0,1.7,0.6,3,2.6c0.8,1.2,2,2.7,2.7,3.5c1.2,1.3,1.5,1.4,2.3,1.4c0.5,0,1-0.1,1.1-0.2
		c0.1-0.1-0.1-0.7-0.3-1.2c-0.3-0.6-0.5-1.4-0.5-2.2c0-1,0.1-1.4,0.7-2.1c0.7-0.8,0.8-0.9,2.1-0.9c1.6,0,2.7,0.6,3.6,2
		c0.5,0.8,0.7,0.9,1.7,0.9c0.8,0,1.3-0.2,2-0.6c0.8-0.5,1-0.6,1.5-0.4c0.3,0.1,0.8,0.7,1.2,1.2c0.3,0.5,0.9,1.2,1.3,1.6
		c0.7,0.6,0.8,0.7,2,0.5c0.7-0.1,1.6-0.1,1.9,0.1c1.1,0.4,1.2,1,0.8,3.4c-0.4,2-0.4,2.2,0,3.2c0.2,0.6,0.7,1.4,1.1,1.9
		c0.8,0.9,0.8,1,1.2,4c0.3,2.9,0.1,5-1.2,8.2c-0.5,1.4-1.3,3.5-1.8,4.8c-0.5,1.3-1.2,2.7-1.5,3.1l-0.7,0.8l1,0.8
		c1.3,1,2.2,2.6,3.6,6.2c1.9,5,2.1,5.7,2.1,7.6c0,1.5-0.1,2.3-1,4.9c-1.4,4.1-1.4,5.7-0.2,7.4c0.5,0.6,0.8,1.3,0.8,1.5
		s-0.6,1.4-1.3,2.6c-3,5-3,7.3,0,10.1c1.6,1.5,3,2.2,3.9,2.1c0.6-0.1,0.6-0.2,0.7-1.4c0.1-1.5,0.8-2.5,1.6-2.4
		c0.4,0.1,0.5,0.3,0.6,1.7c0.2,2.1,0.3,2.4,0.9,2.4c1,0,4.3-2.6,5-4l0.4-0.7l-1,0.7c-0.6,0.4-1.3,1-1.6,1.4
		c-0.7,0.8-1.4,0.8-2.2,0.1c-0.8-0.7-1-1.6-0.5-3.4c0.5-2.1,0.4-3.8-0.5-4.5c-0.5-0.5-0.9-0.6-2.5-0.6c-1,0-2-0.1-2.2-0.2
		c-0.6-0.4,0.1-1.4,1.6-2.2c2.2-1.2,2.4-2,0.4-3c-1.3-0.7-1.6-1.1-1.6-2.2c0-1.3,0.9-2.4,2.1-2.9c1.5-0.6,2.2-1.4,2.2-2.9
		c0-1.7-0.6-2.8-2-3.9c-2.4-1.8-2.3-1.7-2.3-3.9c0-1.6,0.1-2,0.4-2.4c0.3-0.3,0.5-1,0.6-2.4c0.1-1.3,0.3-2.4,0.6-3
		c0.8-1.7,0.7-2.1-0.8-4.4c-1-1.5-1.3-3-1.3-6.5c0-1.4-0.1-2.9-0.2-3.2c-0.3-0.8,0-3.6,0.4-3.8c0.7-0.3,1.8,0.5,2.5,1.8
		c0.8,1.4,1,1.5,1.2,0.8c0.2-0.8,1.4-0.6,4.1,0.6c6.2,2.8,13.2,3.3,17,1.4c2.2-1.1,6-4.5,7-6.2c0.9-1.5,0.9-1.6-3-1.4
		c-3.9,0.1-6.3-0.2-8.8-1.1c-2.2-0.8-4.6-2.5-6-4.1c-0.6-0.7-2.2-2.2-3.6-3.4c-1.4-1.1-2.5-2.2-2.6-2.4c-0.1-0.2-0.3-0.4-0.5-0.4
		c-0.7,0-4-1.5-5.7-2.7c-1-0.7-2.2-1.4-2.8-1.7c-1.7-0.9-8.3-2.2-12.3-2.5l-2.2-0.2l-0.2-0.9c-0.3-1.6-0.8-2.7-2.2-5
		c-1.2-1.9-1.4-2.4-1.4-3.3c0-1.3-0.5-2.5-2.3-5.3c-0.9-1.4-1.5-2.7-1.8-4c-0.3-1.1-0.9-2.9-1.4-4.1c-1.2-2.7-1.6-4.1-1.9-6.9
		c-0.4-3.1-0.8-4.8-1.9-7.7c-0.5-1.4-1.2-3.7-1.5-5.2c-0.8-3.8-1-4.5-3-7.4c-1-1.4-1.8-3-1.9-3.4c-0.1-0.5-0.5-1.2-0.8-1.6
		c-0.4-0.4-1.1-1.5-1.6-2.3c-0.5-0.9-1.2-1.9-1.5-2.4c-0.3-0.5-0.5-1.1-0.5-1.5c0-1,0.6-1.3,2.4-1.3c3.8,0.2,6.7,3,10.5,10.4
		c3,5.9,5.5,8.9,8.7,10.5c1.2,0.6,2,0.9,2.8,0.9c1.4,0,1.9-0.5,2.1-2.2c0.1-1.4-0.1-2.7-1.4-6.8c-0.7-2.4-1-3.6-1.1-5.5
		c-0.2-3-0.3-3.2-3-4.1c-2.3-0.8-2.5-1.2-0.6-1.7c1.9-0.5,3.9,0,6.1,1.6c1.4,1,1.7,1.1,2.6,1c0.8-0.1,1.3-0.4,2.4-1.4
		c1.3-1.2,1.4-1.4,1.3-2.2c-0.1-1,0.5-2.5,1.4-3.3c0.7-0.6,1.1-1.6,1.9-4.8c1.1-4.3,0.8-7.8-0.9-10.7c-1.3-2.3-7.7-7.5-11.4-9.3
		c-3.4-1.6-3.6-1.6-21.9-1.8c-20.5-0.2-29.6-0.7-32.2-1.6c-3.8-1.3-6.6-3.7-6.2-5.3c0.2-0.9,1.5-2.2,2.7-2.7c2.1-0.8,5.1-0.2,11,2.2
		c5.4,2.2,8.6,2.7,14.8,2.5c5.5-0.2,9.9-0.9,11-1.7c0.4-0.3,0.4-0.3,0-0.7c-0.2-0.2-2-0.8-3.9-1.3c-4.2-1.1-6.5-2-6.5-2.5
		c0-0.3,0.4-0.4,3.2-0.2c3.2,0.1,6.8,0.8,9.5,1.6c1.7,0.5,5.6,0.7,6.9,0.2c0.8-0.3,1-0.9,0.4-1.5c-1.5-1.6-9.9-4.6-16.4-6
		c-4.1-0.8-7.2-1.1-14-0.9c-8.4,0.2-11.8,0.8-15.8,2.8c-3.3,1.7-7.1,5.2-8.3,7.7c-1.4,2.9-0.5,4.8,3.6,7.3c2.8,1.7,5,2.4,9.7,3.1
		c8.5,1.2,14.5,1.5,31,1.5c8.1,0,14.5,0.1,15.3,0.2c2.5,0.4,5.4,1.5,6.9,2.5c1.8,1.2,4,3.8,5.1,6.1c0.8,1.5,0.9,1.9,0.9,3.5
		c0,1.6-0.1,2-0.7,3.1c-0.9,1.7-2.8,3.8-3.8,4.2c-1.1,0.5-3.8,0-7-1.2c-2.2-0.9-3-1-5.3-1.2c-2.9-0.2-3.2-0.3-7.6-2.3
		c-4.4-2-11.2-4.2-14.5-4.8c-1.6-0.3-3.2,0-5.4,1.1c-2.3,1.1-3.6,2.1-8.1,6.5c-4.2,4.1-6.2,5.7-8.5,6.8c-4.3,2.1-16.6,9.1-17.7,10.1
		c-1.7,1.5-4.5,5-5.7,7c-2.2,3.7-2.9,6.7-3.1,13.6c-0.2,4.7-0.2,4.9-1,6.9c-0.8,2.2-3,6-6,10.6c-2.8,4.3-4.8,7.7-6.2,10.4
		c-2.7,5.4-3.1,7.4-3.3,15l-0.2,5.6l-0.9,2.6c-0.5,1.4-1.5,4-2.2,5.8c-2.7,6.7-2.7,6.3-2.9,18.6l-0.2,9l-1,2c-0.6,1.1-1.5,2.7-2,3.6
		c-1.3,2-1.7,3.6-2.2,9.3c-0.2,2.4-0.4,4.8-0.5,5.4c-0.1,0.9-0.5,1.4-3.1,4.4c-5.1,5.7-7,8.6-7,10.6c0,1-0.1,1.1-1,1.8
		c-1.9,1.3-4.5,4.3-5.3,6.2c-1,2.2-1.3,4.3-0.7,5.5c0.7,1.4,1.2,1.2,3.1-1.5l1.8-2.4l0.6,0.5c0.3,0.3,0.6,0.7,0.6,0.9
		c0,0.2-0.4,1.2-1,2.3c-0.5,1.1-0.9,2.3-0.9,2.6c0.1,0.8,0.9,0.9,5.9,0.9C106.2,286.8,106.7,286.7,107.8,286.2L107.8,286.2z
		 M105.5,273c-0.8-0.3-2.1-3.1-1.9-4.2c0.2-0.9,0.4-1,1.7-0.5c1.3,0.5,1.9,0.5,3.1-0.5c1.2-0.9,1.5-1,2-0.6c0.4,0.4,0.4,1.2-0.2,2.3
		c-0.3,0.5-0.7,1.3-0.9,1.6C108.7,272.4,106.6,273.4,105.5,273z M113.3,250c-0.5-0.5-0.6-0.8-0.6-2.7c0-1.1-0.1-2.2-0.1-2.4
		c-0.1-0.2,0-0.5,0.1-0.7c0.2-0.3,0.4-0.2,1,0.4c0.6,0.6,0.9,0.8,1.7,0.8c0.7,0,1.2-0.2,1.5-0.5c0.7-0.7,1.3-0.4,1.3,0.6
		c0,1.6-1.1,3.5-2.5,4.4C114.5,250.8,114,250.8,113.3,250L113.3,250z M189.3,247.9c-0.6-0.2-1.3-0.4-1.4-0.6
		c-0.4-0.4-0.8-3.4-0.6-4.1c0.5-1.5,2.3-0.8,2.8,1c0.3,1.1,0.3,1.1,1.2,1.1c1.1,0,1.4,0.4,1.4,1.8c0,0.7-0.1,0.9-0.7,1
		C191,248.3,190.7,248.2,189.3,247.9L189.3,247.9z M118.2,227.7c-1-0.5-1.4-1.6-1.2-4.2c0.1-2.3,1-4.5,2.3-5.4l0.8-0.5l0.6,0.7
		c0.4,0.4,0.8,0.7,1.2,0.7c0.9,0,2.7-1,4-2.3c0.7-0.6,1.8-1.7,2.6-2.3c1.7-1.5,2.1-2.5,2.1-5c0-3.2-0.2-3.9-1.8-5.3
		c-1.5-1.4-2.1-2.6-2.1-4.4c0-2.1,1-3.3,2.8-3.3c1,0,1.7,0.7,2.9,2.8c2.1,3.6,5,5,7,3.2c0.9-0.8,1.3-0.9,1.8-0.3
		c0.3,0.3,0.4,1,0.4,3.9c0,1.9,0.1,3.8,0.2,4.1c0.1,0.4,0.6,0.8,1.6,1.1c1.6,0.7,2.2,1.5,2,3.1c-0.1,1.3-0.9,2.2-2.1,2.5
		c-1.3,0.4-2.3,0-6.4-2.3c-1.2-0.7-2.6-0.8-3.5-0.2c-0.3,0.2-1.1,1.1-1.8,2.1c-0.9,1.3-1.7,2-3.6,3.3c-2.6,1.8-3.4,2.5-4.9,4.9
		c-1.1,1.7-2.4,3.2-2.8,3.2c-0.2,0-0.5,0.1-0.8,0.1C119.2,228,118.7,227.9,118.2,227.7L118.2,227.7z M156.7,176.2
		c-0.9-0.4-2.1-0.8-2.7-1c-1.5-0.3-2.4-0.8-2.9-1.5c-0.3-0.5-0.3-0.7,0-2.1c0.4-1.7,0.2-3.1-0.6-3.8c-0.4-0.4-0.8-0.5-2.6-0.4
		c-1.2,0-2.5,0.2-3.1,0.4c-0.6,0.2-1.1,0.4-1.1,0.4c-0.1,0,0.2-2.3,0.4-3.2c0.2-0.6,0.5-1.1,1.1-1.4c1.4-0.9,1.6-1.4,1.5-3.9
		c-0.2-2.9,0.2-4.4,1.1-4.4c0.1,0,0.6,0.4,1.1,0.9c0.6,0.6,1.1,1.4,1.4,2.6c0.9,2.9,1.3,3.5,2.2,3.5c1.4,0,1.5,0.1,1.5,3.6
		c0,3.7,0.2,4.3,2.7,6.8C160.5,176.6,160.5,178,156.7,176.2L156.7,176.2z M195.5,156.6c-0.1-0.4-0.1-1.6,0-2.8l0.2-2.2l-0.7-0.5
		c-0.6-0.4-1.2-0.5-5.6-0.5c-4.3,0-5-0.1-5.9-0.5l-1-0.5l0.7-0.2c0.4-0.1,1.7-0.2,3-0.2c2.6,0,3.7-0.3,4.8-1.1
		c3.1-2.3,2.5-5.2-2.1-9.9c-2.9-2.9-3.4-3.7-3.3-5.2l0.1-1l1.2,1.2c0.7,0.7,1.6,1.9,2,2.7c1.3,2.3,5.7,8.3,7.3,10.2
		c2.4,2.7,3.3,5,2.9,7.5c-0.2,1.3-1.6,3.1-2.7,3.3C195.8,157.2,195.7,157.2,195.5,156.6L195.5,156.6z M190.3,118.1
		c-0.3-0.4-0.9-1-1.2-1.5c-0.3-0.4-1.1-1.4-1.7-2.1c-1.4-1.6-1.6-2.1-0.9-2.8c0.6-0.7,3.3-0.7,4.5,0c1.2,0.7,2.1,2.6,2.3,4.9
		l0.1,1.8l-0.7-0.2c-0.5-0.1-0.8-0.1-0.9,0.2C191.7,119,191,118.8,190.3,118.1L190.3,118.1z M183.3,83.8c-0.3-0.1-1-0.3-1.6-0.6
		c-1.4-0.6-1.7-1.3-0.9-1.9c0.7-0.6,1.2-0.6,2.4,0.1c0.5,0.3,1.6,0.6,2.4,0.6c1,0.1,1.7,0.3,2.3,0.7c1,0.7,1.1,0.9,0.5,1.1
		C188.1,84,184,84,183.3,83.8L183.3,83.8z M134.1,273.9c1.6-0.9,3.2-2.6,4.5-5.3c0.7-1.3,1.6-2.7,2.3-3.4c1.4-1.4,1.7-2,2.4-4.4
		c0.6-2.3,1.7-4.5,3.6-7.4c2.2-3.3,3.1-4.2,6-5.8c4.5-2.5,4.8-2.8,5.1-6.2c0.1-1.3,0.4-2.7,0.6-3.1c0.4-0.9,2.7-3,4.5-4.2l1.4-0.9
		h-6.6c-5.1,0-7,0.1-8.3,0.4c-0.9,0.2-2.2,0.3-2.8,0.3l-1.2-0.1l-1.5,3.8c-0.8,2.1-1.5,4-1.5,4.2c0,0.8-0.8,3.6-1.2,4.5
		c-0.6,1.2-4.7,5.5-5.8,6.1c-0.5,0.3-1.2,0.5-1.6,0.5c-0.8,0-1.8,0.7-2.2,1.6c-0.2,0.4-1,1.2-2,1.9c-2.1,1.5-4.8,4-5.5,5.1
		c-0.8,1.3-1.2,3.2-1.2,5.7c0,2.6,0.5,4.8,1.1,4.8c0.2,0,1.1-0.5,2.1-1.2c2.7-2,3.3-1.5,1.6,1.2c-0.5,0.9-1,1.7-1,1.9
		c0,0.5,1.7,0.8,3.8,0.7C132.5,274.6,133.1,274.5,134.1,273.9L134.1,273.9z M136.4,260.7c-1.5-1.1-3-2.6-3-3c0-0.2,0.6-0.7,1.5-1.1
		l1.5-0.7l1,0.7c1.3,0.9,2.4,1,4,0.4c1.7-0.7,1.9-0.6,1.7,1c-0.1,0.7-0.3,1.5-0.5,1.9c-0.4,0.8-1.9,1.4-3.7,1.6
		C137.5,261.4,137.3,261.3,136.4,260.7L136.4,260.7z M161.6,261.1c0.5-0.1,0.3-0.2-1-0.2c-1.5,0-1.7-0.1-1.7-0.5
		c0-0.2,0.6-0.7,1.3-1s1.3-0.7,1.4-0.8c0.1-0.1,0.2-1.1,0.2-2.1c0-2.3,0.3-2.8,2.1-3.1c1.2-0.2,1.8-0.7,1.8-1.6c0-0.4-0.3-0.7-1.1-1
		c-1.3-0.6-1.8-1.3-1.2-1.9c0.2-0.2,1.3-1.2,2.4-2.1c1.7-1.5,2-1.9,2.3-3c0.6-2.4,1.1-5.4,1-5.9c-0.2-0.7-1.1-1.6-1.4-1.6
		c-0.2,0-0.5-0.2-0.8-0.5c-0.3-0.3-0.5-0.4-0.5-0.2c0,0.2-0.7,1.5-1.6,3s-2,3.6-2.5,4.7c-0.9,1.8-1.1,2.1-2.4,3
		c-3.6,2.5-5.6,5.7-6.1,10c-0.2,2-0.1,3.3,0.4,3.3c0.2,0,0.9-0.5,1.6-1.1c0.7-0.6,1.4-1.1,1.7-1.1c0.4,0,0.4,0.2,0.3,1.7l-0.2,1.7
		l0.8,0.3C159.3,261.3,160.6,261.4,161.6,261.1L161.6,261.1z M236.2,177.3c0.5-0.4,1.3-1.3,1.9-2.1l1.1-1.5l-0.6-0.8
		c-2.4-3-3.9-5.2-5-7.6c-0.7-1.5-1.3-2.8-1.3-3c0-0.6,0.7-1.4,2.2-2.3c3.2-2.1,3.6-3,3.7-9.3c0.1-3,0-5.1-0.2-6.1
		c-0.4-2-1.5-4.2-3-5.9l-1.2-1.4l-0.9,0.3c-1.1,0.4-2.9,2-3.5,3.3c-0.6,1.4-0.6,3,0.3,6.3c0.5,2,0.7,3.5,0.7,4.7
		c0,2.2-0.1,2.8-1.1,7c-1,4.3-1.3,6.7-1.3,10.3c0,3.2,0.3,4.8,1.2,6.1C230.7,177.9,234.3,178.8,236.2,177.3z M34.5,85.1
		c2.2-1.2,8-3.7,12.8-5.5l4.1-1.6l0-3.3c0-1.9-0.1-3.3-0.2-3.3c-0.3,0-7.3,2.9-9.7,4c-1,0.5-2,0.9-2.1,0.9c-0.1,0-0.2-7.5-0.2-17.2
		c0-9.4-0.1-17.2-0.2-17.2c-0.1,0-1.8,0.7-3.7,1.6l-3.5,1.6l-0.1,20.2c-0.1,11.1-0.1,20.3,0,20.4C32,86.1,33,85.9,34.5,85.1
		L34.5,85.1z M311.9,76.5c0-4.8-0.1-14-0.2-20.5l-0.2-11.8l-3.1-1.3c-1.7-0.7-3.4-1.3-3.8-1.3l-0.7,0v20.3v20.3l1,0.3
		c0.6,0.2,2.3,0.8,3.8,1.5c1.5,0.7,2.9,1.2,3,1.2C311.9,85.2,311.9,82.2,311.9,76.5L311.9,76.5z M298.7,50.6l0-11.3l-2.7-0.9
		c-1.5-0.5-2.9-1-3.1-1.1c-0.2-0.1-0.7-0.2-1.1-0.2H291l0,10.3c0,5.7,0,10.4,0,10.6c0.2,1.4-1-1.3-5.2-11.8
		c-3.7-9.1-5-12.1-5.4-12.3c-0.9-0.4-5.3-1.4-6.1-1.4h-0.7v20.4v20.4h0.6c0.5,0,5.2,1.1,6.9,1.6c0.4,0.1,0.4-0.5,0.3-12.4
		c-0.1-8.6-0.1-12.4,0.1-12.2c0.1,0.1,2.8,6.5,5.9,14.1l5.6,13.9l2.7,0.9l2.7,0.9l0.1-9C298.6,66,298.6,56.8,298.7,50.6L298.7,50.6z
		 M54.7,77c0.4-0.2,1.8-0.7,3.1-1.1c1.3-0.4,2.4-0.8,2.4-0.8c0,0,0.6-2.7,1.2-5.8l1.2-5.8l1.1-0.3c3.8-1.1,6.3-1.7,6.5-1.4
		c0.1,0.2,0.6,2.4,1.2,5c0.6,2.6,1.1,4.8,1.2,4.9c0.1,0.1,1.7-0.2,3.6-0.6c2.8-0.7,3.4-0.9,3.4-1.2c0-0.2-0.9-3.4-2-7
		c-1.1-3.6-3.5-12-5.4-18.7c-1.9-6.6-3.5-12.1-3.6-12.1c-0.1-0.1-1.2,0.2-2.6,0.5c-1.3,0.4-2.7,0.7-3,0.7c-0.6,0.1-0.6,0.3-3.5,13.3
		c-1.6,7.3-3.8,17.1-4.8,21.9c-1.9,8.5-1.9,8.6-1.4,8.8C53.9,77.4,53.9,77.4,54.7,77z M63.7,58.2c0-0.4,2.4-12.3,2.5-12.7
		c0.2-0.4,0.5,0.7,1.9,6.9l1,4.6l-1,0.3c-1,0.3-3.3,0.9-4,1.1C63.8,58.4,63.7,58.3,63.7,58.2z M268.4,51.2l0.1-20.2l-1.4-0.3
		c-0.8-0.2-2.5-0.5-3.9-0.8c-1.4-0.3-2.7-0.6-2.9-0.5c-0.4,0-0.4,0.9-0.5,14.6c-0.1,14.2,0,26,0.2,26.1c0.2,0.2,7.9,1.7,8,1.5
		C268.2,71.5,268.3,62.3,268.4,51.2L268.4,51.2z M86.5,68.8c1.7-0.3,3.1-0.6,3.1-0.6c0,0,0.1-4.6,0.1-10.3c0-7.7,0.1-10.1,0.3-9.7
		c0.1,0.3,1.7,4.7,3.6,9.7c1.8,5,3.4,9.1,3.6,9.1c0.8,0,0.7,0.2,5.7-17c0.7-2.3,1.3-4.4,1.4-4.5c0.1-0.1,0.2,4.4,0.2,10
		c0,5.6,0.1,10.3,0.2,10.3c0.3,0,5.6-0.7,6.4-0.8l0.7-0.1l-0.1-19.6c0-10.8-0.1-20-0.2-20.5c-0.1-0.8-0.2-0.8-0.9-0.7
		c-2,0.4-5.5,0.7-6,0.6c-0.3-0.1-0.7,0-0.7,0c-0.1,0.1-1.6,4.9-3.4,10.7c-1.8,5.8-3.4,10.9-3.5,11.4c-0.1,0.4-0.3,0.8-0.4,0.7
		c-0.1-0.1-1.6-4.5-3.4-9.9c-1.8-5.4-3.4-9.9-3.4-10.1c-0.1-0.2-1-0.1-2.9,0.3c-1.6,0.3-3.2,0.6-3.6,0.6l-0.7,0l-0.2,7.7
		c-0.1,4.2-0.2,13.4-0.2,20.4c0,13.6-0.1,12.8,1,13C83.4,69.4,84.8,69.1,86.5,68.8L86.5,68.8z M254.6,48.6l0.1-20.4l-0.5-0.1
		c-2.3-0.5-5.9-1.1-6.5-1.1h-0.8l0.1,7.9c0.1,7.7,0.1,7.9-0.3,7.9c-0.3,0-2.2-0.3-4.4-0.6c-2.2-0.3-4-0.6-4.1-0.6
		c-0.1,0-0.2-3.6-0.2-8v-8l-0.5-0.1c-1.1-0.2-6.1-0.9-6.7-0.9h-0.7V45v20.4l3.8,0.5c2.1,0.3,3.8,0.5,3.9,0.4c0.1,0,0.1-4.3,0-9.4
		l-0.1-9.3l0.6,0.1c0.3,0.1,2.3,0.4,4.5,0.7l3.9,0.5v9.5v9.5l0.8,0c0.4,0,2.1,0.3,3.8,0.6c1.6,0.3,3.1,0.5,3.2,0.5
		C254.5,69,254.6,61.9,254.6,48.6L254.6,48.6z M217.7,64.6c3.6-1,6-3.3,7.1-7c0.4-1.3,0.5-2.3,0.5-8.3v-6.8h-5.5h-5.5v1.2
		c0,0.6-0.1,2-0.2,3l-0.2,1.9h2.3h2.3l-0.1,3.2c-0.1,3-0.1,3.3-0.7,4.2c-1.8,2.7-5.4,2.2-7.6-1c-1.5-2.3-1.6-2.9-1.6-13.2
		c0-9,0-9.3,0.5-10.2c0.6-1.2,2-2.5,2.9-2.7c0.4-0.1,0.8-0.2,0.9-0.2c0.6-0.2,2,0.4,2.8,1.2c1,0.9,1.7,2.3,1.9,3.7l0.1,1.1h3.6
		c4.1,0,3.8,0.2,3.2-2.5c-1.2-5.5-5.6-9.2-11.2-9.2c-5.5,0-10,3.5-11.7,9c-0.2,0.8-0.3,3.4-0.3,10.7c0,10.6,0.1,11.9,1.6,14.8
		c0.9,1.8,2.9,4.1,4.6,5.2c1.3,0.8,3.5,1.8,5,2C214,65.1,216.4,65,217.7,64.6L217.7,64.6z M127.3,63.3c8.2-0.7,8.7-0.9,10.8-3.1
		c3.8-4.2,4.4-12.8,1-16.2c-0.8-0.8-2.3-1.6-3.1-1.6c-0.3,0-0.1-0.2,0.6-0.5c3.6-1.8,4.7-9.4,2.1-14.9c-1-2.1-2.4-3.6-4.2-4.4
		l-1.3-0.6l-3.9,0.3c-4,0.3-11.8,1-11.9,1.1c0,0-0.1,9.2-0.2,20.4l-0.2,20.4l2.3-0.1C120.4,63.9,124,63.6,127.3,63.3z M124.1,57.5
		c-0.1-0.1-0.2-2.7-0.2-5.8v-5.6l3.5-0.1l3.5-0.1l0.8,0.8c0.4,0.4,1.1,1.4,1.4,2.1c0.6,1.2,0.6,1.6,0.6,3.5c0,2-0.1,2.3-0.7,3.3
		c-1,1.8-1.6,2-5.5,2.1C125.8,57.7,124.2,57.6,124.1,57.5L124.1,57.5z M125.3,39.7l-1.4-0.1l0.1-5.3l0.1-5.3l3.3-0.1l3.3-0.1
		l1.1,1.3c2.6,2.9,2.3,7.7-0.6,9.2C130,39.9,129.1,40,125.3,39.7L125.3,39.7z M159.8,62.4c5-1.1,8.4-4.7,9-9.4
		c0.1-1,0.2-6.2,0.2-11.5c-0.1-10.7-0.1-11.1-1.7-14.1c-0.9-1.8-3.2-4.1-4.8-5c-1.6-0.9-3.7-1.5-5.5-1.6c-4.2-0.3-8.8,2.9-11.1,7.6
		c-1.6,3.4-1.7,4.2-1.5,15.3c0.2,10.4,0.3,11.3,1.5,13.6C148.1,61.4,154.2,63.7,159.8,62.4L159.8,62.4z M154.7,56.1
		c-1.3-0.5-2.3-1.3-3-2.5l-0.6-1.1l-0.1-10.2L151,32.3l0.7-1.4c1.7-3.5,5.6-4.1,8.5-1.3c1.1,1,1.7,2.4,2,4.1c0.1,0.8,0.2,5.3,0.3,10
		c0.1,8.5,0.1,8.5-0.5,9.7C160.8,55.9,157.5,57.1,154.7,56.1L154.7,56.1z M197.8,62.2c0-0.2-1.6-4.3-3.5-9.1c-1.9-4.8-3.5-8.9-3.5-9
		c0-0.1,0.4-0.3,0.9-0.4c3.5-0.7,5.6-4.2,5.6-9.7c0-5.2-2.2-10-5.4-12c-1.2-0.7-3.2-0.9-12.4-1.2l-5.8-0.2v20.4v20.4l0.8,0.1
		c0.4,0.1,2.1,0.1,3.7,0.2l2.9,0l0-8.7l0-8.7l2-0.1l2-0.1l2.1,7c1.2,3.9,2.4,7.9,2.8,9l0.6,1.9l2.6,0.1c1.4,0,2.8,0.1,3,0.2
		C197,62.6,197.8,62.5,197.8,62.2L197.8,62.2z M181,38.8c-0.1-0.1-0.2-2.6-0.2-5.7v-5.5l2.9-0.2c3.3-0.2,4.2,0,5.5,1.3
		c2.1,2,2,7.6-0.2,9.5l-0.8,0.7h-3.5C182.7,38.9,181.1,38.9,181,38.8z"/>
	<path id="path3032" class="st4" d="M165.9,370.8c-8-5-27.9-21.2-41.3-33.6c-22-20.4-44-47.7-59-73.2C33.6,209.6,17,146.2,15,71.1
		c-0.6-21.9-0.5-22.6,1.5-27c2.8-5.8,5.2-7.5,18.4-12.6c36.2-14.2,74.5-20.7,126.9-21.7c59.2-1.1,108.1,6,147.5,21.5
		c13.6,5.4,16.1,7,18.8,12.9c2.1,4.4,2.1,5,1.5,27.5c-3.2,123.3-45.5,214.8-131.8,285c-10.5,8.5-21.4,16.3-24.1,17.1
		C172.4,374.2,169.9,373.3,165.9,370.8L165.9,370.8z M107.9,286.7c1.5-0.7,2.6-2.5,3.4-5.5c0.7-2.5,1.9-5.3,2.7-6.3
		c0.9-1.1,1.6-4.3,1.9-8.2c0.4-5.7,0.8-7,4.1-11.2c2.1-2.7,4.3-7.1,5.2-10.3c0.9-3.1,2.2-6.9,3-8.5c6.1-12,10.1-19,10.8-19
		c2.1,0,3.8,4.6,3.8,10.4c0,4.6,0.4,6.3,1.5,6.9c1.4,0.8,1.4,1.2,0.1,3.7c-0.8,1.6-1.7,4.1-2.1,5.7c-0.9,3.9-4,8.1-7.2,9.8
		c-1.5,0.8-4.7,3.4-7.1,5.8c-3.5,3.5-4.4,5.1-4.4,7.6c0,4.3,1.4,6.5,3,4.9c1.9-2,2.8-1.4,2.1,1.4c-0.6,2.5-0.5,2.6,2.6,1.9
		c4-0.8,7.5-3.1,8.2-5.3c0.3-0.9,0.9-2.3,1.3-3.1c0.5-0.8,2.2-4.5,3.9-8.1c2.1-4.6,4.4-7.8,7.4-10.2c2.3-2,4.9-5.1,5.7-6.9
		c2.3-5.5,8.8-10.2,8.8-6.3c0,2.3-3.7,9.2-6.4,11.9c-3.4,3.5-6,8.1-6,10.7c0,2.3,1.3,2.9,2.4,1.2c1-1.7,2.2-1,1.7,1
		c-0.4,1.6,0,1.9,2.4,1.9c4.9,0,9.5-2.8,10.2-6.2c0.3-1.7,1.5-4.4,2.5-6.1c1.2-2,1.6-3.9,1.2-5.5c-0.6-2.6,1.1-9.4,2.4-9.4
		c1,0,4.4,7.3,5.3,11.2c0.4,1.6,1.5,3.9,2.5,5c1.7,2,2.5,2.1,11.1,1.6c8.9-0.5,9.3-0.6,11.6-3.5c1.7-2.2,2.5-4.6,2.9-8.9
		c0.7-7.5,3.9-12.6,11.4-17.9l5.6-4l1.4,2.2c0.8,1.2,2.4,4.7,3.6,7.8c2.1,5.1,2.2,6,1,10.4c-0.7,2.6-0.9,5.7-0.6,6.9
		c0.4,1.1-0.1,4.2-1.1,6.8l-1.7,4.8l2.3,2.5c2.6,2.8,4.3,3.1,5.1,1c0.7-1.9,2.5-1.9,2.5,0.1c0,2.1,1.9,1.3,4-1.6
		c1.7-2.3,1.7-2.7,0.3-6.8c-0.8-2.4-1.3-5.1-1.1-6c0.2-0.9,0-3.6-0.5-5.8c-1.2-5.2-1.1-11.4,0.2-17.8c0.9-4.5,0.8-5.5-1.4-10.2
		c-1.3-2.9-2.2-5.4-2-5.6c0.2-0.2,2,0.2,4,1c9.3,3.7,16.5,2.9,20.9-2.4l2.6-3.1l-5.6-0.5c-6.4-0.6-6.7-0.7-13.5-6.7
		c-4.8-4.3-4.9-4.6-4.4-8.4c0.3-2.2-0.2-7.2-1.1-11.4c-1.5-6.8-1.5-7.8-0.1-12.7c0.8-2.9,1.5-6.6,1.5-8.2c0-4.7-2.6-12-5.6-15.8
		c-1.6-2-3.3-5.4-3.9-7.5c-0.6-2.2-2.1-5.5-3.4-7.4c-2.2-3.3-2.3-3.7-1-6.9c0.8-1.9,1.4-5.8,1.4-8.7c0-4.6-0.4-5.8-3.1-9
		c-5.9-6.8-8.6-7.4-36.5-8.3c-32.3-1-37.3-2.2-32.3-7.8c2.1-2.3,5.4-2.2,12.4,0.2c7.6,2.7,16.9,3.4,22.4,1.6
		c4.7-1.5,4.8-1.4-3.3-3.1c-1.3-0.3-2.4-1-2.4-1.6c0-0.7,1.5-0.9,4.5-0.5c12.5,1.7,14.6,1.8,14.6,0.9c0-1.6-8.4-4.8-17.1-6.6
		c-14.1-2.9-27.6-0.5-34.1,6c-3.9,4-4.4,8.3-1.1,10.5c4.1,2.7,10.9,3.6,35.2,4.4c22.2,0.7,24.9,1,28.7,2.9c4.7,2.3,6.8,5.4,6.7,9.9
		c-0.1,3.7-2.6,7.7-4.8,7.7c-3.7,0-16.1-3.2-24.8-6.3c-5.1-1.9-10.2-3.4-11.2-3.4c-2.4,0-5.2,1.9-13.4,9c-3.6,3.1-9.9,7.4-14.1,9.6
		c-13.5,7.2-17.7,12.9-19.6,26.8c-1,7.5-2.3,10.5-8.1,19.3c-4.8,7.3-8.3,17.1-8.3,23.7c0,3.2-1.1,8.3-3,13.6c-2.5,7-3,10.2-3.2,18.2
		c-0.2,8.3-0.6,10.4-2.6,14.3c-1.5,2.8-2.7,7-3.1,11c-0.6,5.9-1.1,6.9-5.4,12c-2.6,3.1-4.7,6.1-4.7,6.8c0,0.7-1.3,2.7-2.9,4.5
		c-3.6,4.2-5.4,9.1-3.9,10.6c0.8,0.8,1.5,0.6,2.6-1c2.1-3,3.3-2.7,2.3,0.7c-0.5,2-0.5,3,0.3,3.4C99.6,288.8,105,288,107.9,286.7
		L107.9,286.7z M181,82.5c-2.7-1.7-0.1-2.2,4-0.7l4.1,1.5l-3.3,0.1C183.9,83.4,181.8,83,181,82.5z M43.2,81.3
		c7.4-2.7,7.9-3.1,7.9-5.8c0-1.6-0.1-2.8-0.3-2.8s-2.8,0.9-5.9,1.9c-3.1,1.1-5.7,1.9-5.9,1.9c-0.2,0-0.3-7.7-0.3-17s-0.2-17-0.3-17
		s-1.7,0.5-3.3,1.1l-3,1.1v20.4c0,19.1,0.1,20.4,1.7,19.8C34.5,84.5,38.8,82.9,43.2,81.3z M312.8,65V44.7l-3-1.1
		c-1.7-0.6-3.2-1.1-3.3-1.1c-0.2,0-0.3,9.1-0.3,20.3v20.3l3.1,1c1.7,0.6,3.2,1.1,3.3,1.1C312.7,85.3,312.8,76.2,312.8,65L312.8,65z
		 M298.3,59.4L298,39.3l-2.6-0.7l-2.6-0.7l0,10.9c0,12.5-0.1,12.4-5.8-2.3c-4.2-10.8-5.6-12.7-9.1-12.7h-2.2v20
		c0,15.3,0.3,20,1.2,20c0.7,0,2.1,0.3,3.3,0.6c2.1,0.6,2.1,0.4,2.4-11.3l0.3-11.9l5.2,13.3c2.9,7.3,5.9,13.7,6.7,14.2
		C298.4,80.9,298.5,80.3,298.3,59.4z M59.8,76c0.3-0.2,0.9-2.8,1.3-5.7c0.7-6,0.7-5.9,5.4-6.8l3.5-0.7l1.2,4.9
		c1.1,4.8,1.2,4.9,4.2,4.3c1.7-0.3,3.2-0.7,3.4-0.9c0.5-0.4-8.6-36.6-9.4-37.4c-0.3-0.3-1.9-0.2-3.5,0.2c-2.9,0.8-3,0.9-6.5,16.7
		c-2,8.7-4.2,18.4-4.9,21.5l-1.3,5.7l3-0.7C57.8,76.7,59.4,76.2,59.8,76z M63.9,56.3c0.3-1,0.9-3.8,1.3-6.1L66,46l1.3,5.2
		c1.1,4.4,1.1,5.4-0.1,6.1C64.9,58.7,63.3,58.3,63.9,56.3L63.9,56.3z M268.9,51.9c0-10.9-0.3-20.1-0.7-20.3c-0.4-0.2-1.9-0.7-3.3-1
		l-2.6-0.6v20.4v20.4l2.6,0.4c1.4,0.2,2.9,0.5,3.3,0.6C268.5,71.7,268.9,62.8,268.9,51.9L268.9,51.9z M88.5,69.3
		c0.9-0.4,1.2-2.3,1-7.1c-0.2-3.6-0.2-8.3,0-10.5c0.3-3.6,0.6-3.1,4,7.3l3.7,11.1l3.4-12.5l3.4-12.5l0.3,10.9
		c0.2,9.4,0.5,10.8,1.8,10.4c0.8-0.3,2.3-0.6,3.3-0.6c1.7,0,1.8-0.9,1.8-20.2V25.4l-3.3,0.4c-3.2,0.4-3.3,0.6-5.8,8.8
		c-1.4,4.6-3.1,10.2-3.8,12.3l-1.2,3.9L94,40.6c-1.7-5.6-3.4-10.6-3.9-11c-0.4-0.5-2.1-0.5-3.7-0.2l-3,0.7v19.9
		c0,18.9,0.1,19.9,1.8,19.9C86.4,69.8,87.8,69.6,88.5,69.3z M254.3,48.6l-0.3-20.2l-2.6-0.3l-2.6-0.3v7.9v7.9l-4.1-0.6
		c-6.7-1-6.4-0.6-6.4-9.1c0-5.6-0.3-7.8-1.2-7.8c-0.7,0-2.2-0.3-3.3-0.6l-2.1-0.6v20.4v20.4l3.3,0.4l3.3,0.4v-9.1
		c0-10-0.3-9.6,6.9-8.4l3.6,0.6v9c0,7.8,0.2,9.1,1.7,9.5C254.7,69.3,254.6,69.8,254.3,48.6L254.3,48.6z M134.1,62.7
		c3.9-1.9,6.1-5.9,6.2-11.3c0.1-3.7-0.4-5.3-2-7c-2-2.1-2-2.1-0.2-5.1c2.2-3.7,2.3-7.5,0.4-11.3c-1.8-3.6-6.4-4.8-14.3-4l-5.7,0.6
		l-0.3,20.3l-0.3,20.3l6.9-0.7C128.6,64.1,132.8,63.3,134.1,62.7L134.1,62.7z M124.6,52.5c0-5.1,0.3-5.9,2-6.3c5.3-1.4,9.2,4,6.5,9
		c-1,1.9-2.3,2.6-4.9,2.8l-3.6,0.3C124.6,58.2,124.6,52.5,124.6,52.5z M124.6,35.2v-5.3h3.2c3.8,0,5.4,1.5,5.4,4.9
		c0,3.1-1.3,4.3-5.5,5.1l-3.1,0.6C124.6,40.6,124.6,35.2,124.6,35.2z M221.7,62.5c2.5-1.7,4.1-6.9,4.2-13.4c0-5.1-0.1-5.2-6.9-5.9
		l-4.5-0.4v3.3c0,2.9,0.3,3.3,2.4,3.3c1.9,0,2.4,0.5,2.4,2.5c0,5.8-4.6,8.3-8,4.5c-4.7-5.3-3.6-25.4,1.4-27c2.1-0.7,5.6,1.9,5.6,4.1
		c0,0.8,1.2,1.3,3.3,1.3c3.8,0,4.2-1.3,1.9-5.8c-2-4-5.1-5.9-9.6-5.9c-8.2,0-11.9,6.2-11.9,20c0,9.1,1.4,14.8,4.3,18.1
		C209.7,64.9,217.1,65.6,221.7,62.5L221.7,62.5z M162.6,61.5c1.2-0.8,3.1-3.4,4.2-5.6c3-5.9,3.1-20.6,0.1-27.1
		c-2-4.5-5.9-7.6-9.4-7.6c-3.3,0-7.8,3.1-9.9,6.9c-4.4,8-3.6,25.9,1.6,32.1c2,2.4,3.1,2.9,6.8,2.9C158.5,63,161.4,62.3,162.6,61.5
		L162.6,61.5z M153.5,54.5c-1.2-1.9-1.8-5-2-11.4c-0.2-7.5,0-9.3,1.7-12c2.5-4,5.6-3.9,7.7,0.3c2.2,4.4,2,19.7-0.3,23.2
		C158.5,57.9,155.7,57.9,153.5,54.5L153.5,54.5z M181,53.9c0-8.2,0.1-8.6,2-8.3c1.6,0.2,2.6,2,5,8.8l3,8.5h3.6h3.6l-3.1-9.2
		l-3.1-9.2l2.6-2.5c3.1-3,4.1-7.4,2.8-12.5c-1.5-5.6-5.2-7.6-14.5-7.6l-7.4,0l-0.3,20c-0.2,11-0.2,20.1-0.1,20.2
		c0.1,0.1,1.5,0.2,3.1,0.2h2.9V53.9L181,53.9z M181.7,39.1c-0.4-0.4-0.7-3.1-0.7-6.1v-5.3l4,0.6c5.7,0.8,8.1,4.8,5.3,8.8
		C189,38.8,182.9,40.3,181.7,39.1z M2.5,65.9c0-1.3,0.2-1.9,0.5-1.2s0.3,1.8,0,2.4C2.7,67.8,2.5,67.2,2.5,65.9z M2.6,57.2
		c0-2.9,0.2-4.1,0.4-2.7c0.2,1.5,0.2,3.9,0,5.4C2.8,61.3,2.6,60.1,2.6,57.2z"/>
	<path id="path3030" class="st5" d="M163.2,366.1c-23.5-17.1-52.8-44.8-69.3-65.6C44.2,237.8,20.6,167.2,17.1,70.3
		c-0.9-25.8,0.4-28.9,14.4-34.9C68,19.8,115,12,172.4,12c43.2,0,73.4,3.4,106.5,12c15,3.9,36,11.3,41.3,14.6c4,2.5,6.7,7,7.5,12.6
		c0.8,5.6-1.1,45-3,62.3C314.7,203,282.4,272.2,223.9,330c-18.8,18.6-47.3,41.5-51.6,41.5C171.4,371.5,167.3,369.1,163.2,366.1
		L163.2,366.1z M108.1,286.9c2.2-1.4,3.2-2.9,3.7-5.6c0.4-2,1.5-4.7,2.4-6c1.3-1.7,1.8-4,1.8-8.4c0-5.7,0.3-6.4,3.8-10.8
		c2.6-3.2,4.6-7.1,6.1-12.2c1.3-4.1,3.1-8.7,4.1-10.2c1-1.5,3.2-5.4,4.9-8.8c1.7-3.3,3.4-6.1,3.8-6.1c2,0,3.4,3.4,3.2,8.1
		c-0.3,6,0.4,8.5,2.3,8.5c1.2,0,1.2,0.4-0.1,2.9c-0.8,1.6-1.5,3.4-1.5,4.1c0,3-4.2,9.7-7.3,11.6c-1.9,1.2-4.3,3-5.5,4.2
		s-3.1,2.8-4.2,3.7c-1.9,1.6-2.6,4.3-2.1,9c0.3,2.8,1.7,4,3.1,2.6c1.8-1.8,2.8-1.4,1.7,0.8c-0.9,1.8-0.7,1.9,2.1,1.9
		c3.6,0,9.3-3.2,9.3-5.2c0-1.3,6.8-15.1,9.1-18.5c0.7-1,2.6-2.6,4.2-3.6s3.7-3.5,4.6-5.5c2.1-4.8,5-8,7.1-8c1,0,1.7,0.2,1.7,0.5
		c0,1.6-5.9,12-7.1,12.5c-1.8,0.7-6.6,10.1-5.8,11.4c0.7,1.2,3.3,1.2,3.3,0c0-0.5,0.4-1,0.9-1s0.7,0.7,0.3,1.6
		c-0.8,2.2,1.3,3.2,5.1,2.3c5-1.1,8-3.6,8-6.4c0-1.3,0.9-3.7,2-5.3c1.6-2.2,1.9-3.6,1.5-6.4c-0.6-3.5,0.8-8.3,2.3-8.3
		c1.1,0,3.3,4.6,4.6,9.7c1.9,7.2,2.6,7.6,13.5,7.6c7.2,0,9.8-0.3,10.7-1.4c0.6-0.8,2-2.3,3-3.5c1.3-1.5,1.9-3.6,2-7.6
		c0.1-4.7,0.7-6.3,3.4-10.2c4.1-5.8,12-11.6,13.8-10.1c0.7,0.6,2.4,3.9,3.8,7.5c2.3,5.9,2.4,6.9,1.4,10.6c-0.6,2.3-0.9,5.4-0.6,6.9
		c0.3,1.5-0.1,4.2-0.8,6c-1.9,4.6-1.7,6.7,1,9.4c2.9,3,4.2,3,5.2,0.2l0.8-2.2l0.9,2.4l0.9,2.4l2.5-2.6c2.9-2.9,3.2-5.4,1.2-9.4
		c-0.8-1.5-1.1-3.7-0.8-4.9c0.3-1.2,0-4.8-0.7-8c-1-4.8-1-7.4,0-13.8c1.2-7.6,1.1-8.2-0.8-11.8c-3.1-5.8-2.7-6.4,2.8-4.3
		c8.3,3.2,17,1.9,20.4-3.1c2.4-3.5,2-4.8-1.3-4.1c-5.1,1-9.1-0.5-14.8-5.5l-5.4-4.8l-0.5-8.5c-0.5-8.9-0.5-14.2-0.1-28.3
		c0.2-8.6,0.2-8.6-3.5-14.4c-2.1-3.2-4.5-7.9-5.4-10.4c-0.9-2.6-2.5-5.7-3.7-7c-2-2.2-2-2.4-0.6-5.3c4.6-9,1.8-17.8-7-22.9l-5.2-2.9
		L193.5,91c-31-1-36.8-2.1-34.4-6.7c1.6-3,5-3.1,13.3-0.5c8.4,2.7,17.6,3.3,22.8,1.4c3.5-1.2,3.1-2.8-0.7-2.8
		c-1.4,0-3.5-0.7-4.5-1.5c-1.7-1.4-1.6-1.5,2-1c11.7,1.6,15.8,1.8,15.8,0.7c0-0.6-1.8-1.9-4.1-2.9c-13.8-6-31.4-6.6-41.4-1.5
		c-5.1,2.6-10,7.7-10,10.4c0,1.8,4.7,5.5,8.2,6.6c2,0.6,14.9,1.5,28.5,2.1c26.8,1,31.3,1.9,34.9,6.4c2.6,3.3,2.5,8.3-0.3,11.5
		l-2.2,2.6l-7.4-1.6c-4.1-0.9-11.2-2.9-15.7-4.6c-14.3-5.2-14.4-5.2-25.7,4.4c-3.8,3.3-11.3,8.4-16.7,11.3
		c-13.6,7.6-16.3,11.9-18.5,29.3c-0.4,3.3-2,6.8-5.4,12.2c-7.3,11.4-9.4,16.6-10.3,26.3c-0.5,5-2,11.9-3.7,16.8
		c-2.4,6.9-2.9,9.8-2.9,17.2c0,7.6-0.4,9.5-2.3,13.1c-1.3,2.3-2.6,6.4-2.9,9.1c-1,8.3-1.4,9.1-5.7,14c-2.3,2.6-4.5,5.8-4.9,7.1
		c-0.4,1.2-1.9,3.7-3.4,5.4c-3,3.5-4.2,7.1-3.3,9.7c0.6,1.5,1,1.3,3.1-1.2l2.4-2.9l-0.6,3.6l-0.6,3.6l4.1,0
		C103.3,288.8,106.3,288,108.1,286.9L108.1,286.9z M181.4,82.4c-1-1.6-0.2-1.7,3.4-0.4l3.3,1.3l-3,0.1
		C183.4,83.4,181.8,83,181.4,82.4L181.4,82.4z M35.1,165.9c-4.5-23.4-7.4-49.9-8.9-80.1c-1.6-31.7-1.6-32.1-3.4-34.9
		c-0.9-1.4-2-2.6-2.5-2.6c-2.8,0,0.8,55.2,5.5,83.7c2.7,16.3,8.6,40.9,9.9,40.9C36.2,173,35.9,169.8,35.1,165.9L35.1,165.9z
		 M52,75.4c0-2-0.1-3.6-0.3-3.6s-2.8,0.9-5.9,1.9c-3.1,1.1-5.8,1.7-6.1,1.4c-0.3-0.3-0.7-7.7-0.9-16.5s-0.8-16-1.2-16
		c-0.4,0-1.9,0.4-3.2,0.9l-2.5,0.9v20.9v20.9l10-3.6L52,79L52,75.4L52,75.4z M312.1,44.4c-0.4-0.4-1.9-1-3.4-1.4l-2.6-0.7v20.5v20.5
		l3.1,1.3l3.1,1.3l0.3-20.4C312.7,54.3,312.5,44.8,312.1,44.4L312.1,44.4z M299.4,60.1c0-11.2-0.3-20.6-0.7-20.8
		c-0.4-0.2-2.2-0.7-3.9-1.1l-3.2-0.7l0.3,9.8c0.2,5.4,0.1,9.8-0.1,9.8c-0.3,0-2.3-4.7-4.5-10.5c-5-12.8-4.8-12.5-8.6-13.3l-3.1-0.7
		v20.5c0,11.3,0.3,20.6,0.7,20.9s1.9,0.7,3.3,1l2.6,0.6V64.3c0-6.3,0.4-11,0.8-10.5c0.4,0.5,2.9,6.3,5.4,12.9
		c4.5,11.7,5.8,13.5,9.8,13.7C299.2,80.5,299.4,75.8,299.4,60.1z M57.6,77.5c2.7-0.9,3.1-1.7,4.1-6.7c1-5.2,1.3-5.7,4-6.2
		c4.3-0.9,4.3-0.9,5,3.1c0.9,5.7,1.5,6.2,5.6,5c1.9-0.5,3.5-1.2,3.5-1.5S78,64.4,76,56.8c-2-7.6-4.3-16.1-5-18.9
		c-1.2-5-1.3-5.1-4.2-4.5c-1.6,0.3-3.2,0.9-3.6,1.3C62.6,35.3,53,75.1,53,77.3C52.9,78.8,53.7,78.9,57.6,77.5z M64.8,55
		c0.3-1.6,0.6-3.7,0.6-4.5c0-2.5,1.6,0,2.2,3.4c0.5,2.5,0.2,3.2-1.4,3.6C64.4,57.9,64.3,57.7,64.8,55z M326.1,58.6
		c0.1-7-0.6-11.2-1.8-11.2c-0.4,0-1.4,0.6-2.4,1.3c-1.6,1.2-1.6,1.7-0.1,11.9c0.9,5.9,1.9,11.3,2.2,12.1
		C324.8,74.8,326,66.6,326.1,58.6L326.1,58.6z M268.9,51.9V31.1l-3-0.6c-1.7-0.3-3.1-0.5-3.2-0.4c-0.1,0.1-0.5,9.3-0.8,20.3
		l-0.6,20.1l3.6,1c2,0.5,3.7,1,3.8,1.1C268.8,72.7,268.9,63.4,268.9,51.9L268.9,51.9z M88.1,70.2c2-0.6,2.2-1.1,2.2-10l0.1-9.4
		l3.1,9.5c1.7,5.2,3.3,9.7,3.6,10s1.4-2.5,2.5-6.1c1.1-3.6,2.6-8.8,3.4-11.5l1.4-4.9l0.1,9.8l0.1,9.8l3.6-0.6l3.6-0.6l-0.4-20.4
		c-0.2-11.2-0.5-20.6-0.6-20.7c-0.1-0.2-1.7,0.1-3.4,0.5c-3.1,0.8-3.3,1.1-6.5,12.4l-3.3,11.5L94,39c-3.4-10.5-3.5-10.6-6.3-10.3
		c-1.5,0.2-3.1,0.6-3.4,1c-0.4,0.4-0.8,9.7-1,20.8C83,72.4,82.8,71.6,88.1,70.2L88.1,70.2z M255.5,49.4c0-11.2-0.3-20.6-0.7-20.8
		c-0.4-0.2-2-0.6-3.6-0.8l-2.9-0.3L248,35c-0.3,7.5-0.3,7.5-2.9,7.5c-6.5,0-6.8-0.5-7.1-9.1l-0.3-7.9l-3.1-0.3l-3.1-0.3v20.4
		c0,21.8-0.1,21.6,4.8,21.6c1.6,0,1.8-0.9,2.1-9l0.3-9l3.8,0.3c2.1,0.2,4.1,0.5,4.5,0.8c0.4,0.2,0.7,4.6,0.7,9.6v9.1l3.1,0.4
		c1.7,0.2,3.4,0.5,3.8,0.5C255.2,69.7,255.5,60.6,255.5,49.4L255.5,49.4z M133.9,63.4c6.3-2.6,8.9-12.2,5.2-18.5
		c-1.5-2.6-1.6-3.2-0.5-4.8c1.8-2.5,1.7-10.2-0.2-13c-2.3-3.4-5.7-4.2-13.5-3.5l-6.9,0.7v20.8V66l6.4-0.6
		C127.9,65,132.2,64.1,133.9,63.4z M125,56.8c-0.3-0.7-0.4-3.3-0.2-5.6c0.3-3.8,0.6-4.3,3-4.6c3.8-0.4,5.4,1.4,5.4,5.8
		c0,3.2-0.4,4-2.5,4.7C127.4,58.5,125.6,58.4,125,56.8z M124.6,35.4c0-3.7,0.3-4.4,2.3-4.9c3.2-0.8,5.2,0.2,5.9,3
		c0.8,3.1-2,6.2-5.5,6.2C124.7,39.6,124.6,39.4,124.6,35.4z M220.5,63.8c3.5-1.6,5.3-6.5,5.3-13.7v-6.3l-4.4-0.6c-7-1-7-0.9-7,2.8
		c0,2.8,0.4,3.4,1.9,3.4c2.8,0,2.8,7.4,0,8.3c-4.9,1.6-7.7-3.9-7.7-14.9c0-8.2,1.9-12.9,5.3-12.9c1.9,0,2.8,0.7,3.6,3
		c1,2.8,1.4,2.9,4.5,2.3c1.8-0.4,3.5-0.8,3.6-0.9c0.2-0.2-0.3-1.8-1.1-3.6c-4.2-10.2-16.6-11-20.8-1.3c-2.5,5.9-3.3,15.2-1.8,22.4
		c1.6,7.9,6.5,13.1,12.3,13.1C216.4,64.9,219.2,64.4,220.5,63.8L220.5,63.8z M162.4,62.1c4.3-2.6,6.4-8,6.9-17.2
		c0.8-14.9-3.9-23.8-12.4-23.8c-3.1,0-4.5,0.6-7,3.2c-4.2,4.3-5.5,9.8-5.1,21.1c0.3,7.4,0.8,10,2.5,12.7
		C150.8,64,156.9,65.6,162.4,62.1L162.4,62.1z M154.8,55.6c-4.9-5-4-25.2,1.2-27.2c6.1-2.4,9,20.6,3.4,26.9
		C157.4,57.5,156.7,57.6,154.8,55.6z M198.2,63.2c0-0.4-1.3-4.7-2.8-9.4l-2.8-8.6l3-3.4c2.7-3.1,2.9-3.9,2.5-8.6
		c-0.7-8.8-5.5-12-17.7-12l-6,0v20.9V63h3.8h3.8v-8.8c0-11.7,1.6-11.7,5.7-0.1c2.7,7.7,3.4,8.8,5.6,9.1
		C197.8,64,198.2,64,198.2,63.2L198.2,63.2z M181.9,33.6v-5.2l3.3,0.4c4.2,0.5,5.5,2.1,5.1,6.2c-0.3,3-0.5,3.2-4.4,3.5l-4.1,0.3
		V33.6z M28.1,42.3c0.1-1.3-3.3-0.8-5.5,0.8l-2.2,1.6l2.2,2.4l2.2,2.4l1.7-3.2C27.3,44.5,28,42.7,28.1,42.3z"/>
	<g id="g3060" transform="matrix(0.95536881,0,0,0.97325585,-276.43252,0.08142099)">
		<path id="path3028" class="st6" d="M454.7,371.3c-70.3-52.9-113.8-117.8-133.9-200c-8.1-33.1-13-73.9-13-108.2
			c0-18.7,1.3-20.8,17.8-27.3c52.8-21,131.1-28.3,207.2-19.5c38.6,4.5,87.3,18.4,95,27.1c3.1,3.6,3.8,5.6,1.7,4.8
			c-0.7-0.2-2.3,0.3-3.5,1.3c-2.3,1.8-2.3,1.8-0.8,10.2c0.8,4.7,1.8,13.3,2.2,19.2c0.4,5.9,1,10.8,1.5,10.8c1.3,0,2-7.1,2.2-24
			l0.2-16.5l0.3,13.5c0.7,25.4-3.1,63.1-9.3,93.6c-11.6,56.9-34.1,106.1-68.1,148.9c-21.5,27-75.8,75.5-84.6,75.5
			C468.1,380.6,462.4,377,454.7,371.3L454.7,371.3z M478.9,372.5c13-8.4,25.8-19.1,40.5-34.1c20.2-20.4,31.9-34.1,35.9-41.9
			c1.2-2.4,1.2-2.8-0.6-4.4c-1.9-1.7-2.3-1.4-15.7,11.8c-16.7,16.5-28.3,25.8-28.3,22.8c0-1.8-12.9-9.1-20.7-11.7
			c-13.8-4.6-28.8-4.2-41,1.2l-5.2,2.3l-1.7-5.7c-4.7-16-7.3-37.3-4.8-39c0.6-0.4,2.4-3.5,3.9-7c2-4.5,4.3-7.5,8-10.7
			c3.1-2.7,5.6-5.7,6.1-7.7c0.9-3.3,5.4-7.4,7.3-6.8c1.6,0.6-2,7.7-6.5,13c-2.2,2.5-4.6,6-5.3,7.8c-1.2,2.8-1.1,3.4,0.3,4.8
			c1.5,1.5,1.7,1.5,2.4-0.3c0.7-1.8,0.8-1.7,1.3,0.6c0.8,3.3,3.7,3.7,9.3,1.2c3.9-1.7,4.5-2.4,5-5.9c0.4-2.2,1.4-4.6,2.2-5.3
			c1.1-0.9,1.5-2.6,1.3-5.4c-0.3-4.3,0.8-9.6,2-9.6c1.2,0,3.9,5.4,4.6,9.3c0.4,2.1,1.6,4.9,2.7,6.2c1.9,2.4,2.5,2.5,12.3,2.5h10.3
			l2.8-3.7c2.2-2.9,2.9-4.9,3-9c0.2-7.1,3.9-13.1,11.1-18.3l5.7-4.1l1.6,2.2c0.9,1.2,2.6,4.8,3.8,8.1c1.7,4.6,1.9,6.5,1.1,8.6
			c-0.6,1.5-1.2,5.4-1.4,8.7c-0.2,3.3-0.7,7.7-1,9.7c-0.6,3.1-0.3,3.9,2.1,5.8c3.4,2.7,4.3,2.7,5.4-0.1c0.7-1.6,0.9-1.8,1-0.6
			c0.1,2.9,2.1,3.1,4.7,0.7c2.1-2,2.4-2.9,1.9-6.4c-0.3-2.2-1-6.9-1.5-10.5s-1.2-7.3-1.6-8.3s-0.2-5.9,0.5-11
			c1.2-8.8,1.2-9.4-0.9-13.4c-2.9-5.7-2.7-6.6,1-4.7c4.3,2.2,14,3,17.8,1.4c3.3-1.4,7-5.4,7-7.6c0-1-1.2-1.2-4.8-0.8
			c-3.9,0.5-5.3,0.1-7.9-1.8c-1.7-1.3-5-3.7-7.3-5.3c-3.9-2.9-4.1-3.2-3.6-7.1c0.3-2.3-0.2-7.3-1.1-11.4c-0.9-4-1.4-8.7-1.1-10.4
			c0.3-1.7,1-5.3,1.6-7.9c1.4-6.6-0.3-13.4-4.9-20.5c-2.1-3.2-4.4-7.5-5.1-9.7c-0.7-2.2-2.1-5.2-3.2-6.8c-1.9-2.7-1.9-3-0.2-7.9
			c3.2-9.7-0.1-17.5-9.3-22c-4.5-2.2-6.4-2.4-29.3-3c-21.9-0.6-33.4-1.7-36.1-3.4c-1.9-1.1-0.9-4.5,1.6-5.7c2.1-1,4-0.7,11.3,1.7
			c9.3,3.1,19.1,3.7,24.5,1.6c3.6-1.4,2.8-2.7-2.2-3.5c-2.2-0.3-4.2-1.1-4.6-1.6c-0.9-1.4,1.3-1.3,8.9,0.5
			c6.2,1.4,11.6,1.2,11.6-0.5c0-1.1-8.4-4.6-15.6-6.4c-8.1-2.1-22.6-2.1-29.2,0.1c-6.1,2-12.6,7.3-13.6,11c-0.8,3.3,2,6.6,7.2,8.3
			c2.1,0.7,15.9,1.8,31.7,2.5c29.8,1.3,32.5,1.9,35.9,6.8c2.3,3.3,2,8.2-0.8,11.4c-2.3,2.6-2.4,2.7-7.8,1.5
			c-3-0.7-11.3-3.1-18.5-5.4c-10.1-3.3-13.7-4.1-16-3.4c-1.6,0.4-6.3,3.7-10.5,7.3c-4.2,3.6-11.9,8.8-17.3,11.6
			c-13.8,7.3-18,12.9-19.7,26.4c-1,7.6-2.6,11.5-9.6,22.5c-4.7,7.5-7.4,15.1-7.4,21.1c0,3.1-1.4,9.1-3.5,15.5
			c-3,8.8-3.5,11.8-3.5,19.4c0,7.5-0.4,9.6-2.5,13.7c-1.4,2.7-2.8,7.1-3.1,9.8c-0.9,8.2-1.2,8.8-6.4,15c-2.8,3.3-5,6.8-5,7.8
			s-0.4,1.8-1,1.8c-1.7,0-6,7.3-6,10.2c0,3.8,1.9,4.6,4.1,1.7l1.9-2.4l-0.6,3.3c-0.5,2.8-0.3,3.3,1.5,3.3c1.4,0,2.9,1.5,4.8,4.8
			c10.6,18.5,33.9,45.8,51.4,59.9c8.8,7.1,20.9,15.4,22.5,15.4C471.9,376.6,475.3,374.8,478.9,372.5L478.9,372.5z M410.7,280.2
			c0.5-1.4,0.9-4.8,0.9-7.5c-0.1-4.1,0.4-5.6,2.9-8.7c3.8-4.8,5.7-8.7,7.3-14.3c1.3-4.8,11.7-25,12.9-25c2.1,0,3.1,3,3.1,9.2
			c0,5.1,0.4,7,1.6,7.6c2.5,1.4-1.1,11.6-5.8,16.1c-6.1,5.9-9.1,8.5-12,10.3c-2,1.2-2.9,2.8-3.4,5.8c-0.4,2.2-1,4-1.4,4
			s-2.2,1.2-3.9,2.6l-3.1,2.6L410.7,280.2L410.7,280.2z M479.8,84.6c-1.2-0.8-1.2-1,0.5-0.9c1.1,0,2.9,0.4,4,0.9
			c1.8,0.8,1.8,0.9-0.5,0.9C482.4,85.6,480.6,85.2,479.8,84.6z M338.1,211.9c-1.9-5.9-5.4-18.9-7.9-28.8
			c-8.4-33.9-11.2-56.8-14.1-114.6c-0.5-9.8-1.1-13.3-2.5-15.7c-2.2-3.7-3.9-4-4-0.9c-1.3,41.1,5.5,93.3,17,131.4
			c5,16.5,13.2,39.4,14.1,39.4C341.2,222.6,340,217.8,338.1,211.9L338.1,211.9z M369.3,153.2c19.5-5.1,37.6-20.1,46.1-38
			c1-2.2,1.9-4.2,2-4.5c0-0.3,0.9-3.2,2-6.5c1.4-4.4,1.9-9.1,1.9-18c0-13.5-0.7-17.4-3.2-17.6c-1-0.1,0.8-0.5,4-1
			c10.9-1.6,14.8-5.5,14.8-14.8c0-3.4-0.6-5.7-1.9-7.3c-1.8-2.2-1.8-2.5-0.3-4.2c1.1-1.2,1.7-3.6,1.7-6.8c0-4.4-0.4-5.3-3.3-7.9
			c-3.4-3.1-7.9-3.7-16.5-2.3l-3.8,0.6v13.3c0,7.3-0.3,14-0.6,14.9c-0.3,0.9-1.7,1.6-3,1.6h-2.4V40.1c0-14.4,0-14.5-2.3-14.5
			c-5.8,0-6.3,0.6-9.8,12.7L391.4,50l-3.5-10.7l-3.5-10.7l-3.5,0.6c-1.9,0.3-3.9,0.8-4.3,1.1c-0.4,0.2-0.8,6.7-0.8,14.3v13.8
			l-2.6,0.7c-1.5,0.4-3,0.3-3.4-0.1c-0.4-0.4-2.1-6.1-3.8-12.7s-3.3-12.1-3.5-12.3c-0.2-0.2-2-0.1-4,0.2l-3.5,0.7L352.3,46
			c-4.8,20.2-3.8,18.3-9.8,19.7c-2.9,0.7-6.7,1.8-8.5,2.5l-3.3,1.3V56c0-12-0.2-13.5-1.6-12.9c-0.9,0.3-2.7,0.9-4.1,1.2l-2.5,0.6
			l0.4,22.6c0.4,25,1.7,34,8.1,57.2c4.9,17.7,9.3,28.8,12,30C346.1,156,362,155.1,369.3,153.2L369.3,153.2z M357.2,57.1
			c0.3-0.9,0.6-2.5,0.6-3.7c0-2.7,1.5-1.1,2.4,2.5c0.6,2.3,0.3,2.8-1.5,2.8C357.2,58.6,356.7,58.2,357.2,57.1L357.2,57.1z
			 M420.8,53.8c0-4.2,0.3-5,2.2-5.4c3.5-0.9,5.8,1,5.8,4.7c0,4-1.5,5.7-5.2,5.7C420.9,58.6,420.8,58.4,420.8,53.8z M384.4,57
			c-0.4-0.4-0.7-1.4-0.6-2.3c0-1.3,0.2-1.3,1.1,0.2C386,56.8,385.7,58.2,384.4,57z M397.9,53.6c0-1.4,0.2-1.9,0.5-1.3s0.3,1.8,0,2.5
			S397.9,55,397.9,53.6z M420.8,36.1c0-4.5,0-4.5,3.5-4.5c3.5,0,4.1,0.8,3.5,5c-0.2,1.9-2.9,4-5.2,4
			C421.1,40.6,420.8,39.8,420.8,36.1z M613.7,126.7c2.8-7,7.1-32.4,7-41.8c0-3.6-0.8-7.3-2-9.8c-1.6-3.3-1.9-6.2-2-17.1l0-13.1
			l-3.5-1.1l-3.5-1.1L609.5,55c-0.3,11.5-0.4,12.1-2.3,11.8c-4.5-0.7-4.5-0.6-4.5-14V39.9l-3.1-0.6c-1.7-0.3-3.5-0.6-4-0.6
			s-0.9,4.4-0.9,9.8l0,9.8l-4.6-11c-2.5-6-4.9-11.3-5.2-11.6c-0.4-0.4-2.1-1-3.9-1.3l-3.3-0.7v13.1c0,13,0,13.1-2.3,13.1
			c-4.2,0-4.7-1.6-4.7-15.1c0-12.3-0.1-12.7-2.3-13.3c-5.9-1.6-5.8-1.8-5.8,13v13.6l-2.3-0.6c-1.2-0.3-2.6-0.6-3-0.6
			c-0.4,0-0.8-6.3-0.8-13.9V28.9l-3.1-0.6c-1.7-0.3-3.5-0.6-4-0.6s-0.9,3.6-0.9,8c0,8.6,0.1,8.6-5.8,7.4l-3.1-0.6l-0.3-8.1l-0.3-8.1
			l-3.8-0.3l-3.8-0.3V47v21.5l3.5,0.4c1.9,0.2,3.7,0.2,4-0.1s0.5-4.4,0.5-9.3c0-9.5-0.1-9.4,5.9-8.2l3.1,0.6l0.1,7.6
			c0.1,8.5,1.5,27.5,2.2,30.6c3.9,15.5,16.3,29.8,30.8,35.6c7.7,3,12.2,3.8,22.1,3.7C612.3,129.3,612.7,129.2,613.7,126.7
			L613.7,126.7z M586.3,61.4c-1-3.4-1.3-5.7-0.6-5.3c1.3,0.8,3,6.5,1.9,6.5C587.1,62.6,586.5,62.1,586.3,61.4z M521.5,65.1
			c3.2-2.1,4.3-5.4,4.3-13.4c0-7.6-0.4-8-8.3-8c-3.7,0-3.8,0-3.8,4c0,3.3,0.3,4,2,4c1.5,0,2,0.7,2,2.9c0,4.2-2.3,5.8-5.5,3.7
			c-3.2-2.1-4-5.2-4-14.7c0-11.4,4.4-16.8,8.3-9.9c1.5,2.6,2.2,3,5.2,2.7c3.1-0.3,3.5-0.6,3.3-3c-0.4-6.5-8.3-12-14.9-10.3
			c-3.9,1-8,5.8-9.3,11c-2.4,9.7-0.6,23.2,3.9,28.9C508.4,67.6,516.2,68.5,521.5,65.1z M460.6,63.1c4.2-3.5,6.3-9.6,6.5-18.5
			c0.3-14.6-4.4-23-12.8-23c-8.9,0-14,8.3-14,22.5c0,9.3,2.3,16.4,6.2,19.5C450.2,66.6,456.8,66.3,460.6,63.1L460.6,63.1z M450.6,56
			c-0.9-1.1-1.5-5-1.7-11.3c-0.3-10.6,0.8-14.4,4.6-14.9c3.7-0.5,5.5,5.4,5,16c-0.4,8.9-1.6,11.9-4.8,11.9
			C452.8,57.6,451.4,56.9,450.6,56z M479.6,56.4c0.4-11.7,2-11.6,6.3,0.3l3.2,9h4.4c2.4,0,4.3-0.1,4.3-0.3c0-0.1-1.5-4.5-3.3-9.6
			l-3.3-9.4l2.8-2.8c2.3-2.3,2.8-3.7,2.8-7.9c0-10.4-3.4-13.3-16.3-13.9l-8.8-0.4v21.5c0,22.9,0,22.8,5,22.4
			C479.2,65.1,479.3,64.9,479.6,56.4L479.6,56.4z M479.8,34.6c0-5,0-5,3.3-5c4,0,5.7,1.5,5.7,5s-1.7,5-5.7,5
			C479.8,39.6,479.8,39.6,479.8,34.6z M316.8,49.3c0-0.7,1.1-2.9,2.5-4.9c2-3,2.2-3.7,1-3.7c-1.7,0-9.5,3.7-9.5,4.6
			c0,0.3,1,1.8,2.2,3.4C315,51.5,316.8,51.8,316.8,49.3z M375,26.2c41.9-6.8,83.4-8.9,127.3-6.5c17.9,1,48.4,3.9,60.5,5.9
			c5.3,0.8,7,0.7,5.8-0.4c-0.9-0.9-24.3-5.2-36.8-6.9c-23.4-3-41.9-3.9-75.4-3.3c-34.9,0.5-49.6,1.8-72.6,6.3
			c-17,3.3-31.3,7.4-25.7,7.4C359,28.6,366.6,27.5,375,26.2z"/>
	</g>
</g>
</svg>
