<?xml version="1.0" encoding="utf-8"?>
<!-- Generator: Adobe Illustrator 21.0.0, SVG Export Plug-In . SVG Version: 6.00 Build 0)  -->
<svg version="1.1" id="svg2264" xmlns:svg="http://www.w3.org/2000/svg"
	 xmlns="http://www.w3.org/2000/svg" xmlns:xlink="http://www.w3.org/1999/xlink" x="0px" y="0px" viewBox="0 0 1009.7 237.7"
	 style="enable-background:new 0 0 1009.7 237.7;" xml:space="preserve">
<style type="text/css">
	.st0{fill:#231F20;}
</style>
<g id="layer1" transform="translate(2.9476594e-5,-4.0385895e-5)">
	<path id="path2556" class="st0" d="M215.7,0c-24.9-0.2-48.4,12.4-48.4,12.4s-23.7,14.4-32.4,35.9c-0.4,2.1-47.4,93.2-47.4,93.2
		C27.9,124.2-0.9,159.1,0,172.6c14.4,36.1,84.7,10.4,91.7,2.1c3.9-2.1,6.4,0.4,6.4,0.4s17.2,11.5,19.2,12.4
		c1.9,0.9,11.8-0.4,11.8-0.4c7.6-0.6,21.2-15.5,22.9-15.7c2.5,0,5.6,16.6,16.1,16.3c12.6,2.4,26.2-11.8,26.2-11.8
		c1.8-2.5,2.5-0.6,2.5-0.6c-0.3,15.6,12.3,12.8,16.1,12.4c12.4-5.1,42.8-35,39.4-26.2c-1.2,2.4-10.5,19.8-10.5,19.8
		c-1,4.6,2.3,4.3,2.3,4.3l21.9-0.2c3.7-2.2,22.9-43.4,20.6-37.7c6.9-12.5,22.5-16.9,22.5-16.9c1.5-0.4,0.8,1.6,0.8,1.6l-25.6,50.7
		c-0.4,1.3,2.1,2.7,2.1,2.7l22.3-0.4c3-0.3,21.6-38.6,21.6-38.6c5.1-9.7,23.1-15.3,23.1-15.3c3.3-0.6,1,2.7,1,2.7l-17.5,36.7
		c-2.7,16.7,11.3,17.6,17.3,16.9c6-0.9,15.7-4.2,34.8-18.6c3.9-3,4.7,0,4.7,0.6c0.2,20.5,22.7,18.1,22.7,18.1
		c6.7,1.7,34.1,1,56.9-44.5c-8.4,30.9,8.7,39.4,9.3,40.4c0.6,1,9.8,4.2,13.2,3.5c34.8,3.1,49.5-51.1,49.5-51.1
		c7.8-5.9,9.8-7.6,13-9.3c7.8,0.8,9.9,1,13.6,1.4c3,1.1,0.3,3.8-0.6,4.7c-35.6,27.7-20,49.1-18.8,48.7c15.6,21.1,47.9-15.7,54-16.3
		c7.8,31.1,31.5,17.6,32.6,17.7c-2.1,6.1-8.2,21.3-13.4,31.1c-10.9,15.4-28-1.9-28-1.9l-4.3-0.2c-2.1,2.7-0.8,5.8-0.8,5.8
		c4.5,7.2,10.2,17.1,28,19.6c17.9,0.8,28.2-19,28.2-19s25.2-46.4,26.8-52c7.6-6.9,20.9-16.8,30.7-23.9c6.4-1.3-16.1,35.4-17.7,40.6
		c-0.4,3,0.6,3.1,0.6,3.1s17.1,0.9,20.4,0.4c3.3-0.4,19.3-38.4,24.9-45.6c4.9-8.2,20.8-15.9,20.8-15.9c3.4-0.7,2.3,3.3,2.3,3.3
		l-21,42.5c-5.1,17.8,9.2,17.9,11.8,17.7c6.9-0.4,32.6-15.3,32.6-15.3c3.6-2.7,3.5,1.6,3.5,1.6c-0.3,5.7,5.8,15,10.9,13.8
		c18.2,1.7,45.8-28.6,46.6-25.8c0.2,0.6-10.3,21.2-10.3,21.2c0.5,1.6,2.3,2.5,2.3,2.5c0,0,17.7,0.2,21.9,0.2
		c4.2,0,23.2-45.5,27.4-48c8.5-8.8,17.8-9.6,18.1-9.5c3.1-0.1-17.8,33.3-19,40c-4.6,19.3,9.1,19,9.1,19
		c10.9,1.7,37.7-17.3,38.1-15.7c3.1-3.1,3.5,0.6,3.5,0.6v1.4c1.8,15.6,10.9,13.8,10.9,13.8c10.5,2.7,51.3-31.5,51.3-31.5l-6.2-6.8
		l-25.6,18.6c-2.1,1-3.3-1.2-3.3-1.2l28.7-55.3c1.3-1.3-0.6-2.9-0.6-2.9h-25.8c-1.8,1.9-2.9,3.3-2.9,3.3l-23.3,45.4l-25.6,12.6
		c-2.7,0.7-2.1-2.1-2.1-2.1s21.3-41.8,23.1-47.6c1.2-2.7,0.6-7,0.6-7c-7-16.3-35.5,4.8-39.4,4.9c-0.2,0.1,3.5-7.4,3.5-7.4
		c1-2.2-1-2.3-1-2.3l-23.9-0.2c0,0,0.1-1.7-0.8-0.2c-0.9,1.5-16.3,30.3-16.3,30.3l-38.6,29.1c-3.3,0.6-2.5-1.6-2.5-1.6l28.2-54.6
		l0.2-2.3l-27.2-0.6l-22.5,43.3c-1.2,1.3-24.7,14.6-24.7,14.6c-3.6,1-3.7-2.1-3.7-2.1l20.8-40.4c4.7-15.8-12.5-20.4-21-17.3
		c-5.8,2.1-11.1,3.9-11.1,3.9s-1.7,0.4-0.2-1.6c2.5-3.6,28.9-55.7,28.9-55.7c0.6-1.5-0.8-2.5-0.8-2.5l-23.9-0.2
		c-1.9,0.9-2.3,2.3-2.3,2.3l-34,64.5l-28,21c-1.8,1.2-1.9-0.8-1.9-0.8l14-26.6v-2.7l-25.2-0.2l-4.1,3.3c-2.8-6-17.3-5.9-17.7-5.8
		c-30.2-1-47.2,41.9-47.2,41.9c-16.8,14.6-24.6,19.1-30.1,20c-4.6,0.3-6-3.5-6-3.5c-6.4-19.6,33.8-38.1,33.8-38.1
		c1.3-0.7,7.1-18.1,6.4-18.1c-0.7,0-49.4-0.1-49.9-0.2c-2.7-1.1-15.7,11.2-19.6,14c-11.4-33.4-55.5-8.1-61.6,6.8
		c-2.6,0.7-3.8,0.2-5.2,0.2c0.4-11.4-1.1-18.5-8.2-22.1c-3.9-2.1-19.8,0-19.8,0l27-53.8c1.3-1.6-1.2-3.3-1.2-3.3h-24.3
		c-1,0.6-2.3,2.1-2.3,2.1s-46,89-48.7,93.8c-2.7,4.8-36.3,22.7-36.3,22.7c0.3-3.3,21.9-40.9,22.7-48.2c0.9-19-20.8-13-20.8-13
		s-12.3,8.2-23.5,13.8c-2.4-20.8-20.6-13.6-20.6-13.6L301,121.2l3.7-9.7l0.8-3.7l-24.7-0.6c-2.8,2.1-7.8,13.4-7.8,13.4l-7.8,14.4
		l-35.3,26.6c-3.4,1.9-1.6-2.7-1.6-2.7s23.8-46.7,24.3-47c1.9-1.2,0.4-4.1,0.4-4.1l-23.9-0.2c0,0-4.1,6.9-4.9,7.6
		c-11.4-16-48.9-9.5-69.1,37.9c-2.6,3.2-4.6,5.4-6,6c-23.6,27.6-37.1,0.2-37.1,0.2l42.3-80.6c0,0,19.2-43,31.3-55.3
		c30.6-20.7,39.4-1.2,39.4-1.2c2.6,6.1,10.7,28.3-30.9,39c-5.5,0.5-3.7,3.1-3.7,3.1c12.1,10.4,27,9.3,27,9.3c14.7,2.9,54.4-19,40-54
		C246.1,4.9,230.6,0.1,215.7,0z M844.7,54.6c-21.8,0.8-23.1,30.1-0.8,33.2C865.5,88.5,869.7,55.6,844.7,54.6z M993.3,54.6
		c-23.6,0.1-21.9,33.4,0.4,33.2C1016,86.1,1014.1,55.4,993.3,54.6z M213.2,117.1c7,0.2,5.8,8.5,4.5,10.1
		c0.7,2.5-12.2,24.3-12.2,24.3c-14.9,18.7-22.1,15.3-22.1,15.3s-5.1-0.7-1.2-10.7c4.2-7,12.3-25.3,20.8-35.9
		C207.6,117.9,210.9,117.1,213.2,117.1z M447.6,119.2c7.3,0.9,3.7,7.6,3.7,7.6l-20.2,39.8c-6.4,7.9-12.4,5.2-12.4,5.2
		c-3.3-2.4,2.3-11.5,2.3-11.5l19-37.1C443.7,119.2,447.6,119.2,447.6,119.2z M657.9,119.4c5.7-1,8,3.7,8,3.7s0.3,0.8-0.4,4.9
		c-1.6,6.4-19.4,37.1-19.4,37.1c-7.5,7.5-14,6-14,6c-3.7-1.1-2.3-6.6-2.3-6.6s14.4-29.5,21.2-41.9
		C653.8,120.7,656,119.7,657.9,119.4z M520.4,119.6c3.2-0.5,6.2,0.8,5.6,7.4c-3.7,7.9-18.5,37-21.4,41c-0.6,3.4-15.6,9-11.8-3.5
		c0,0,21.1-39.4,21.2-41.2C514.1,122.4,517.2,120.1,520.4,119.6z M45.6,151.9c12.3-0.3,23.5,3.7,23.5,3.7s-2.9,9.6-30.1,14
		c-12.9-0.8-19.6-0.7-19.6-5.4C25.7,155,36,152.2,45.6,151.9z"/>
</g>
</svg>
